<svg aria-roledescription="er" viewBox="-7.3561248779296875 0 718.9891357421875 1085" style="max-width: 718.989px; background-color: white;" xmlns:xlink="http://www.w3.org/1999/xlink" xmlns="http://www.w3.org/2000/svg" width="100%" id="mermaid-1677665627344"><style>#mermaid-1677665627344{font-family:"trebuchet ms",verdana,arial,sans-serif;font-size:16px;fill:#333;}#mermaid-1677665627344 .error-icon{fill:#552222;}#mermaid-1677665627344 .error-text{fill:#552222;stroke:#552222;}#mermaid-1677665627344 .edge-thickness-normal{stroke-width:2px;}#mermaid-1677665627344 .edge-thickness-thick{stroke-width:3.5px;}#mermaid-1677665627344 .edge-pattern-solid{stroke-dasharray:0;}#mermaid-1677665627344 .edge-pattern-dashed{stroke-dasharray:3;}#mermaid-1677665627344 .edge-pattern-dotted{stroke-dasharray:2;}#mermaid-1677665627344 .marker{fill:#333333;stroke:#333333;}#mermaid-1677665627344 .marker.cross{stroke:#333333;}#mermaid-1677665627344 svg{font-family:"trebuchet ms",verdana,arial,sans-serif;font-size:16px;}#mermaid-1677665627344 .entityBox{fill:#ECECFF;stroke:#9370DB;}#mermaid-1677665627344 .attributeBoxOdd{fill:#ffffff;stroke:#9370DB;}#mermaid-1677665627344 .attributeBoxEven{fill:#f2f2f2;stroke:#9370DB;}#mermaid-1677665627344 .relationshipLabelBox{fill:hsl(80, 100%, 96.2745098039%);opacity:0.7;background-color:hsl(80, 100%, 96.2745098039%);}#mermaid-1677665627344 .relationshipLabelBox rect{opacity:0.5;}#mermaid-1677665627344 .relationshipLine{stroke:#333333;}#mermaid-1677665627344 .entityTitleText{text-anchor:middle;font-size:18px;fill:#333;}#mermaid-1677665627344 :root{--mermaid-font-family:"trebuchet ms",verdana,arial,sans-serif;}</style><g/><defs><marker orient="auto" markerHeight="18" markerWidth="18" refY="9" refX="0" id="ONLY_ONE_START"><path d="M9,0 L9,18 M15,0 L15,18" fill="none" stroke="gray"/></marker></defs><defs><marker orient="auto" markerHeight="18" markerWidth="18" refY="9" refX="18" id="ONLY_ONE_END"><path d="M3,0 L3,18 M9,0 L9,18" fill="none" stroke="gray"/></marker></defs><defs><marker orient="auto" markerHeight="18" markerWidth="30" refY="9" refX="0" id="ZERO_OR_ONE_START"><circle r="6" cy="9" cx="21" fill="white" stroke="gray"/><path d="M9,0 L9,18" fill="none" stroke="gray"/></marker></defs><defs><marker orient="auto" markerHeight="18" markerWidth="30" refY="9" refX="30" id="ZERO_OR_ONE_END"><circle r="6" cy="9" cx="9" fill="white" stroke="gray"/><path d="M21,0 L21,18" fill="none" stroke="gray"/></marker></defs><defs><marker orient="auto" markerHeight="36" markerWidth="45" refY="18" refX="18" id="ONE_OR_MORE_START"><path d="M0,18 Q 18,0 36,18 Q 18,36 0,18 M42,9 L42,27" fill="none" stroke="gray"/></marker></defs><defs><marker orient="auto" markerHeight="36" markerWidth="45" refY="18" refX="27" id="ONE_OR_MORE_END"><path d="M3,9 L3,27 M9,18 Q27,0 45,18 Q27,36 9,18" fill="none" stroke="gray"/></marker></defs><defs><marker orient="auto" markerHeight="36" markerWidth="57" refY="18" refX="18" id="ZERO_OR_MORE_START"><circle r="6" cy="18" cx="48" fill="white" stroke="gray"/><path d="M0,18 Q18,0 36,18 Q18,36 0,18" fill="none" stroke="gray"/></marker></defs><defs><marker orient="auto" markerHeight="36" markerWidth="57" refY="18" refX="39" id="ZERO_OR_MORE_END"><circle r="6" cy="18" cx="9" fill="white" stroke="gray"/><path d="M21,18 Q39,0 57,18 Q39,36 21,18" fill="none" stroke="gray"/></marker></defs><path style="stroke: gray; fill: none;" marker-start="url(#ONLY_ONE_START)" marker-end="url(#ZERO_OR_MORE_END)" d="M201.0121841430664,144.77898414611815L208.9046173095703,153.8158201217651C216.79705047607422,162.8526560974121,232.58191680908203,180.92632804870604,240.47434997558594,198.29649735768635C248.36678314208984,215.66666666666666,248.36678314208984,232.33333333333334,248.36678314208984,240.66666666666666L248.36678314208984,249" class="er relationshipLine"/><path style="stroke: gray; fill: none;" marker-start="url(#ONLY_ONE_START)" marker-end="url(#ZERO_OR_MORE_END)" d="M95.72138214111328,132.2940877728804L83.47523880004883,143.41173981073368C71.22909545898438,154.52939184858693,46.73680877685547,176.76469592429348,34.490665435791016,205.21568129548007C22.244522094726562,233.66666666666666,22.244522094726562,268.3333333333333,22.244522094726562,303C22.244522094726562,337.6666666666667,22.244522094726562,372.3333333333333,25.577855428059895,398C28.91118876139323,423.6666666666667,35.5778554280599,440.3333333333333,38.91118876139323,448.6666666666667L42.24452209472656,457" class="er relationshipLine"/><path style="stroke: gray; fill: none;" marker-start="url(#ONLY_ONE_START)" marker-end="url(#ONE_OR_MORE_END)" d="M249.6247507242056,357L249.81888152391483,365.3333333333333C250.01301232362403,373.6666666666667,250.40127392304248,390.3333333333333,250.5954047227517,419.5C250.78953552246094,448.6666666666667,250.78953552246094,490.3333333333333,250.78953552246094,532C250.78953552246094,573.6666666666666,250.78953552246094,615.3333333333334,250.78953552246094,649.75C250.78953552246094,684.1666666666666,250.78953552246094,711.3333333333334,250.78953552246094,724.9166666666666L250.78953552246094,738.5" class="er relationshipLine"/><path style="stroke: gray; fill: none;" marker-start="url(#ONE_OR_MORE_START)" marker-end="url(#ONLY_ONE_END)" d="M190.69312286376953,350.55750982527053L179.2850227355957,359.96459152105876C167.87692260742188,369.371673216847,145.06072235107422,388.1858366084235,130.31928888956705,405.926251637545C115.57785542805989,423.6666666666667,108.91118876139323,440.3333333333333,105.57785542805989,448.6666666666667L102.24452209472656,457" class="er relationshipLine"/><path style="stroke: gray; fill: none;" marker-start="url(#ONE_OR_MORE_START)" marker-end="url(#ZERO_OR_MORE_END)" d="M306.04044342041016,321.47658377077016L350.5332323710124,335.7304864756418C395.02602132161456,349.98438918051346,484.01159922281903,378.4921945902567,528.5043881734213,401.0794306284617C572.9971771240234,423.6666666666667,572.9971771240234,440.3333333333333,572.9971771240234,448.6666666666667L572.9971771240234,457" class="er relationshipLine"/><path style="stroke: gray; fill: none;" marker-start="url(#ONE_OR_MORE_START)" marker-end="url(#ZERO_OR_MORE_END)" d="M250.78953552246094,825.5L250.78953552246094,839.0833333333334C250.78953552246094,852.6666666666666,250.78953552246094,879.8333333333334,282.3549944559733,906.9469250018046C313.92045338948566,934.0605166702761,377.05137125651044,961.1210333405521,408.61683019002277,974.6512916756901L440.18228912353516,988.1815500108281" class="er relationshipLine"/><path style="stroke: gray; fill: none;" marker-start="url(#ONLY_ONE_START)" marker-end="url(#ONE_OR_MORE_END)" d="M464.579833984375,857L464.579833984375,865.3333333333334C464.579833984375,873.6666666666666,464.579833984375,890.3333333333334,466.8904774250129,907C469.2011208656507,923.6666666666666,473.82240774692633,940.3333333333334,476.1330511875642,948.6666666666666L478.443694628202,957" class="er relationshipLine"/><path style="stroke: gray; fill: none;" marker-start="url(#ONLY_ONE_START)" marker-end="url(#ONE_OR_MORE_END)" d="M603.4433868408203,607L606.8262990315756,615.3333333333334C610.2092112223307,623.6666666666666,616.9750356038411,640.3333333333334,620.3579477945964,669.5C623.7408599853516,698.6666666666666,623.7408599853516,740.3333333333334,623.7408599853516,782C623.7408599853516,823.6666666666666,623.7408599853516,865.3333333333334,610.8925565083822,896.4197401866569C598.0442530314127,927.5061470399805,572.347646077474,948.0122940799611,559.4993426005045,958.2653675999513L546.6510391235352,968.5184411199417" class="er relationshipLine"/><path style="stroke: gray; fill: none;" marker-start="url(#ONLY_ONE_START)" marker-end="url(#ONE_OR_MORE_END)" d="M507.9467712402344,607L500.7189483642578,615.3333333333334C493.4911254882813,623.6666666666666,479.0354797363281,640.3333333333334,471.8076568603515,657C464.579833984375,673.6666666666666,464.579833984375,690.3333333333334,464.579833984375,698.6666666666666L464.579833984375,707" class="er relationshipLine"/><g transform="translate(95.72138214111328,20 )" id="entity-CUSTOMER-167ac420-d330-4b94-a71b-b4239a5e1c14"><rect height="129" width="105.29080200195312" y="0" x="0" class="er entityBox"/><text style="dominant-baseline: middle; text-anchor: middle; font-size: 12px;" transform="translate(52.64540100097656,12)" y="0" x="0" id="text-entity-CUSTOMER-167ac420-d330-4b94-a71b-b4239a5e1c14" class="er entityLabel">CUSTOMER</text><rect height="21" width="35.245819091796875" y="24" x="0" class="er attributeBoxOdd"/><text style="dominant-baseline: middle; font-size: 10.2px;" transform="translate(5,34.5)" y="0" x="0" id="text-entity-CUSTOMER-167ac420-d330-4b94-a71b-b4239a5e1c14-attr-1-type" class="er entityLabel">int</text><rect height="21" width="46.25" y="24" x="35.245819091796875" class="er attributeBoxOdd"/><text style="dominant-baseline: middle; font-size: 10.2px;" transform="translate(40.245819091796875,34.5)" y="0" x="0" id="text-entity-CUSTOMER-167ac420-d330-4b94-a71b-b4239a5e1c14-attr-1-name" class="er entityLabel">id</text><rect height="21" width="23.79498291015625" y="24" x="81.49581909179688" class="er attributeBoxOdd"/><text style="dominant-baseline: middle; font-size: 10.2px;" transform="translate(86.49581909179688,34.5)" y="0" x="0" id="text-entity-CUSTOMER-167ac420-d330-4b94-a71b-b4239a5e1c14-attr-1-key" class="er entityLabel">PK</text><rect height="21" width="35.245819091796875" y="45" x="0" class="er attributeBoxEven"/><text style="dominant-baseline: middle; font-size: 10.2px;" transform="translate(5,55.5)" y="0" x="0" id="text-entity-CUSTOMER-167ac420-d330-4b94-a71b-b4239a5e1c14-attr-2-type" class="er entityLabel">string</text><rect height="21" width="46.25" y="45" x="35.245819091796875" class="er attributeBoxEven"/><text style="dominant-baseline: middle; font-size: 10.2px;" transform="translate(40.245819091796875,55.5)" y="0" x="0" id="text-entity-CUSTOMER-167ac420-d330-4b94-a71b-b4239a5e1c14-attr-2-name" class="er entityLabel">name</text><rect height="21" width="23.79498291015625" y="45" x="81.49581909179688" class="er attributeBoxEven"/><text style="dominant-baseline: middle; font-size: 10.2px;" transform="translate(86.49581909179688,55.5)" y="0" x="0" id="text-entity-CUSTOMER-167ac420-d330-4b94-a71b-b4239a5e1c14-attr-2-key" class="er entityLabel"/><rect height="21" width="35.245819091796875" y="66" x="0" class="er attributeBoxOdd"/><text style="dominant-baseline: middle; font-size: 10.2px;" transform="translate(5,76.5)" y="0" x="0" id="text-entity-CUSTOMER-167ac420-d330-4b94-a71b-b4239a5e1c14-attr-3-type" class="er entityLabel">string</text><rect height="21" width="46.25" y="66" x="35.245819091796875" class="er attributeBoxOdd"/><text style="dominant-baseline: middle; font-size: 10.2px;" transform="translate(40.245819091796875,76.5)" y="0" x="0" id="text-entity-CUSTOMER-167ac420-d330-4b94-a71b-b4239a5e1c14-attr-3-name" class="er entityLabel">email</text><rect height="21" width="23.79498291015625" y="66" x="81.49581909179688" class="er attributeBoxOdd"/><text style="dominant-baseline: middle; font-size: 10.2px;" transform="translate(86.49581909179688,76.5)" y="0" x="0" id="text-entity-CUSTOMER-167ac420-d330-4b94-a71b-b4239a5e1c14-attr-3-key" class="er entityLabel"/><rect height="21" width="35.245819091796875" y="87" x="0" class="er attributeBoxEven"/><text style="dominant-baseline: middle; font-size: 10.2px;" transform="translate(5,97.5)" y="0" x="0" id="text-entity-CUSTOMER-167ac420-d330-4b94-a71b-b4239a5e1c14-attr-4-type" class="er entityLabel">string</text><rect height="21" width="46.25" y="87" x="35.245819091796875" class="er attributeBoxEven"/><text style="dominant-baseline: middle; font-size: 10.2px;" transform="translate(40.245819091796875,97.5)" y="0" x="0" id="text-entity-CUSTOMER-167ac420-d330-4b94-a71b-b4239a5e1c14-attr-4-name" class="er entityLabel">tel</text><rect height="21" width="23.79498291015625" y="87" x="81.49581909179688" class="er attributeBoxEven"/><text style="dominant-baseline: middle; font-size: 10.2px;" transform="translate(86.49581909179688,97.5)" y="0" x="0" id="text-entity-CUSTOMER-167ac420-d330-4b94-a71b-b4239a5e1c14-attr-4-key" class="er entityLabel"/><rect height="21" width="35.245819091796875" y="108" x="0" class="er attributeBoxOdd"/><text style="dominant-baseline: middle; font-size: 10.2px;" transform="translate(5,118.5)" y="0" x="0" id="text-entity-CUSTOMER-167ac420-d330-4b94-a71b-b4239a5e1c14-attr-5-type" class="er entityLabel">string</text><rect height="21" width="46.25" y="108" x="35.245819091796875" class="er attributeBoxOdd"/><text style="dominant-baseline: middle; font-size: 10.2px;" transform="translate(40.245819091796875,118.5)" y="0" x="0" id="text-entity-CUSTOMER-167ac420-d330-4b94-a71b-b4239a5e1c14-attr-5-name" class="er entityLabel">address</text><rect height="21" width="23.79498291015625" y="108" x="81.49581909179688" class="er attributeBoxOdd"/><text style="dominant-baseline: middle; font-size: 10.2px;" transform="translate(86.49581909179688,118.5)" y="0" x="0" id="text-entity-CUSTOMER-167ac420-d330-4b94-a71b-b4239a5e1c14-attr-5-key" class="er entityLabel">FK</text></g><g transform="translate(20,457 )" id="entity-ADDRESS-dce5c576-0be3-4700-9e5e-9173ce2c4d1a"><rect height="150" width="104.48904418945312" y="0" x="0" class="er entityBox"/><text style="dominant-baseline: middle; text-anchor: middle; font-size: 12px;" transform="translate(52.24452209472656,12)" y="0" x="0" id="text-entity-ADDRESS-dce5c576-0be3-4700-9e5e-9173ce2c4d1a" class="er entityLabel">ADDRESS</text><rect height="21" width="35.245819091796875" y="24" x="0" class="er attributeBoxOdd"/><text style="dominant-baseline: middle; font-size: 10.2px;" transform="translate(5,34.5)" y="0" x="0" id="text-entity-ADDRESS-dce5c576-0be3-4700-9e5e-9173ce2c4d1a-attr-1-type" class="er entityLabel">int</text><rect height="21" width="45.4482421875" y="24" x="35.245819091796875" class="er attributeBoxOdd"/><text style="dominant-baseline: middle; font-size: 10.2px;" transform="translate(40.245819091796875,34.5)" y="0" x="0" id="text-entity-ADDRESS-dce5c576-0be3-4700-9e5e-9173ce2c4d1a-attr-1-name" class="er entityLabel">id</text><rect height="21" width="23.79498291015625" y="24" x="80.69406127929688" class="er attributeBoxOdd"/><text style="dominant-baseline: middle; font-size: 10.2px;" transform="translate(85.69406127929688,34.5)" y="0" x="0" id="text-entity-ADDRESS-dce5c576-0be3-4700-9e5e-9173ce2c4d1a-attr-1-key" class="er entityLabel">PK</text><rect height="21" width="35.245819091796875" y="45" x="0" class="er attributeBoxEven"/><text style="dominant-baseline: middle; font-size: 10.2px;" transform="translate(5,55.5)" y="0" x="0" id="text-entity-ADDRESS-dce5c576-0be3-4700-9e5e-9173ce2c4d1a-attr-2-type" class="er entityLabel">int</text><rect height="21" width="45.4482421875" y="45" x="35.245819091796875" class="er attributeBoxEven"/><text style="dominant-baseline: middle; font-size: 10.2px;" transform="translate(40.245819091796875,55.5)" y="0" x="0" id="text-entity-ADDRESS-dce5c576-0be3-4700-9e5e-9173ce2c4d1a-attr-2-name" class="er entityLabel">number</text><rect height="21" width="23.79498291015625" y="45" x="80.69406127929688" class="er attributeBoxEven"/><text style="dominant-baseline: middle; font-size: 10.2px;" transform="translate(85.69406127929688,55.5)" y="0" x="0" id="text-entity-ADDRESS-dce5c576-0be3-4700-9e5e-9173ce2c4d1a-attr-2-key" class="er entityLabel"/><rect height="21" width="35.245819091796875" y="66" x="0" class="er attributeBoxOdd"/><text style="dominant-baseline: middle; font-size: 10.2px;" transform="translate(5,76.5)" y="0" x="0" id="text-entity-ADDRESS-dce5c576-0be3-4700-9e5e-9173ce2c4d1a-attr-3-type" class="er entityLabel">string</text><rect height="21" width="45.4482421875" y="66" x="35.245819091796875" class="er attributeBoxOdd"/><text style="dominant-baseline: middle; font-size: 10.2px;" transform="translate(40.245819091796875,76.5)" y="0" x="0" id="text-entity-ADDRESS-dce5c576-0be3-4700-9e5e-9173ce2c4d1a-attr-3-name" class="er entityLabel">street</text><rect height="21" width="23.79498291015625" y="66" x="80.69406127929688" class="er attributeBoxOdd"/><text style="dominant-baseline: middle; font-size: 10.2px;" transform="translate(85.69406127929688,76.5)" y="0" x="0" id="text-entity-ADDRESS-dce5c576-0be3-4700-9e5e-9173ce2c4d1a-attr-3-key" class="er entityLabel"/><rect height="21" width="35.245819091796875" y="87" x="0" class="er attributeBoxEven"/><text style="dominant-baseline: middle; font-size: 10.2px;" transform="translate(5,97.5)" y="0" x="0" id="text-entity-ADDRESS-dce5c576-0be3-4700-9e5e-9173ce2c4d1a-attr-4-type" class="er entityLabel">string</text><rect height="21" width="45.4482421875" y="87" x="35.245819091796875" class="er attributeBoxEven"/><text style="dominant-baseline: middle; font-size: 10.2px;" transform="translate(40.245819091796875,97.5)" y="0" x="0" id="text-entity-ADDRESS-dce5c576-0be3-4700-9e5e-9173ce2c4d1a-attr-4-name" class="er entityLabel">city</text><rect height="21" width="23.79498291015625" y="87" x="80.69406127929688" class="er attributeBoxEven"/><text style="dominant-baseline: middle; font-size: 10.2px;" transform="translate(85.69406127929688,97.5)" y="0" x="0" id="text-entity-ADDRESS-dce5c576-0be3-4700-9e5e-9173ce2c4d1a-attr-4-key" class="er entityLabel"/><rect height="21" width="35.245819091796875" y="108" x="0" class="er attributeBoxOdd"/><text style="dominant-baseline: middle; font-size: 10.2px;" transform="translate(5,118.5)" y="0" x="0" id="text-entity-ADDRESS-dce5c576-0be3-4700-9e5e-9173ce2c4d1a-attr-5-type" class="er entityLabel">int</text><rect height="21" width="45.4482421875" y="108" x="35.245819091796875" class="er attributeBoxOdd"/><text style="dominant-baseline: middle; font-size: 10.2px;" transform="translate(40.245819091796875,118.5)" y="0" x="0" id="text-entity-ADDRESS-dce5c576-0be3-4700-9e5e-9173ce2c4d1a-attr-5-name" class="er entityLabel">zipcode</text><rect height="21" width="23.79498291015625" y="108" x="80.69406127929688" class="er attributeBoxOdd"/><text style="dominant-baseline: middle; font-size: 10.2px;" transform="translate(85.69406127929688,118.5)" y="0" x="0" id="text-entity-ADDRESS-dce5c576-0be3-4700-9e5e-9173ce2c4d1a-attr-5-key" class="er entityLabel"/><rect height="21" width="35.245819091796875" y="129" x="0" class="er attributeBoxEven"/><text style="dominant-baseline: middle; font-size: 10.2px;" transform="translate(5,139.5)" y="0" x="0" id="text-entity-ADDRESS-dce5c576-0be3-4700-9e5e-9173ce2c4d1a-attr-6-type" class="er entityLabel">string</text><rect height="21" width="45.4482421875" y="129" x="35.245819091796875" class="er attributeBoxEven"/><text style="dominant-baseline: middle; font-size: 10.2px;" transform="translate(40.245819091796875,139.5)" y="0" x="0" id="text-entity-ADDRESS-dce5c576-0be3-4700-9e5e-9173ce2c4d1a-attr-6-name" class="er entityLabel">country</text><rect height="21" width="23.79498291015625" y="129" x="80.69406127929688" class="er attributeBoxEven"/><text style="dominant-baseline: middle; font-size: 10.2px;" transform="translate(85.69406127929688,139.5)" y="0" x="0" id="text-entity-ADDRESS-dce5c576-0be3-4700-9e5e-9173ce2c4d1a-attr-6-key" class="er entityLabel"/></g><g transform="translate(190.69312286376953,249 )" id="entity-ORDER-df77245f-35b8-4578-a04f-7675301f50e2"><rect height="108" width="115.34732055664062" y="0" x="0" class="er entityBox"/><text style="dominant-baseline: middle; text-anchor: middle; font-size: 12px;" transform="translate(57.67366027832031,12)" y="0" x="0" id="text-entity-ORDER-df77245f-35b8-4578-a04f-7675301f50e2" class="er entityLabel">ORDER</text><rect height="21" width="20.92913818359375" y="24" x="0" class="er attributeBoxOdd"/><text style="dominant-baseline: middle; font-size: 10.2px;" transform="translate(5,34.5)" y="0" x="0" id="text-entity-ORDER-df77245f-35b8-4578-a04f-7675301f50e2-attr-1-type" class="er entityLabel">int</text><rect height="21" width="70.62319946289062" y="24" x="20.92913818359375" class="er attributeBoxOdd"/><text style="dominant-baseline: middle; font-size: 10.2px;" transform="translate(25.92913818359375,34.5)" y="0" x="0" id="text-entity-ORDER-df77245f-35b8-4578-a04f-7675301f50e2-attr-1-name" class="er entityLabel">id</text><rect height="21" width="23.79498291015625" y="24" x="91.55233764648438" class="er attributeBoxOdd"/><text style="dominant-baseline: middle; font-size: 10.2px;" transform="translate(96.55233764648438,34.5)" y="0" x="0" id="text-entity-ORDER-df77245f-35b8-4578-a04f-7675301f50e2-attr-1-key" class="er entityLabel">PK</text><rect height="21" width="20.92913818359375" y="45" x="0" class="er attributeBoxEven"/><text style="dominant-baseline: middle; font-size: 10.2px;" transform="translate(5,55.5)" y="0" x="0" id="text-entity-ORDER-df77245f-35b8-4578-a04f-7675301f50e2-attr-2-type" class="er entityLabel">int</text><rect height="21" width="70.62319946289062" y="45" x="20.92913818359375" class="er attributeBoxEven"/><text style="dominant-baseline: middle; font-size: 10.2px;" transform="translate(25.92913818359375,55.5)" y="0" x="0" id="text-entity-ORDER-df77245f-35b8-4578-a04f-7675301f50e2-attr-2-name" class="er entityLabel">orderNumber</text><rect height="21" width="23.79498291015625" y="45" x="91.55233764648438" class="er attributeBoxEven"/><text style="dominant-baseline: middle; font-size: 10.2px;" transform="translate(96.55233764648438,55.5)" y="0" x="0" id="text-entity-ORDER-df77245f-35b8-4578-a04f-7675301f50e2-attr-2-key" class="er entityLabel"/><rect height="21" width="20.92913818359375" y="66" x="0" class="er attributeBoxOdd"/><text style="dominant-baseline: middle; font-size: 10.2px;" transform="translate(5,76.5)" y="0" x="0" id="text-entity-ORDER-df77245f-35b8-4578-a04f-7675301f50e2-attr-3-type" class="er entityLabel">int</text><rect height="21" width="70.62319946289062" y="66" x="20.92913818359375" class="er attributeBoxOdd"/><text style="dominant-baseline: middle; font-size: 10.2px;" transform="translate(25.92913818359375,76.5)" y="0" x="0" id="text-entity-ORDER-df77245f-35b8-4578-a04f-7675301f50e2-attr-3-name" class="er entityLabel">addressId</text><rect height="21" width="23.79498291015625" y="66" x="91.55233764648438" class="er attributeBoxOdd"/><text style="dominant-baseline: middle; font-size: 10.2px;" transform="translate(96.55233764648438,76.5)" y="0" x="0" id="text-entity-ORDER-df77245f-35b8-4578-a04f-7675301f50e2-attr-3-key" class="er entityLabel">FK</text><rect height="21" width="20.92913818359375" y="87" x="0" class="er attributeBoxEven"/><text style="dominant-baseline: middle; font-size: 10.2px;" transform="translate(5,97.5)" y="0" x="0" id="text-entity-ORDER-df77245f-35b8-4578-a04f-7675301f50e2-attr-4-type" class="er entityLabel">int</text><rect height="21" width="70.62319946289062" y="87" x="20.92913818359375" class="er attributeBoxEven"/><text style="dominant-baseline: middle; font-size: 10.2px;" transform="translate(25.92913818359375,97.5)" y="0" x="0" id="text-entity-ORDER-df77245f-35b8-4578-a04f-7675301f50e2-attr-4-name" class="er entityLabel">deliveredBy</text><rect height="21" width="23.79498291015625" y="87" x="91.55233764648438" class="er attributeBoxEven"/><text style="dominant-baseline: middle; font-size: 10.2px;" transform="translate(96.55233764648438,97.5)" y="0" x="0" id="text-entity-ORDER-df77245f-35b8-4578-a04f-7675301f50e2-attr-4-key" class="er entityLabel">FK</text></g><g transform="translate(196.16026306152344,738.5 )" id="entity-ORDERITEM-19bc920c-3a8f-40b2-94c3-9a7f7f24c949"><rect height="87" width="109.258544921875" y="0" x="0" class="er entityBox"/><text style="dominant-baseline: middle; text-anchor: middle; font-size: 12px;" transform="translate(54.6292724609375,12)" y="0" x="0" id="text-entity-ORDERITEM-19bc920c-3a8f-40b2-94c3-9a7f7f24c949" class="er entityLabel">ORDER_ITEM</text><rect height="21" width="20.92913818359375" y="24" x="0" class="er attributeBoxOdd"/><text style="dominant-baseline: middle; font-size: 10.2px;" transform="translate(5,34.5)" y="0" x="0" id="text-entity-ORDERITEM-19bc920c-3a8f-40b2-94c3-9a7f7f24c949-attr-1-type" class="er entityLabel">int</text><rect height="21" width="64.534423828125" y="24" x="20.92913818359375" class="er attributeBoxOdd"/><text style="dominant-baseline: middle; font-size: 10.2px;" transform="translate(25.92913818359375,34.5)" y="0" x="0" id="text-entity-ORDERITEM-19bc920c-3a8f-40b2-94c3-9a7f7f24c949-attr-1-name" class="er entityLabel">id</text><rect height="21" width="23.79498291015625" y="24" x="85.46356201171875" class="er attributeBoxOdd"/><text style="dominant-baseline: middle; font-size: 10.2px;" transform="translate(90.46356201171875,34.5)" y="0" x="0" id="text-entity-ORDERITEM-19bc920c-3a8f-40b2-94c3-9a7f7f24c949-attr-1-key" class="er entityLabel">PK</text><rect height="21" width="20.92913818359375" y="45" x="0" class="er attributeBoxEven"/><text style="dominant-baseline: middle; font-size: 10.2px;" transform="translate(5,55.5)" y="0" x="0" id="text-entity-ORDERITEM-19bc920c-3a8f-40b2-94c3-9a7f7f24c949-attr-2-type" class="er entityLabel">int</text><rect height="21" width="64.534423828125" y="45" x="20.92913818359375" class="er attributeBoxEven"/><text style="dominant-baseline: middle; font-size: 10.2px;" transform="translate(25.92913818359375,55.5)" y="0" x="0" id="text-entity-ORDERITEM-19bc920c-3a8f-40b2-94c3-9a7f7f24c949-attr-2-name" class="er entityLabel">dishId</text><rect height="21" width="23.79498291015625" y="45" x="85.46356201171875" class="er attributeBoxEven"/><text style="dominant-baseline: middle; font-size: 10.2px;" transform="translate(90.46356201171875,55.5)" y="0" x="0" id="text-entity-ORDERITEM-19bc920c-3a8f-40b2-94c3-9a7f7f24c949-attr-2-key" class="er entityLabel">FK</text><rect height="21" width="20.92913818359375" y="66" x="0" class="er attributeBoxOdd"/><text style="dominant-baseline: middle; font-size: 10.2px;" transform="translate(5,76.5)" y="0" x="0" id="text-entity-ORDERITEM-19bc920c-3a8f-40b2-94c3-9a7f7f24c949-attr-3-type" class="er entityLabel">int</text><rect height="21" width="64.534423828125" y="66" x="20.92913818359375" class="er attributeBoxOdd"/><text style="dominant-baseline: middle; font-size: 10.2px;" transform="translate(25.92913818359375,76.5)" y="0" x="0" id="text-entity-ORDERITEM-19bc920c-3a8f-40b2-94c3-9a7f7f24c949-attr-3-name" class="er entityLabel">totalAmount</text><rect height="21" width="23.79498291015625" y="66" x="85.46356201171875" class="er attributeBoxOdd"/><text style="dominant-baseline: middle; font-size: 10.2px;" transform="translate(90.46356201171875,76.5)" y="0" x="0" id="text-entity-ORDERITEM-19bc920c-3a8f-40b2-94c3-9a7f7f24c949-attr-3-key" class="er entityLabel"/></g><g transform="translate(454.3613739013672,457 )" id="entity-STAFF-4e3104e1-29b4-446e-9cb9-225d11e8cc73"><rect height="150" width="237.2716064453125" y="0" x="0" class="er entityBox"/><text style="dominant-baseline: middle; text-anchor: middle; font-size: 12px;" transform="translate(118.63580322265625,12)" y="0" x="0" id="text-entity-STAFF-4e3104e1-29b4-446e-9cb9-225d11e8cc73" class="er entityLabel">STAFF</text><rect height="21" width="35.245819091796875" y="24" x="0" class="er attributeBoxOdd"/><text style="dominant-baseline: middle; font-size: 10.2px;" transform="translate(5,34.5)" y="0" x="0" id="text-entity-STAFF-4e3104e1-29b4-446e-9cb9-225d11e8cc73-attr-1-type" class="er entityLabel">int</text><rect height="21" width="53.93450927734375" y="24" x="35.245819091796875" class="er attributeBoxOdd"/><text style="dominant-baseline: middle; font-size: 10.2px;" transform="translate(40.245819091796875,34.5)" y="0" x="0" id="text-entity-STAFF-4e3104e1-29b4-446e-9cb9-225d11e8cc73-attr-1-name" class="er entityLabel">id</text><rect height="21" width="23.79498291015625" y="24" x="89.18032836914062" class="er attributeBoxOdd"/><text style="dominant-baseline: middle; font-size: 10.2px;" transform="translate(94.18032836914062,34.5)" y="0" x="0" id="text-entity-STAFF-4e3104e1-29b4-446e-9cb9-225d11e8cc73-attr-1-key" class="er entityLabel">PK</text><rect height="21" width="124.29629516601562" y="24" x="112.97531127929688" class="er attributeBoxOdd"/><text style="dominant-baseline: middle; font-size: 10.2px;" transform="translate(117.97531127929688,34.5)" y="0" x="0" id="text-entity-STAFF-4e3104e1-29b4-446e-9cb9-225d11e8cc73-attr-1-comment" class="er entityLabel"/><rect height="21" width="35.245819091796875" y="45" x="0" class="er attributeBoxEven"/><text style="dominant-baseline: middle; font-size: 10.2px;" transform="translate(5,55.5)" y="0" x="0" id="text-entity-STAFF-4e3104e1-29b4-446e-9cb9-225d11e8cc73-attr-2-type" class="er entityLabel">string</text><rect height="21" width="53.93450927734375" y="45" x="35.245819091796875" class="er attributeBoxEven"/><text style="dominant-baseline: middle; font-size: 10.2px;" transform="translate(40.245819091796875,55.5)" y="0" x="0" id="text-entity-STAFF-4e3104e1-29b4-446e-9cb9-225d11e8cc73-attr-2-name" class="er entityLabel">name</text><rect height="21" width="23.79498291015625" y="45" x="89.18032836914062" class="er attributeBoxEven"/><text style="dominant-baseline: middle; font-size: 10.2px;" transform="translate(94.18032836914062,55.5)" y="0" x="0" id="text-entity-STAFF-4e3104e1-29b4-446e-9cb9-225d11e8cc73-attr-2-key" class="er entityLabel"/><rect height="21" width="124.29629516601562" y="45" x="112.97531127929688" class="er attributeBoxEven"/><text style="dominant-baseline: middle; font-size: 10.2px;" transform="translate(117.97531127929688,55.5)" y="0" x="0" id="text-entity-STAFF-4e3104e1-29b4-446e-9cb9-225d11e8cc73-attr-2-comment" class="er entityLabel"/><rect height="21" width="35.245819091796875" y="66" x="0" class="er attributeBoxOdd"/><text style="dominant-baseline: middle; font-size: 10.2px;" transform="translate(5,76.5)" y="0" x="0" id="text-entity-STAFF-4e3104e1-29b4-446e-9cb9-225d11e8cc73-attr-3-type" class="er entityLabel">string</text><rect height="21" width="53.93450927734375" y="66" x="35.245819091796875" class="er attributeBoxOdd"/><text style="dominant-baseline: middle; font-size: 10.2px;" transform="translate(40.245819091796875,76.5)" y="0" x="0" id="text-entity-STAFF-4e3104e1-29b4-446e-9cb9-225d11e8cc73-attr-3-name" class="er entityLabel">email</text><rect height="21" width="23.79498291015625" y="66" x="89.18032836914062" class="er attributeBoxOdd"/><text style="dominant-baseline: middle; font-size: 10.2px;" transform="translate(94.18032836914062,76.5)" y="0" x="0" id="text-entity-STAFF-4e3104e1-29b4-446e-9cb9-225d11e8cc73-attr-3-key" class="er entityLabel"/><rect height="21" width="124.29629516601562" y="66" x="112.97531127929688" class="er attributeBoxOdd"/><text style="dominant-baseline: middle; font-size: 10.2px;" transform="translate(117.97531127929688,76.5)" y="0" x="0" id="text-entity-STAFF-4e3104e1-29b4-446e-9cb9-225d11e8cc73-attr-3-comment" class="er entityLabel"/><rect height="21" width="35.245819091796875" y="87" x="0" class="er attributeBoxEven"/><text style="dominant-baseline: middle; font-size: 10.2px;" transform="translate(5,97.5)" y="0" x="0" id="text-entity-STAFF-4e3104e1-29b4-446e-9cb9-225d11e8cc73-attr-4-type" class="er entityLabel">string</text><rect height="21" width="53.93450927734375" y="87" x="35.245819091796875" class="er attributeBoxEven"/><text style="dominant-baseline: middle; font-size: 10.2px;" transform="translate(40.245819091796875,97.5)" y="0" x="0" id="text-entity-STAFF-4e3104e1-29b4-446e-9cb9-225d11e8cc73-attr-4-name" class="er entityLabel">tel</text><rect height="21" width="23.79498291015625" y="87" x="89.18032836914062" class="er attributeBoxEven"/><text style="dominant-baseline: middle; font-size: 10.2px;" transform="translate(94.18032836914062,97.5)" y="0" x="0" id="text-entity-STAFF-4e3104e1-29b4-446e-9cb9-225d11e8cc73-attr-4-key" class="er entityLabel"/><rect height="21" width="124.29629516601562" y="87" x="112.97531127929688" class="er attributeBoxEven"/><text style="dominant-baseline: middle; font-size: 10.2px;" transform="translate(117.97531127929688,97.5)" y="0" x="0" id="text-entity-STAFF-4e3104e1-29b4-446e-9cb9-225d11e8cc73-attr-4-comment" class="er entityLabel"/><rect height="21" width="35.245819091796875" y="108" x="0" class="er attributeBoxOdd"/><text style="dominant-baseline: middle; font-size: 10.2px;" transform="translate(5,118.5)" y="0" x="0" id="text-entity-STAFF-4e3104e1-29b4-446e-9cb9-225d11e8cc73-attr-5-type" class="er entityLabel">string</text><rect height="21" width="53.93450927734375" y="108" x="35.245819091796875" class="er attributeBoxOdd"/><text style="dominant-baseline: middle; font-size: 10.2px;" transform="translate(40.245819091796875,118.5)" y="0" x="0" id="text-entity-STAFF-4e3104e1-29b4-446e-9cb9-225d11e8cc73-attr-5-name" class="er entityLabel">password</text><rect height="21" width="23.79498291015625" y="108" x="89.18032836914062" class="er attributeBoxOdd"/><text style="dominant-baseline: middle; font-size: 10.2px;" transform="translate(94.18032836914062,118.5)" y="0" x="0" id="text-entity-STAFF-4e3104e1-29b4-446e-9cb9-225d11e8cc73-attr-5-key" class="er entityLabel"/><rect height="21" width="124.29629516601562" y="108" x="112.97531127929688" class="er attributeBoxOdd"/><text style="dominant-baseline: middle; font-size: 10.2px;" transform="translate(117.97531127929688,118.5)" y="0" x="0" id="text-entity-STAFF-4e3104e1-29b4-446e-9cb9-225d11e8cc73-attr-5-comment" class="er entityLabel">hashed password</text><rect height="21" width="35.245819091796875" y="129" x="0" class="er attributeBoxEven"/><text style="dominant-baseline: middle; font-size: 10.2px;" transform="translate(5,139.5)" y="0" x="0" id="text-entity-STAFF-4e3104e1-29b4-446e-9cb9-225d11e8cc73-attr-6-type" class="er entityLabel">string</text><rect height="21" width="53.93450927734375" y="129" x="35.245819091796875" class="er attributeBoxEven"/><text style="dominant-baseline: middle; font-size: 10.2px;" transform="translate(40.245819091796875,139.5)" y="0" x="0" id="text-entity-STAFF-4e3104e1-29b4-446e-9cb9-225d11e8cc73-attr-6-name" class="er entityLabel">role</text><rect height="21" width="23.79498291015625" y="129" x="89.18032836914062" class="er attributeBoxEven"/><text style="dominant-baseline: middle; font-size: 10.2px;" transform="translate(94.18032836914062,139.5)" y="0" x="0" id="text-entity-STAFF-4e3104e1-29b4-446e-9cb9-225d11e8cc73-attr-6-key" class="er entityLabel"/><rect height="21" width="124.29629516601562" y="129" x="112.97531127929688" class="er attributeBoxEven"/><text style="dominant-baseline: middle; font-size: 10.2px;" transform="translate(117.97531127929688,139.5)" y="0" x="0" id="text-entity-STAFF-4e3104e1-29b4-446e-9cb9-225d11e8cc73-attr-6-comment" class="er entityLabel">can be 'chef' or 'deliverer' </text></g><g transform="translate(405.41880798339844,707 )" id="entity-DISH-b239a749-9709-440d-92b1-61f27b8840f4"><rect height="150" width="118.32205200195312" y="0" x="0" class="er entityBox"/><text style="dominant-baseline: middle; text-anchor: middle; font-size: 12px;" transform="translate(59.16102600097656,12)" y="0" x="0" id="text-entity-DISH-b239a749-9709-440d-92b1-61f27b8840f4" class="er entityLabel">DISH</text><rect height="21" width="35.245819091796875" y="24" x="0" class="er attributeBoxOdd"/><text style="dominant-baseline: middle; font-size: 10.2px;" transform="translate(5,34.5)" y="0" x="0" id="text-entity-DISH-b239a749-9709-440d-92b1-61f27b8840f4-attr-1-type" class="er entityLabel">int</text><rect height="21" width="59.28125" y="24" x="35.245819091796875" class="er attributeBoxOdd"/><text style="dominant-baseline: middle; font-size: 10.2px;" transform="translate(40.245819091796875,34.5)" y="0" x="0" id="text-entity-DISH-b239a749-9709-440d-92b1-61f27b8840f4-attr-1-name" class="er entityLabel">id</text><rect height="21" width="23.79498291015625" y="24" x="94.52706909179688" class="er attributeBoxOdd"/><text style="dominant-baseline: middle; font-size: 10.2px;" transform="translate(99.52706909179688,34.5)" y="0" x="0" id="text-entity-DISH-b239a749-9709-440d-92b1-61f27b8840f4-attr-1-key" class="er entityLabel">PK</text><rect height="21" width="35.245819091796875" y="45" x="0" class="er attributeBoxEven"/><text style="dominant-baseline: middle; font-size: 10.2px;" transform="translate(5,55.5)" y="0" x="0" id="text-entity-DISH-b239a749-9709-440d-92b1-61f27b8840f4-attr-2-type" class="er entityLabel">string</text><rect height="21" width="59.28125" y="45" x="35.245819091796875" class="er attributeBoxEven"/><text style="dominant-baseline: middle; font-size: 10.2px;" transform="translate(40.245819091796875,55.5)" y="0" x="0" id="text-entity-DISH-b239a749-9709-440d-92b1-61f27b8840f4-attr-2-name" class="er entityLabel">name</text><rect height="21" width="23.79498291015625" y="45" x="94.52706909179688" class="er attributeBoxEven"/><text style="dominant-baseline: middle; font-size: 10.2px;" transform="translate(99.52706909179688,55.5)" y="0" x="0" id="text-entity-DISH-b239a749-9709-440d-92b1-61f27b8840f4-attr-2-key" class="er entityLabel"/><rect height="21" width="35.245819091796875" y="66" x="0" class="er attributeBoxOdd"/><text style="dominant-baseline: middle; font-size: 10.2px;" transform="translate(5,76.5)" y="0" x="0" id="text-entity-DISH-b239a749-9709-440d-92b1-61f27b8840f4-attr-3-type" class="er entityLabel">txt</text><rect height="21" width="59.28125" y="66" x="35.245819091796875" class="er attributeBoxOdd"/><text style="dominant-baseline: middle; font-size: 10.2px;" transform="translate(40.245819091796875,76.5)" y="0" x="0" id="text-entity-DISH-b239a749-9709-440d-92b1-61f27b8840f4-attr-3-name" class="er entityLabel">description</text><rect height="21" width="23.79498291015625" y="66" x="94.52706909179688" class="er attributeBoxOdd"/><text style="dominant-baseline: middle; font-size: 10.2px;" transform="translate(99.52706909179688,76.5)" y="0" x="0" id="text-entity-DISH-b239a749-9709-440d-92b1-61f27b8840f4-attr-3-key" class="er entityLabel"/><rect height="21" width="35.245819091796875" y="87" x="0" class="er attributeBoxEven"/><text style="dominant-baseline: middle; font-size: 10.2px;" transform="translate(5,97.5)" y="0" x="0" id="text-entity-DISH-b239a749-9709-440d-92b1-61f27b8840f4-attr-4-type" class="er entityLabel">bool</text><rect height="21" width="59.28125" y="87" x="35.245819091796875" class="er attributeBoxEven"/><text style="dominant-baseline: middle; font-size: 10.2px;" transform="translate(40.245819091796875,97.5)" y="0" x="0" id="text-entity-DISH-b239a749-9709-440d-92b1-61f27b8840f4-attr-4-name" class="er entityLabel">enabled</text><rect height="21" width="23.79498291015625" y="87" x="94.52706909179688" class="er attributeBoxEven"/><text style="dominant-baseline: middle; font-size: 10.2px;" transform="translate(99.52706909179688,97.5)" y="0" x="0" id="text-entity-DISH-b239a749-9709-440d-92b1-61f27b8840f4-attr-4-key" class="er entityLabel"/><rect height="21" width="35.245819091796875" y="108" x="0" class="er attributeBoxOdd"/><text style="dominant-baseline: middle; font-size: 10.2px;" transform="translate(5,118.5)" y="0" x="0" id="text-entity-DISH-b239a749-9709-440d-92b1-61f27b8840f4-attr-5-type" class="er entityLabel">int</text><rect height="21" width="59.28125" y="108" x="35.245819091796875" class="er attributeBoxOdd"/><text style="dominant-baseline: middle; font-size: 10.2px;" transform="translate(40.245819091796875,118.5)" y="0" x="0" id="text-entity-DISH-b239a749-9709-440d-92b1-61f27b8840f4-attr-5-name" class="er entityLabel">price</text><rect height="21" width="23.79498291015625" y="108" x="94.52706909179688" class="er attributeBoxOdd"/><text style="dominant-baseline: middle; font-size: 10.2px;" transform="translate(99.52706909179688,118.5)" y="0" x="0" id="text-entity-DISH-b239a749-9709-440d-92b1-61f27b8840f4-attr-5-key" class="er entityLabel"/><rect height="21" width="35.245819091796875" y="129" x="0" class="er attributeBoxEven"/><text style="dominant-baseline: middle; font-size: 10.2px;" transform="translate(5,139.5)" y="0" x="0" id="text-entity-DISH-b239a749-9709-440d-92b1-61f27b8840f4-attr-6-type" class="er entityLabel">int</text><rect height="21" width="59.28125" y="129" x="35.245819091796875" class="er attributeBoxEven"/><text style="dominant-baseline: middle; font-size: 10.2px;" transform="translate(40.245819091796875,139.5)" y="0" x="0" id="text-entity-DISH-b239a749-9709-440d-92b1-61f27b8840f4-attr-6-name" class="er entityLabel">createdBy</text><rect height="21" width="23.79498291015625" y="129" x="94.52706909179688" class="er attributeBoxEven"/><text style="dominant-baseline: middle; font-size: 10.2px;" transform="translate(99.52706909179688,139.5)" y="0" x="0" id="text-entity-DISH-b239a749-9709-440d-92b1-61f27b8840f4-attr-6-key" class="er entityLabel">FK</text></g><g transform="translate(440.18228912353516,957 )" id="entity-DISHSTOCK-fb6d7fb9-a7b4-4620-8e0f-f391e50c424f"><rect height="108" width="106.46875" y="0" x="0" class="er entityBox"/><text style="dominant-baseline: middle; text-anchor: middle; font-size: 12px;" transform="translate(53.234375,12)" y="0" x="0" id="text-entity-DISHSTOCK-fb6d7fb9-a7b4-4620-8e0f-f391e50c424f" class="er entityLabel">DISH_STOCK</text><rect height="21" width="25.981557210286457" y="24" x="0" class="er attributeBoxOdd"/><text style="dominant-baseline: middle; font-size: 10.2px;" transform="translate(5,34.5)" y="0" x="0" id="text-entity-DISHSTOCK-fb6d7fb9-a7b4-4620-8e0f-f391e50c424f-attr-1-type" class="er entityLabel">int</text><rect height="21" width="51.639790852864586" y="24" x="25.981557210286457" class="er attributeBoxOdd"/><text style="dominant-baseline: middle; font-size: 10.2px;" transform="translate(30.981557210286457,34.5)" y="0" x="0" id="text-entity-DISHSTOCK-fb6d7fb9-a7b4-4620-8e0f-f391e50c424f-attr-1-name" class="er entityLabel">id</text><rect height="21" width="28.847401936848957" y="24" x="77.62134806315105" class="er attributeBoxOdd"/><text style="dominant-baseline: middle; font-size: 10.2px;" transform="translate(82.62134806315105,34.5)" y="0" x="0" id="text-entity-DISHSTOCK-fb6d7fb9-a7b4-4620-8e0f-f391e50c424f-attr-1-key" class="er entityLabel">PK</text><rect height="21" width="25.981557210286457" y="45" x="0" class="er attributeBoxEven"/><text style="dominant-baseline: middle; font-size: 10.2px;" transform="translate(5,55.5)" y="0" x="0" id="text-entity-DISHSTOCK-fb6d7fb9-a7b4-4620-8e0f-f391e50c424f-attr-2-type" class="er entityLabel">int</text><rect height="21" width="51.639790852864586" y="45" x="25.981557210286457" class="er attributeBoxEven"/><text style="dominant-baseline: middle; font-size: 10.2px;" transform="translate(30.981557210286457,55.5)" y="0" x="0" id="text-entity-DISHSTOCK-fb6d7fb9-a7b4-4620-8e0f-f391e50c424f-attr-2-name" class="er entityLabel">dishId</text><rect height="21" width="28.847401936848957" y="45" x="77.62134806315105" class="er attributeBoxEven"/><text style="dominant-baseline: middle; font-size: 10.2px;" transform="translate(82.62134806315105,55.5)" y="0" x="0" id="text-entity-DISHSTOCK-fb6d7fb9-a7b4-4620-8e0f-f391e50c424f-attr-2-key" class="er entityLabel">FK</text><rect height="21" width="25.981557210286457" y="66" x="0" class="er attributeBoxOdd"/><text style="dominant-baseline: middle; font-size: 10.2px;" transform="translate(5,76.5)" y="0" x="0" id="text-entity-DISHSTOCK-fb6d7fb9-a7b4-4620-8e0f-f391e50c424f-attr-3-type" class="er entityLabel">int</text><rect height="21" width="51.639790852864586" y="66" x="25.981557210286457" class="er attributeBoxOdd"/><text style="dominant-baseline: middle; font-size: 10.2px;" transform="translate(30.981557210286457,76.5)" y="0" x="0" id="text-entity-DISHSTOCK-fb6d7fb9-a7b4-4620-8e0f-f391e50c424f-attr-3-name" class="er entityLabel">staffId</text><rect height="21" width="28.847401936848957" y="66" x="77.62134806315105" class="er attributeBoxOdd"/><text style="dominant-baseline: middle; font-size: 10.2px;" transform="translate(82.62134806315105,76.5)" y="0" x="0" id="text-entity-DISHSTOCK-fb6d7fb9-a7b4-4620-8e0f-f391e50c424f-attr-3-key" class="er entityLabel">FK</text><rect height="21" width="25.981557210286457" y="87" x="0" class="er attributeBoxEven"/><text style="dominant-baseline: middle; font-size: 10.2px;" transform="translate(5,97.5)" y="0" x="0" id="text-entity-DISHSTOCK-fb6d7fb9-a7b4-4620-8e0f-f391e50c424f-attr-4-type" class="er entityLabel">int</text><rect height="21" width="51.639790852864586" y="87" x="25.981557210286457" class="er attributeBoxEven"/><text style="dominant-baseline: middle; font-size: 10.2px;" transform="translate(30.981557210286457,97.5)" y="0" x="0" id="text-entity-DISHSTOCK-fb6d7fb9-a7b4-4620-8e0f-f391e50c424f-attr-4-name" class="er entityLabel">quantity</text><rect height="21" width="28.847401936848957" y="87" x="77.62134806315105" class="er attributeBoxEven"/><text style="dominant-baseline: middle; font-size: 10.2px;" transform="translate(82.62134806315105,97.5)" y="0" x="0" id="text-entity-DISHSTOCK-fb6d7fb9-a7b4-4620-8e0f-f391e50c424f-attr-4-key" class="er entityLabel"/></g><rect height="14" width="34.6875" y="184.6345977783203" x="219.75726318359375" class="er relationshipLabelBox"/><text style="text-anchor: middle; dominant-baseline: middle; font-size: 12px;" y="191.6345977783203" x="237.10101318359375" id="rel1" class="er relationshipLabel">places</text><rect height="14" width="19.359375" y="276.6875915527344" x="12.643875122070312" class="er relationshipLabelBox"/><text style="text-anchor: middle; dominant-baseline: middle; font-size: 12px;" y="283.6875915527344" x="22.323562622070312" id="rel2" class="er relationshipLabel">has</text><rect height="14" width="44.703125" y="540.74560546875" x="228.43797302246094" class="er relationshipLabelBox"/><text style="text-anchor: middle; dominant-baseline: middle; font-size: 12px;" y="547.74560546875" x="250.78953552246094" id="rel3" class="er relationshipLabel">contains</text><rect height="14" width="74.365234375" y="390.1741638183594" x="100.93937683105469" class="er relationshipLabelBox"/><text style="text-anchor: middle; dominant-baseline: middle; font-size: 12px;" y="397.1741638183594" x="138.1219940185547" id="rel4" class="er relationshipLabel">is delivered to</text><rect height="14" width="76.71875" y="363.7444152832031" x="416.4776916503906" class="er relationshipLabelBox"/><text style="text-anchor: middle; dominant-baseline: middle; font-size: 12px;" y="370.7444152832031" x="454.8370666503906" id="rel5" class="er relationshipLabel">is delivered by</text><rect height="14" width="44.341796875" y="924.3286743164062" x="296.03204345703125" class="er relationshipLabelBox"/><text style="text-anchor: middle; dominant-baseline: middle; font-size: 12px;" y="931.3286743164062" x="318.20294189453125" id="rel6" class="er relationshipLabel">refers to</text><rect height="14" width="44.703125" y="900.6243896484375" x="444.6268310546875" class="er relationshipLabelBox"/><text style="text-anchor: middle; dominant-baseline: middle; font-size: 12px;" y="907.6243896484375" x="466.9783935546875" id="rel7" class="er relationshipLabel">contains</text><rect height="14" width="106.71875" y="792.9984741210938" x="570.3416748046875" class="er relationshipLabelBox"/><text style="text-anchor: middle; dominant-baseline: middle; font-size: 12px;" y="799.9984741210938" x="623.7010498046875" id="rel8" class="er relationshipLabel">manages (deliverer)</text><rect height="14" width="83.376953125" y="645.033935546875" x="432.4769592285156" class="er relationshipLabelBox"/><text style="text-anchor: middle; dominant-baseline: middle; font-size: 12px;" y="652.033935546875" x="474.1654357910156" id="rel9" class="er relationshipLabel">manages (chef)</text></svg>