<svg xmlns="http://www.w3.org/2000/svg" xmlns:xlink="http://www.w3.org/1999/xlink" xmlns:lucid="lucid" width="1480.84" height="1240"><g transform="translate(-59.157407407407405 -80)" lucid:page-tab-id="0_0"><path d="M0 0h1870.87v1322.84H0z" fill="#fff"/><path d="M300 106a6 6 0 0 1 6-6h1208a6 6 0 0 1 6 6v1188a6 6 0 0 1-6 6H306a6 6 0 0 1-6-6z" stroke="#5e5e5e" stroke-width="3" fill-opacity="0"/><use xlink:href="#a" transform="matrix(1,0,0,1,305,105) translate(451.45061728395063 17.77777777777778)"/><use xlink:href="#b" transform="matrix(1,0,0,1,305,105) translate(588.3641975308642 17.77777777777778)"/><path d="M139.75 509.75c0 10.9-8.84 19.75-19.75 19.75-10.9 0-19.75-8.84-19.75-19.75 0-10.9 8.84-19.75 19.75-19.75 10.9 0 19.75 8.84 19.75 19.75z" stroke="#5e5e5e" stroke-width="3" fill="#fff"/><path d="M120 529.5v49.3a20.7 20.7 0 0 0 3.2 11.07L160 648m-40-63.2L80 648m0-98.75h80" stroke="#5e5e5e" stroke-width="3" fill="none"/><path d="M80 496a6 6 0 0 1 6-6h68a6 6 0 0 1 6 6v168a6 6 0 0 1-6 6H86a6 6 0 0 1-6-6z" fill="none"/><use xlink:href="#c" transform="matrix(1,0,0,1,0,648) translate(80.1574074074074 20.266666666666666)"/><path d="M580 700c0 33.14-35.82 60-80 60s-80-26.86-80-60 35.82-60 80-60 80 26.86 80 60z" stroke="#5e5e5e" stroke-width="3" fill="#fff"/><use xlink:href="#d" transform="matrix(1,0,0,1,420,640) translate(35.60499999999999 51.9)"/><use xlink:href="#e" transform="matrix(1,0,0,1,420,640) translate(104.405 51.9)"/><use xlink:href="#f" transform="matrix(1,0,0,1,420,640) translate(52.55499999999999 73.5)"/><path d="M900 520c0 33.14-35.82 60-80 60s-80-26.86-80-60 35.82-60 80-60 80 26.86 80 60z" stroke="#5e5e5e" stroke-width="3" fill="#fff"/><use xlink:href="#g" transform="matrix(1,0,0,1,740,460) translate(16.255000000000003 51.9)"/><use xlink:href="#h" transform="matrix(1,0,0,1,740,460) translate(81.805 51.9)"/><use xlink:href="#i" transform="matrix(1,0,0,1,740,460) translate(120.805 51.9)"/><use xlink:href="#j" transform="matrix(1,0,0,1,740,460) translate(48.05499999999999 73.5)"/><path d="M580 1120c0 33.14-35.82 60-80 60s-80-26.86-80-60 35.82-60 80-60 80 26.86 80 60z" stroke="#5e5e5e" stroke-width="3" fill="#fff"/><use xlink:href="#k" transform="matrix(1,0,0,1,420,1060) translate(9.104999999999999 63.15)"/><use xlink:href="#l" transform="matrix(1,0,0,1,420,1060) translate(71.00500000000001 63.15)"/><use xlink:href="#f" transform="matrix(1,0,0,1,420,1060) translate(96.00500000000001 63.15)"/><path d="M580 880c0 33.14-35.82 60-80 60s-80-26.86-80-60 35.82-60 80-60 80 26.86 80 60z" stroke="#5e5e5e" stroke-width="3" fill="#fff"/><use xlink:href="#m" transform="matrix(1,0,0,1,420,820) translate(26.10499999999999 51.9)"/><use xlink:href="#e" transform="matrix(1,0,0,1,420,820) translate(113.905 51.9)"/><use xlink:href="#f" transform="matrix(1,0,0,1,420,820) translate(52.55499999999999 73.5)"/><path d="M161 547.7l576.57-29.9" stroke="#5e5e5e" stroke-width="2" fill="none"/><path d="M161.08 548.7l-1.08.05v-1h-3l-.05-.84 4.02-.2zM738.6 517.04l-.06 1.7-.94.06-.1-2 1.12-.05z" stroke="#5e5e5e" stroke-width=".05" fill="#5e5e5e"/><path d="M160.4 548.66l257.76 568.18" stroke="#5e5e5e" stroke-width="2" fill="none"/><path d="M161.33 548.27l-1.33.6v-1.12h-1.1l-1.05-2.32 1.82-.82zM418.6 1117.05l-.1 2.93v.04l-1.26-2.8 1.4-.63z" stroke="#5e5e5e" stroke-width=".05" fill="#5e5e5e"/><path d="M160.6 548.54L417.9 879.2" stroke="#5e5e5e" stroke-width="2" fill="none"/><path d="M161.42 547.95l-1.42 1.1v-1.3h-1.27l-1.36-1.75 1.58-1.23zM418.5 879.98v.43l.05 1.3-1.47-1.9 1.46-1.13z" stroke="#5e5e5e" stroke-width=".05" fill="#5e5e5e"/><path d="M160.85 548.27L418.3 707.24" stroke="#5e5e5e" stroke-width="2" fill="none"/><path d="M161.4 547.44l-1.05 1.7-.35-.22v-1.17h-1.9l-1.18-.73 1.05-1.7zM418.94 706.44l.44 2.62-1.62-1 1.06-1.7z" stroke="#5e5e5e" stroke-width=".05" fill="#5e5e5e"/><path d="M660 320c0 33.14-35.82 60-80 60s-80-26.86-80-60 35.82-60 80-60 80 26.86 80 60z" stroke="#5e5e5e" stroke-width="3" fill="#fff"/><use xlink:href="#n" transform="matrix(1,0,0,1,500,260) translate(37.05499999999999 63.15)"/><path d="M160.83 547.2l336.84-226.64" stroke="#5e5e5e" stroke-width="2" fill="none"/><path d="M161.4 548l-1.4.96v-1.2h-1.8l2.1-1.4zM498.5 319.98v.43l.03.78-.32.22-1.1-1.66 1.44-.97z" stroke="#5e5e5e" stroke-width=".05" fill="#5e5e5e"/><path d="M819.34 456.6l.3.7-.3.7-.7.3-.72-.3-.3-.7.3-.7.7-.3zm-6.02-5.26l.3.7-.3.7-.7.3-.7-.3-.3-.7.3-.7.7-.3zm-6-5.25l.28.7-.3.7-.7.3-.7-.3-.3-.7.3-.72.7-.3zm-6.03-5.27l.3.7-.3.7-.7.3-.72-.3-.3-.7.3-.7.7-.3zm-6.02-5.26l.3.7-.3.72-.7.28-.7-.3-.3-.7.3-.7.7-.3zm-6-5.25l.28.7-.3.7-.7.3-.7-.3-.3-.7.3-.7.7-.3zm-6.03-5.26l.3.7-.3.72-.7.3-.7-.3-.3-.7.3-.72.7-.3zm-6-5.25l.28.7-.3.72-.7.3-.7-.3-.3-.7.3-.7.7-.3zm-6.03-5.25l.3.7-.3.72-.7.3-.7-.3-.3-.7.3-.72.7-.3zm-6-5.25l.28.7-.3.7-.7.3-.7-.3-.3-.7.3-.7.7-.3zm-6.03-5.26l.3.7-.3.7-.7.3-.72-.3-.3-.7.3-.7.7-.3zm-6.02-5.25l.3.7-.3.7-.7.3-.72-.3-.3-.7.3-.7.7-.3zm-24.06-21.04l.3.7-.3.72-.7.3-.7-.3-.3-.7.3-.72.7-.3zm-6-5.25l.28.7-.3.72-.7.3-.7-.3-.3-.7.3-.7.7-.3zm-6.03-5.25l.28.7-.3.72-.7.3-.7-.3-.3-.7.3-.72.7-.3zm-6.02-5.25l.3.7-.3.7-.7.3-.72-.3-.3-.7.3-.7.7-.3zm-6.02-5.26l.3.7-.3.7-.7.3-.7-.3-.3-.7.3-.7.7-.3zm-6-5.26l.28.7-.3.72-.7.3-.7-.3-.3-.7.3-.72.7-.3zm-6.03-5.25l.3.7-.3.7-.7.3-.7-.3-.3-.7.3-.7.7-.3zm-6-5.26l.28.7-.28.72-.7.28-.72-.3-.3-.7.3-.7.7-.3zm-6.03-5.25l.3.7-.3.7-.7.3-.7-.3-.3-.7.3-.7.7-.3zm-6-5.26l.28.7-.3.72-.7.3-.7-.3-.3-.7.3-.72.7-.3zm-6.02-5.25l.3.7-.3.72-.7.3-.72-.3-.3-.7.3-.7.7-.3z" fill="#5e5e5e"/><path d="M820 458.5l-21.32-3.97.36-1.97 18 3.36-5.73-17.4 1.9-.62z" stroke="#5e5e5e" stroke-width=".05" fill="#5e5e5e"/><path d="M662.93 319.92l-1.32 1.5-.14-.13.04-1.28v-.43l-.04-.96z" fill="#5e5e5e"/><path d="M662.97 319.92l-1.35 1.54-.2-.16.06-1.28v-.43l-.05-1.02zm-1.45-.33v.42l-.03 1.26.1.1 1.3-1.46-1.4-1.23z" stroke="#5e5e5e" stroke-width=".05" fill="#5e5e5e"/><use xlink:href="#o" transform="matrix(1,0,0,1,698.2129693979147,381.2499935845444) translate(0.005000000000002558 10.666666666666668)"/><use xlink:href="#p" transform="matrix(1,0,0,1,698.2129693979147,381.2499935845444) translate(19.264259259259262 10.666666666666668)"/><use xlink:href="#q" transform="matrix(1,0,0,1,698.2129693979147,381.2499935845444) translate(69.52351851851853 10.666666666666668)"/><path d="M591 694.93l.28.7-.3.72-.7.3-.7-.3-.3-.7.3-.72.7-.3zm7.14-3.55l.3.7-.3.7-.7.3-.72-.3-.3-.7.3-.7.7-.3zm7.15-3.55l.28.7-.3.7-.7.3-.7-.3-.3-.7.3-.7.7-.3zm7.14-3.56l.3.7-.3.72-.7.28-.72-.3-.3-.7.3-.7.7-.3zm7.15-3.55l.28.7-.3.7-.7.3-.7-.3-.3-.7.3-.7.7-.3zm7.14-3.55l.3.7-.3.7-.7.3-.7-.3-.3-.7.3-.7.7-.3zm7.15-3.56l.28.72-.3.7-.7.3-.7-.3-.3-.7.3-.7.7-.3zm7.14-3.54l.3.7-.3.72-.7.3-.7-.3-.3-.7.3-.72.7-.3zm7.15-3.55l.28.72-.3.7-.7.3-.7-.3-.3-.7.3-.7.7-.3zm7.14-3.54l.3.7-.3.7-.7.3-.7-.3-.3-.7.3-.7.7-.3zm7.15-3.56l.3.7-.3.72-.7.3-.72-.3-.3-.7.3-.72.7-.3zm7.14-3.55l.3.7-.3.7-.7.3-.7-.3-.3-.7.3-.7.7-.3zm7.16-3.55l.3.7-.3.7-.7.3-.72-.3-.3-.7.3-.7.7-.3zm7.44-2.85l-.3.7-.7.3-.7-.3-.3-.7.3-.7h1.4zm35.46-18.47l.3.7-.3.7-.7.3-.7-.3-.3-.7.3-.7.7-.3zm7.15-3.55l.3.7-.3.7-.7.3-.7-.3-.3-.7.3-.7.7-.3zm7.15-3.56l.3.7-.3.72-.7.28-.7-.3-.3-.7.3-.7.7-.3zm7.15-3.55l.3.7-.3.7-.7.3-.7-.3-.3-.7.3-.7.7-.3zm7.15-3.55l.3.7-.3.7-.7.3-.7-.3-.3-.7.3-.7.7-.3zm7.15-3.56l.3.72-.3.7-.7.3-.7-.3-.3-.7.3-.7.7-.3zm7.15-3.54l.3.7-.3.72-.7.3-.7-.3-.3-.7.3-.72.7-.3zm7.16-3.55l.3.72-.3.7-.7.3-.72-.3-.3-.7.3-.7.7-.3zm7.15-3.55l.3.7-.3.72-.7.3-.7-.3-.3-.7.3-.72.7-.3zm7.16-3.55l.3.7-.3.72-.7.3-.72-.3-.3-.7.3-.72.7-.3zm7.15-3.55l.3.7-.3.7-.7.3-.7-.3-.3-.7.3-.7.7-.3zm7.16-3.55l.3.7-.3.7-.7.3-.7-.3-.3-.7.3-.7.7-.3zm7.15-3.56l.3.7-.3.72-.7.3-.7-.3-.3-.7.3-.72.7-.3zm7.16-3.55l.3.7-.3.7-.7.3-.7-.3-.3-.7.3-.7.7-.3zm7.15-3.56l.3.7-.3.7-.7.3-.7-.3-.3-.7.3-.7.7-.3z" fill="#5e5e5e"/><path d="M819.53 582.85l-.7-1.4 1.15.05h.95l1.44-.06z" fill="#5e5e5e"/><path d="M819.5 582.9l-.7-1.46 1.18.03h.95l1.56-.06zm1.43-1.38h-.95l-1.1-.03.66 1.32 2.7-1.35zM595 682.9L585 698.24l18.26 1.34-.15 1.98L581.5 700l11.8-18.2z" stroke="#5e5e5e" stroke-width=".05" fill="#5e5e5e"/><use xlink:href="#o" transform="matrix(1,0,0,1,656.3611175460628,632.7500064154556) translate(0.005000000000002558 10.666666666666668)"/><use xlink:href="#r" transform="matrix(1,0,0,1,656.3611175460628,632.7500064154556) translate(19.264259259259262 10.666666666666668)"/><use xlink:href="#q" transform="matrix(1,0,0,1,656.3611175460628,632.7500064154556) translate(73.22722222222222 10.666666666666668)"/><path d="M588.38 871.57l.3.7-.3.7-.7.3-.7-.3-.3-.7.3-.7.7-.3zm5.04-6.3l.3.7-.3.7-.7.3-.72-.3-.3-.7.3-.7.7-.3zm5.03-6.3l.3.7-.3.7-.7.3-.7-.3-.3-.7.3-.7.7-.3zm5.04-6.3l.28.7-.3.7-.7.3-.7-.3-.3-.7.3-.7.7-.3zm5.03-6.32l.3.7-.3.72-.7.3-.72-.3-.28-.7.3-.72.7-.3zm5.03-6.3l.3.7-.3.7-.7.3-.7-.3-.3-.7.3-.7.7-.3zm5.04-6.3l.3.7-.3.7-.7.3-.7-.3-.3-.7.3-.7.7-.3zm5.04-6.3l.3.7-.3.7-.7.3-.72-.3-.3-.7.3-.7.7-.3zm5.03-6.32l.3.7-.3.72-.7.3-.7-.3-.3-.7.3-.72.7-.3zm5.04-6.3l.3.7-.3.7-.7.3-.7-.3-.3-.7.3-.7.7-.3zm5.05-6.3l.3.7-.3.7-.7.3-.7-.3-.3-.7.3-.7.7-.3zm5.04-6.3l.28.7-.3.7-.7.3-.7-.3-.3-.7.3-.7.7-.3zm5.02-6.3l.3.7-.3.7-.7.3-.7-.3-.3-.7.3-.7.7-.3zm5.04-6.32l.3.72-.3.7-.7.3-.7-.3-.3-.7.3-.7.7-.3zm5.04-6.3l.3.72-.3.7-.7.3-.72-.3-.3-.7.3-.7.7-.3zm5.03-6.3l.3.7-.3.72-.7.3-.7-.3-.3-.7.3-.72.7-.3zm5.04-6.3l.3.7-.3.72-.7.3-.7-.3-.3-.7.3-.72.7-.3zm5.04-6.3l.3.7-.3.7-.7.3-.7-.3-.3-.7.3-.7.7-.3zm5.05-6.3l.3.7-.3.7-.7.3-.72-.3-.3-.7.3-.7.7-.3zm5.03-6.3l.3.7-.3.7-.7.3-.7-.3-.3-.7.3-.7.7-.3zm5.04-6.32l.3.7-.3.72-.7.3-.7-.3-.3-.7.3-.72.7-.3zm5.04-6.3l.3.7-.3.7-.7.3-.72-.3-.3-.7.3-.7.7-.3zm15.1-18.9l.3.7-.3.7-.7.3-.7-.3-.3-.7.3-.7.7-.3zm5.04-6.32l.3.7-.3.72-.7.3-.7-.3-.3-.7.3-.72.7-.3zm5.04-6.3l.3.7-.3.7-.7.3-.7-.3-.3-.7.3-.7.7-.3zm5.04-6.3l.3.7-.3.7-.7.3-.7-.3-.3-.7.3-.7.7-.3zm5.04-6.3l.3.7-.3.7-.7.3-.72-.3-.3-.7.3-.7.7-.3zm5.03-6.3l.3.7-.3.7-.7.3-.7-.3-.3-.7.3-.7.7-.3zm5.04-6.32l.28.7-.3.72-.7.3-.7-.3-.3-.7.3-.72.7-.3zm5.03-6.3l.3.7-.3.7-.7.3-.72-.3-.28-.7.3-.7.7-.3zm5.03-6.3l.3.7-.3.7-.7.3-.7-.3-.3-.7.3-.7.7-.3zm5.04-6.3l.3.7-.3.7-.7.3-.7-.3-.3-.7.3-.7.7-.3zm5.04-6.3l.3.7-.3.7-.7.3-.72-.3-.3-.7.3-.72.7-.3zm5.03-6.32l.3.7-.3.72-.7.3-.7-.3-.3-.7.3-.72.7-.3zm5.04-6.3l.3.7-.3.7-.7.3-.7-.3-.3-.7.3-.7.7-.3zm5.05-6.3l.3.7-.3.7-.7.3-.7-.3-.3-.7.3-.7.7-.3zm5.04-6.3l.28.7-.3.7-.7.3-.7-.3-.3-.7.3-.7.7-.3zm5.02-6.32l.3.7-.3.72-.7.3-.7-.3-.3-.7.3-.72.7-.3zm5.04-6.3l.3.7-.3.7-.7.3-.7-.3-.3-.7.3-.7.7-.3zm5.04-6.3l.3.7-.3.7-.7.3-.72-.3-.3-.7.3-.7.7-.3zm5.03-6.3l.3.7-.3.7-.7.3-.7-.3-.3-.7.3-.7.7-.3zm5.04-6.3l.3.7-.3.7-.7.3-.7-.3-.3-.7.3-.7.7-.3zm5.04-6.32l.3.7-.3.72-.7.3-.7-.3-.3-.7.3-.72.7-.3zm5.05-6.3l.3.7-.3.7-.7.3-.72-.3-.3-.7.3-.7.7-.3zm5.03-6.3l.3.7-.3.7-.7.3-.7-.3-.3-.7.3-.7.7-.3z" fill="#5e5e5e"/><path d="M819.98 581.5h.95l.36-.02-1.16 1.45-1.56-1.25.17-.22z" fill="#5e5e5e"/><path d="M819.98 581.48h.95l.42-.02-1.2 1.5-1.6-1.28.2-.24zm-1.37.2l1.54 1.2 1.1-1.37-.3.02h-.96l-1.22-.03zM586.5 858.8l-2.55 18.13 17.12-6.5.7 1.88-20.27 7.7 3.03-21.48z" stroke="#5e5e5e" stroke-width=".05" fill="#5e5e5e"/><g><use xlink:href="#o" transform="matrix(1,0,0,1,656.3611175460628,722.7500064154556) translate(0.005000000000002558 10.666666666666668)"/><use xlink:href="#r" transform="matrix(1,0,0,1,656.3611175460628,722.7500064154556) translate(19.264259259259262 10.666666666666668)"/><use xlink:href="#q" transform="matrix(1,0,0,1,656.3611175460628,722.7500064154556) translate(73.22722222222222 10.666666666666668)"/></g><path d="M582.94 1117.63l.3.7-.3.72-.7.3-.7-.3-.3-.7.3-.72.7-.3zm3.25-7.34l.3.7-.3.7-.7.3-.72-.3-.3-.7.3-.7.7-.3zm3.25-7.35l.3.7-.3.7-.7.3-.72-.3-.3-.7.3-.7.7-.3zm3.25-7.34l.3.7-.3.72-.7.3-.72-.3-.3-.7.3-.7.7-.3zm3.25-7.33l.3.7-.3.7-.7.3-.72-.3-.3-.7.3-.7.7-.3zm3.25-7.35l.3.7-.3.72-.7.3-.7-.3-.3-.7.3-.72.7-.3zm3.25-7.34l.3.7-.3.72-.7.3-.7-.3-.3-.7.3-.72.7-.3zm3.25-7.34l.3.7-.3.7-.7.3-.7-.3-.3-.7.3-.7.7-.3zm3.25-7.34l.3.7-.3.7-.7.3-.7-.3-.3-.7.3-.7.7-.3zm3.26-7.34l.3.7-.3.7-.7.3-.7-.3-.3-.7.3-.7.7-.3zm3.26-7.34l.3.7-.3.7-.7.3-.72-.3-.3-.7.3-.7.7-.3zm3.25-7.35l.3.7-.3.72-.7.28-.7-.3-.3-.7.3-.7.7-.3zm3.26-7.34l.3.7-.3.72-.7.3-.7-.3-.3-.7.3-.72.7-.3zm3.25-7.34l.3.7-.3.7-.7.3-.7-.3-.3-.7.3-.7.7-.3zm3.26-7.35l.3.7-.3.72-.7.3-.7-.3-.3-.7.3-.72.7-.3zm3.26-7.34l.3.72-.3.7-.7.3-.72-.3-.3-.7.3-.7.7-.3zm3.25-7.33l.3.7-.3.7-.7.3-.72-.3-.3-.7.3-.7.7-.3zm3.25-7.34l.3.7-.3.7-.7.3-.72-.3-.3-.7.3-.7.7-.3zm3.25-7.35l.3.7-.3.72-.7.3-.7-.3-.3-.7.3-.72.7-.3zm3.25-7.34l.3.7-.3.72-.7.3-.7-.3-.3-.7.3-.72.7-.3zm3.25-7.34l.3.7-.3.72-.7.3-.7-.3-.3-.7.3-.72.7-.3zm3.25-7.34l.3.7-.3.72-.7.3-.7-.3-.3-.7.3-.72.7-.3zm3.26-7.34l.3.7-.3.7-.7.3-.72-.3-.3-.7.3-.7.7-.3zm3.25-7.34l.3.7-.3.7-.7.3-.72-.3-.28-.7.3-.7.7-.3zm3.25-7.34l.3.7-.3.7-.7.3-.7-.3-.3-.7.3-.7.7-.3zm3.25-7.35l.3.7-.3.7-.7.3-.7-.3-.3-.7.3-.7.7-.3zm3.25-7.35l.3.7-.3.72-.7.3-.7-.3-.3-.7.3-.72.7-.3zm3.25-7.34l.3.72-.3.7-.7.3-.7-.3-.3-.7.3-.7.7-.3zm3.25-7.33l.3.7-.3.72-.7.28-.7-.3-.3-.7.3-.7.7-.3zm3.26-7.34l.3.7-.3.7-.7.3-.72-.3-.3-.7.3-.7.7-.3zm3.25-7.34l.28.7-.3.7-.7.3-.7-.3-.3-.7.3-.7.7-.3zm3.24-7.35l.3.7-.3.7-.7.3-.7-.3-.3-.7.3-.7.7-.3zm3.25-7.34l.28.7-.3.72-.7.3-.7-.3-.3-.7.3-.7.7-.3zm3.24-7.34l.3.7-.3.72-.7.3-.7-.3-.3-.7.3-.72.7-.3zm3.25-7.34l.3.7-.3.72-.7.3-.72-.3-.3-.7.3-.72.7-.3zm3.25-7.34l.3.7-.3.72-.7.3-.72-.3-.3-.7.3-.72.7-.3zm9.75-22.02l.3.7-.3.7-.7.3-.7-.3-.3-.7.3-.7.7-.3zm3.25-7.34l.3.7-.3.7-.7.3-.7-.3-.3-.7.3-.7.7-.3zm3.25-7.35l.3.7-.3.72-.7.28-.7-.3-.3-.7.3-.7.7-.3zm3.25-7.34l.3.7-.3.72-.7.3-.7-.3-.3-.7.3-.72.7-.3zm3.26-7.34l.3.7-.3.7-.7.3-.7-.3-.3-.7.3-.7.7-.3zm3.26-7.35l.3.7-.3.7-.7.3-.72-.3-.3-.7.3-.7.7-.3zm3.25-7.34l.3.72-.3.7-.7.3-.7-.3-.3-.7.3-.7.7-.3zm3.26-7.33l.3.7-.3.7-.7.3-.7-.3-.3-.7.3-.7.7-.3zm3.25-7.35l.3.7-.3.72-.7.3-.7-.3-.3-.7.3-.72.7-.3zm3.26-7.34l.3.7-.3.72-.7.3-.7-.3-.3-.7.3-.72.7-.3zm3.25-7.34l.3.7-.28.72-.7.3-.72-.3-.3-.7.3-.72.7-.3zm3.27-7.34l.3.7-.3.72-.7.3-.72-.3-.3-.7.3-.72.7-.3zm3.25-7.34l.3.7-.3.7-.7.3-.72-.3-.3-.7.3-.7.7-.3zm3.25-7.34l.3.7-.3.7-.7.3-.72-.3-.3-.7.3-.7.7-.3zm3.25-7.34l.3.7-.3.7-.7.3-.7-.3-.3-.7.3-.7.7-.3zm3.25-7.34l.3.7-.3.7-.7.3-.7-.3-.3-.7.3-.7.7-.3zm3.25-7.35l.3.7-.3.7-.7.3-.7-.3-.3-.7.3-.7.7-.3zm3.25-7.35l.3.7-.3.72-.7.3-.7-.3-.3-.7.3-.72.7-.3zm3.26-7.34l.3.72-.3.7-.7.3-.72-.3-.28-.7.3-.7.7-.3zm3.25-7.33l.3.7-.3.7-.7.3-.72-.3-.3-.7.3-.7.7-.3zm3.25-7.34l.3.7-.3.7-.7.3-.7-.3-.3-.7.3-.7.7-.3zm3.25-7.34l.3.7-.3.7-.7.3-.7-.3-.3-.7.3-.7.7-.3zm3.25-7.35l.3.7-.3.7-.7.3-.7-.3-.3-.7.3-.7.7-.3zm3.25-7.35l.3.7-.3.72-.7.3-.7-.3-.3-.7.3-.72.7-.3zm3.26-7.34l.3.7-.3.72-.7.3-.72-.3-.3-.7.3-.72.7-.3zm3.25-7.34l.28.7-.3.72-.7.3-.7-.3-.3-.7.3-.72.7-.3zm3.24-7.34l.3.7-.3.7-.7.3-.72-.3-.3-.7.3-.7.7-.3zm3.25-7.34l.28.7-.3.7-.7.3-.7-.3-.3-.7.3-.7.7-.3zm3.24-7.34l.3.7-.3.7-.7.3-.7-.3-.3-.7.3-.7.7-.3zm3.25-7.34l.3.7-.3.7-.7.3-.72-.3-.3-.7.3-.7.7-.3zm3.25-7.35l.3.72-.3.7-.7.3-.72-.3-.3-.7.3-.7.7-.3zm3.25-7.33l.3.7-.3.72-.7.28-.72-.3-.3-.7.3-.7.7-.3zm3.25-7.34l.3.7-.3.72-.7.3-.72-.3-.3-.7.3-.72.7-.3zm3.25-7.34l.3.7-.3.7-.7.3-.72-.3-.3-.7.3-.7.7-.3zm3.25-7.35l.3.7-.3.7-.7.3-.7-.3-.3-.7.3-.7.7-.3zm3.25-7.34l.3.7-.3.72-.7.3-.7-.3-.3-.7.3-.7.7-.3z" fill="#5e5e5e"/><path d="M819.98 581.5H821.1l-.6 1.34-1.83-.8.25-.57z" fill="#5e5e5e"/><path d="M819.98 581.48h.95l.2-.02-.62 1.42-1.86-.83.26-.6zm-1.28.54l1.8.8.56-1.3h-1.08l-1.04-.03zM583.1 1116.4l14.9-10.63 1.16 1.63-17.66 12.6-2.53-21.54 1.98-.24z" stroke="#5e5e5e" stroke-width=".05" fill="#5e5e5e"/><g><use xlink:href="#o" transform="matrix(1,0,0,1,656.3611175460628,842.7500064154556) translate(0.005000000000002558 10.666666666666668)"/><use xlink:href="#r" transform="matrix(1,0,0,1,656.3611175460628,842.7500064154556) translate(19.264259259259262 10.666666666666668)"/><use xlink:href="#q" transform="matrix(1,0,0,1,656.3611175460628,842.7500064154556) translate(73.22722222222222 10.666666666666668)"/></g><path d="M1300 511.87c0 33.14-35.82 60-80 60s-80-26.86-80-60 35.82-60 80-60 80 26.86 80 60z" stroke="#5e5e5e" stroke-width="3" fill="#fff"/><g><use xlink:href="#s" transform="matrix(1,0,0,1,1140,451.8691396607494) translate(24.08 63.15)"/><use xlink:href="#t" transform="matrix(1,0,0,1,1140,451.8691396607494) translate(74.98 63.15)"/><use xlink:href="#u" transform="matrix(1,0,0,1,1140,451.8691396607494) translate(93.93 63.15)"/></g><path d="M903.16 517.62l.3.7-.3.7-.7.3-.72-.3-.3-.7.3-.7.7-.3zm8.08-.17l.3.7-.3.72-.7.3-.72-.3-.3-.7.3-.72.7-.3zm8.07-.16l.3.7-.3.7-.7.3-.7-.3-.3-.7.3-.7.7-.3zm8.1-.18l.28.7-.3.72-.7.3-.7-.3-.3-.7.3-.72.7-.3zm8.07-.16l.3.7-.3.7-.7.3-.7-.3-.3-.7.3-.7.7-.3zm8.08-.16l.3.7-.3.7-.7.3-.7-.3-.3-.7.3-.7.7-.3zm8.08-.17l.3.7-.3.72-.7.3-.72-.3-.28-.7.3-.72.7-.3zm8.08-.16l.3.7-.3.7-.7.3-.7-.3-.3-.7.3-.7.7-.3zm8.1-.17l.28.7-.3.72-.7.3-.7-.3-.3-.7.3-.72.7-.3zm7.8-.27v1.63l-.44.2-.7-.3-.3-.7.3-.72.7-.3zm89.13-1.7l.3.7-.3.72-.34.14v-1.7zm8.08-.16l.3.7-.3.7-.7.3-.7-.3-.3-.7.3-.7.7-.3zm8.1-.17l.28.7-.3.72-.7.3-.7-.3-.3-.7.3-.72.7-.3zm8.07-.16l.3.7-.3.7-.7.3-.72-.3-.3-.7.3-.7.7-.3zm8.08-.16l.3.7-.3.7-.7.3-.72-.3-.3-.7.3-.7.7-.3zm8.08-.17l.3.72-.3.7-.7.3-.72-.3-.28-.7.3-.7.7-.3zm8.07-.15l.3.7-.3.7-.7.3-.7-.3-.3-.7.3-.7.7-.3zm8.08-.17l.3.7-.3.72-.7.3-.7-.3-.3-.7.3-.72.7-.3zm8.08-.16l.3.7-.3.7-.7.3-.7-.3-.3-.7.3-.7.7-.3z" fill="#5e5e5e"/><path d="M902.5 519.32l-1 .02-.1-2 1.05-.02z" fill="#5e5e5e"/><path d="M902.52 519.35l-1.05.02-.1-2.05 1.1-.02zm-1.08-1.98l.07 1.95.97-.02-.04-1.95zM1138.55 513.52l-18.44 11.42-1.04-1.7 15.56-9.63-15.94-9 .98-1.74z" stroke="#5e5e5e" stroke-width=".05" fill="#5e5e5e"/><g><use xlink:href="#o" transform="matrix(1,0,0,1,975.6111111111112,507.9345698303747) translate(0.005000000000002558 10.666666666666668)"/><use xlink:href="#r" transform="matrix(1,0,0,1,975.6111111111112,507.9345698303747) translate(19.264259259259262 10.666666666666668)"/><use xlink:href="#q" transform="matrix(1,0,0,1,975.6111111111112,507.9345698303747) translate(73.22722222222222 10.666666666666668)"/></g><defs><path fill="#333" d="M30 0v-248h187v28H63v79h144v27H63v87h162V0H30" id="v"/><path fill="#333" d="M141 0L90-78 38 0H4l68-98-65-92h35l48 74 47-74h35l-64 92 68 98h-35" id="w"/><path fill="#333" d="M115-194c55 1 70 41 70 98S169 2 115 4C84 4 66-9 55-30l1 105H24l-1-265h31l2 30c10-21 28-34 59-34zm-8 174c40 0 45-34 45-75s-6-73-45-74c-42 0-51 32-51 76 0 43 10 73 51 73" id="x"/><path fill="#333" d="M114-163C36-179 61-72 57 0H25l-1-190h30c1 12-1 29 2 39 6-27 23-49 58-41v29" id="y"/><path fill="#333" d="M100-194c63 0 86 42 84 106H49c0 40 14 67 53 68 26 1 43-12 49-29l28 8c-11 28-37 45-77 45C44 4 14-33 15-96c1-61 26-98 85-98zm52 81c6-60-76-77-97-28-3 7-6 17-6 28h103" id="z"/><path fill="#333" d="M135-143c-3-34-86-38-87 0 15 53 115 12 119 90S17 21 10-45l28-5c4 36 97 45 98 0-10-56-113-15-118-90-4-57 82-63 122-42 12 7 21 19 24 35" id="A"/><path fill="#333" d="M63-220v92h138v28H63V0H30v-248h175v28H63" id="B"/><path fill="#333" d="M100-194c62-1 85 37 85 99 1 63-27 99-86 99S16-35 15-95c0-66 28-99 85-99zM99-20c44 1 53-31 53-75 0-43-8-75-51-75s-53 32-53 75 10 74 51 75" id="C"/><path fill="#333" d="M85-194c31 0 48 13 60 33l-1-100h32l1 261h-30c-2-10 0-23-3-31C134-8 116 4 85 4 32 4 16-35 15-94c0-66 23-100 70-100zm9 24c-40 0-46 34-46 75 0 40 6 74 45 74 42 0 51-32 51-76 0-42-9-74-50-73" id="D"/><g id="a"><use transform="matrix(0.06172839506172839,0,0,0.06172839506172839,0,0)" xlink:href="#v"/><use transform="matrix(0.06172839506172839,0,0,0.06172839506172839,14.814814814814813,0)" xlink:href="#w"/><use transform="matrix(0.06172839506172839,0,0,0.06172839506172839,25.925925925925924,0)" xlink:href="#x"/><use transform="matrix(0.06172839506172839,0,0,0.06172839506172839,38.2716049382716,0)" xlink:href="#y"/><use transform="matrix(0.06172839506172839,0,0,0.06172839506172839,45.61728395061728,0)" xlink:href="#z"/><use transform="matrix(0.06172839506172839,0,0,0.06172839506172839,57.962962962962955,0)" xlink:href="#A"/><use transform="matrix(0.06172839506172839,0,0,0.06172839506172839,69.07407407407406,0)" xlink:href="#A"/><use transform="matrix(0.06172839506172839,0,0,0.06172839506172839,80.18518518518518,0)" xlink:href="#B"/><use transform="matrix(0.06172839506172839,0,0,0.06172839506172839,93.7037037037037,0)" xlink:href="#C"/><use transform="matrix(0.06172839506172839,0,0,0.06172839506172839,106.04938271604938,0)" xlink:href="#C"/><use transform="matrix(0.06172839506172839,0,0,0.06172839506172839,118.39506172839506,0)" xlink:href="#D"/></g><path fill="#333" d="M24-231v-30h32v30H24zM24 0v-190h32V0H24" id="E"/><path fill="#333" d="M106-169C34-169 62-67 57 0H25v-261h32l-1 103c12-21 28-36 61-36 89 0 53 116 60 194h-32v-121c2-32-8-49-39-48" id="F"/><path fill="#333" d="M240 0l2-218c-23 76-54 145-80 218h-23L58-218 59 0H30v-248h44l77 211c21-75 51-140 76-211h43V0h-30" id="G"/><path fill="#333" d="M141-36C126-15 110 5 73 4 37 3 15-17 15-53c-1-64 63-63 125-63 3-35-9-54-41-54-24 1-41 7-42 31l-33-3c5-37 33-52 76-52 45 0 72 20 72 64v82c-1 20 7 32 28 27v20c-31 9-61-2-59-35zM48-53c0 20 12 33 32 33 41-3 63-29 60-74-43 2-92-5-92 41" id="H"/><path fill="#333" d="M117-194c89-4 53 116 60 194h-32v-121c0-31-8-49-39-48C34-167 62-67 57 0H25l-1-190h30c1 10-1 24 2 32 11-22 29-35 61-36" id="I"/><path fill="#333" d="M177-190C167-65 218 103 67 71c-23-6-38-20-44-43l32-5c15 47 100 32 89-28v-30C133-14 115 1 83 1 29 1 15-40 15-95c0-56 16-97 71-98 29-1 48 16 59 35 1-10 0-23 2-32h30zM94-22c36 0 50-32 50-73 0-42-14-75-50-75-39 0-46 34-46 75s6 73 46 73" id="J"/><path fill="#333" d="M210-169c-67 3-38 105-44 169h-31v-121c0-29-5-50-35-48C34-165 62-65 56 0H25l-1-190h30c1 10-1 24 2 32 10-44 99-50 107 0 11-21 27-35 58-36 85-2 47 119 55 194h-31v-121c0-29-5-49-35-48" id="K"/><path fill="#333" d="M59-47c-2 24 18 29 38 22v24C64 9 27 4 27-40v-127H5v-23h24l9-43h21v43h35v23H59v120" id="L"/><g id="b"><use transform="matrix(0.06172839506172839,0,0,0.06172839506172839,0,0)" xlink:href="#D"/><use transform="matrix(0.06172839506172839,0,0,0.06172839506172839,12.345679012345679,0)" xlink:href="#E"/><use transform="matrix(0.06172839506172839,0,0,0.06172839506172839,17.22222222222222,0)" xlink:href="#A"/><use transform="matrix(0.06172839506172839,0,0,0.06172839506172839,28.333333333333332,0)" xlink:href="#F"/><use transform="matrix(0.06172839506172839,0,0,0.06172839506172839,40.67901234567901,0)" xlink:href="#G"/><use transform="matrix(0.06172839506172839,0,0,0.06172839506172839,59.1358024691358,0)" xlink:href="#H"/><use transform="matrix(0.06172839506172839,0,0,0.06172839506172839,71.48148148148148,0)" xlink:href="#I"/><use transform="matrix(0.06172839506172839,0,0,0.06172839506172839,83.82716049382717,0)" xlink:href="#H"/><use transform="matrix(0.06172839506172839,0,0,0.06172839506172839,96.17283950617285,0)" xlink:href="#J"/><use transform="matrix(0.06172839506172839,0,0,0.06172839506172839,108.51851851851853,0)" xlink:href="#z"/><use transform="matrix(0.06172839506172839,0,0,0.06172839506172839,120.86419753086422,0)" xlink:href="#K"/><use transform="matrix(0.06172839506172839,0,0,0.06172839506172839,139.32098765432102,0)" xlink:href="#z"/><use transform="matrix(0.06172839506172839,0,0,0.06172839506172839,151.66666666666669,0)" xlink:href="#I"/><use transform="matrix(0.06172839506172839,0,0,0.06172839506172839,164.01234567901236,0)" xlink:href="#L"/></g><path fill="#333" d="M212-179c-10-28-35-45-73-45-59 0-87 40-87 99 0 60 29 101 89 101 43 0 62-24 78-52l27 14C228-24 195 4 139 4 59 4 22-46 18-125c-6-104 99-153 187-111 19 9 31 26 39 46" id="M"/><path fill="#333" d="M101-234c-31-9-42 10-38 44h38v23H63V0H32v-167H5v-23h27c-7-52 17-82 69-68v24" id="N"/><path fill="#4d5156" d="M33-78v-39h34v39H33" id="O"/><path fill="#4d5156" d="M101-234c-31-9-42 10-38 44h38v23H63V0H32v-167H5v-23h27c-7-52 17-82 69-68v24" id="P"/><path fill="#4d5156" d="M100-194c63 0 86 42 84 106H49c0 40 14 67 53 68 26 1 43-12 49-29l28 8c-11 28-37 45-77 45C44 4 14-33 15-96c1-61 26-98 85-98zm52 81c6-60-76-77-97-28-3 7-6 17-6 28h103" id="Q"/><g id="c"><use transform="matrix(0.06790123456790123,0,0,0.06790123456790123,0,0)" xlink:href="#M"/><use transform="matrix(0.06790123456790123,0,0,0.06790123456790123,17.586419753086417,0)" xlink:href="#F"/><use transform="matrix(0.06790123456790123,0,0,0.06790123456790123,31.166666666666664,0)" xlink:href="#z"/><use transform="matrix(0.06790123456790123,0,0,0.06790123456790123,44.74691358024691,0)" xlink:href="#N"/><use transform="matrix(0.07037037037037036,0,0,0.07037037037037036,51.53703703703704,0)" xlink:href="#O"/><use transform="matrix(0.07037037037037036,0,0,0.07037037037037036,58.574074074074076,0)" xlink:href="#P"/><use transform="matrix(0.07037037037037036,0,0,0.07037037037037036,65.61111111111111,0)" xlink:href="#Q"/></g><path d="M240 0l2-218c-23 76-54 145-80 218h-23L58-218 59 0H30v-248h44l77 211c21-75 51-140 76-211h43V0h-30" id="R"/><path d="M100-194c62-1 85 37 85 99 1 63-27 99-86 99S16-35 15-95c0-66 28-99 85-99zM99-20c44 1 53-31 53-75 0-43-8-75-51-75s-53 32-53 75 10 74 51 75" id="S"/><path d="M85-194c31 0 48 13 60 33l-1-100h32l1 261h-30c-2-10 0-23-3-31C134-8 116 4 85 4 32 4 16-35 15-94c0-66 23-100 70-100zm9 24c-40 0-46 34-46 75 0 40 6 74 45 74 42 0 51-32 51-76 0-42-9-74-50-73" id="T"/><path d="M24-231v-30h32v30H24zM24 0v-190h32V0H24" id="U"/><path d="M101-234c-31-9-42 10-38 44h38v23H63V0H32v-167H5v-23h27c-7-52 17-82 69-68v24" id="V"/><path d="M100-194c63 0 86 42 84 106H49c0 40 14 67 53 68 26 1 43-12 49-29l28 8c-11 28-37 45-77 45C44 4 14-33 15-96c1-61 26-98 85-98zm52 81c6-60-76-77-97-28-3 7-6 17-6 28h103" id="W"/><path d="M114-163C36-179 61-72 57 0H25l-1-190h30c1 12-1 29 2 39 6-27 23-49 58-41v29" id="X"/><g id="d"><use transform="matrix(0.05,0,0,0.05,0,0)" xlink:href="#R"/><use transform="matrix(0.05,0,0,0.05,14.950000000000001,0)" xlink:href="#S"/><use transform="matrix(0.05,0,0,0.05,24.950000000000003,0)" xlink:href="#T"/><use transform="matrix(0.05,0,0,0.05,34.95,0)" xlink:href="#U"/><use transform="matrix(0.05,0,0,0.05,38.900000000000006,0)" xlink:href="#V"/><use transform="matrix(0.05,0,0,0.05,43.900000000000006,0)" xlink:href="#U"/><use transform="matrix(0.05,0,0,0.05,47.85000000000001,0)" xlink:href="#W"/><use transform="matrix(0.05,0,0,0.05,57.85,0)" xlink:href="#X"/></g><path d="M84 4C-5 8 30-112 23-190h32v120c0 31 7 50 39 49 72-2 45-101 50-169h31l1 190h-30c-1-10 1-25-2-33-11 22-28 36-60 37" id="Y"/><path d="M117-194c89-4 53 116 60 194h-32v-121c0-31-8-49-39-48C34-167 62-67 57 0H25l-1-190h30c1 10-1 24 2 32 11-22 29-35 61-36" id="Z"/><g id="e"><use transform="matrix(0.05,0,0,0.05,0,0)" xlink:href="#Y"/><use transform="matrix(0.05,0,0,0.05,10,0)" xlink:href="#Z"/></g><path d="M115-194c55 1 70 41 70 98S169 2 115 4C84 4 66-9 55-30l1 105H24l-1-265h31l2 30c10-21 28-34 59-34zm-8 174c40 0 45-34 45-75s-6-73-45-74c-42 0-51 32-51 76 0 43 10 73 51 73" id="aa"/><path d="M59-47c-2 24 18 29 38 22v24C64 9 27 4 27-40v-127H5v-23h24l9-43h21v43h35v23H59v120" id="ab"/><g id="f"><use transform="matrix(0.05,0,0,0.05,0,0)" xlink:href="#aa"/><use transform="matrix(0.05,0,0,0.05,10,0)" xlink:href="#X"/><use transform="matrix(0.05,0,0,0.05,15.949999999999998,0)" xlink:href="#S"/><use transform="matrix(0.05,0,0,0.05,25.950000000000003,0)" xlink:href="#T"/><use transform="matrix(0.05,0,0,0.05,35.95,0)" xlink:href="#Y"/><use transform="matrix(0.05,0,0,0.05,45.95,0)" xlink:href="#U"/><use transform="matrix(0.05,0,0,0.05,49.900000000000006,0)" xlink:href="#ab"/></g><path d="M205 0l-28-72H64L36 0H1l101-248h38L239 0h-34zm-38-99l-47-123c-12 45-31 82-46 123h93" id="ac"/><path d="M96-169c-40 0-48 33-48 73s9 75 48 75c24 0 41-14 43-38l32 2c-6 37-31 61-74 61-59 0-76-41-82-99-10-93 101-131 147-64 4 7 5 14 7 22l-32 3c-4-21-16-35-41-35" id="ad"/><path d="M106-169C34-169 62-67 57 0H25v-261h32l-1 103c12-21 28-36 61-36 89 0 53 116 60 194h-32v-121c2-32-8-49-39-48" id="ae"/><g id="g"><use transform="matrix(0.05,0,0,0.05,0,0)" xlink:href="#ac"/><use transform="matrix(0.05,0,0,0.05,12,0)" xlink:href="#V"/><use transform="matrix(0.05,0,0,0.05,16.65,0)" xlink:href="#V"/><use transform="matrix(0.05,0,0,0.05,21.65,0)" xlink:href="#U"/><use transform="matrix(0.05,0,0,0.05,25.599999999999998,0)" xlink:href="#ad"/><use transform="matrix(0.05,0,0,0.05,34.599999999999994,0)" xlink:href="#ae"/><use transform="matrix(0.05,0,0,0.05,44.599999999999994,0)" xlink:href="#W"/><use transform="matrix(0.05,0,0,0.05,54.599999999999994,0)" xlink:href="#X"/></g><path d="M135-143c-3-34-86-38-87 0 15 53 115 12 119 90S17 21 10-45l28-5c4 36 97 45 98 0-10-56-113-15-118-90-4-57 82-63 122-42 12 7 21 19 24 35" id="af"/><g id="h"><use transform="matrix(0.05,0,0,0.05,0,0)" xlink:href="#ab"/><use transform="matrix(0.05,0,0,0.05,5,0)" xlink:href="#S"/><use transform="matrix(0.05,0,0,0.05,15,0)" xlink:href="#Y"/><use transform="matrix(0.05,0,0,0.05,25,0)" xlink:href="#af"/></g><path d="M24 0v-261h32V0H24" id="ag"/><g id="i"><use transform="matrix(0.05,0,0,0.05,0,0)" xlink:href="#ag"/><use transform="matrix(0.05,0,0,0.05,3.95,0)" xlink:href="#W"/><use transform="matrix(0.05,0,0,0.05,13.949999999999998,0)" xlink:href="#af"/></g><g id="j"><use transform="matrix(0.05,0,0,0.05,0,0)" xlink:href="#aa"/><use transform="matrix(0.05,0,0,0.05,10,0)" xlink:href="#X"/><use transform="matrix(0.05,0,0,0.05,15.949999999999998,0)" xlink:href="#S"/><use transform="matrix(0.05,0,0,0.05,25.950000000000003,0)" xlink:href="#T"/><use transform="matrix(0.05,0,0,0.05,35.95,0)" xlink:href="#Y"/><use transform="matrix(0.05,0,0,0.05,45.95,0)" xlink:href="#U"/><use transform="matrix(0.05,0,0,0.05,49.900000000000006,0)" xlink:href="#ab"/><use transform="matrix(0.05,0,0,0.05,54.900000000000006,0)" xlink:href="#af"/></g><path d="M24-231v-30h32v30H24zM-9 49c24 4 33-6 33-30v-209h32V24c2 40-23 58-65 49V49" id="ah"/><g id="k"><use transform="matrix(0.05,0,0,0.05,0,0)" xlink:href="#ac"/><use transform="matrix(0.05,0,0,0.05,12,0)" xlink:href="#ah"/><use transform="matrix(0.05,0,0,0.05,15.949999999999998,0)" xlink:href="#S"/><use transform="matrix(0.05,0,0,0.05,25.950000000000003,0)" xlink:href="#Y"/><use transform="matrix(0.05,0,0,0.05,35.95,0)" xlink:href="#ab"/><use transform="matrix(0.05,0,0,0.05,40.95,0)" xlink:href="#W"/><use transform="matrix(0.05,0,0,0.05,50.95,0)" xlink:href="#X"/></g><g id="l"><use transform="matrix(0.05,0,0,0.05,0,0)" xlink:href="#Y"/><use transform="matrix(0.05,0,0,0.05,10,0)" xlink:href="#Z"/></g><path d="M185-189c-5-48-123-54-124 2 14 75 158 14 163 119 3 78-121 87-175 55-17-10-28-26-33-46l33-7c5 56 141 63 141-1 0-78-155-14-162-118-5-82 145-84 179-34 5 7 8 16 11 25" id="ai"/><path d="M210-169c-67 3-38 105-44 169h-31v-121c0-29-5-50-35-48C34-165 62-65 56 0H25l-1-190h30c1 10-1 24 2 32 10-44 99-50 107 0 11-21 27-35 58-36 85-2 47 119 55 194h-31v-121c0-29-5-49-35-48" id="aj"/><g id="m"><use transform="matrix(0.05,0,0,0.05,0,0)" xlink:href="#ai"/><use transform="matrix(0.05,0,0,0.05,12,0)" xlink:href="#Y"/><use transform="matrix(0.05,0,0,0.05,22,0)" xlink:href="#aa"/><use transform="matrix(0.05,0,0,0.05,32,0)" xlink:href="#aa"/><use transform="matrix(0.05,0,0,0.05,42,0)" xlink:href="#X"/><use transform="matrix(0.05,0,0,0.05,47.95,0)" xlink:href="#U"/><use transform="matrix(0.05,0,0,0.05,51.900000000000006,0)" xlink:href="#aj"/><use transform="matrix(0.05,0,0,0.05,66.85000000000001,0)" xlink:href="#W"/><use transform="matrix(0.05,0,0,0.05,76.85000000000001,0)" xlink:href="#X"/></g><path d="M212-179c-10-28-35-45-73-45-59 0-87 40-87 99 0 60 29 101 89 101 43 0 62-24 78-52l27 14C228-24 195 4 139 4 59 4 22-46 18-125c-6-104 99-153 187-111 19 9 31 26 39 46" id="ak"/><path d="M141 0L90-78 38 0H4l68-98-65-92h35l48 74 47-74h35l-64 92 68 98h-35" id="al"/><g id="n"><use transform="matrix(0.05,0,0,0.05,0,0)" xlink:href="#ak"/><use transform="matrix(0.05,0,0,0.05,12.950000000000001,0)" xlink:href="#S"/><use transform="matrix(0.05,0,0,0.05,22.950000000000003,0)" xlink:href="#Z"/><use transform="matrix(0.05,0,0,0.05,32.95,0)" xlink:href="#Z"/><use transform="matrix(0.05,0,0,0.05,42.95,0)" xlink:href="#W"/><use transform="matrix(0.05,0,0,0.05,52.95,0)" xlink:href="#al"/><use transform="matrix(0.05,0,0,0.05,61.95,0)" xlink:href="#U"/><use transform="matrix(0.05,0,0,0.05,65.9,0)" xlink:href="#S"/><use transform="matrix(0.05,0,0,0.05,75.9,0)" xlink:href="#Z"/></g><path fill="#333" d="M15-91v-56l181-69v40L49-119l147 57v40" id="am"/><g id="o"><use transform="matrix(0.03703703703703704,0,0,0.03703703703703704,0,0)" xlink:href="#am"/><use transform="matrix(0.03703703703703704,0,0,0.03703703703703704,7.777777777777779,0)" xlink:href="#am"/></g><path fill="#333" d="M25-224v-37h50v37H25zM25 0v-190h50V0H25" id="an"/><path fill="#333" d="M135-194c87-1 58 113 63 194h-50c-7-57 23-157-34-157-59 0-34 97-39 157H25l-1-190h47c2 12-1 28 3 38 12-26 28-41 61-42" id="ao"/><path fill="#333" d="M190-63c-7 42-38 67-86 67-59 0-84-38-90-98-12-110 154-137 174-36l-49 2c-2-19-15-32-35-32-30 0-35 28-38 64-6 74 65 87 74 30" id="ap"/><path fill="#333" d="M25 0v-261h50V0H25" id="aq"/><path fill="#333" d="M85 4C-2 5 27-109 22-190h50c7 57-23 150 33 157 60-5 35-97 40-157h50l1 190h-47c-2-12 1-28-3-38-12 25-28 42-61 42" id="ar"/><path fill="#333" d="M88-194c31-1 46 15 58 34l-1-101h50l1 261h-48c-2-10 0-23-3-31C134-8 116 4 84 4 32 4 16-41 15-95c0-56 19-97 73-99zm17 164c33 0 40-30 41-66 1-37-9-64-41-64s-38 30-39 65c0 43 13 65 39 65" id="as"/><path fill="#333" d="M185-48c-13 30-37 53-82 52C43 2 14-33 14-96s30-98 90-98c62 0 83 45 84 108H66c0 31 8 55 39 56 18 0 30-7 34-22zm-45-69c5-46-57-63-70-21-2 6-4 13-4 21h74" id="at"/><g id="p"><use transform="matrix(0.03703703703703704,0,0,0.03703703703703704,0,0)" xlink:href="#an"/><use transform="matrix(0.03703703703703704,0,0,0.03703703703703704,3.703703703703704,0)" xlink:href="#ao"/><use transform="matrix(0.03703703703703704,0,0,0.03703703703703704,11.814814814814817,0)" xlink:href="#ap"/><use transform="matrix(0.03703703703703704,0,0,0.03703703703703704,19.222222222222225,0)" xlink:href="#aq"/><use transform="matrix(0.03703703703703704,0,0,0.03703703703703704,22.925925925925927,0)" xlink:href="#ar"/><use transform="matrix(0.03703703703703704,0,0,0.03703703703703704,31.037037037037045,0)" xlink:href="#as"/><use transform="matrix(0.03703703703703704,0,0,0.03703703703703704,39.14814814814816,0)" xlink:href="#at"/></g><path fill="#333" d="M15-22v-40l146-57-146-57v-40l181 69v56" id="au"/><g id="q"><use transform="matrix(0.03703703703703704,0,0,0.03703703703703704,0,0)" xlink:href="#au"/><use transform="matrix(0.03703703703703704,0,0,0.03703703703703704,7.777777777777779,0)" xlink:href="#au"/></g><path fill="#333" d="M144 0l-44-69L55 0H2l70-98-66-92h53l41 62 40-62h54l-67 91 71 99h-54" id="av"/><path fill="#333" d="M115-3C79 11 28 4 28-45v-112H4v-33h27l15-45h31v45h36v33H77v99c-1 23 16 31 38 25v30" id="aw"/><path fill="#333" d="M137-138c1-29-70-34-71-4 15 46 118 7 119 86 1 83-164 76-172 9l43-7c4 19 20 25 44 25 33 8 57-30 24-41C81-84 22-81 20-136c-2-80 154-74 161-7" id="ax"/><g id="r"><use transform="matrix(0.03703703703703704,0,0,0.03703703703703704,0,0)" xlink:href="#at"/><use transform="matrix(0.03703703703703704,0,0,0.03703703703703704,7.407407407407408,0)" xlink:href="#av"/><use transform="matrix(0.03703703703703704,0,0,0.03703703703703704,14.814814814814817,0)" xlink:href="#aw"/><use transform="matrix(0.03703703703703704,0,0,0.03703703703703704,19.222222222222225,0)" xlink:href="#at"/><use transform="matrix(0.03703703703703704,0,0,0.03703703703703704,26.629629629629633,0)" xlink:href="#ao"/><use transform="matrix(0.03703703703703704,0,0,0.03703703703703704,34.74074074074075,0)" xlink:href="#as"/><use transform="matrix(0.03703703703703704,0,0,0.03703703703703704,42.85185185185187,0)" xlink:href="#ax"/></g><path d="M143 4C61 4 22-44 18-125c-5-107 100-154 193-111 17 8 29 25 37 43l-32 9c-13-25-37-40-76-40-61 0-88 39-88 99 0 61 29 100 91 101 35 0 62-11 79-27v-45h-74v-28h105v86C228-13 192 4 143 4" id="ay"/><path d="M100-194c63 0 86 42 84 106H49c0 40 14 67 53 68 26 1 43-12 49-29l28 8c-11 28-37 45-77 45C44 4 14-33 15-96c1-61 26-98 85-98zm52 81c6-60-76-77-97-28-3 7-6 17-6 28h103zm-74-98c8-23 27-35 38-54h36v5l-58 49H78" id="az"/><g id="s"><use transform="matrix(0.05,0,0,0.05,0,0)" xlink:href="#ay"/><use transform="matrix(0.05,0,0,0.05,14,0)" xlink:href="#az"/><use transform="matrix(0.05,0,0,0.05,24,0)" xlink:href="#X"/><use transform="matrix(0.05,0,0,0.05,29.950000000000003,0)" xlink:href="#W"/><use transform="matrix(0.05,0,0,0.05,39.95,0)" xlink:href="#X"/></g><g id="t"><use transform="matrix(0.05,0,0,0.05,0,0)" xlink:href="#ag"/><use transform="matrix(0.05,0,0,0.05,3.95,0)" xlink:href="#W"/></g><path d="M143 0L79-87 56-68V0H24v-261h32v163l83-92h37l-77 82L181 0h-38" id="aA"/><g id="u"><use transform="matrix(0.05,0,0,0.05,0,0)" xlink:href="#af"/><use transform="matrix(0.05,0,0,0.05,9,0)" xlink:href="#ab"/><use transform="matrix(0.05,0,0,0.05,14,0)" xlink:href="#S"/><use transform="matrix(0.05,0,0,0.05,24,0)" xlink:href="#ad"/><use transform="matrix(0.05,0,0,0.05,33,0)" xlink:href="#aA"/></g></defs></g></svg>