<svg xmlns="http://www.w3.org/2000/svg" xmlns:xlink="http://www.w3.org/1999/xlink" xmlns:lucid="lucid" width="1705" height="1143"><g transform="translate(-42 -28)" lucid:page-tab-id="0_0"><path d="M0 0h1870.87v1322.84H0z" fill="#fff"/><path d="M200 46a6 6 0 0 1 6-6h1388a6 6 0 0 1 6 6v1108a6 6 0 0 1-6 6H206a6 6 0 0 1-6-6z" stroke="#5e5e5e" stroke-width="3" fill-opacity="0"/><use xlink:href="#a" transform="matrix(1,0,0,1,208,48) translate(503.94444444444446 17.77777777777778)"/><use xlink:href="#b" transform="matrix(1,0,0,1,208,48) translate(640.858024691358 17.77777777777778)"/><use xlink:href="#c" transform="matrix(1,0,0,1,208,48) translate(654.3765432098766 17.77777777777778)"/><use xlink:href="#d" transform="matrix(1,0,0,1,208,48) translate(739.4382716049383 17.77777777777778)"/><use xlink:href="#e" transform="matrix(1,0,0,1,208,48) translate(770.3024691358025 17.77777777777778)"/><path d="M139.75 179.75c0 10.9-8.84 19.75-19.75 19.75-10.9 0-19.75-8.84-19.75-19.75 0-10.9 8.84-19.75 19.75-19.75 10.9 0 19.75 8.84 19.75 19.75z" stroke="#5e5e5e" stroke-width="2" fill="#fff"/><path d="M120 199.5v49.3a20.7 20.7 0 0 0 3.2 11.07L160 318m-40-63.2L80 318m0-98.75h80" stroke="#5e5e5e" stroke-width="2" fill="none"/><path d="M80 166a6 6 0 0 1 6-6h68a6 6 0 0 1 6 6v168a6 6 0 0 1-6 6H86a6 6 0 0 1-6-6z" fill="none"/><use xlink:href="#f" transform="matrix(1,0,0,1,0,318) translate(49.84567901234567 17.77777777777778)"/><path d="M1698.25 399.75c0 10.9-8.84 19.75-19.75 19.75-10.9 0-19.75-8.84-19.75-19.75 0-10.9 8.84-19.75 19.75-19.75 10.9 0 19.75 8.84 19.75 19.75z" stroke="#5e5e5e" stroke-width="3" fill="#fff"/><path d="M1678.5 419.5v49.3a20.7 20.7 0 0 0 3.2 11.07l36.8 58.13m-40-63.2l-40 63.2m0-98.75h80" stroke="#5e5e5e" stroke-width="3" fill="none"/><path d="M1638.5 386a6 6 0 0 1 6-6h68a6 6 0 0 1 6 6v168a6 6 0 0 1-6 6h-68a6 6 0 0 1-6-6z" fill="none"/><use xlink:href="#g" transform="matrix(1,0,0,1,1558.4999871300965,538) translate(58.981481481481474 17.77777777777778)"/><path d="M780 160c0 33.14-31.34 60-70 60s-70-26.86-70-60 31.34-60 70-60 70 26.86 70 60z" stroke="#5e5e5e" stroke-width="3" fill="#fff"/><use xlink:href="#h" transform="matrix(1,0,0,1,640,100) translate(22.10499999999999 51.9)"/><use xlink:href="#i" transform="matrix(1,0,0,1,640,100) translate(103.95500000000001 51.9)"/><use xlink:href="#j" transform="matrix(1,0,0,1,640,100) translate(15.58 73.5)"/><use xlink:href="#k" transform="matrix(1,0,0,1,640,100) translate(52.48 73.5)"/><use xlink:href="#l" transform="matrix(1,0,0,1,640,100) translate(86.47999999999999 73.5)"/><path d="M1699.75 919.75c0 10.9-8.84 19.75-19.75 19.75-10.9 0-19.75-8.84-19.75-19.75 0-10.9 8.84-19.75 19.75-19.75 10.9 0 19.75 8.84 19.75 19.75z" stroke="#5e5e5e" stroke-width="3" fill="#fff"/><path d="M1680 939.5v49.3a20.7 20.7 0 0 0 3.2 11.07L1720 1058m-40-63.2l-40 63.2m0-98.75h80" stroke="#5e5e5e" stroke-width="3" fill="none"/><path d="M1640 906a6 6 0 0 1 6-6h68a6 6 0 0 1 6 6v168a6 6 0 0 1-6 6h-68a6 6 0 0 1-6-6z" fill="none"/><use xlink:href="#m" transform="matrix(1,0,0,1,1560,1058) translate(81.72839506172839 17.77777777777778)"/><path d="M800 580c0 33.14-31.34 60-70 60s-70-26.86-70-60 31.34-60 70-60 70 26.86 70 60z" stroke="#5e5e5e" stroke-width="3" fill="#fff"/><use xlink:href="#n" transform="matrix(1,0,0,1,660,520) translate(17.029999999999994 63.15)"/><use xlink:href="#o" transform="matrix(1,0,0,1,660,520) translate(44.029999999999994 63.15)"/><path d="M780 360c0 33.14-31.34 60-70 60s-70-26.86-70-60 31.34-60 70-60 70 26.86 70 60z" stroke="#5e5e5e" stroke-width="3" fill="#fff"/><use xlink:href="#p" transform="matrix(1,0,0,1,640,300) translate(16.57999999999999 51.9)"/><use xlink:href="#q" transform="matrix(1,0,0,1,640,300) translate(103.43 51.9)"/><use xlink:href="#r" transform="matrix(1,0,0,1,640,300) translate(45.055 73.5)"/><path d="M160.34 218.53l477.2 141.2M160.36 218.54l-3.86-1.14" stroke="#5e5e5e" stroke-width="2" fill="none"/><path d="M638.54 358.97l-.04 1.03.04 1.05-1.3-.38.56-1.92z" stroke="#5e5e5e" stroke-width=".05" fill="#5e5e5e"/><path d="M1093 310c0 33.14-31.34 60-70 60s-70-26.86-70-60 31.34-60 70-60 70 26.86 70 60z" stroke="#5e5e5e" stroke-width="3" fill="#fff"/><use xlink:href="#s" transform="matrix(1,0,0,1,952.9999999999999,250) translate(20.07999999999999 51.9)"/><use xlink:href="#t" transform="matrix(1,0,0,1,952.9999999999999,250) translate(55.529999999999994 73.5)"/><path d="M1100 480c0 33.14-31.34 60-70 60s-70-26.86-70-60 31.34-60 70-60 70 26.86 70 60z" stroke="#5e5e5e" stroke-width="3" fill="#fff"/><use xlink:href="#s" transform="matrix(1,0,0,1,960,419.99999999999994) translate(20.07999999999999 51.9)"/><use xlink:href="#u" transform="matrix(1,0,0,1,960,419.99999999999994) translate(40.529999999999994 73.5)"/><path d="M951.1 312.2L805.55 355M949.98 308.36l-145.56 42.8" stroke="#5e5e5e" stroke-width="2" fill="none"/><path d="M951.6 313.1l-.24.07-.56-1.92.74-.22zM951.54 308.95l-1.3.38-.57-1.92 1.94-.56z" stroke="#5e5e5e" stroke-width=".05" fill="#5e5e5e"/><path d="M783.4 359.45l17.04-18.28 7.18 24.4z" stroke="#5e5e5e" stroke-width="2" fill="#fff"/><path d="M956.55 481.1l-155.9-105.7M958.8 477.78l-155.9-105.7" stroke="#5e5e5e" stroke-width="2" fill="none"/><path d="M958.54 481.24l.1 2.47-2.67-1.8 1.12-1.65zM958.54 478.82l-.33-.22.37-.53z" stroke="#5e5e5e" stroke-width=".05" fill="#5e5e5e"/><path d="M783.13 361.1l24.95 1.54-14.28 21.07z" stroke="#5e5e5e" stroke-width="2" fill="#fff"/><path d="M711 297.5h-2v-3.7h2zm0-11.13h-2v-5.04h2zm0-21.04h-2v-1.2h2zm0-8.63h-2v-7.42h2zm0-14.84h-2v-7.4h2zm0-14.83h-2v-3.7h2z" stroke="#5e5e5e" stroke-width=".05" fill="#5e5e5e"/><path d="M711 298.54l-1-.04-1 .03v-1.06h2z" fill="#5e5e5e"/><path d="M711.02 298.56l-1.02-.04-1.02.04v-1.1H711zm-2-1.06v1l.98-.03.98.04v-1zM721.04 240.17l-1.72 1.02-9.32-15.77-9.32 15.76-1.72-1.03L710 221.5z" stroke="#5e5e5e" stroke-width=".05" fill="#5e5e5e"/><use xlink:href="#v" transform="matrix(1,0,0,1,667.462962962963,265.3333333333333) translate(0.005000000000002558 10.666666666666668)"/><use xlink:href="#w" transform="matrix(1,0,0,1,667.462962962963,265.3333333333333) translate(19.264259259259262 10.666666666666668)"/><use xlink:href="#x" transform="matrix(1,0,0,1,667.462962962963,265.3333333333333) translate(69.52351851851853 10.666666666666668)"/><path d="M500 480c0 33.14-31.34 60-70 60s-70-26.86-70-60 31.34-60 70-60 70 26.86 70 60z" stroke="#5e5e5e" stroke-width="3" fill="#fff"/><use xlink:href="#y" transform="matrix(1,0,0,1,360,420) translate(15.304999999999994 63.15)"/><use xlink:href="#r" transform="matrix(1,0,0,1,360,420) translate(74.805 63.15)"/><path d="M1520 820c0 33.14-31.34 60-70 60s-70-26.86-70-60 31.34-60 70-60 70 26.86 70 60z" stroke="#5e5e5e" stroke-width="3" fill="#fff"/><use xlink:href="#z" transform="matrix(1,0,0,1,1380,760) translate(32.05499999999999 51.9)"/><use xlink:href="#A" transform="matrix(1,0,0,1,1380,760) translate(45.029999999999994 73.5)"/><path d="M1320 600c0 33.14-31.34 60-70 60s-70-26.86-70-60 31.34-60 70-60 70 26.86 70 60z" stroke="#5e5e5e" stroke-width="3" fill="#fff"/><use xlink:href="#B" transform="matrix(1,0,0,1,1180,540) translate(7.579999999999993 63.41)"/><use xlink:href="#C" transform="matrix(1,0,0,1,1180,540) translate(32.10499999999999 85.01)"/><path d="M1322.4 599.55l316.7-158.35" stroke="#5e5e5e" stroke-width="2" fill="none"/><path d="M1322.87 600.44l-1.4.7.03-1.14-.04-1.1.5-.25z" stroke="#5e5e5e" stroke-width=".05" fill="#5e5e5e"/><path d="M1639.08 441.2l3.6-1.8" stroke="#5e5e5e" stroke-width="2" fill="none"/><path d="M1698.25 119.75c0 10.9-8.84 19.75-19.75 19.75-10.9 0-19.75-8.84-19.75-19.75 0-10.9 8.84-19.75 19.75-19.75 10.9 0 19.75 8.84 19.75 19.75z" stroke="#5e5e5e" stroke-width="2" fill="#fff"/><path d="M1678.5 139.5v49.3a20.7 20.7 0 0 0 3.2 11.07l36.8 58.13m-40-63.2l-40 63.2m0-98.75h80" stroke="#5e5e5e" stroke-width="2" fill="none"/><path d="M1638.5 106a6 6 0 0 1 6-6h68a6 6 0 0 1 6 6v168a6 6 0 0 1-6 6h-68a6 6 0 0 1-6-6z" fill="none"/><use xlink:href="#D" transform="matrix(1,0,0,1,1558.4999871300965,258) translate(76.82098765432102 17.77777777777777)"/><path d="M1100 160c0 33.14-31.34 60-70 60s-70-26.86-70-60 31.34-60 70-60 70 26.86 70 60z" stroke="#5e5e5e" stroke-width="3" fill="#fff"/><use xlink:href="#E" transform="matrix(1,0,0,1,960,100) translate(13.679999999999987 51.9)"/><use xlink:href="#F" transform="matrix(1,0,0,1,960,100) translate(75.48 51.9)"/><use xlink:href="#G" transform="matrix(1,0,0,1,960,100) translate(94.43 51.9)"/><use xlink:href="#k" transform="matrix(1,0,0,1,960,100) translate(34.029999999999994 73.5)"/><use xlink:href="#l" transform="matrix(1,0,0,1,960,100) translate(68.03 73.5)"/><path d="M1637.5 158.25l-535 1.75" stroke="#5e5e5e" stroke-width="2" fill="none"/><path d="M1641.5 158.25h-3v1h-1.02v-2h4.02zM1102.53 161h-1.07l.04-1-.03-1h1.05z" stroke="#5e5e5e" stroke-width=".05" fill="#5e5e5e"/><path d="M957.5 160h-3.96m-7.92 0h-7.9m-7.93 0h-7.93m-7.92 0h-7.9m-7.93 0h-7.92m-7.92 0h-7.9m-7.93 0h-7.92m-7.9 0h-7.93m-7.92 0h-7.92m-7.9 0h-7.93m-7.92 0h-7.9m-7.92 0h-3.96" stroke="#5e5e5e" stroke-width="2" fill="none"/><path d="M958.5 160l.03 1h-1.06v-2h1.06z" stroke="#5e5e5e" stroke-width=".05" fill="#5e5e5e"/><path d="M800.68 149.82L783.48 160l17.2 10.18" stroke="#5e5e5e" stroke-width="2" fill="none"/><use xlink:href="#H" transform="matrix(1,0,0,1,813.2839506172842,134.66666666666666) translate(0.005000000000002558 14.222222222222223)"/><use xlink:href="#I" transform="matrix(1,0,0,1,813.2839506172842,134.66666666666666) translate(25.68401234567902 14.222222222222223)"/><use xlink:href="#J" transform="matrix(1,0,0,1,813.2839506172842,134.66666666666666) translate(92.69635802469136 14.222222222222223)"/><path d="M480 160c0 33.14-31.34 60-70 60s-70-26.86-70-60 31.34-60 70-60 70 26.86 70 60z" stroke="#5e5e5e" stroke-width="3" fill="#fff"/><use xlink:href="#K" transform="matrix(1,0,0,1,340,100) translate(8.604999999999999 63.15)"/><path d="M482.5 160h3.86m7.7 0h7.7m7.72 0h7.7m7.72 0h7.7m7.72 0h7.7m7.72 0h7.7m7.7 0h7.72m7.7 0h7.72m7.7 0h7.72m7.7 0h7.72m7.7 0h3.86" stroke="#5e5e5e" stroke-width="2" fill="none"/><path d="M482.53 161h-1.06l.03-1-.03-1h1.06z" stroke="#5e5e5e" stroke-width=".05" fill="#5e5e5e"/><path d="M619.32 170.18l17.2-10.18-17.2-10.18" stroke="#5e5e5e" stroke-width="2" fill="none"/><use xlink:href="#H" transform="matrix(1,0,0,1,503.28395061728395,134.66666666666669) translate(0.005000000000002558 14.222222222222223)"/><use xlink:href="#I" transform="matrix(1,0,0,1,503.28395061728395,134.66666666666669) translate(25.68401234567902 14.222222222222223)"/><use xlink:href="#J" transform="matrix(1,0,0,1,503.28395061728395,134.66666666666669) translate(92.69635802469136 14.222222222222223)"/><path d="M160.33 217.94l177.22-57.63M160.35 217.93l-3.82 1.25" stroke="#5e5e5e" stroke-width="2" fill="none"/><path d="M338.5 160l.04 1.04-.7.23-.63-1.9 1.34-.43z" stroke="#5e5e5e" stroke-width=".05" fill="#5e5e5e"/><path d="M500 700c0 33.14-31.34 60-70 60s-70-26.86-70-60 31.34-60 70-60 70 26.86 70 60z" stroke="#5e5e5e" stroke-width="3" fill="#fff"/><use xlink:href="#L" transform="matrix(1,0,0,1,360,640) translate(40.55499999999999 40.65)"/><use xlink:href="#M" transform="matrix(1,0,0,1,360,640) translate(21.104999999999997 62.25)"/><use xlink:href="#N" transform="matrix(1,0,0,1,360,640) translate(41.004999999999995 83.85000000000001)"/><path d="M580 1080c0 33.14-31.34 60-70 60s-70-26.86-70-60 31.34-60 70-60 70 26.86 70 60z" stroke="#5e5e5e" stroke-width="3" fill="#fff"/><use xlink:href="#O" transform="matrix(1,0,0,1,440,1020) translate(17.07999999999999 63.15)"/><use xlink:href="#P" transform="matrix(1,0,0,1,440,1020) translate(97.98 63.15)"/><path d="M431 637.5h-2v-3.92h2zm0-11.77h-2v-7.85h2zm0-15.7h-2v-7.85h2zm0-31.4h-2v-7.84h2zm0-15.7h-2v-7.84h2zm0-15.7h-2v-3.9h2z" stroke="#5e5e5e" stroke-width=".05" fill="#5e5e5e"/><path d="M431 638.53l-1-.03-1 .03v-1.06h2z" fill="#5e5e5e"/><path d="M431.02 638.56l-1.02-.04-1.02.04v-1.1h2.04zm-2-1.06v1l.98-.03.98.04v-1zM441.04 560.17l-1.72 1.02-9.32-15.77-9.32 15.76-1.72-1.03L430 541.5z" stroke="#5e5e5e" stroke-width=".05" fill="#5e5e5e"/><use xlink:href="#H" transform="matrix(1,0,0,1,373.28395061728395,579.3333333333334) translate(0.005000000000002558 14.222222222222223)"/><use xlink:href="#I" transform="matrix(1,0,0,1,373.28395061728395,579.3333333333334) translate(25.68401234567902 14.222222222222223)"/><use xlink:href="#J" transform="matrix(1,0,0,1,373.28395061728395,579.3333333333334) translate(92.69635802469136 14.222222222222223)"/><path d="M439.14 1078.74l-1.9.62-278.5-859.85 1.9-.6z" stroke="#5e5e5e" stroke-width=".05" fill="#5e5e5e"/><path d="M160.65 218.92l-1.9.6-1.25-3.82 1.9-.6z" stroke="#5e5e5e" stroke-width=".05" fill="#5e5e5e"/><path d="M438.5 1080l.1 3.12-.13.04-1.24-3.83 1.3-.42z" fill="#5e5e5e"/><path d="M438.52 1080l.12 3.14-.18.05-1.26-3.88 1.36-.44zm-1.26-.65l1.23 3.78.08-.03-.1-3.1.03-1.06zM435.2 418.08l-3.97 1.1-.54-1.9 3.95-1.12zm15.82-4.44l-7.9 2.22-.56-1.93 7.92-2.22zm15.83-4.44l-7.92 2.22-.54-1.93 7.9-2.23zm15.83-4.44l-7.92 2.22-.54-1.93 7.92-2.22zm15.83-4.44l-7.9 2.22-.55-1.93 2.48-.68h5.87zm79.16-22.2l-1.7.46h-6.7l-.06-.18 7.92-2.22zm15.83-4.45l-7.93 2.22-.54-1.94 7.92-2.22zm15.82-4.44l-7.92 2.22-.54-1.93 7.92-2.22zm15.83-4.44l-7.92 2.2-.54-1.92 7.9-2.22zm11.87-3.35l-3.96 1.1-.54-1.9 3.96-1.12z" stroke="#5e5e5e" stroke-width=".05" fill="#5e5e5e"/><path d="M431.08 418.54l-1.08-.04-3.08.1-.08-.25 3.88-1.1z" fill="#5e5e5e"/><path d="M431.1 418.56l-1.1-.04-3.1.1-.1-.3 3.94-1.1zm-4.23-.2l.06.22 3.07-.1 1.04.03-.34-1.2zM638.5 360l-15 15.68-1.44-1.4 12.66-13.22-17.7-4.7.52-1.95z" stroke="#5e5e5e" stroke-width=".05" fill="#5e5e5e"/><use xlink:href="#H" transform="matrix(1,0,0,1,477.5334822288156,378.58286628160926) translate(0.005000000000002558 14.222222222222223)"/><use xlink:href="#I" transform="matrix(1,0,0,1,477.5334822288156,378.58286628160926) translate(25.68401234567902 14.222222222222223)"/><use xlink:href="#J" transform="matrix(1,0,0,1,477.5334822288156,378.58286628160926) translate(92.69635802469136 14.222222222222223)"/><path d="M506.13 697.72l-3.23 2.47-1.2-1.6 3.2-2.47zm12.9-9.85l-6.45 4.92-1.22-1.6 6.45-4.92zm12.9-9.86l-6.46 4.94-1.2-1.6 6.44-4.92zm12.9-9.85l-6.46 4.93-1.22-1.6 6.45-4.92zm12.88-9.86l-6.44 4.92-1.2-1.6 6.44-4.92zm6.46-4.93l-1.2-1.6 1.44-1.1h3.3zm32.24-24.65l-.8.6h-3.3l2.9-2.2zm12.9-9.86l-6.45 4.93-1.2-1.6 6.44-4.93zm12.9-9.85l-6.45 4.93-1.22-1.58 6.45-4.93zm12.9-9.85l-6.46 4.93-1.2-1.6 6.44-4.92zm12.9-9.86l-6.46 4.92-1.2-1.6 6.43-4.92zm9.66-7.4l-3.22 2.46-1.22-1.6 3.23-2.45z" stroke="#5e5e5e" stroke-width=".05" fill="#5e5e5e"/><path d="M502.92 700.17l-1.47 1.12.05-1.3-.04-1.23.25-.2z" fill="#5e5e5e"/><path d="M502.96 700.18l-1.53 1.17.05-1.35-.05-1.24.28-.2zm-1.48-1.4l.05 1.22-.05 1.24 1.4-1.07-1.18-1.55zM650.37 600.1l-1.85-.74 6.86-16.97-18.18 2.15-.24-1.98L658.5 580z" stroke="#5e5e5e" stroke-width=".05" fill="#5e5e5e"/><g><use xlink:href="#H" transform="matrix(1,0,0,1,520.8148148148148,629.3333333333334) translate(0.005000000000002558 14.222222222222223)"/><use xlink:href="#Q" transform="matrix(1,0,0,1,520.8148148148148,629.3333333333334) translate(25.68401234567902 14.222222222222223)"/><use xlink:href="#J" transform="matrix(1,0,0,1,520.8148148148148,629.3333333333334) translate(97.63462962962964 14.222222222222223)"/></g><path d="M657.16 758.42l-.72 1.87-3.86-1.5.72-1.86zM645.58 754l-.7 1.86-7.73-2.95.7-1.86zm-15.44-5.9l-.7 1.86-7.73-2.95.72-1.86zm-15.43-5.9l-.7 1.86-7.73-2.95.18-.43h4.26zm-61.74-23.6l-.28.73h-3.4l-4.75-1.82.7-1.85zm-15.44-5.9l-.7 1.87-7.73-2.96.7-1.85zm-15.43-5.9l-.73 1.87-7.72-2.95.72-1.87zm-15.45-5.9l-.7 1.87-3.87-1.48.7-1.88z" stroke="#5e5e5e" stroke-width=".05" fill="#5e5e5e"/><path d="M502.82 699.43l-.72 1.87-.64-.24.04-1.06-.04-1.1z" fill="#5e5e5e"/><path d="M502.85 699.42l-.73 1.9-.68-.25.04-1.07-.04-1.12zm-1.32.58l-.04 1.04.6.23.68-1.82-1.3-.5zM658.5 760l-21.38 3.65-.34-1.97 18.05-3.08-11.4-14.34 1.57-1.24z" stroke="#5e5e5e" stroke-width=".05" fill="#5e5e5e"/><g><use xlink:href="#H" transform="matrix(1,0,0,1,520.8148148148148,719.3333333333334) translate(0.005000000000002558 14.222222222222223)"/><use xlink:href="#Q" transform="matrix(1,0,0,1,520.8148148148148,719.3333333333334) translate(25.68401234567902 14.222222222222223)"/><use xlink:href="#J" transform="matrix(1,0,0,1,520.8148148148148,719.3333333333334) translate(97.63462962962964 14.222222222222223)"/></g><path d="M510.66 1017.25l-1.9.6-1.18-3.75 1.9-.6zm-3.5-11.22l-1.9.6-2.33-7.5 1.9-.58zm-4.65-14.96l-1.9.6-2.33-7.5 1.9-.58zm-4.65-14.96l-1.9.6-2.34-7.48 1.92-.6zm-4.66-14.95l-1.9.6-2.34-7.5 1.9-.58zm-4.66-14.96l-1.9.58-2.34-7.48 1.9-.6zm-4.66-14.97l-1.9.6-2.34-7.48 1.9-.6zm-4.65-14.96l-1.9.6-2.34-7.48 1.9-.6zm-4.66-14.96l-1.9.6-.4-1.23h2.1zm-6.84-21.97h-1.62l1.48-.46zm-2.47-7.94l-1.9.6-2.34-7.5 1.9-.6zm-4.66-14.97l-1.9.6-2.34-7.48 1.9-.6zm-4.66-14.95l-1.9.6-2.34-7.5 1.9-.58zm-4.65-14.96l-1.92.6-2.33-7.5 1.9-.58zm-4.67-14.96l-1.9.6-2.34-7.5 1.9-.58zm-4.66-14.96l-1.9.6-2.33-7.5 1.9-.58zm-4.65-14.96l-1.9.6-2.34-7.5 1.9-.58zm-4.66-14.96l-1.9.6-1.17-3.75 1.9-.6z" stroke="#5e5e5e" stroke-width=".05" fill="#5e5e5e"/><path d="M446.1 776.05l-1.35 1.48-13.58-12.28-4.22 17.82-1.94-.46 5-21.1z" stroke="#5e5e5e" stroke-width=".05" fill="#5e5e5e"/><path d="M511.06 1018.54l-1.06-.04-1.04.04-.22-.72 1.9-.6z" fill="#5e5e5e"/><path d="M511.1 1018.56l-1.1-.04-1.05.04-.24-.76 1.97-.6zm-2.33-.73l.2.68 1.03-.03 1.02.04-.4-1.25z" stroke="#5e5e5e" stroke-width=".05" fill="#5e5e5e"/><g><use xlink:href="#H" transform="matrix(1,0,0,1,413.28395061728395,879.3333333333334) translate(0.005000000000002558 14.222222222222223)"/><use xlink:href="#I" transform="matrix(1,0,0,1,413.28395061728395,879.3333333333334) translate(25.68401234567902 14.222222222222223)"/><use xlink:href="#J" transform="matrix(1,0,0,1,413.28395061728395,879.3333333333334) translate(92.69635802469136 14.222222222222223)"/></g><path d="M1639.12 958.86l-1056.5 122.02-.24-2 1056.5-122z" stroke="#5e5e5e" stroke-width=".05" fill="#5e5e5e"/><path d="M1643.02 957.75H1640v1l-.9.1-.23-1.98 4-.46z" fill="#5e5e5e"/><path d="M1643.05 957.77h-3.02v1l-.96.12-.23-2.05 4.05-.47zm-4.16-.87l.22 1.93.86-.1v-1h3l-.14-1.3z" stroke="#5e5e5e" stroke-width=".05" fill="#5e5e5e"/><path d="M582.63 1080.88l-1.16.13.03-1-.03-1 .93-.1z" fill="#5e5e5e"/><path d="M582.66 1080.9l-1.22.14.04-1.04-.04-1.03 1-.1zm-1.17-1.88l.03.98-.04.98 1.1-.13-.22-1.93z" stroke="#5e5e5e" stroke-width=".05" fill="#5e5e5e"/><path d="M586.28 1078.2l-3.4 2.12-1.06-1.7 3.4-2.13zm13.6-8.52l-6.8 4.25-1.07-1.7 6.8-4.25zm13.6-8.5l-6.8 4.24-1.07-1.7 6.8-4.25zm13.58-8.52l-6.8 4.25-1.06-1.68 6.8-4.26zm13.6-8.5l-6.8 4.24-1.06-1.7 6.8-4.25zm13.6-8.52l-6.8 4.25-1.07-1.7 6.8-4.26zm13.58-8.5l-6.8 4.24-1.06-1.7 6.8-4.25zm13.6-8.52l-6.8 4.25-1.06-1.7 6.8-4.25zm13.6-8.5l-6.8 4.24-1.07-1.7 6.8-4.25zm13.58-8.52l-6.8 4.25-1.05-1.7 6.8-4.25zm13.6-8.5l-6.8 4.24-1.06-1.7 6.8-4.25zm13.6-8.52l-6.8 4.25-1.07-1.7 6.8-4.25zm13.6-8.5l-6.8 4.24-1.07-1.7 6.8-4.25zm13.58-8.52l-6.8 4.25-1.06-1.68 6.8-4.26zm13.6-8.5l-6.8 4.24-1.06-1.7 6.8-4.25zm13.6-8.52l-6.8 4.25-1.07-1.7 6.8-4.26zm13.58-8.5l-6.8 4.24-1.06-1.7 6.8-4.25zm13.6-8.52l-6.8 4.25-1.06-1.7 6.8-4.25zm13.6-8.52l-6.8 4.26-1.07-1.7 6.8-4.25zm13.6-8.5l-6.8 4.25-1.07-1.7 6.8-4.25zm13.58-8.52l-6.8 4.26-1.06-1.7 6.8-4.25zm13.6-8.5l-6.8 4.25-1.07-1.7 6.8-4.25zm13.6-8.52l-6.8 4.26-1.07-1.7 6.8-4.25zm13.58-8.5l-6.8 4.25-1.06-1.7 5.75-3.58h1.46zm40.78-25.54l-5.05 3.16h-2.43l-.37-.6 6.8-4.25zm13.6-8.5l-6.8 4.25-1.06-1.7 6.8-4.25zm13.6-8.52l-6.8 4.26-1.07-1.7 6.8-4.25zm13.6-8.5l-6.8 4.25-1.07-1.7 6.8-4.25zm13.58-8.52l-6.8 4.26-1.06-1.7 6.8-4.25zm13.6-8.5l-6.8 4.25-1.06-1.7 6.8-4.25zm13.6-8.52l-6.8 4.26-1.07-1.7 6.8-4.25zm13.58-8.5l-6.8 4.25-1.06-1.7 6.8-4.25zm13.6-8.52l-6.8 4.25-1.06-1.7 6.8-4.25zm13.6-8.5l-6.8 4.25-1.07-1.7 6.8-4.27zm13.6-8.52l-6.8 4.25-1.07-1.7 6.8-4.25zm13.58-8.5l-6.8 4.24-1.06-1.7 6.8-4.25zm13.6-8.52l-6.8 4.25-1.07-1.7 6.8-4.25zm13.6-8.5l-6.8 4.24-1.07-1.7 6.8-4.25zm13.58-8.52l-6.8 4.25-1.06-1.7 6.8-4.25zm13.6-8.5l-6.8 4.24-1.06-1.7 6.8-4.25zm13.6-8.52l-6.8 4.25-1.07-1.68 6.8-4.26zm13.58-8.5l-6.8 4.24-1.06-1.7 6.8-4.25zm13.6-8.52l-6.8 4.25-1.06-1.7 6.8-4.26zm13.6-8.5l-6.8 4.24-1.07-1.7 6.8-4.25zm13.6-8.52l-6.8 4.25-1.07-1.7 6.8-4.25zm13.58-8.5l-6.8 4.24-1.06-1.7 6.8-4.25zm13.6-8.52l-6.8 4.25-1.06-1.7 6.8-4.25zm10.2-6.4l-3.4 2.14-1.07-1.7 3.4-2.12z" stroke="#5e5e5e" stroke-width=".05" fill="#5e5e5e"/><path d="M582.9 1080.3l-1.44.9.04-1.2-.04-1.15.38-.24z" fill="#5e5e5e"/><path d="M582.93 1080.3l-1.5.95.05-1.25-.05-1.17.42-.26zm-1.44-1.44l.03 1.14-.04 1.16 1.37-.87-1.04-1.66zM1240.03 680.77l-1.77-.92 8.4-16.26-18.3.45-.04-2 21.68-.55z" stroke="#5e5e5e" stroke-width=".05" fill="#5e5e5e"/><g><use xlink:href="#H" transform="matrix(1,0,0,1,859.0344190057523,860.0838003850574) translate(0.005000000000002558 14.222222222222223)"/><use xlink:href="#I" transform="matrix(1,0,0,1,859.0344190057523,860.0838003850574) translate(25.68401234567902 14.222222222222223)"/><use xlink:href="#J" transform="matrix(1,0,0,1,859.0344190057523,860.0838003850574) translate(92.69635802469136 14.222222222222223)"/></g><path d="M586.58 1079.4l-3.82 1.24-.62-1.9 3.82-1.25zm15.28-5l-7.64 2.5-.62-1.9 7.64-2.5zm15.27-4.97l-7.64 2.5-.63-1.9 7.64-2.5zm15.28-5l-7.63 2.5-.62-1.9 7.64-2.5zm15.28-4.97l-7.64 2.5-.62-1.9 7.64-2.5zm15.28-4.98l-7.64 2.5-.62-1.9 7.64-2.5zm15.27-4.98l-7.63 2.5-.63-1.9 7.64-2.5zm15.28-5l-7.63 2.5-.62-1.9 7.64-2.5zm15.28-4.97l-7.63 2.5-.62-1.9 7.63-2.5zm15.28-4.98l-7.64 2.5-.62-1.9 7.64-2.5zm15.27-5l-7.63 2.5-.62-1.9 7.63-2.5zm15.28-4.97l-7.63 2.5-.62-1.9 7.64-2.5zm15.28-4.98l-7.63 2.5-.62-1.9 7.63-2.5zm15.28-5l-7.64 2.5-.62-1.9 7.64-2.5zm15.28-4.97l-7.64 2.5-.62-1.9 7.64-2.5zm15.27-4.98l-7.63 2.5-.62-1.9 7.64-2.5zm15.3-5l-7.65 2.5-.62-1.9 7.64-2.5zm15.26-4.97l-7.64 2.5-.62-1.9 7.64-2.5zm15.28-4.98l-7.64 2.5-.62-1.9 7.64-2.5zm15.27-5l-7.63 2.5-.62-1.9 7.64-2.5zm15.3-4.97l-7.65 2.5-.62-1.9 7.64-2.5zm15.26-4.98l-7.63 2.5-.63-1.9 7.64-2.5zm15.28-5l-7.64 2.5-.62-1.9 7.64-2.5zm15.27-4.97l-7.62 2.5-.62-1.9 7.63-2.5zm7.65-2.5l-.53-1.6h5.5zm68.57-22.95h-4.65l4.2-1.37zm15.45-4.45l-7.64 2.5-.62-1.9 7.65-2.5zm15.27-4.98l-7.64 2.5-.62-1.9 7.64-2.5zm15.28-4.98l-7.64 2.5-.62-1.9 7.64-2.5zm15.27-5l-7.64 2.5-.63-1.9 7.64-2.5zm15.27-4.97l-7.64 2.5-.62-1.9 7.65-2.5zm15.27-4.98l-7.63 2.5-.62-1.9 7.64-2.5zm15.28-5l-7.64 2.5-.62-1.9 7.64-2.5zm15.27-4.97l-7.64 2.5-.62-1.9 7.63-2.5zm15.27-4.98l-7.64 2.5-.62-1.9 7.65-2.5zm15.27-5l-7.63 2.5-.6-1.9 7.62-2.5zm15.28-4.97l-7.64 2.5-.62-1.9 7.64-2.5zm15.28-4.98l-7.64 2.5-.62-1.9 7.63-2.5zm15.27-5l-7.64 2.5-.62-1.9 7.65-2.5zm15.28-4.97l-7.64 2.5-.6-1.9 7.63-2.5zm15.27-4.98l-7.64 2.5-.62-1.9 7.64-2.5zm15.28-5l-7.64 2.5-.62-1.9 7.64-2.5zm15.27-4.97l-7.64 2.5-.62-1.9 7.65-2.5zm15.28-4.98l-7.64 2.5-.6-1.9 7.63-2.5zm15.27-5l-7.63 2.5-.63-1.9 7.63-2.5zm15.28-4.97l-7.64 2.5-.62-1.9 7.64-2.5zm15.27-4.98l-7.63 2.5-.63-1.9 7.65-2.5zm15.28-5l-7.64 2.5-.6-1.9 7.63-2.5zm15.27-4.97l-7.63 2.5-.63-1.9 7.63-2.5zm11.46-3.74l-3.82 1.26-.62-1.9 3.82-1.25z" stroke="#5e5e5e" stroke-width=".05" fill="#5e5e5e"/><path d="M582.8 1080.63l-1.34.43.04-1.06-.04-1.04.7-.23z" fill="#5e5e5e"/><path d="M582.82 1080.65l-1.38.45.04-1.1-.04-1.06.74-.24zm-1.33-1.67l.03 1.02-.04 1.03 1.25-.4-.6-1.87zM1378.5 820l-14.33 16.3-1.5-1.33 12.1-13.75-17.88-3.97.42-1.96z" stroke="#5e5e5e" stroke-width=".05" fill="#5e5e5e"/><g><use xlink:href="#H" transform="matrix(1,0,0,1,920.8148148148148,939.3333333333334) translate(0.005000000000002558 14.222222222222223)"/><use xlink:href="#Q" transform="matrix(1,0,0,1,920.8148148148148,939.3333333333334) translate(25.68401234567902 14.222222222222223)"/><use xlink:href="#J" transform="matrix(1,0,0,1,920.8148148148148,939.3333333333334) translate(97.63462962962964 14.222222222222223)"/></g><path d="M800 760c0 33.14-31.34 60-70 60s-70-26.86-70-60 31.34-60 70-60 70 26.86 70 60z" stroke="#5e5e5e" stroke-width="3" fill="#fff"/><g><use xlink:href="#R" transform="matrix(1,0,0,1,660,700) translate(35.07999999999999 51.9)"/><use xlink:href="#q" transform="matrix(1,0,0,1,660,700) translate(84.93 51.9)"/><use xlink:href="#S" transform="matrix(1,0,0,1,660,700) translate(40.529999999999994 73.5)"/></g><defs><path fill="#333" d="M30 0v-248h187v28H63v79h144v27H63v87h162V0H30" id="T"/><path fill="#333" d="M141 0L90-78 38 0H4l68-98-65-92h35l48 74 47-74h35l-64 92 68 98h-35" id="U"/><path fill="#333" d="M115-194c55 1 70 41 70 98S169 2 115 4C84 4 66-9 55-30l1 105H24l-1-265h31l2 30c10-21 28-34 59-34zm-8 174c40 0 45-34 45-75s-6-73-45-74c-42 0-51 32-51 76 0 43 10 73 51 73" id="V"/><path fill="#333" d="M114-163C36-179 61-72 57 0H25l-1-190h30c1 12-1 29 2 39 6-27 23-49 58-41v29" id="W"/><path fill="#333" d="M100-194c63 0 86 42 84 106H49c0 40 14 67 53 68 26 1 43-12 49-29l28 8c-11 28-37 45-77 45C44 4 14-33 15-96c1-61 26-98 85-98zm52 81c6-60-76-77-97-28-3 7-6 17-6 28h103" id="X"/><path fill="#333" d="M135-143c-3-34-86-38-87 0 15 53 115 12 119 90S17 21 10-45l28-5c4 36 97 45 98 0-10-56-113-15-118-90-4-57 82-63 122-42 12 7 21 19 24 35" id="Y"/><path fill="#333" d="M63-220v92h138v28H63V0H30v-248h175v28H63" id="Z"/><path fill="#333" d="M100-194c62-1 85 37 85 99 1 63-27 99-86 99S16-35 15-95c0-66 28-99 85-99zM99-20c44 1 53-31 53-75 0-43-8-75-51-75s-53 32-53 75 10 74 51 75" id="aa"/><path fill="#333" d="M85-194c31 0 48 13 60 33l-1-100h32l1 261h-30c-2-10 0-23-3-31C134-8 116 4 85 4 32 4 16-35 15-94c0-66 23-100 70-100zm9 24c-40 0-46 34-46 75 0 40 6 74 45 74 42 0 51-32 51-76 0-42-9-74-50-73" id="ab"/><g id="a"><use transform="matrix(0.06172839506172839,0,0,0.06172839506172839,0,0)" xlink:href="#T"/><use transform="matrix(0.06172839506172839,0,0,0.06172839506172839,14.814814814814813,0)" xlink:href="#U"/><use transform="matrix(0.06172839506172839,0,0,0.06172839506172839,25.925925925925924,0)" xlink:href="#V"/><use transform="matrix(0.06172839506172839,0,0,0.06172839506172839,38.2716049382716,0)" xlink:href="#W"/><use transform="matrix(0.06172839506172839,0,0,0.06172839506172839,45.61728395061728,0)" xlink:href="#X"/><use transform="matrix(0.06172839506172839,0,0,0.06172839506172839,57.962962962962955,0)" xlink:href="#Y"/><use transform="matrix(0.06172839506172839,0,0,0.06172839506172839,69.07407407407406,0)" xlink:href="#Y"/><use transform="matrix(0.06172839506172839,0,0,0.06172839506172839,80.18518518518518,0)" xlink:href="#Z"/><use transform="matrix(0.06172839506172839,0,0,0.06172839506172839,93.7037037037037,0)" xlink:href="#aa"/><use transform="matrix(0.06172839506172839,0,0,0.06172839506172839,106.04938271604938,0)" xlink:href="#aa"/><use transform="matrix(0.06172839506172839,0,0,0.06172839506172839,118.39506172839506,0)" xlink:href="#ab"/></g><path fill="#333" d="M16-82v-28h88v28H16" id="ac"/><use transform="matrix(0.06172839506172839,0,0,0.06172839506172839,0,0)" xlink:href="#ac" id="b"/><path fill="#333" d="M96-169c-40 0-48 33-48 73s9 75 48 75c24 0 41-14 43-38l32 2c-6 37-31 61-74 61-59 0-76-41-82-99-10-93 101-131 147-64 4 7 5 14 7 22l-32 3c-4-21-16-35-41-35" id="ad"/><path fill="#333" d="M100-194c63 0 86 42 84 106H49c0 40 14 67 53 68 26 1 43-12 49-29l28 8c-11 28-37 45-77 45C44 4 14-33 15-96c1-61 26-98 85-98zm52 81c6-60-76-77-97-28-3 7-6 17-6 28h103zm-74-98c8-23 27-35 38-54h36v5l-58 49H78" id="ae"/><path fill="#333" d="M141-36C126-15 110 5 73 4 37 3 15-17 15-53c-1-64 63-63 125-63 3-35-9-54-41-54-24 1-41 7-42 31l-33-3c5-37 33-52 76-52 45 0 72 20 72 64v82c-1 20 7 32 28 27v20c-31 9-61-2-59-35zM48-53c0 20 12 33 32 33 41-3 63-29 60-74-43 2-92-5-92 41" id="af"/><path fill="#333" d="M59-47c-2 24 18 29 38 22v24C64 9 27 4 27-40v-127H5v-23h24l9-43h21v43h35v23H59v120" id="ag"/><path fill="#333" d="M24-231v-30h32v30H24zM24 0v-190h32V0H24" id="ah"/><path fill="#333" d="M117-194c89-4 53 116 60 194h-32v-121c0-31-8-49-39-48C34-167 62-67 57 0H25l-1-190h30c1 10-1 24 2 32 11-22 29-35 61-36" id="ai"/><g id="c"><use transform="matrix(0.06172839506172839,0,0,0.06172839506172839,0,0)" xlink:href="#ad"/><use transform="matrix(0.06172839506172839,0,0,0.06172839506172839,11.11111111111111,0)" xlink:href="#W"/><use transform="matrix(0.06172839506172839,0,0,0.06172839506172839,18.45679012345679,0)" xlink:href="#ae"/><use transform="matrix(0.06172839506172839,0,0,0.06172839506172839,30.80246913580247,0)" xlink:href="#af"/><use transform="matrix(0.06172839506172839,0,0,0.06172839506172839,43.148148148148145,0)" xlink:href="#ag"/><use transform="matrix(0.06172839506172839,0,0,0.06172839506172839,49.32098765432099,0)" xlink:href="#ah"/><use transform="matrix(0.06172839506172839,0,0,0.06172839506172839,54.19753086419753,0)" xlink:href="#aa"/><use transform="matrix(0.06172839506172839,0,0,0.06172839506172839,66.54320987654322,0)" xlink:href="#ai"/></g><g id="d"><use transform="matrix(0.06172839506172839,0,0,0.06172839506172839,0,0)" xlink:href="#ab"/><use transform="matrix(0.06172839506172839,0,0,0.06172839506172839,12.345679012345679,0)" xlink:href="#X"/></g><path fill="#333" d="M210-169c-67 3-38 105-44 169h-31v-121c0-29-5-50-35-48C34-165 62-65 56 0H25l-1-190h30c1 10-1 24 2 32 10-44 99-50 107 0 11-21 27-35 58-36 85-2 47 119 55 194h-31v-121c0-29-5-49-35-48" id="aj"/><g id="e"><use transform="matrix(0.06172839506172839,0,0,0.06172839506172839,0,0)" xlink:href="#ad"/><use transform="matrix(0.06172839506172839,0,0,0.06172839506172839,11.11111111111111,0)" xlink:href="#aa"/><use transform="matrix(0.06172839506172839,0,0,0.06172839506172839,23.45679012345679,0)" xlink:href="#aj"/><use transform="matrix(0.06172839506172839,0,0,0.06172839506172839,41.91358024691358,0)" xlink:href="#aj"/><use transform="matrix(0.06172839506172839,0,0,0.06172839506172839,60.37037037037037,0)" xlink:href="#af"/><use transform="matrix(0.06172839506172839,0,0,0.06172839506172839,72.71604938271605,0)" xlink:href="#ai"/><use transform="matrix(0.06172839506172839,0,0,0.06172839506172839,85.06172839506173,0)" xlink:href="#ab"/><use transform="matrix(0.06172839506172839,0,0,0.06172839506172839,97.40740740740742,0)" xlink:href="#X"/></g><path fill="#3a414a" d="M232-93c-1 65-40 97-104 97C67 4 28-28 28-90v-158h33c8 89-33 224 67 224 102 0 64-133 71-224h33v155" id="ak"/><path fill="#3a414a" d="M59-47c-2 24 18 29 38 22v24C64 9 27 4 27-40v-127H5v-23h24l9-43h21v43h35v23H59v120" id="al"/><path fill="#3a414a" d="M24-231v-30h32v30H24zM24 0v-190h32V0H24" id="am"/><path fill="#3a414a" d="M24 0v-261h32V0H24" id="an"/><path fill="#3a414a" d="M135-143c-3-34-86-38-87 0 15 53 115 12 119 90S17 21 10-45l28-5c4 36 97 45 98 0-10-56-113-15-118-90-4-57 82-63 122-42 12 7 21 19 24 35" id="ao"/><path fill="#3a414a" d="M141-36C126-15 110 5 73 4 37 3 15-17 15-53c-1-64 63-63 125-63 3-35-9-54-41-54-24 1-41 7-42 31l-33-3c5-37 33-52 76-52 45 0 72 20 72 64v82c-1 20 7 32 28 27v20c-31 9-61-2-59-35zM48-53c0 20 12 33 32 33 41-3 63-29 60-74-43 2-92-5-92 41" id="ap"/><path fill="#3a414a" d="M100-194c63 0 86 42 84 106H49c0 40 14 67 53 68 26 1 43-12 49-29l28 8c-11 28-37 45-77 45C44 4 14-33 15-96c1-61 26-98 85-98zm52 81c6-60-76-77-97-28-3 7-6 17-6 28h103" id="aq"/><path fill="#3a414a" d="M84 4C-5 8 30-112 23-190h32v120c0 31 7 50 39 49 72-2 45-101 50-169h31l1 190h-30c-1-10 1-25-2-33-11 22-28 36-60 37" id="ar"/><path fill="#3a414a" d="M114-163C36-179 61-72 57 0H25l-1-190h30c1 12-1 29 2 39 6-27 23-49 58-41v29" id="as"/><path fill="#3a414a" d="M33-78v-39h34v39H33" id="at"/><path fill="#3a414a" d="M96-169c-40 0-48 33-48 73s9 75 48 75c24 0 41-14 43-38l32 2c-6 37-31 61-74 61-59 0-76-41-82-99-10-93 101-131 147-64 4 7 5 14 7 22l-32 3c-4-21-16-35-41-35" id="au"/><g id="f"><use transform="matrix(0.06172839506172839,0,0,0.06172839506172839,0,0)" xlink:href="#ak"/><use transform="matrix(0.06172839506172839,0,0,0.06172839506172839,15.987654320987653,0)" xlink:href="#al"/><use transform="matrix(0.06172839506172839,0,0,0.06172839506172839,22.160493827160494,0)" xlink:href="#am"/><use transform="matrix(0.06172839506172839,0,0,0.06172839506172839,27.037037037037038,0)" xlink:href="#an"/><use transform="matrix(0.06172839506172839,0,0,0.06172839506172839,31.913580246913586,0)" xlink:href="#am"/><use transform="matrix(0.06172839506172839,0,0,0.06172839506172839,36.79012345679013,0)" xlink:href="#ao"/><use transform="matrix(0.06172839506172839,0,0,0.06172839506172839,47.90123456790124,0)" xlink:href="#ap"/><use transform="matrix(0.06172839506172839,0,0,0.06172839506172839,60.24691358024692,0)" xlink:href="#al"/><use transform="matrix(0.06172839506172839,0,0,0.06172839506172839,66.41975308641976,0)" xlink:href="#aq"/><use transform="matrix(0.06172839506172839,0,0,0.06172839506172839,78.76543209876544,0)" xlink:href="#ar"/><use transform="matrix(0.06172839506172839,0,0,0.06172839506172839,91.11111111111113,0)" xlink:href="#as"/><use transform="matrix(0.06172839506172839,0,0,0.06172839506172839,98.45679012345681,0)" xlink:href="#at"/><use transform="matrix(0.06172839506172839,0,0,0.06172839506172839,104.62962962962965,0)" xlink:href="#as"/><use transform="matrix(0.06172839506172839,0,0,0.06172839506172839,111.97530864197533,0)" xlink:href="#am"/><use transform="matrix(0.06172839506172839,0,0,0.06172839506172839,116.85185185185188,0)" xlink:href="#au"/><use transform="matrix(0.06172839506172839,0,0,0.06172839506172839,127.96296296296299,0)" xlink:href="#aq"/></g><path fill="#333" d="M30 0v-248h33v221h125V0H30" id="av"/><path fill="#333" d="M108 0H70L1-190h34L89-25l56-165h34" id="aw"/><path fill="#333" d="M84 4C-5 8 30-112 23-190h32v120c0 31 7 50 39 49 72-2 45-101 50-169h31l1 190h-30c-1-10 1-25-2-33-11 22-28 36-60 37" id="ax"/><g id="g"><use transform="matrix(0.06172839506172839,0,0,0.06172839506172839,0,0)" xlink:href="#av"/><use transform="matrix(0.06172839506172839,0,0,0.06172839506172839,12.345679012345679,0)" xlink:href="#ah"/><use transform="matrix(0.06172839506172839,0,0,0.06172839506172839,17.22222222222222,0)" xlink:href="#aw"/><use transform="matrix(0.06172839506172839,0,0,0.06172839506172839,28.333333333333332,0)" xlink:href="#W"/><use transform="matrix(0.06172839506172839,0,0,0.06172839506172839,35.67901234567901,0)" xlink:href="#X"/><use transform="matrix(0.06172839506172839,0,0,0.06172839506172839,48.02469135802469,0)" xlink:href="#ax"/><use transform="matrix(0.06172839506172839,0,0,0.06172839506172839,60.37037037037037,0)" xlink:href="#W"/><use transform="matrix(0.06172839506172839,0,0,0.06172839506172839,67.71604938271605,0)" xlink:href="#at"/><use transform="matrix(0.06172839506172839,0,0,0.06172839506172839,73.88888888888889,0)" xlink:href="#aq"/><use transform="matrix(0.06172839506172839,0,0,0.06172839506172839,86.23456790123457,0)" xlink:href="#ar"/><use transform="matrix(0.06172839506172839,0,0,0.06172839506172839,98.58024691358025,0)" xlink:href="#ao"/><use transform="matrix(0.06172839506172839,0,0,0.06172839506172839,109.69135802469137,0)" xlink:href="#aq"/></g><path d="M212-179c-10-28-35-45-73-45-59 0-87 40-87 99 0 60 29 101 89 101 43 0 62-24 78-52l27 14C228-24 195 4 139 4 59 4 22-46 18-125c-6-104 99-153 187-111 19 9 31 26 39 46" id="ay"/><path d="M100-194c62-1 85 37 85 99 1 63-27 99-86 99S16-35 15-95c0-66 28-99 85-99zM99-20c44 1 53-31 53-75 0-43-8-75-51-75s-53 32-53 75 10 74 51 75" id="az"/><path d="M117-194c89-4 53 116 60 194h-32v-121c0-31-8-49-39-48C34-167 62-67 57 0H25l-1-190h30c1 10-1 24 2 32 11-22 29-35 61-36" id="aA"/><path d="M135-143c-3-34-86-38-87 0 15 53 115 12 119 90S17 21 10-45l28-5c4 36 97 45 98 0-10-56-113-15-118-90-4-57 82-63 122-42 12 7 21 19 24 35" id="aB"/><path d="M84 4C-5 8 30-112 23-190h32v120c0 31 7 50 39 49 72-2 45-101 50-169h31l1 190h-30c-1-10 1-25-2-33-11 22-28 36-60 37" id="aC"/><path d="M24 0v-261h32V0H24" id="aD"/><path d="M59-47c-2 24 18 29 38 22v24C64 9 27 4 27-40v-127H5v-23h24l9-43h21v43h35v23H59v120" id="aE"/><path d="M100-194c63 0 86 42 84 106H49c0 40 14 67 53 68 26 1 43-12 49-29l28 8c-11 28-37 45-77 45C44 4 14-33 15-96c1-61 26-98 85-98zm52 81c6-60-76-77-97-28-3 7-6 17-6 28h103" id="aF"/><path d="M114-163C36-179 61-72 57 0H25l-1-190h30c1 12-1 29 2 39 6-27 23-49 58-41v29" id="aG"/><g id="h"><use transform="matrix(0.05,0,0,0.05,0,0)" xlink:href="#ay"/><use transform="matrix(0.05,0,0,0.05,12.950000000000001,0)" xlink:href="#az"/><use transform="matrix(0.05,0,0,0.05,22.950000000000003,0)" xlink:href="#aA"/><use transform="matrix(0.05,0,0,0.05,32.95,0)" xlink:href="#aB"/><use transform="matrix(0.05,0,0,0.05,41.95,0)" xlink:href="#aC"/><use transform="matrix(0.05,0,0,0.05,51.95,0)" xlink:href="#aD"/><use transform="matrix(0.05,0,0,0.05,55.900000000000006,0)" xlink:href="#aE"/><use transform="matrix(0.05,0,0,0.05,60.900000000000006,0)" xlink:href="#aF"/><use transform="matrix(0.05,0,0,0.05,70.9,0)" xlink:href="#aG"/></g><path d="M141-36C126-15 110 5 73 4 37 3 15-17 15-53c-1-64 63-63 125-63 3-35-9-54-41-54-24 1-41 7-42 31l-33-3c5-37 33-52 76-52 45 0 72 20 72 64v82c-1 20 7 32 28 27v20c-31 9-61-2-59-35zM48-53c0 20 12 33 32 33 41-3 63-29 60-74-43 2-92-5-92 41" id="aH"/><g id="i"><use transform="matrix(0.05,0,0,0.05,0,0)" xlink:href="#aD"/><use transform="matrix(0.05,0,0,0.05,3.95,0)" xlink:href="#aH"/></g><path d="M24-231v-30h32v30H24zM24 0v-190h32V0H24" id="aI"/><g id="j"><use transform="matrix(0.05,0,0,0.05,0,0)" xlink:href="#aD"/><use transform="matrix(0.05,0,0,0.05,3.95,0)" xlink:href="#aI"/><use transform="matrix(0.05,0,0,0.05,7.9,0)" xlink:href="#aB"/><use transform="matrix(0.05,0,0,0.05,16.9,0)" xlink:href="#aE"/><use transform="matrix(0.05,0,0,0.05,21.9,0)" xlink:href="#aF"/></g><path d="M85-194c31 0 48 13 60 33l-1-100h32l1 261h-30c-2-10 0-23-3-31C134-8 116 4 85 4 32 4 16-35 15-94c0-66 23-100 70-100zm9 24c-40 0-46 34-46 75 0 40 6 74 45 74 42 0 51-32 51-76 0-42-9-74-50-73" id="aJ"/><g id="k"><use transform="matrix(0.05,0,0,0.05,0,0)" xlink:href="#aJ"/><use transform="matrix(0.05,0,0,0.05,10,0)" xlink:href="#aF"/><use transform="matrix(0.05,0,0,0.05,20,0)" xlink:href="#aB"/></g><path d="M115-194c55 1 70 41 70 98S169 2 115 4C84 4 66-9 55-30l1 105H24l-1-265h31l2 30c10-21 28-34 59-34zm-8 174c40 0 45-34 45-75s-6-73-45-74c-42 0-51 32-51 76 0 43 10 73 51 73" id="aK"/><g id="l"><use transform="matrix(0.05,0,0,0.05,0,0)" xlink:href="#aK"/><use transform="matrix(0.05,0,0,0.05,10,0)" xlink:href="#aD"/><use transform="matrix(0.05,0,0,0.05,13.949999999999998,0)" xlink:href="#aH"/><use transform="matrix(0.05,0,0,0.05,23.95,0)" xlink:href="#aE"/><use transform="matrix(0.05,0,0,0.05,28.950000000000003,0)" xlink:href="#aB"/></g><path fill="#333" d="M160-131c35 5 61 23 61 61C221 17 115-2 30 0v-248c76 3 177-17 177 60 0 33-19 50-47 57zm-97-11c50-1 110 9 110-42 0-47-63-36-110-37v79zm0 115c55-2 124 14 124-45 0-56-70-42-124-44v89" id="aL"/><path fill="#333" d="M145-31C134-9 116 4 85 4 32 4 16-35 15-94c0-59 17-99 70-100 32-1 48 14 60 33 0-11-1-24 2-32h30l-1 268h-32zM93-21c41 0 51-33 51-76s-8-73-50-73c-40 0-46 35-46 75s5 74 45 74" id="aM"/><g id="m"><use transform="matrix(0.06172839506172839,0,0,0.06172839506172839,0,0)" xlink:href="#aL"/><use transform="matrix(0.06172839506172839,0,0,0.06172839506172839,14.814814814814813,0)" xlink:href="#af"/><use transform="matrix(0.06172839506172839,0,0,0.06172839506172839,27.160493827160494,0)" xlink:href="#ai"/><use transform="matrix(0.06172839506172839,0,0,0.06172839506172839,39.50617283950617,0)" xlink:href="#aM"/><use transform="matrix(0.06172839506172839,0,0,0.06172839506172839,51.85185185185185,0)" xlink:href="#ax"/><use transform="matrix(0.06172839506172839,0,0,0.06172839506172839,64.19753086419753,0)" xlink:href="#X"/></g><path d="M185-189c-5-48-123-54-124 2 14 75 158 14 163 119 3 78-121 87-175 55-17-10-28-26-33-46l33-7c5 56 141 63 141-1 0-78-155-14-162-118-5-82 145-84 179-34 5 7 8 16 11 25" id="aN"/><g id="n"><use transform="matrix(0.05,0,0,0.05,0,0)" xlink:href="#aN"/><use transform="matrix(0.05,0,0,0.05,12,0)" xlink:href="#aF"/></g><path d="M96-169c-40 0-48 33-48 73s9 75 48 75c24 0 41-14 43-38l32 2c-6 37-31 61-74 61-59 0-76-41-82-99-10-93 101-131 147-64 4 7 5 14 7 22l-32 3c-4-21-16-35-41-35" id="aO"/><g id="o"><use transform="matrix(0.05,0,0,0.05,0,0)" xlink:href="#aO"/><use transform="matrix(0.05,0,0,0.05,9,0)" xlink:href="#az"/><use transform="matrix(0.05,0,0,0.05,19,0)" xlink:href="#aA"/><use transform="matrix(0.05,0,0,0.05,29,0)" xlink:href="#aA"/><use transform="matrix(0.05,0,0,0.05,39,0)" xlink:href="#aF"/><use transform="matrix(0.05,0,0,0.05,49,0)" xlink:href="#aO"/><use transform="matrix(0.05,0,0,0.05,58,0)" xlink:href="#aE"/><use transform="matrix(0.05,0,0,0.05,63,0)" xlink:href="#aF"/><use transform="matrix(0.05,0,0,0.05,73,0)" xlink:href="#aG"/></g><g id="p"><use transform="matrix(0.05,0,0,0.05,0,0)" xlink:href="#ay"/><use transform="matrix(0.05,0,0,0.05,12.950000000000001,0)" xlink:href="#az"/><use transform="matrix(0.05,0,0,0.05,22.950000000000003,0)" xlink:href="#aA"/><use transform="matrix(0.05,0,0,0.05,32.95,0)" xlink:href="#aB"/><use transform="matrix(0.05,0,0,0.05,41.95,0)" xlink:href="#aE"/><use transform="matrix(0.05,0,0,0.05,46.95,0)" xlink:href="#aI"/><use transform="matrix(0.05,0,0,0.05,50.900000000000006,0)" xlink:href="#aE"/><use transform="matrix(0.05,0,0,0.05,55.900000000000006,0)" xlink:href="#aC"/><use transform="matrix(0.05,0,0,0.05,65.9,0)" xlink:href="#aF"/><use transform="matrix(0.05,0,0,0.05,75.9,0)" xlink:href="#aG"/></g><g id="q"><use transform="matrix(0.05,0,0,0.05,0,0)" xlink:href="#aC"/><use transform="matrix(0.05,0,0,0.05,10,0)" xlink:href="#aA"/></g><g id="r"><use transform="matrix(0.05,0,0,0.05,0,0)" xlink:href="#aK"/><use transform="matrix(0.05,0,0,0.05,10,0)" xlink:href="#aH"/><use transform="matrix(0.05,0,0,0.05,20,0)" xlink:href="#aA"/><use transform="matrix(0.05,0,0,0.05,30,0)" xlink:href="#aI"/><use transform="matrix(0.05,0,0,0.05,33.95,0)" xlink:href="#aF"/><use transform="matrix(0.05,0,0,0.05,43.95,0)" xlink:href="#aG"/></g><g id="s"><use transform="matrix(0.05,0,0,0.05,0,0)" xlink:href="#aN"/><use transform="matrix(0.05,0,0,0.05,12,0)" xlink:href="#aF"/><use transform="matrix(0.05,0,0,0.05,22,0)" xlink:href="#aD"/><use transform="matrix(0.05,0,0,0.05,25.950000000000003,0)" xlink:href="#aF"/><use transform="matrix(0.05,0,0,0.05,35.95,0)" xlink:href="#aO"/><use transform="matrix(0.05,0,0,0.05,44.95,0)" xlink:href="#aE"/><use transform="matrix(0.05,0,0,0.05,49.95,0)" xlink:href="#aI"/><use transform="matrix(0.05,0,0,0.05,53.900000000000006,0)" xlink:href="#az"/><use transform="matrix(0.05,0,0,0.05,63.900000000000006,0)" xlink:href="#aA"/><use transform="matrix(0.05,0,0,0.05,73.9,0)" xlink:href="#aA"/><use transform="matrix(0.05,0,0,0.05,83.9,0)" xlink:href="#aF"/><use transform="matrix(0.05,0,0,0.05,93.9,0)" xlink:href="#aG"/></g><g id="t"><use transform="matrix(0.05,0,0,0.05,0,0)" xlink:href="#aK"/><use transform="matrix(0.05,0,0,0.05,10,0)" xlink:href="#aD"/><use transform="matrix(0.05,0,0,0.05,13.949999999999998,0)" xlink:href="#aH"/><use transform="matrix(0.05,0,0,0.05,23.95,0)" xlink:href="#aE"/></g><g id="u"><use transform="matrix(0.05,0,0,0.05,0,0)" xlink:href="#aJ"/><use transform="matrix(0.05,0,0,0.05,10,0)" xlink:href="#aF"/><use transform="matrix(0.05,0,0,0.05,20,0)" xlink:href="#aB"/><use transform="matrix(0.05,0,0,0.05,29,0)" xlink:href="#aB"/><use transform="matrix(0.05,0,0,0.05,38,0)" xlink:href="#aF"/><use transform="matrix(0.05,0,0,0.05,48,0)" xlink:href="#aG"/><use transform="matrix(0.05,0,0,0.05,53.95,0)" xlink:href="#aE"/></g><path fill="#333" d="M15-91v-56l181-69v40L49-119l147 57v40" id="aP"/><g id="v"><use transform="matrix(0.03703703703703704,0,0,0.03703703703703704,0,0)" xlink:href="#aP"/><use transform="matrix(0.03703703703703704,0,0,0.03703703703703704,7.777777777777779,0)" xlink:href="#aP"/></g><path fill="#333" d="M25-224v-37h50v37H25zM25 0v-190h50V0H25" id="aQ"/><path fill="#333" d="M135-194c87-1 58 113 63 194h-50c-7-57 23-157-34-157-59 0-34 97-39 157H25l-1-190h47c2 12-1 28 3 38 12-26 28-41 61-42" id="aR"/><path fill="#333" d="M190-63c-7 42-38 67-86 67-59 0-84-38-90-98-12-110 154-137 174-36l-49 2c-2-19-15-32-35-32-30 0-35 28-38 64-6 74 65 87 74 30" id="aS"/><path fill="#333" d="M25 0v-261h50V0H25" id="aT"/><path fill="#333" d="M85 4C-2 5 27-109 22-190h50c7 57-23 150 33 157 60-5 35-97 40-157h50l1 190h-47c-2-12 1-28-3-38-12 25-28 42-61 42" id="aU"/><path fill="#333" d="M88-194c31-1 46 15 58 34l-1-101h50l1 261h-48c-2-10 0-23-3-31C134-8 116 4 84 4 32 4 16-41 15-95c0-56 19-97 73-99zm17 164c33 0 40-30 41-66 1-37-9-64-41-64s-38 30-39 65c0 43 13 65 39 65" id="aV"/><path fill="#333" d="M185-48c-13 30-37 53-82 52C43 2 14-33 14-96s30-98 90-98c62 0 83 45 84 108H66c0 31 8 55 39 56 18 0 30-7 34-22zm-45-69c5-46-57-63-70-21-2 6-4 13-4 21h74" id="aW"/><g id="w"><use transform="matrix(0.03703703703703704,0,0,0.03703703703703704,0,0)" xlink:href="#aQ"/><use transform="matrix(0.03703703703703704,0,0,0.03703703703703704,3.703703703703704,0)" xlink:href="#aR"/><use transform="matrix(0.03703703703703704,0,0,0.03703703703703704,11.814814814814817,0)" xlink:href="#aS"/><use transform="matrix(0.03703703703703704,0,0,0.03703703703703704,19.222222222222225,0)" xlink:href="#aT"/><use transform="matrix(0.03703703703703704,0,0,0.03703703703703704,22.925925925925927,0)" xlink:href="#aU"/><use transform="matrix(0.03703703703703704,0,0,0.03703703703703704,31.037037037037045,0)" xlink:href="#aV"/><use transform="matrix(0.03703703703703704,0,0,0.03703703703703704,39.14814814814816,0)" xlink:href="#aW"/></g><path fill="#333" d="M15-22v-40l146-57-146-57v-40l181 69v56" id="aX"/><g id="x"><use transform="matrix(0.03703703703703704,0,0,0.03703703703703704,0,0)" xlink:href="#aX"/><use transform="matrix(0.03703703703703704,0,0,0.03703703703703704,7.777777777777779,0)" xlink:href="#aX"/></g><path d="M137 0h-34L2-248h35l83 218 83-218h36" id="aY"/><g id="y"><use transform="matrix(0.05,0,0,0.05,0,0)" xlink:href="#aY"/><use transform="matrix(0.05,0,0,0.05,10.65,0)" xlink:href="#aH"/><use transform="matrix(0.05,0,0,0.05,20.65,0)" xlink:href="#aD"/><use transform="matrix(0.05,0,0,0.05,24.599999999999998,0)" xlink:href="#aI"/><use transform="matrix(0.05,0,0,0.05,28.549999999999997,0)" xlink:href="#aJ"/><use transform="matrix(0.05,0,0,0.05,38.55,0)" xlink:href="#aF"/><use transform="matrix(0.05,0,0,0.05,48.55,0)" xlink:href="#aG"/></g><path d="M30-248c87 1 191-15 191 75 0 78-77 80-158 76V0H30v-248zm33 125c57 0 124 11 124-50 0-59-68-47-124-48v98" id="aZ"/><path d="M210-169c-67 3-38 105-44 169h-31v-121c0-29-5-50-35-48C34-165 62-65 56 0H25l-1-190h30c1 10-1 24 2 32 10-44 99-50 107 0 11-21 27-35 58-36 85-2 47 119 55 194h-31v-121c0-29-5-49-35-48" id="ba"/><g id="z"><use transform="matrix(0.05,0,0,0.05,0,0)" xlink:href="#aZ"/><use transform="matrix(0.05,0,0,0.05,12,0)" xlink:href="#aH"/><use transform="matrix(0.05,0,0,0.05,22,0)" xlink:href="#aI"/><use transform="matrix(0.05,0,0,0.05,25.950000000000003,0)" xlink:href="#aF"/><use transform="matrix(0.05,0,0,0.05,35.95,0)" xlink:href="#ba"/><use transform="matrix(0.05,0,0,0.05,50.900000000000006,0)" xlink:href="#aF"/><use transform="matrix(0.05,0,0,0.05,60.900000000000006,0)" xlink:href="#aA"/><use transform="matrix(0.05,0,0,0.05,70.9,0)" xlink:href="#aE"/></g><path d="M101-234c-31-9-42 10-38 44h38v23H63V0H32v-167H5v-23h27c-7-52 17-82 69-68v24" id="bb"/><path d="M100-194c63 0 86 42 84 106H49c0 40 14 67 53 68 26 1 43-12 49-29l28 8c-11 28-37 45-77 45C44 4 14-33 15-96c1-61 26-98 85-98zm52 81c6-60-76-77-97-28-3 7-6 17-6 28h103zm-74-98c8-23 27-35 38-54h36v5l-58 49H78" id="bc"/><g id="A"><use transform="matrix(0.05,0,0,0.05,0,0)" xlink:href="#aG"/><use transform="matrix(0.05,0,0,0.05,5.95,0)" xlink:href="#aF"/><use transform="matrix(0.05,0,0,0.05,15.949999999999998,0)" xlink:href="#bb"/><use transform="matrix(0.05,0,0,0.05,20.95,0)" xlink:href="#aC"/><use transform="matrix(0.05,0,0,0.05,30.950000000000003,0)" xlink:href="#aB"/><use transform="matrix(0.05,0,0,0.05,39.95,0)" xlink:href="#bc"/></g><path d="M30-248c118-7 216 8 213 122C240-48 200 0 122 0H30v-248zM63-27c89 8 146-16 146-99s-60-101-146-95v194" id="bd"/><path d="M106-169C34-169 62-67 57 0H25v-261h32l-1 103c12-21 28-36 61-36 89 0 53 116 60 194h-32v-121c2-32-8-49-39-48" id="be"/><g id="B"><use transform="matrix(0.05,0,0,0.05,0,0)" xlink:href="#bd"/><use transform="matrix(0.05,0,0,0.05,12.950000000000001,0)" xlink:href="#bc"/><use transform="matrix(0.05,0,0,0.05,22.950000000000003,0)" xlink:href="#aO"/><use transform="matrix(0.05,0,0,0.05,31.950000000000003,0)" xlink:href="#aD"/><use transform="matrix(0.05,0,0,0.05,35.900000000000006,0)" xlink:href="#aF"/><use transform="matrix(0.05,0,0,0.05,45.900000000000006,0)" xlink:href="#aA"/><use transform="matrix(0.05,0,0,0.05,55.900000000000006,0)" xlink:href="#aO"/><use transform="matrix(0.05,0,0,0.05,64.9,0)" xlink:href="#be"/><use transform="matrix(0.05,0,0,0.05,74.9,0)" xlink:href="#aF"/><use transform="matrix(0.05,0,0,0.05,84.9,0)" xlink:href="#ba"/><use transform="matrix(0.05,0,0,0.05,99.85000000000001,0)" xlink:href="#aF"/><use transform="matrix(0.05,0,0,0.05,109.85000000000001,0)" xlink:href="#aA"/><use transform="matrix(0.05,0,0,0.05,119.85000000000001,0)" xlink:href="#aE"/></g><path d="M30 0v-248h33v221h125V0H30" id="bf"/><path d="M108 0H70L1-190h34L89-25l56-165h34" id="bg"/><g id="C"><use transform="matrix(0.05,0,0,0.05,0,0)" xlink:href="#bf"/><use transform="matrix(0.05,0,0,0.05,10,0)" xlink:href="#aI"/><use transform="matrix(0.05,0,0,0.05,13.949999999999998,0)" xlink:href="#aI"/><use transform="matrix(0.05,0,0,0.05,17.9,0)" xlink:href="#bg"/><use transform="matrix(0.05,0,0,0.05,26.899999999999995,0)" xlink:href="#aG"/><use transform="matrix(0.05,0,0,0.05,32.85,0)" xlink:href="#aH"/><use transform="matrix(0.05,0,0,0.05,42.85,0)" xlink:href="#aI"/><use transform="matrix(0.05,0,0,0.05,46.800000000000004,0)" xlink:href="#aB"/><use transform="matrix(0.05,0,0,0.05,55.800000000000004,0)" xlink:href="#az"/><use transform="matrix(0.05,0,0,0.05,65.80000000000001,0)" xlink:href="#aA"/></g><path fill="#333" d="M185-189c-5-48-123-54-124 2 14 75 158 14 163 119 3 78-121 87-175 55-17-10-28-26-33-46l33-7c5 56 141 63 141-1 0-78-155-14-162-118-5-82 145-84 179-34 5 7 8 16 11 25" id="bh"/><path fill="#333" d="M179-190L93 31C79 59 56 82 12 73V49c39 6 53-20 64-50L1-190h34L92-34l54-156h33" id="bi"/><path fill="#333" d="M100-194c63 0 86 42 84 106H49c0 40 14 67 53 68 26 1 43-12 49-29l28 8c-11 28-37 45-77 45C44 4 14-33 15-96c1-61 26-98 85-98zm52 81c6-60-76-77-97-28-3 7-6 17-6 28h103zm-36-98l-58-49v-5h36c12 19 30 32 38 54h-16" id="bj"/><g id="D"><use transform="matrix(0.06172839506172837,0,0,0.06172839506172837,0,0)" xlink:href="#bh"/><use transform="matrix(0.06172839506172837,0,0,0.06172839506172837,14.81481481481481,0)" xlink:href="#bi"/><use transform="matrix(0.06172839506172837,0,0,0.06172839506172837,25.925925925925917,0)" xlink:href="#Y"/><use transform="matrix(0.06172839506172837,0,0,0.06172839506172837,37.037037037037024,0)" xlink:href="#ag"/><use transform="matrix(0.06172839506172837,0,0,0.06172839506172837,43.20987654320986,0)" xlink:href="#bj"/><use transform="matrix(0.06172839506172837,0,0,0.06172839506172837,55.55555555555553,0)" xlink:href="#aj"/><use transform="matrix(0.06172839506172837,0,0,0.06172839506172837,74.01234567901231,0)" xlink:href="#X"/></g><path d="M63-220v92h138v28H63V0H30v-248h175v28H63" id="bk"/><g id="E"><use transform="matrix(0.05,0,0,0.05,0,0)" xlink:href="#bk"/><use transform="matrix(0.05,0,0,0.05,10.950000000000001,0)" xlink:href="#az"/><use transform="matrix(0.05,0,0,0.05,20.950000000000003,0)" xlink:href="#aC"/><use transform="matrix(0.05,0,0,0.05,30.950000000000003,0)" xlink:href="#aG"/><use transform="matrix(0.05,0,0,0.05,36.900000000000006,0)" xlink:href="#aA"/><use transform="matrix(0.05,0,0,0.05,46.900000000000006,0)" xlink:href="#aI"/><use transform="matrix(0.05,0,0,0.05,50.85000000000001,0)" xlink:href="#aG"/></g><g id="F"><use transform="matrix(0.05,0,0,0.05,0,0)" xlink:href="#aD"/><use transform="matrix(0.05,0,0,0.05,3.95,0)" xlink:href="#aH"/></g><g id="G"><use transform="matrix(0.05,0,0,0.05,0,0)" xlink:href="#aD"/><use transform="matrix(0.05,0,0,0.05,3.95,0)" xlink:href="#aI"/><use transform="matrix(0.05,0,0,0.05,7.9,0)" xlink:href="#aB"/><use transform="matrix(0.05,0,0,0.05,16.9,0)" xlink:href="#aE"/><use transform="matrix(0.05,0,0,0.05,21.9,0)" xlink:href="#aF"/></g><g id="H"><use transform="matrix(0.04938271604938272,0,0,0.04938271604938272,0,0)" xlink:href="#aP"/><use transform="matrix(0.04938271604938272,0,0,0.04938271604938272,10.370370370370372,0)" xlink:href="#aP"/></g><g id="I"><use transform="matrix(0.04938271604938272,0,0,0.04938271604938272,0,0)" xlink:href="#aQ"/><use transform="matrix(0.04938271604938272,0,0,0.04938271604938272,4.938271604938272,0)" xlink:href="#aR"/><use transform="matrix(0.04938271604938272,0,0,0.04938271604938272,15.753086419753087,0)" xlink:href="#aS"/><use transform="matrix(0.04938271604938272,0,0,0.04938271604938272,25.629629629629633,0)" xlink:href="#aT"/><use transform="matrix(0.04938271604938272,0,0,0.04938271604938272,30.567901234567906,0)" xlink:href="#aU"/><use transform="matrix(0.04938271604938272,0,0,0.04938271604938272,41.38271604938272,0)" xlink:href="#aV"/><use transform="matrix(0.04938271604938272,0,0,0.04938271604938272,52.19753086419754,0)" xlink:href="#aW"/></g><g id="J"><use transform="matrix(0.04938271604938272,0,0,0.04938271604938272,0,0)" xlink:href="#aX"/><use transform="matrix(0.04938271604938272,0,0,0.04938271604938272,10.370370370370372,0)" xlink:href="#aX"/></g><path d="M143 4C61 4 22-44 18-125c-5-107 100-154 193-111 17 8 29 25 37 43l-32 9c-13-25-37-40-76-40-61 0-88 39-88 99 0 61 29 100 91 101 35 0 62-11 79-27v-45h-74v-28h105v86C228-13 192 4 143 4" id="bl"/><g id="K"><use transform="matrix(0.05,0,0,0.05,0,0)" xlink:href="#bl"/><use transform="matrix(0.05,0,0,0.05,14,0)" xlink:href="#bc"/><use transform="matrix(0.05,0,0,0.05,24,0)" xlink:href="#az"/><use transform="matrix(0.05,0,0,0.05,34,0)" xlink:href="#aD"/><use transform="matrix(0.05,0,0,0.05,37.95,0)" xlink:href="#az"/><use transform="matrix(0.05,0,0,0.05,47.95,0)" xlink:href="#aO"/><use transform="matrix(0.05,0,0,0.05,56.95,0)" xlink:href="#aH"/><use transform="matrix(0.05,0,0,0.05,66.95,0)" xlink:href="#aD"/><use transform="matrix(0.05,0,0,0.05,70.9,0)" xlink:href="#aI"/><use transform="matrix(0.05,0,0,0.05,74.85000000000001,0)" xlink:href="#aB"/><use transform="matrix(0.05,0,0,0.05,83.85000000000001,0)" xlink:href="#aH"/><use transform="matrix(0.05,0,0,0.05,93.85000000000001,0)" xlink:href="#aE"/><use transform="matrix(0.05,0,0,0.05,98.85000000000001,0)" xlink:href="#aI"/><use transform="matrix(0.05,0,0,0.05,102.80000000000001,0)" xlink:href="#az"/><use transform="matrix(0.05,0,0,0.05,112.80000000000001,0)" xlink:href="#aA"/></g><path d="M140-251c81 0 123 46 123 126C263-46 219 4 140 4 59 4 17-45 17-125s42-126 123-126zm0 227c63 0 89-41 89-101s-29-99-89-99c-61 0-89 39-89 99S79-25 140-24" id="bm"/><path d="M115-194c53 0 69 39 70 98 0 66-23 100-70 100C84 3 66-7 56-30L54 0H23l1-261h32v101c10-23 28-34 59-34zm-8 174c40 0 45-34 45-75 0-40-5-75-45-74-42 0-51 32-51 76 0 43 10 73 51 73" id="bn"/><g id="L"><use transform="matrix(0.05,0,0,0.05,0,0)" xlink:href="#bm"/><use transform="matrix(0.05,0,0,0.05,14,0)" xlink:href="#bn"/><use transform="matrix(0.05,0,0,0.05,24,0)" xlink:href="#aE"/><use transform="matrix(0.05,0,0,0.05,29,0)" xlink:href="#aF"/><use transform="matrix(0.05,0,0,0.05,39,0)" xlink:href="#aA"/><use transform="matrix(0.05,0,0,0.05,49,0)" xlink:href="#aI"/><use transform="matrix(0.05,0,0,0.05,52.95,0)" xlink:href="#aG"/></g><g id="M"><use transform="matrix(0.05,0,0,0.05,0,0)" xlink:href="#aI"/><use transform="matrix(0.05,0,0,0.05,3.95,0)" xlink:href="#aA"/><use transform="matrix(0.05,0,0,0.05,13.949999999999998,0)" xlink:href="#bb"/><use transform="matrix(0.05,0,0,0.05,18.95,0)" xlink:href="#az"/><use transform="matrix(0.05,0,0,0.05,28.950000000000003,0)" xlink:href="#aG"/><use transform="matrix(0.05,0,0,0.05,34.9,0)" xlink:href="#ba"/><use transform="matrix(0.05,0,0,0.05,49.85,0)" xlink:href="#aH"/><use transform="matrix(0.05,0,0,0.05,59.85,0)" xlink:href="#aE"/><use transform="matrix(0.05,0,0,0.05,64.85,0)" xlink:href="#aI"/><use transform="matrix(0.05,0,0,0.05,68.8,0)" xlink:href="#az"/><use transform="matrix(0.05,0,0,0.05,78.8,0)" xlink:href="#aA"/><use transform="matrix(0.05,0,0,0.05,88.8,0)" xlink:href="#aB"/></g><g id="N"><use transform="matrix(0.05,0,0,0.05,0,0)" xlink:href="#aO"/><use transform="matrix(0.05,0,0,0.05,9,0)" xlink:href="#az"/><use transform="matrix(0.05,0,0,0.05,19,0)" xlink:href="#aA"/><use transform="matrix(0.05,0,0,0.05,29,0)" xlink:href="#aE"/><use transform="matrix(0.05,0,0,0.05,34,0)" xlink:href="#aH"/><use transform="matrix(0.05,0,0,0.05,44,0)" xlink:href="#aO"/><use transform="matrix(0.05,0,0,0.05,53,0)" xlink:href="#aE"/></g><g id="O"><use transform="matrix(0.05,0,0,0.05,0,0)" xlink:href="#aZ"/><use transform="matrix(0.05,0,0,0.05,12,0)" xlink:href="#aH"/><use transform="matrix(0.05,0,0,0.05,22,0)" xlink:href="#aI"/><use transform="matrix(0.05,0,0,0.05,25.950000000000003,0)" xlink:href="#aF"/><use transform="matrix(0.05,0,0,0.05,35.95,0)" xlink:href="#ba"/><use transform="matrix(0.05,0,0,0.05,50.900000000000006,0)" xlink:href="#aF"/><use transform="matrix(0.05,0,0,0.05,60.900000000000006,0)" xlink:href="#aA"/><use transform="matrix(0.05,0,0,0.05,70.9,0)" xlink:href="#aE"/></g><path d="M160-131c35 5 61 23 61 61C221 17 115-2 30 0v-248c76 3 177-17 177 60 0 33-19 50-47 57zm-97-11c50-1 110 9 110-42 0-47-63-36-110-37v79zm0 115c55-2 124 14 124-45 0-56-70-42-124-44v89" id="bo"/><g id="P"><use transform="matrix(0.05,0,0,0.05,0,0)" xlink:href="#ay"/><use transform="matrix(0.05,0,0,0.05,12.950000000000001,0)" xlink:href="#bo"/></g><path fill="#333" d="M144 0l-44-69L55 0H2l70-98-66-92h53l41 62 40-62h54l-67 91 71 99h-54" id="bp"/><path fill="#333" d="M115-3C79 11 28 4 28-45v-112H4v-33h27l15-45h31v45h36v33H77v99c-1 23 16 31 38 25v30" id="bq"/><path fill="#333" d="M137-138c1-29-70-34-71-4 15 46 118 7 119 86 1 83-164 76-172 9l43-7c4 19 20 25 44 25 33 8 57-30 24-41C81-84 22-81 20-136c-2-80 154-74 161-7" id="br"/><g id="Q"><use transform="matrix(0.04938271604938272,0,0,0.04938271604938272,0,0)" xlink:href="#aW"/><use transform="matrix(0.04938271604938272,0,0,0.04938271604938272,9.876543209876544,0)" xlink:href="#bp"/><use transform="matrix(0.04938271604938272,0,0,0.04938271604938272,19.75308641975309,0)" xlink:href="#bq"/><use transform="matrix(0.04938271604938272,0,0,0.04938271604938272,25.629629629629633,0)" xlink:href="#aW"/><use transform="matrix(0.04938271604938272,0,0,0.04938271604938272,35.50617283950618,0)" xlink:href="#aR"/><use transform="matrix(0.04938271604938272,0,0,0.04938271604938272,46.320987654320994,0)" xlink:href="#aV"/><use transform="matrix(0.04938271604938272,0,0,0.04938271604938272,57.135802469135804,0)" xlink:href="#br"/></g><g id="R"><use transform="matrix(0.05,0,0,0.05,0,0)" xlink:href="#ay"/><use transform="matrix(0.05,0,0,0.05,12.950000000000001,0)" xlink:href="#aG"/><use transform="matrix(0.05,0,0,0.05,18.900000000000002,0)" xlink:href="#bc"/><use transform="matrix(0.05,0,0,0.05,28.900000000000002,0)" xlink:href="#aF"/><use transform="matrix(0.05,0,0,0.05,38.900000000000006,0)" xlink:href="#aG"/></g><g id="S"><use transform="matrix(0.05,0,0,0.05,0,0)" xlink:href="#aO"/><use transform="matrix(0.05,0,0,0.05,9,0)" xlink:href="#az"/><use transform="matrix(0.05,0,0,0.05,19,0)" xlink:href="#ba"/><use transform="matrix(0.05,0,0,0.05,33.95,0)" xlink:href="#aK"/><use transform="matrix(0.05,0,0,0.05,43.95,0)" xlink:href="#aE"/><use transform="matrix(0.05,0,0,0.05,48.95,0)" xlink:href="#aF"/></g></defs></g></svg>