<svg xmlns="http://www.w3.org/2000/svg" xmlns:xlink="http://www.w3.org/1999/xlink" xmlns:lucid="lucid" width="1787.34" height="1260"><g transform="translate(27.339506172839506 0)" lucid:page-tab-id="0_0"><path d="M0 0h1870.87v1322.84H0z" fill="#fff"/><path d="M200 26a6 6 0 0 1 6-6h1388a6 6 0 0 1 6 6v1208a6 6 0 0 1-6 6H206a6 6 0 0 1-6-6z" stroke="#5e5e5e" stroke-width="3" fill-opacity="0"/><use xlink:href="#a" transform="matrix(1,0,0,1,208,28) translate(597.679012345679 17.77777777777778)"/><use xlink:href="#b" transform="matrix(1,0,0,1,208,28) translate(734.5925925925926 17.77777777777778)"/><path d="M79.75 119.75c0 10.9-8.84 19.75-19.75 19.75-10.9 0-19.75-8.84-19.75-19.75C40.25 108.85 49.1 100 60 100c10.9 0 19.75 8.84 19.75 19.75z" stroke="#5e5e5e" stroke-width="2" fill="#fff"/><path d="M60 139.5v49.3a20.7 20.7 0 0 0 3.2 11.07L100 258m-40-63.2L20 258m0-98.75h80" stroke="#5e5e5e" stroke-width="2" fill="none"/><path d="M20 106a6 6 0 0 1 6-6h68a6 6 0 0 1 6 6v168a6 6 0 0 1-6 6H26a6 6 0 0 1-6-6z" fill="none"/><use xlink:href="#c" transform="matrix(1,0,0,1,-60,258) translate(120 17.77777777777778)"/><use xlink:href="#d" transform="matrix(1,0,0,1,-60,258) translate(54.660493827160494 44.44444444444444)"/><use xlink:href="#e" transform="matrix(1,0,0,1,-60,258) translate(128.73456790123458 44.44444444444444)"/><path d="M1698.25 259.75c0 10.9-8.84 19.75-19.75 19.75-10.9 0-19.75-8.84-19.75-19.75 0-10.9 8.84-19.75 19.75-19.75 10.9 0 19.75 8.84 19.75 19.75z" stroke="#5e5e5e" stroke-width="3" fill="#fff"/><path d="M1678.5 279.5v49.3a20.7 20.7 0 0 0 3.2 11.07l36.8 58.13m-40-63.2l-40 63.2m0-98.75h80" stroke="#5e5e5e" stroke-width="3" fill="none"/><path d="M1638.5 246a6 6 0 0 1 6-6h68a6 6 0 0 1 6 6v168a6 6 0 0 1-6 6h-68a6 6 0 0 1-6-6z" fill="none"/><use xlink:href="#f" transform="matrix(1,0,0,1,1558.4999871300965,398) translate(86.14197530864197 17.77777777777778)"/><path d="M780 100c0 33.14-31.34 60-70 60s-70-26.86-70-60 31.34-60 70-60 70 26.86 70 60z" stroke="#5e5e5e" stroke-width="3" fill="#fff"/><use xlink:href="#g" transform="matrix(1,0,0,1,640,40) translate(20.03771604938271 55.84444444444445)"/><use xlink:href="#h" transform="matrix(1,0,0,1,640,40) translate(81.67783950617283 55.84444444444445)"/><use xlink:href="#i" transform="matrix(1,0,0,1,640,40) translate(95.94882716049383 55.84444444444445)"/><use xlink:href="#j" transform="matrix(1,0,0,1,640,40) translate(42.912716049382716 72.11111111111111)"/><use xlink:href="#k" transform="matrix(1,0,0,1,640,40) translate(68.51765432098765 72.11111111111111)"/><path d="M1719.75 799.75c0 10.9-8.84 19.75-19.75 19.75-10.9 0-19.75-8.84-19.75-19.75 0-10.9 8.84-19.75 19.75-19.75 10.9 0 19.75 8.84 19.75 19.75z" stroke="#5e5e5e" stroke-width="3" fill="#fff"/><path d="M1700 819.5v49.3a20.7 20.7 0 0 0 3.2 11.07L1740 938m-40-63.2l-40 63.2m0-98.75h80" stroke="#5e5e5e" stroke-width="3" fill="none"/><path d="M1660 786a6 6 0 0 1 6-6h68a6 6 0 0 1 6 6v168a6 6 0 0 1-6 6h-68a6 6 0 0 1-6-6z" fill="none"/><use xlink:href="#l" transform="matrix(1,0,0,1,1580,938) translate(81.72839506172839 17.77777777777778)"/><path d="M540 580c0 33.14-31.34 60-70 60s-70-26.86-70-60 31.34-60 70-60 70 26.86 70 60z" stroke="#5e5e5e" stroke-width="3" fill="#fff"/><use xlink:href="#m" transform="matrix(1,0,0,1,400,520) translate(30.110246913580248 63.34444444444445)"/><use xlink:href="#n" transform="matrix(1,0,0,1,400,520) translate(50.44358024691358 63.34444444444445)"/><path d="M780 300c0 33.14-31.34 60-70 60s-70-26.86-70-60 31.34-60 70-60 70 26.86 70 60z" stroke="#5e5e5e" stroke-width="3" fill="#fff"/><use xlink:href="#o" transform="matrix(1,0,0,1,640,240) translate(9.099135802469144 63.34444444444445)"/><use xlink:href="#p" transform="matrix(1,0,0,1,640,240) translate(74.50469135802469 63.34444444444445)"/><use xlink:href="#q" transform="matrix(1,0,0,1,640,240) translate(93.33185185185184 63.34444444444445)"/><path d="M660 900c0 33.14-31.34 60-70 60s-70-26.86-70-60 31.34-60 70-60 70 26.86 70 60z" stroke="#5e5e5e" stroke-width="3" fill="#fff"/><use xlink:href="#r" transform="matrix(1,0,0,1,520,840) translate(30.147901234567904 63.34444444444445)"/><use xlink:href="#s" transform="matrix(1,0,0,1,520,840) translate(91.07259259259258 63.34444444444445)"/><path d="M79.75 1019.75c0 10.9-8.84 19.75-19.75 19.75-10.9 0-19.75-8.84-19.75-19.75 0-10.9 8.84-19.75 19.75-19.75 10.9 0 19.75 8.84 19.75 19.75z" stroke="#5e5e5e" stroke-width="3" fill="#fff"/><path d="M60 1039.5v49.3a20.7 20.7 0 0 0 3.2 11.07L100 1158m-40-63.2L20 1158m0-98.75h80" stroke="#5e5e5e" stroke-width="3" fill="none"/><path d="M20 1006a6 6 0 0 1 6-6h68a6 6 0 0 1 6 6v168a6 6 0 0 1-6 6H26a6 6 0 0 1-6-6z" fill="none"/><use xlink:href="#t" transform="matrix(1,0,0,1,-60,1158) translate(85.49382716049382 17.77777777777778)"/><use xlink:href="#u" transform="matrix(1,0,0,1,-60,1158) translate(72.59259259259258 44.44444444444444)"/><path d="M760 1060c0 33.14-31.34 60-70 60s-70-26.86-70-60 31.34-60 70-60 70 26.86 70 60z" stroke="#5e5e5e" stroke-width="3" fill="#fff"/><use xlink:href="#v" transform="matrix(1,0,0,1,620,1000) translate(25.271666666666675 63.34444444444445)"/><use xlink:href="#w" transform="matrix(1,0,0,1,620,1000) translate(70.3438888888889 63.34444444444445)"/><path d="M101 1057.75l516.5 2.25" stroke="#5e5e5e" stroke-width="2" fill="none"/><path d="M101.03 1056.75v2H100v-1h-3v-1zM618.53 1059l-.03 1 .03 1h-1.06v-2z" stroke="#5e5e5e" stroke-width=".05" fill="#5e5e5e"/><path d="M60 997.5V215.17" stroke="#5e5e5e" stroke-width="2" fill="none"/><path d="M61 998.6l-.92-.1-1.08.02v-1.05h2z" stroke="#5e5e5e" stroke-width=".05" fill="#5e5e5e"/><path d="M60 199.9l4.64 14.27h-9.27z" stroke="#5e5e5e" stroke-width="2" fill="#fff"/><path d="M637.5 100.1l-537.13 58.04" stroke="#5e5e5e" stroke-width="2" fill="none"/><path d="M638.5 100l.03 1-.94.1-.23-1.98 1.16-.13z" stroke="#5e5e5e" stroke-width=".05" fill="#5e5e5e"/><path d="M100.4 158.14l-4 .43M100.35 158.5l537.18 141.25M100.37 158.5l-3.9-1" stroke="#5e5e5e" stroke-width="2" fill="none"/><path d="M638.54 298.98l-.04 1.02.04 1.04-1.3-.33.52-1.93z" stroke="#5e5e5e" stroke-width=".05" fill="#5e5e5e"/><path d="M1093 250c0 33.14-31.34 60-70 60s-70-26.86-70-60 31.34-60 70-60 70 26.86 70 60z" stroke="#5e5e5e" stroke-width="3" fill="#fff"/><use xlink:href="#x" transform="matrix(1,0,0,1,953,190) translate(19.623518518518523 63.34444444444445)"/><use xlink:href="#y" transform="matrix(1,0,0,1,953,190) translate(98.58462962962963 63.34444444444445)"/><path d="M1100 420c0 33.14-31.34 60-70 60s-70-26.86-70-60 31.34-60 70-60 70 26.86 70 60z" stroke="#5e5e5e" stroke-width="3" fill="#fff"/><use xlink:href="#z" transform="matrix(1,0,0,1,960,360) translate(32.40716049382716 55.84444444444445)"/><use xlink:href="#A" transform="matrix(1,0,0,1,960,360) translate(47.80777777777778 72.11111111111111)"/><path d="M951.1 252.2L805.55 295M949.98 248.36l-145.56 42.8" stroke="#5e5e5e" stroke-width="2" fill="none"/><path d="M951.6 253.1l-.24.07-.56-1.92.74-.22zM951.54 248.95l-1.3.38-.57-1.92 1.94-.56z" stroke="#5e5e5e" stroke-width=".05" fill="#5e5e5e"/><path d="M783.4 299.45l17.04-18.28 7.18 24.4z" stroke="#5e5e5e" stroke-width="2" fill="#fff"/><path d="M957.1 420.27l-1.1 1.65-155.92-105.7 1.13-1.65zM959.36 416.96l-1.13 1.65-155.9-105.7 1.12-1.64z" stroke="#5e5e5e" stroke-width=".05" fill="#5e5e5e"/><path d="M958.54 421.24l.1 2.47-2.67-1.8 1.12-1.65z" fill="#5e5e5e"/><path d="M958.57 421.22l.1 2.54-2.74-1.85 1.15-1.68zm-2.57.68l2.6 1.77-.08-2.42-1.42-.96z" stroke="#5e5e5e" stroke-width=".05" fill="#5e5e5e"/><path d="M958.54 418.82l-.33-.22.37-.53z" fill="#5e5e5e"/><path d="M958.57 418.87l-.4-.27.43-.62zm-.32-.28l.27.17.02-.6z" stroke="#5e5e5e" stroke-width=".05" fill="#5e5e5e"/><path d="M808.08 302.64L793.8 323.7l-10.67-22.6z" fill="#fff"/><path d="M809.9 301.75l-16.26 23.97L781.5 300zm-15.95 19.95l12.32-18.17-21.52-1.32z" stroke="#5e5e5e" stroke-width=".05" fill="#5e5e5e"/><path d="M710.7 236.8l.3.7-.3.7-.7.3-.7-.3-.3-.7.3-.7.7-.3zm0-8.25l.3.7-.3.7-.7.3-.7-.3-.3-.7.3-.7.7-.3zm0-6.83l-.7.3-.7-.3-.17-.4h1.74zm0-17.9l.3.7-.3.72-.23.1h-.94l-.24-.1-.3-.7.3-.72.7-.3zm0-8.24l.3.7-.3.72-.7.3-.7-.3-.3-.7.3-.72.7-.3zm0-8.24l.3.7-.3.7-.7.3-.7-.3-.3-.7.3-.7.7-.3zm0-8.24l.3.7-.3.7-.7.3-.7-.3-.3-.7.3-.7.7-.3zm0-8.25l.3.7-.3.72-.7.3-.7-.3-.3-.7.3-.72.7-.3z" fill="#5e5e5e"/><path d="M711 238.53l-1-.03-1 .03v-1.06h2z" fill="#5e5e5e"/><path d="M711.02 238.56l-1.02-.04-1.02.04v-1.1H711zm-2-1.06v1l.98-.03.98.04v-1zM721.04 180.17l-1.72 1.02-9.32-15.77-9.32 15.76-1.72-1.03L710 161.5z" stroke="#5e5e5e" stroke-width=".05" fill="#5e5e5e"/><use xlink:href="#B" transform="matrix(1,0,0,1,667.462962962963,205.33333333333331) translate(0.005000000000002558 10.666666666666668)"/><use xlink:href="#C" transform="matrix(1,0,0,1,667.462962962963,205.33333333333331) translate(19.264259259259262 10.666666666666668)"/><use xlink:href="#D" transform="matrix(1,0,0,1,667.462962962963,205.33333333333331) translate(69.52351851851853 10.666666666666668)"/><path d="M780 520c0 33.14-31.34 60-70 60s-70-26.86-70-60 31.34-60 70-60 70 26.86 70 60z" stroke="#5e5e5e" stroke-width="3" fill="#fff"/><use xlink:href="#E" transform="matrix(1,0,0,1,640,460) translate(28.811172839506177 63.34444444444445)"/><use xlink:href="#q" transform="matrix(1,0,0,1,640,460) translate(73.61981481481482 63.34444444444445)"/><path d="M710.7 456.8l.3.7-.3.7-.7.3-.7-.3-.3-.7.3-.7.7-.3zm0-7.86l.3.7-.3.72-.7.3-.7-.3-.3-.7.3-.72.7-.3zm0-7.84l.3.7-.3.7-.7.3-.7-.3-.3-.7.3-.7.7-.3zm0-7.85l.3.7-.3.7-.7.3-.7-.3-.3-.7.3-.7.7-.3zm0-7.85l.3.7-.3.7-.7.3-.7-.3-.3-.7.3-.7.7-.3zm.3-7.14l-.3.7-.7.3-.7-.3-.3-.7.1-.26h1.8zm-.3-16.4l.07.14h-1.54l.06-.15.7-.3zm0-7.86l.3.7-.3.72-.7.3-.7-.3-.3-.7.3-.72.7-.3zm0-7.84l.3.7-.3.7-.7.3-.7-.3-.3-.7.3-.7.7-.3zm0-7.85l.3.72-.3.7-.7.3-.7-.3-.3-.7.3-.7.7-.3zm0-7.84l.3.7-.3.7-.7.3-.7-.3-.3-.7.3-.7.7-.3zm0-7.85l.3.72-.3.7-.7.3-.7-.3-.3-.7.3-.7.7-.3z" fill="#5e5e5e"/><path d="M711 458.54l-1-.04-1 .03v-1.06h2z" fill="#5e5e5e"/><path d="M711.02 458.56l-1.02-.04-1.02.04v-1.1H711zm-2-1.06v1l.98-.03.98.04v-1zM721.04 380.17l-1.72 1.02-9.32-15.77-9.32 15.76-1.72-1.03L710 361.5z" stroke="#5e5e5e" stroke-width=".05" fill="#5e5e5e"/><use xlink:href="#B" transform="matrix(1,0,0,1,667.4629629629629,402) translate(0.005000000000002558 10.666666666666668)"/><use xlink:href="#C" transform="matrix(1,0,0,1,667.4629629629629,402) translate(19.264259259259262 10.666666666666668)"/><use xlink:href="#D" transform="matrix(1,0,0,1,667.4629629629629,402) translate(69.52351851851853 10.666666666666668)"/><path d="M543.06 578.77l.3.7-.3.7-.7.3-.72-.3-.3-.7.3-.7.7-.3zm6.76-4.18l.3.7-.3.7-.7.3-.72-.3-.3-.7.3-.7.7-.3zm6.75-4.2l.3.7-.3.72-.7.3-.7-.3-.3-.7.3-.7.7-.3zm6.76-4.17l.3.7-.3.7-.7.3-.7-.3-.3-.7.3-.7.7-.3zm6.76-4.18l.28.7-.3.7-.7.3-.7-.3-.3-.7.3-.7.7-.3zm7.04-3.47l-.3.7-.7.3-.7-.3-.3-.7.24-.58h1.52zm26.73-17.43l.3.7-.06.15h-1.87l-.06-.14.3-.7.7-.3zm6.76-4.18l.3.7-.3.7-.7.3-.7-.3-.3-.7.3-.7.7-.3zm6.76-4.18l.28.7-.3.7-.7.3-.7-.3-.3-.7.3-.7.7-.3zm6.75-4.2l.3.72-.3.7-.7.3-.72-.3-.3-.7.3-.7.7-.3zm6.75-4.17l.3.7-.3.7-.7.3-.7-.3-.3-.7.3-.7.7-.3zm6.76-4.18l.3.7-.3.7-.7.3-.7-.3-.3-.7.3-.7.7-.3z" fill="#5e5e5e"/><path d="M542.9 580.3l-1.44.9.04-1.2-.04-1.15.4-.24z" fill="#5e5e5e"/><path d="M542.93 580.32l-1.5.93.05-1.25-.05-1.16.43-.26zm-1.44-1.46l.03 1.14-.04 1.16 1.37-.86-1.03-1.66zM628.43 539.2l-1.77-.92 8.5-16.2-18.3.35-.05-2 21.7-.43z" stroke="#5e5e5e" stroke-width=".05" fill="#5e5e5e"/><use xlink:href="#B" transform="matrix(1,0,0,1,545.6111111111112,542) translate(0.005000000000002558 10.666666666666668)"/><use xlink:href="#F" transform="matrix(1,0,0,1,545.6111111111112,542) translate(19.264259259259262 10.666666666666668)"/><use xlink:href="#D" transform="matrix(1,0,0,1,545.6111111111112,542) translate(73.22722222222222 10.666666666666668)"/><path d="M590.2 836.94l.28.7-.3.7-.7.3-.7-.3-.3-.7.3-.7.7-.3zm-4.25-6.95l.3.7-.3.7-.7.3-.7-.3-.3-.7.3-.7.7-.3zm-4.23-6.96l.3.7-.3.7-.7.3-.7-.3-.3-.7.3-.7.7-.3zm-4.23-6.95l.28.7-.3.7-.7.3-.7-.3-.3-.7.3-.7.7-.3zm-4.25-6.96l.3.7-.3.7-.7.3-.7-.3-.3-.7.3-.7.7-.3zm-4.23-6.95l.3.7-.3.7-.7.3-.7-.3-.3-.7.3-.7.7-.3zm-4.23-6.96l.28.7-.3.7-.7.3-.7-.3-.3-.7.3-.7.7-.3zm-4.25-6.95l.3.7-.3.7-.7.3-.7-.3-.3-.7.3-.7.7-.3zm-4.23-6.96l.3.7-.3.72-.7.3-.7-.3-.3-.7.3-.72.7-.3zm-4.23-6.95l.28.7-.3.7-.7.3-.7-.3-.3-.7.3-.7.7-.3zm-4.25-6.96l.3.7-.3.72-.7.3-.7-.3-.3-.7.3-.72.7-.3zm-4.23-6.95l.3.7-.3.7-.7.3-.7-.3-.3-.7.3-.7.7-.3zm-4.23-6.96l.28.7-.3.72-.7.3-.7-.3-.3-.7.3-.72.7-.3zm-4.25-5.53l-.7.3-.7-.3h1.4zm-12.7-22.26l.3.7-.3.72-.7.3-.7-.3-.3-.7.3-.72.7-.3zm-4.23-6.95l.3.7-.3.7-.7.3-.7-.3-.3-.7.3-.7.7-.3zm-4.23-6.96l.28.7-.3.72-.7.3-.7-.3-.3-.7.3-.72.7-.3zm-4.25-6.95l.3.7-.3.7-.7.3-.7-.3-.3-.7.3-.7.7-.3zm-4.23-6.96l.3.7-.3.72-.7.3-.7-.3-.3-.7.3-.72.7-.3zM501.3 691l.28.7-.3.7-.7.3-.7-.3-.3-.7.3-.7.7-.3zm-4.25-6.96l.3.7-.3.72-.7.3-.7-.3-.3-.7.3-.72.7-.3zm-4.23-6.94l.3.7-.3.7-.7.3-.7-.3-.3-.7.3-.7.7-.3zm-4.23-6.96l.28.7-.3.72-.7.3-.7-.3-.3-.7.3-.72.7-.3zm-4.25-6.94l.3.7-.3.7-.7.3-.7-.3-.3-.7.3-.7.7-.3zm-4.23-6.95l.3.7-.3.7-.7.3-.72-.3-.3-.7.3-.7.7-.3zm-4.23-6.95l.28.7-.3.7-.7.3-.7-.3-.3-.7.3-.7.7-.3zm-4.25-6.95l.3.7-.3.7-.7.3-.7-.3-.3-.7.3-.7.7-.3z" fill="#5e5e5e"/><path d="M591.2 838.54l-1.2-.04-1.15.04-.24-.4 1.72-1.04z" fill="#5e5e5e"/><path d="M591.24 838.57l-1.24-.05-1.16.05-.26-.44 1.75-1.06zm-2.6-.42l.23.36 1.13-.03 1.15.04-.84-1.36zM489.14 651.7l-.94 1.77-16.16-8.6.24 18.3-2 .02-.28-21.7z" stroke="#5e5e5e" stroke-width=".05" fill="#5e5e5e"/><use xlink:href="#B" transform="matrix(1,0,0,1,485.6111111111111,732) translate(0.005000000000002558 10.666666666666668)"/><use xlink:href="#F" transform="matrix(1,0,0,1,485.6111111111111,732) translate(19.264259259259262 10.666666666666668)"/><use xlink:href="#D" transform="matrix(1,0,0,1,485.6111111111111,732) translate(73.22722222222222 10.666666666666668)"/><path d="M591.13 836.9l.3.7-.3.7-.7.3-.7-.3-.3-.7.3-.7.7-.3zm3.4-7.28l.3.7-.3.7-.7.3-.72-.3-.28-.7.3-.7.7-.3zm3.4-7.27l.28.7-.28.7-.7.3-.72-.3-.3-.7.3-.7.7-.3zm3.38-7.27l.3.7-.3.7-.7.3-.7-.3-.3-.7.3-.7.7-.3zm3.4-7.27l.3.7-.3.72-.7.3-.7-.3-.3-.7.3-.7.7-.3zm3.4-7.26l.3.7-.3.7-.7.3-.7-.3-.3-.7.3-.7.7-.3zm3.4-7.27l.3.7-.3.7-.7.3-.72-.3-.3-.7.3-.7.7-.3zm3.4-7.27l.28.7-.3.7-.7.3-.7-.3-.3-.7.3-.7.7-.3zm3.4-7.27l.28.7-.3.7-.7.3-.7-.3-.3-.7.3-.7.7-.3zm3.38-7.27l.3.7-.3.7-.7.3-.7-.3-.3-.7.3-.7.7-.3zm3.4-7.27l.3.7-.3.7-.7.3-.72-.3-.3-.7.3-.7.7-.3zm3.4-7.28l.28.7-.3.7-.7.3-.7-.3-.3-.7.3-.7.7-.3zm3.38-7.27l.3.7-.3.7-.7.3-.7-.3-.3-.7.3-.7.7-.3zm3.4-7.27l.3.7-.3.7-.7.3-.7-.3-.3-.7.3-.7.7-.3zm3.4-7.27l.3.72-.3.7-.7.3-.72-.3-.3-.7.3-.7.7-.3zm3.4-7.26l.28.7-.3.7-.7.3-.7-.3-.3-.7.3-.7.7-.3zm3.38-7.27l.3.7-.3.7-.7.3-.7-.3-.3-.7.3-.7.7-.3zm10.2-21.8l.28.7-.3.7-.7.3-.7-.3-.3-.7.3-.7.7-.3zm3.38-7.28l.3.7-.3.7-.7.3-.7-.3-.3-.7.3-.7.7-.3zm3.4-7.28l.3.7-.3.7-.7.3-.72-.3-.3-.7.3-.7.7-.3zm3.4-7.27l.28.7-.3.7-.7.3-.7-.3-.3-.7.3-.7.7-.3zm3.38-7.27l.3.7-.3.7-.7.3-.7-.3-.3-.7.3-.7.7-.3zm3.4-7.27l.3.72-.3.7-.7.3-.72-.3-.3-.7.3-.7.7-.3zm3.4-7.26l.3.7-.3.7-.7.3-.72-.3-.3-.7.3-.7.7-.3zm3.4-7.27l.28.7-.3.7-.7.3-.7-.3-.3-.7.3-.7.7-.3zm3.38-7.27l.3.7-.3.7-.7.3-.7-.3-.3-.7.3-.7.7-.3zm3.4-7.27l.3.7-.3.7-.7.3-.72-.3-.3-.7.3-.7.7-.3zm3.4-7.27l.28.7-.3.72-.7.3-.7-.3-.3-.7.3-.72.7-.3zm3.38-7.27l.3.7-.3.7-.7.3-.7-.3-.3-.7.3-.7.7-.3zm3.4-7.28l.3.7-.3.7-.7.3-.7-.3-.3-.7.3-.7.7-.3zm3.4-7.27l.3.7-.3.7-.7.3-.72-.3-.3-.7.3-.7.7-.3zm3.4-7.27l.28.7-.3.72-.7.3-.7-.3-.3-.7.3-.72.7-.3zm3.38-7.27l.3.72-.3.7-.7.3-.7-.3-.3-.7.3-.7.7-.3zm3.4-7.26l.3.7-.3.72-.7.3-.72-.3-.3-.7.3-.72.7-.3z" fill="#5e5e5e"/><path d="M712.1 603.1l-2 .18-1.76-18.22-15.12 10.34-1.12-1.65L710 581.5z" stroke="#5e5e5e" stroke-width=".05" fill="#5e5e5e"/><path d="M591.34 838l-.25.54-1.1-.04-1.12.04.65-1.4z" fill="#5e5e5e"/><path d="M591.37 837.98l-.27.58-1.1-.04-1.16.05.68-1.46zm-2.45.53l1.08-.03 1.07.04.24-.5-1.76-.82z" stroke="#5e5e5e" stroke-width=".05" fill="#5e5e5e"/><use xlink:href="#B" transform="matrix(1,0,0,1,607.4629629629629,702) translate(0.005000000000002558 10.666666666666668)"/><use xlink:href="#C" transform="matrix(1,0,0,1,607.4629629629629,702) translate(19.264259259259262 10.666666666666668)"/><use xlink:href="#D" transform="matrix(1,0,0,1,607.4629629629629,702) translate(69.52351851851853 10.666666666666668)"/><path d="M1659 837.8l-996.5 62.14" stroke="#5e5e5e" stroke-width="2" fill="none"/><path d="M1663 837.75h-3v1l-.96.06-.13-1.98 4.03-.25zM662.6 900.93l-1.13.07.03-1-.03-1 1-.06z" stroke="#5e5e5e" stroke-width=".05" fill="#5e5e5e"/><path d="M1520 680c0 33.14-31.34 60-70 60s-70-26.86-70-60 31.34-60 70-60 70 26.86 70 60z" stroke="#5e5e5e" stroke-width="3" fill="#fff"/><g><use xlink:href="#r" transform="matrix(1,0,0,1,1380,620) translate(20.73432098765433 63.34444444444445)"/><use xlink:href="#G" transform="matrix(1,0,0,1,1380,620) translate(81.659012345679 63.34444444444445)"/></g><path d="M663.95 898.76l.3.7-.3.7-.7.3-.72-.3-.3-.7.3-.7.7-.3zm7.68-2.36l.3.7-.3.72-.7.3-.72-.3-.28-.7.3-.72.7-.3zm7.68-2.35l.3.7-.3.7-.7.3-.7-.3-.3-.7.3-.7.7-.3zm7.7-2.36l.28.7-.3.7-.7.3-.7-.3-.3-.7.3-.7.7-.3zm7.67-2.37l.3.7-.3.72-.7.3-.72-.3-.3-.7.3-.72.7-.3zm7.68-2.35l.3.7-.3.7-.7.3-.72-.3-.3-.7.3-.7.7-.3zm7.68-2.36l.3.7-.3.7-.7.3-.7-.3-.3-.7.3-.7.7-.3zm7.68-2.36l.3.7-.3.72-.7.3-.7-.3-.3-.7.3-.72.7-.3zm7.7-2.35l.28.7-.3.72-.7.3-.7-.3-.3-.7.3-.7.7-.3zm7.67-2.35l.3.7-.3.7-.7.3-.7-.3-.3-.7.3-.7.7-.3zm7.68-2.36l.3.7-.3.7-.7.3-.7-.3-.3-.7.3-.7.7-.3zm7.68-2.36l.3.7-.3.7-.7.3-.7-.3-.3-.7.3-.7.7-.3zm7.68-2.36l.3.7-.3.7-.7.3-.7-.3-.3-.7.3-.7.7-.3zm7.7-2.36l.3.7-.3.72-.7.3-.72-.3-.3-.7.3-.72.7-.3zm7.68-2.35l.3.7-.3.7-.7.3-.72-.3-.3-.7.3-.7.7-.3zm7.68-2.36l.3.72-.3.7-.7.3-.72-.3-.3-.7.3-.7.7-.3zm7.68-2.35l.3.7-.3.72-.7.3-.72-.3-.3-.7.3-.72.7-.3zm7.68-2.35l.3.7-.3.7-.7.3-.72-.3-.3-.7.3-.7.7-.3zm7.68-2.36l.3.7-.3.7-.7.3-.72-.3-.3-.7.3-.7.7-.3zm7.68-2.36l.3.7-.3.72-.7.3-.7-.3-.3-.7.3-.72.7-.3zm7.68-2.35l.3.7-.3.7-.7.3-.7-.3-.3-.7.3-.7.7-.3zm7.68-2.36l.3.7-.3.7-.7.3-.7-.3-.3-.7.3-.7.7-.3zm7.68-2.36l.3.72-.3.7-.7.3-.7-.3-.3-.7.3-.7.7-.3zm7.68-2.35l.3.7-.3.72-.7.3-.7-.3-.3-.7.3-.72.7-.3zm7.68-2.35l.3.7-.3.7-.7.3-.7-.3-.3-.7.3-.7.7-.3zm7.68-2.36l.3.7-.3.72-.7.3-.7-.3-.3-.7.3-.72.7-.3zm7.68-2.36l.3.7-.3.72-.7.3-.7-.3-.3-.7.3-.72.7-.3zm7.7-2.35l.28.7-.3.7-.7.3-.7-.3-.3-.7.3-.7.7-.3zm7.66-2.36l.3.7-.3.72-.7.28-.7-.3-.3-.7.3-.7.7-.3zm7.7-2.36l.28.72-.3.7-.7.3-.7-.3-.3-.7.3-.7.7-.3zm7.67-2.34l.3.7-.3.7-.7.3-.72-.3-.3-.7.3-.7.7-.3zm7.68-2.36l.3.7-.3.72-.7.3-.72-.3-.3-.7.3-.72.7-.3zm7.68-2.36l.3.7-.3.72-.7.3-.72-.3-.28-.7.3-.7.7-.3zm7.68-2.35l.3.7-.3.7-.7.3-.7-.3-.3-.7.3-.7.7-.3zm7.7-2.37l.28.7-.3.72-.7.3-.7-.3-.3-.7.3-.72.7-.3zm7.67-2.36l.3.7-.3.72-.7.28-.7-.3-.3-.7.3-.7.7-.3zm7.68-2.35l.3.7-.3.7-.7.3-.7-.3-.3-.7.3-.7.7-.3zm7.68-2.36l.3.7-.3.72-.7.3-.7-.3-.3-.7.3-.72.7-.3zm7.68-2.35l.3.7-.3.72-.7.3-.7-.3-.3-.7.3-.7.7-.3zm7.7-2.35l.3.7-.3.7-.7.3-.72-.3-.3-.7.3-.7.7-.3zm7.67-2.36l.3.7-.3.7-.7.3-.7-.3-.3-.7.3-.7.7-.3zm7.68-2.37l.3.7-.3.72-.7.3-.7-.3-.3-.7.3-.72.7-.3zm7.68-2.35l.3.7-.3.7-.7.3-.7-.3-.3-.7.3-.7.7-.3zm7.98-1.65l-.28.7-.7.3-.72-.3-.3-.7.06-.13h1.9zm53.48-17.2l.3.7-.16.37h-1.7l-.15-.37.3-.7.7-.3zm7.68-2.36l.3.7-.3.7-.7.3-.7-.3-.3-.7.3-.7.7-.3zm7.68-2.36l.3.72-.3.7-.7.3-.7-.3-.3-.7.3-.7.7-.3zm7.68-2.35l.3.7-.3.72-.7.3-.7-.3-.3-.7.3-.72.7-.3zm7.68-2.35l.3.7-.3.7-.7.3-.7-.3-.3-.7.3-.7.7-.3zm7.68-2.36l.3.7-.3.7-.7.3-.7-.3-.3-.7.3-.7.7-.3zm7.68-2.36l.3.7-.3.72-.7.3-.7-.3-.3-.7.3-.72.7-.3zm7.68-2.35l.3.7-.3.7-.7.3-.7-.3-.3-.7.3-.7.7-.3zm7.7-2.36l.28.7-.3.72-.7.28-.7-.3-.3-.7.3-.7.7-.3zm7.67-2.36l.3.72-.3.7-.7.3-.7-.3-.3-.7.3-.7.7-.3zm7.7-2.34l.28.7-.3.7-.7.3-.7-.3-.3-.7.3-.7.7-.3zm7.67-2.36l.3.7-.3.7-.7.3-.72-.3-.3-.7.3-.7.7-.3zm7.68-2.36l.3.7-.3.72-.7.3-.72-.3-.3-.7.3-.72.7-.3zm7.68-2.35l.3.7-.3.7-.7.3-.72-.3-.28-.7.3-.7.7-.3zm7.68-2.37l.3.7-.3.72-.7.3-.7-.3-.3-.7.3-.72.7-.3zm7.7-2.36l.28.7-.3.72-.7.28-.7-.3-.3-.7.3-.7.7-.3zm7.67-2.35l.3.7-.3.7-.7.3-.7-.3-.3-.7.3-.7.7-.3zm7.68-2.36l.3.7-.3.72-.7.3-.7-.3-.3-.7.3-.72.7-.3zm7.68-2.36l.3.7-.3.72-.7.3-.7-.3-.3-.7.3-.72.7-.3zm7.68-2.35l.3.7-.3.7-.7.3-.7-.3-.3-.7.3-.7.7-.3zm7.7-2.36l.3.7-.3.7-.7.3-.72-.3-.3-.7.3-.7.7-.3zm7.68-2.37l.3.7-.3.72-.7.3-.72-.3-.3-.7.3-.72.7-.3zm7.68-2.35l.3.7-.3.7-.7.3-.72-.3-.3-.7.3-.7.7-.3zm7.68-2.36l.3.7-.3.7-.7.3-.72-.3-.3-.7.3-.7.7-.3zm7.68-2.36l.3.7-.3.72-.7.3-.72-.3-.3-.7.3-.72.7-.3zM1240 722l.3.7-.3.72-.7.3-.72-.3-.3-.7.3-.7.7-.3zm7.68-2.35l.3.7-.3.7-.7.3-.72-.3-.3-.7.3-.7.7-.3zm7.68-2.36l.3.7-.3.7-.7.3-.72-.3-.3-.7.3-.7.7-.3zm7.68-2.36l.3.7-.3.7-.7.3-.7-.3-.3-.7.3-.7.7-.3zm7.68-2.36l.3.7-.3.7-.7.3-.7-.3-.3-.7.3-.7.7-.3zm7.68-2.36l.3.7-.3.72-.7.3-.7-.3-.3-.7.3-.72.7-.3zm7.68-2.35l.3.7-.3.7-.7.3-.7-.3-.3-.7.3-.7.7-.3zm7.68-2.36l.3.72-.3.7-.7.3-.7-.3-.3-.7.3-.7.7-.3zm7.68-2.35l.3.7-.3.72-.7.3-.7-.3-.3-.7.3-.72.7-.3zm7.68-2.35l.3.7-.3.7-.7.3-.7-.3-.3-.7.3-.7.7-.3zm7.7-2.36l.28.7-.3.7-.7.3-.7-.3-.3-.7.3-.7.7-.3zm7.66-2.36l.3.7-.3.72-.7.3-.7-.3-.3-.7.3-.72.7-.3zm7.7-2.35l.28.7-.3.7-.7.3-.7-.3-.3-.7.3-.7.7-.3zm7.67-2.36l.3.7-.3.7-.7.3-.72-.3-.3-.7.3-.7.7-.3zm7.68-2.36l.3.72-.3.7-.7.3-.72-.3-.28-.7.3-.7.7-.3zm7.68-2.34l.3.7-.3.7-.7.3-.7-.3-.3-.7.3-.7.7-.3zm7.7-2.36l.28.7-.3.7-.7.3-.7-.3-.3-.7.3-.7.7-.3zm7.67-2.36l.3.7-.3.72-.7.3-.7-.3-.3-.7.3-.72.7-.3zm7.68-2.35l.3.7-.3.7-.7.3-.7-.3-.3-.7.3-.7.7-.3z" fill="#5e5e5e"/><path d="M677.6 885.32l-12.34 13.53 17.8 4.28-.47 1.95-21.1-5.08 14.6-16.03z" stroke="#5e5e5e" stroke-width=".05" fill="#5e5e5e"/><path d="M1378.5 680l.04 1.03-.73.23-.58-1.9 1.32-.42z" fill="#5e5e5e"/><path d="M1378.52 680l.04 1.05-.76.24-.6-1.97 1.36-.42zm-1.26-.64l.57 1.87.68-.2-.03-1.03.04-1.02z" stroke="#5e5e5e" stroke-width=".05" fill="#5e5e5e"/><g><use xlink:href="#B" transform="matrix(1,0,0,1,981.3518518518518,782) translate(0.005000000000002558 10.666666666666668)"/><use xlink:href="#H" transform="matrix(1,0,0,1,981.3518518518518,782) translate(19.264259259259262 10.666666666666668)"/></g><path d="M1380 380c0 33.14-31.34 60-70 60s-70-26.86-70-60 31.34-60 70-60 70 26.86 70 60z" stroke="#5e5e5e" stroke-width="3" fill="#fff"/><g><use xlink:href="#I" transform="matrix(1,0,0,1,1240,320) translate(22.993580246913588 55.84444444444445)"/><use xlink:href="#J" transform="matrix(1,0,0,1,1240,320) translate(41.46302469135802 72.11111111111111)"/></g><path d="M591.58 837.3l.3.72-.3.7-.7.3-.7-.3-.3-.7.3-.7.7-.3zm7.04-3.87l.3.7-.3.72-.7.3-.72-.3-.3-.7.3-.72.7-.3zm7.03-3.88l.3.7-.3.72-.7.3-.7-.3-.3-.7.3-.72.7-.3zm7.04-3.88l.28.7-.3.72-.7.28-.7-.3-.3-.7.3-.7.7-.3zm7.02-3.88l.3.7-.3.7-.7.3-.7-.3-.3-.7.3-.7.7-.3zm7.04-3.88l.3.7-.3.7-.7.3-.72-.3-.3-.7.3-.7.7-.3zm7.03-3.88l.28.7-.3.7-.7.3-.7-.3-.3-.7.3-.7.7-.3zm7.03-3.88l.3.7-.3.7-.7.3-.72-.3-.28-.7.3-.7.7-.3zm7.03-3.88l.3.7-.3.7-.7.3-.7-.3-.3-.7.3-.7.7-.3zm7.03-3.88l.3.7-.3.7-.7.3-.72-.3-.3-.7.3-.7.7-.3zm7.03-3.88l.3.7-.3.7-.7.3-.72-.3-.28-.7.3-.7.7-.3zm7.03-3.88l.3.7-.3.72-.7.3-.7-.3-.3-.7.3-.72.7-.3zm7.04-3.88l.3.7-.3.72-.7.3-.72-.3-.3-.7.3-.72.7-.3zm7.03-3.88l.3.7-.3.72-.7.3-.7-.3-.3-.7.3-.72.7-.3zm7.04-3.87l.3.7-.3.72-.7.3-.72-.3-.3-.7.3-.7.7-.3zm7.03-3.87l.3.7-.3.7-.7.3-.7-.3-.3-.7.3-.7.7-.3zm7.04-3.88l.3.7-.3.7-.7.3-.72-.3-.3-.7.3-.7.7-.3zm7.03-3.88l.3.7-.3.7-.7.3-.7-.3-.3-.7.3-.7.7-.3zm7.04-3.88l.3.7-.3.7-.7.3-.7-.3-.3-.7.3-.7.7-.3zm7.04-3.9l.3.72-.3.7-.7.3-.7-.3-.3-.7.3-.7.7-.3zm7.03-3.87l.3.7-.3.72-.7.3-.7-.3-.3-.7.3-.72.7-.3zm7.04-3.88l.3.7-.3.72-.7.3-.7-.3-.3-.7.3-.72.7-.3zm7.05-3.87l.3.7-.3.7-.7.3-.72-.3-.3-.7.3-.7.7-.3zm7.03-3.88l.3.7-.3.7-.7.3-.7-.3-.3-.7.3-.7.7-.3zm7.03-3.88l.3.7-.3.7-.7.3-.7-.3-.3-.7.3-.7.7-.3zm7.05-3.88l.3.7-.3.7-.7.3-.72-.3-.3-.7.3-.7.7-.3zm7.03-3.88l.3.7-.3.72-.7.3-.7-.3-.3-.7.3-.72.7-.3zm7.04-3.88l.3.7-.3.72-.7.3-.72-.3-.3-.7.3-.72.7-.3zm7.03-3.88l.3.7-.3.72-.7.3-.7-.3-.3-.7.3-.72.7-.3zm7.04-3.88l.28.7-.3.72-.7.3-.7-.3-.3-.7.3-.72.7-.3zm7.02-3.88l.3.7-.3.72-.7.3-.7-.3-.3-.7.3-.7.7-.3zm7.04-3.87l.3.7-.3.7-.7.3-.72-.3-.3-.7.3-.7.7-.3zm7.03-3.88l.28.7-.3.7-.7.3-.7-.3-.3-.7.3-.7.7-.3zm7.03-3.9l.3.72-.3.7-.7.3-.72-.3-.28-.7.3-.7.7-.3zm7.03-3.87l.3.7-.3.7-.7.3-.7-.3-.3-.7.3-.7.7-.3zm7.03-3.88l.3.7-.3.72-.7.3-.72-.3-.3-.7.3-.72.7-.3zm7.03-3.88l.3.7-.3.72-.7.28-.72-.3-.28-.7.3-.7.7-.3zm7.03-3.88l.3.7-.3.7-.7.3-.7-.3-.3-.7.3-.7.7-.3zm7.04-3.88l.3.7-.3.7-.7.3-.72-.3-.3-.7.3-.7.7-.3zm7.03-3.88l.3.7-.3.7-.7.3-.7-.3-.3-.7.3-.7.7-.3zm7.04-3.88l.3.7-.3.7-.7.3-.72-.3-.3-.7.3-.7.7-.3zm7.03-3.88l.3.7-.3.7-.7.3-.7-.3-.3-.7.3-.7.7-.3zm7.04-3.88l.3.7-.3.7-.7.3-.72-.3-.3-.7.3-.7.7-.3zm7.03-3.88l.3.7-.3.7-.7.3-.7-.3-.3-.7.3-.7.7-.3zm7.04-3.88l.3.7-.3.72-.7.3-.7-.3-.3-.7.3-.72.7-.3zm7.04-3.88l.3.7-.3.72-.7.3-.7-.3-.3-.7.3-.72.7-.3zm7.04-3.88l.3.7-.3.72-.7.3-.72-.3-.3-.7.3-.72.7-.3zm7.03-3.87l.3.7-.3.72-.7.3-.7-.3-.3-.7.3-.7.7-.3zm7.04-3.87l.3.7-.3.7-.7.3-.7-.3-.3-.7.3-.7.7-.3zm7.04-2.47l-.7.3-.72-.3-.27-.66h1.95zm28.14-16.93l.1.27h-1.63l.1-.27.7-.3zm7.03-3.88l.3.7-.3.72-.7.3-.7-.3-.3-.7.3-.72.7-.3zm7.04-3.88l.28.7-.3.72-.7.28-.7-.3-.3-.7.3-.7.7-.3zm7.02-3.87l.3.7-.3.7-.7.3-.7-.3-.3-.7.3-.7.7-.3zm7.04-3.88l.3.7-.3.7-.7.3-.72-.3-.3-.7.3-.7.7-.3zm7.03-3.88l.28.7-.3.7-.7.3-.7-.3-.3-.7.3-.7.7-.3zm7.03-3.88l.3.7-.3.7-.7.3-.72-.3-.28-.7.3-.7.7-.3zm7.03-3.88l.3.7-.3.72-.7.3-.7-.3-.3-.7.3-.72.7-.3zm7.04-3.88l.3.7-.3.72-.7.3-.72-.3-.3-.7.3-.72.7-.3zm7.03-3.88l.3.7-.3.72-.7.3-.7-.3-.3-.7.3-.72.7-.3zm7.03-3.88l.3.7-.3.72-.7.3-.7-.3-.3-.7.3-.7.7-.3zm7.04-3.87l.3.7-.3.7-.7.3-.7-.3-.3-.7.3-.7.7-.3zm7.03-3.88l.3.7-.3.7-.7.3-.7-.3-.3-.7.3-.7.7-.3zm7.04-3.9l.3.72-.3.7-.7.3-.72-.3-.3-.7.3-.7.7-.3zm7.03-3.87l.3.7-.3.7-.7.3-.7-.3-.3-.7.3-.7.7-.3zm7.04-3.88l.3.7-.3.72-.7.3-.72-.3-.3-.7.3-.72.7-.3zm7.03-3.88l.3.7-.3.72-.7.28-.7-.3-.3-.7.3-.7.7-.3zm7.04-3.88l.3.7-.3.7-.7.3-.7-.3-.3-.7.3-.7.7-.3zm7.04-3.9l.3.72-.3.7-.7.3-.7-.3-.3-.7.3-.7.7-.3zm7.04-3.86l.3.7-.3.7-.7.3-.72-.3-.3-.7.3-.7.7-.3zm7.03-3.88l.3.7-.3.7-.7.3-.7-.3-.3-.7.3-.7.7-.3zm7.05-3.88l.3.7-.3.7-.7.3-.72-.3-.3-.7.3-.7.7-.3zm7.03-3.88l.3.7-.3.7-.7.3-.7-.3-.3-.7.3-.7.7-.3zm7.03-3.88l.3.7-.3.7-.7.3-.7-.3-.3-.7.3-.7.7-.3zm7.05-3.88l.3.7-.3.72-.7.3-.7-.3-.3-.7.3-.72.7-.3zm7.03-3.88l.3.7-.3.72-.7.3-.7-.3-.3-.7.3-.72.7-.3zm7.04-3.88l.3.7-.3.72-.7.3-.72-.3-.3-.7.3-.72.7-.3zm7.03-3.88l.3.7-.3.72-.7.3-.7-.3-.3-.7.3-.72.7-.3zm7.04-3.87l.28.7-.3.7-.7.3-.7-.3-.3-.7.3-.7.7-.3zm7.02-3.88l.3.7-.3.7-.7.3-.7-.3-.3-.7.3-.7.7-.3zm7.04-3.88l.3.7-.3.7-.7.3-.72-.3-.3-.7.3-.7.7-.3zm7.03-3.88l.3.7-.3.7-.7.3-.72-.3-.3-.7.3-.7.7-.3zm7.03-3.9l.3.72-.3.7-.7.3-.72-.3-.28-.7.3-.7.7-.3zm7.03-3.87l.3.7-.3.72-.7.3-.7-.3-.3-.7.3-.72.7-.3zm7.04-3.88l.3.7-.3.72-.7.3-.72-.3-.3-.7.3-.72.7-.3zm7.03-3.88l.3.7-.3.72-.7.28-.7-.3-.3-.7.3-.7.7-.3zm7.03-3.87l.3.7-.3.7-.7.3-.7-.3-.3-.7.3-.7.7-.3zm7.04-3.88l.3.7-.3.7-.7.3-.7-.3-.3-.7.3-.7.7-.3zm7.03-3.88l.3.7-.3.7-.7.3-.7-.3-.3-.7.3-.7.7-.3zm7.04-3.88l.3.7-.3.7-.7.3-.72-.3-.3-.7.3-.7.7-.3zm7.03-3.88l.3.7-.3.72-.7.3-.7-.3-.3-.7.3-.72.7-.3zm7.04-3.88l.3.7-.3.72-.7.3-.72-.3-.3-.7.3-.72.7-.3zm7.03-3.88l.3.7-.3.72-.7.3-.7-.3-.3-.7.3-.72.7-.3zm7.04-3.88l.3.7-.3.72-.7.3-.7-.3-.3-.7.3-.72.7-.3zm7.04-3.87l.3.7-.3.7-.7.3-.7-.3-.3-.7.3-.7.7-.3zm7.04-3.88l.3.7-.3.7-.7.3-.72-.3-.3-.7.3-.7.7-.3zm7.03-3.9l.3.7-.3.72-.7.3-.7-.3-.3-.7.3-.7.7-.3zm7.05-3.87l.3.7-.3.7-.7.3-.72-.3-.3-.7.3-.7.7-.3zm7.03-3.88l.3.7-.3.7-.7.3-.7-.3-.3-.7.3-.7.7-.3zm7.04-3.88l.3.7-.3.72-.7.28-.72-.3-.3-.7.3-.7.7-.3z" fill="#5e5e5e"/><path d="M591.2 838.54l-1.2-.04-2.2.08 2.62-1.45z" fill="#5e5e5e"/><path d="M591.24 838.57l-1.24-.05-2.32.1 2.75-1.53zm-3.35-.02l2.1-.08 1.15.04-.75-1.34zM1310 441.5l-11.02 18.7-1.72-1.03 9.3-15.77-18.3-.55.06-2z" stroke="#5e5e5e" stroke-width=".05" fill="#5e5e5e"/><g><use xlink:href="#B" transform="matrix(1,0,0,1,907.4629629629629,632) translate(0.005000000000002558 10.666666666666668)"/><use xlink:href="#C" transform="matrix(1,0,0,1,907.4629629629629,632) translate(19.264259259259262 10.666666666666668)"/><use xlink:href="#D" transform="matrix(1,0,0,1,907.4629629629629,632) translate(69.52351851851853 10.666666666666668)"/></g><path d="M1382.46 379.7l256.58-78.66" stroke="#5e5e5e" stroke-width="2" fill="none"/><path d="M1382.78 380.65l-1.32.4.04-1.05-.04-1.04.73-.22z" stroke="#5e5e5e" stroke-width=".05" fill="#5e5e5e"/><path d="M1639.02 301.05l3.85-1.18M100.1 158.95L469.28 517.8M100.11 158.97l-2.87-2.8" stroke="#5e5e5e" stroke-width="2" fill="none"/><path d="M471.5 518.55l-1.5-.05-1.38.05-.05-.05 1.4-1.43zM518.88 898.64l-1.74.98L99 159.62l1.74-1z" stroke="#5e5e5e" stroke-width=".05" fill="#5e5e5e"/><path d="M100.75 158.65l-1.74.98-1.97-3.5 1.75-.98z" stroke="#5e5e5e" stroke-width=".05" fill="#5e5e5e"/><path d="M518.5 900l.08 2.17-1.46-2.57 1.42-.8z" fill="#5e5e5e"/><path d="M518.52 900l.08 2.27-1.5-2.68 1.47-.85zm-1.36-.4l1.4 2.47-.1-2.07.05-1.16z" stroke="#5e5e5e" stroke-width=".05" fill="#5e5e5e"/><defs><path fill="#333" d="M30 0v-248h187v28H63v79h144v27H63v87h162V0H30" id="K"/><path fill="#333" d="M141 0L90-78 38 0H4l68-98-65-92h35l48 74 47-74h35l-64 92 68 98h-35" id="L"/><path fill="#333" d="M115-194c55 1 70 41 70 98S169 2 115 4C84 4 66-9 55-30l1 105H24l-1-265h31l2 30c10-21 28-34 59-34zm-8 174c40 0 45-34 45-75s-6-73-45-74c-42 0-51 32-51 76 0 43 10 73 51 73" id="M"/><path fill="#333" d="M114-163C36-179 61-72 57 0H25l-1-190h30c1 12-1 29 2 39 6-27 23-49 58-41v29" id="N"/><path fill="#333" d="M100-194c63 0 86 42 84 106H49c0 40 14 67 53 68 26 1 43-12 49-29l28 8c-11 28-37 45-77 45C44 4 14-33 15-96c1-61 26-98 85-98zm52 81c6-60-76-77-97-28-3 7-6 17-6 28h103" id="O"/><path fill="#333" d="M135-143c-3-34-86-38-87 0 15 53 115 12 119 90S17 21 10-45l28-5c4 36 97 45 98 0-10-56-113-15-118-90-4-57 82-63 122-42 12 7 21 19 24 35" id="P"/><path fill="#333" d="M63-220v92h138v28H63V0H30v-248h175v28H63" id="Q"/><path fill="#333" d="M100-194c62-1 85 37 85 99 1 63-27 99-86 99S16-35 15-95c0-66 28-99 85-99zM99-20c44 1 53-31 53-75 0-43-8-75-51-75s-53 32-53 75 10 74 51 75" id="R"/><path fill="#333" d="M85-194c31 0 48 13 60 33l-1-100h32l1 261h-30c-2-10 0-23-3-31C134-8 116 4 85 4 32 4 16-35 15-94c0-66 23-100 70-100zm9 24c-40 0-46 34-46 75 0 40 6 74 45 74 42 0 51-32 51-76 0-42-9-74-50-73" id="S"/><g id="a"><use transform="matrix(0.06172839506172839,0,0,0.06172839506172839,0,0)" xlink:href="#K"/><use transform="matrix(0.06172839506172839,0,0,0.06172839506172839,14.814814814814813,0)" xlink:href="#L"/><use transform="matrix(0.06172839506172839,0,0,0.06172839506172839,25.925925925925924,0)" xlink:href="#M"/><use transform="matrix(0.06172839506172839,0,0,0.06172839506172839,38.2716049382716,0)" xlink:href="#N"/><use transform="matrix(0.06172839506172839,0,0,0.06172839506172839,45.61728395061728,0)" xlink:href="#O"/><use transform="matrix(0.06172839506172839,0,0,0.06172839506172839,57.962962962962955,0)" xlink:href="#P"/><use transform="matrix(0.06172839506172839,0,0,0.06172839506172839,69.07407407407406,0)" xlink:href="#P"/><use transform="matrix(0.06172839506172839,0,0,0.06172839506172839,80.18518518518518,0)" xlink:href="#Q"/><use transform="matrix(0.06172839506172839,0,0,0.06172839506172839,93.7037037037037,0)" xlink:href="#R"/><use transform="matrix(0.06172839506172839,0,0,0.06172839506172839,106.04938271604938,0)" xlink:href="#R"/><use transform="matrix(0.06172839506172839,0,0,0.06172839506172839,118.39506172839506,0)" xlink:href="#S"/></g><path fill="#333" d="M96-169c-40 0-48 33-48 73s9 75 48 75c24 0 41-14 43-38l32 2c-6 37-31 61-74 61-59 0-76-41-82-99-10-93 101-131 147-64 4 7 5 14 7 22l-32 3c-4-21-16-35-41-35" id="T"/><path fill="#333" d="M24 0v-261h32V0H24" id="U"/><path fill="#333" d="M24-231v-30h32v30H24zM24 0v-190h32V0H24" id="V"/><path fill="#333" d="M117-194c89-4 53 116 60 194h-32v-121c0-31-8-49-39-48C34-167 62-67 57 0H25l-1-190h30c1 10-1 24 2 32 11-22 29-35 61-36" id="W"/><path fill="#333" d="M59-47c-2 24 18 29 38 22v24C64 9 27 4 27-40v-127H5v-23h24l9-43h21v43h35v23H59v120" id="X"/><g id="b"><use transform="matrix(0.06172839506172839,0,0,0.06172839506172839,0,0)" xlink:href="#T"/><use transform="matrix(0.06172839506172839,0,0,0.06172839506172839,11.11111111111111,0)" xlink:href="#U"/><use transform="matrix(0.06172839506172839,0,0,0.06172839506172839,15.987654320987653,0)" xlink:href="#V"/><use transform="matrix(0.06172839506172839,0,0,0.06172839506172839,20.864197530864196,0)" xlink:href="#O"/><use transform="matrix(0.06172839506172839,0,0,0.06172839506172839,33.20987654320987,0)" xlink:href="#W"/><use transform="matrix(0.06172839506172839,0,0,0.06172839506172839,45.55555555555555,0)" xlink:href="#X"/></g><path fill="#333" d="M212-179c-10-28-35-45-73-45-59 0-87 40-87 99 0 60 29 101 89 101 43 0 62-24 78-52l27 14C228-24 195 4 139 4 59 4 22-46 18-125c-6-104 99-153 187-111 19 9 31 26 39 46" id="Y"/><g id="e"><use transform="matrix(0.06172839506172839,0,0,0.06172839506172839,0,0)" xlink:href="#Y"/><use transform="matrix(0.06172839506172839,0,0,0.06172839506172839,15.987654320987653,0)" xlink:href="#U"/><use transform="matrix(0.06172839506172839,0,0,0.06172839506172839,20.864197530864196,0)" xlink:href="#V"/><use transform="matrix(0.06172839506172839,0,0,0.06172839506172839,25.74074074074074,0)" xlink:href="#O"/><use transform="matrix(0.06172839506172839,0,0,0.06172839506172839,38.08641975308642,0)" xlink:href="#W"/><use transform="matrix(0.06172839506172839,0,0,0.06172839506172839,50.432098765432094,0)" xlink:href="#X"/></g><path fill="#333" d="M30 0v-248h33v221h125V0H30" id="Z"/><path fill="#333" d="M108 0H70L1-190h34L89-25l56-165h34" id="aa"/><path fill="#333" d="M84 4C-5 8 30-112 23-190h32v120c0 31 7 50 39 49 72-2 45-101 50-169h31l1 190h-30c-1-10 1-25-2-33-11 22-28 36-60 37" id="ab"/><g id="f"><use transform="matrix(0.06172839506172839,0,0,0.06172839506172839,0,0)" xlink:href="#Z"/><use transform="matrix(0.06172839506172839,0,0,0.06172839506172839,12.345679012345679,0)" xlink:href="#V"/><use transform="matrix(0.06172839506172839,0,0,0.06172839506172839,17.22222222222222,0)" xlink:href="#aa"/><use transform="matrix(0.06172839506172839,0,0,0.06172839506172839,28.333333333333332,0)" xlink:href="#N"/><use transform="matrix(0.06172839506172839,0,0,0.06172839506172839,35.67901234567901,0)" xlink:href="#O"/><use transform="matrix(0.06172839506172839,0,0,0.06172839506172839,48.02469135802469,0)" xlink:href="#ab"/><use transform="matrix(0.06172839506172839,0,0,0.06172839506172839,60.37037037037037,0)" xlink:href="#N"/></g><path d="M212-179c-10-28-35-45-73-45-59 0-87 40-87 99 0 60 29 101 89 101 43 0 62-24 78-52l27 14C228-24 195 4 139 4 59 4 22-46 18-125c-6-104 99-153 187-111 19 9 31 26 39 46" id="ac"/><path d="M100-194c62-1 85 37 85 99 1 63-27 99-86 99S16-35 15-95c0-66 28-99 85-99zM99-20c44 1 53-31 53-75 0-43-8-75-51-75s-53 32-53 75 10 74 51 75" id="ad"/><path d="M117-194c89-4 53 116 60 194h-32v-121c0-31-8-49-39-48C34-167 62-67 57 0H25l-1-190h30c1 10-1 24 2 32 11-22 29-35 61-36" id="ae"/><path d="M135-143c-3-34-86-38-87 0 15 53 115 12 119 90S17 21 10-45l28-5c4 36 97 45 98 0-10-56-113-15-118-90-4-57 82-63 122-42 12 7 21 19 24 35" id="af"/><path d="M84 4C-5 8 30-112 23-190h32v120c0 31 7 50 39 49 72-2 45-101 50-169h31l1 190h-30c-1-10 1-25-2-33-11 22-28 36-60 37" id="ag"/><path d="M24 0v-261h32V0H24" id="ah"/><path d="M59-47c-2 24 18 29 38 22v24C64 9 27 4 27-40v-127H5v-23h24l9-43h21v43h35v23H59v120" id="ai"/><path d="M100-194c63 0 86 42 84 106H49c0 40 14 67 53 68 26 1 43-12 49-29l28 8c-11 28-37 45-77 45C44 4 14-33 15-96c1-61 26-98 85-98zm52 81c6-60-76-77-97-28-3 7-6 17-6 28h103" id="aj"/><path d="M114-163C36-179 61-72 57 0H25l-1-190h30c1 12-1 29 2 39 6-27 23-49 58-41v29" id="ak"/><g id="g"><use transform="matrix(0.03765432098765432,0,0,0.03765432098765432,0,0)" xlink:href="#ac"/><use transform="matrix(0.03765432098765432,0,0,0.03765432098765432,9.752469135802468,0)" xlink:href="#ad"/><use transform="matrix(0.03765432098765432,0,0,0.03765432098765432,17.28333333333333,0)" xlink:href="#ae"/><use transform="matrix(0.03765432098765432,0,0,0.03765432098765432,24.814197530864195,0)" xlink:href="#af"/><use transform="matrix(0.03765432098765432,0,0,0.03765432098765432,31.591975308641974,0)" xlink:href="#ag"/><use transform="matrix(0.03765432098765432,0,0,0.03765432098765432,39.12283950617284,0)" xlink:href="#ah"/><use transform="matrix(0.03765432098765432,0,0,0.03765432098765432,42.09753086419753,0)" xlink:href="#ai"/><use transform="matrix(0.03765432098765432,0,0,0.03765432098765432,45.86296296296296,0)" xlink:href="#aj"/><use transform="matrix(0.03765432098765432,0,0,0.03765432098765432,53.39382716049383,0)" xlink:href="#ak"/></g><path d="M141-36C126-15 110 5 73 4 37 3 15-17 15-53c-1-64 63-63 125-63 3-35-9-54-41-54-24 1-41 7-42 31l-33-3c5-37 33-52 76-52 45 0 72 20 72 64v82c-1 20 7 32 28 27v20c-31 9-61-2-59-35zM48-53c0 20 12 33 32 33 41-3 63-29 60-74-43 2-92-5-92 41" id="al"/><g id="h"><use transform="matrix(0.03765432098765432,0,0,0.03765432098765432,0,0)" xlink:href="#ah"/><use transform="matrix(0.03765432098765432,0,0,0.03765432098765432,2.974691358024691,0)" xlink:href="#al"/></g><path d="M24-231v-30h32v30H24zM24 0v-190h32V0H24" id="am"/><g id="i"><use transform="matrix(0.03765432098765432,0,0,0.03765432098765432,0,0)" xlink:href="#ah"/><use transform="matrix(0.03765432098765432,0,0,0.03765432098765432,2.974691358024691,0)" xlink:href="#am"/><use transform="matrix(0.03765432098765432,0,0,0.03765432098765432,5.949382716049382,0)" xlink:href="#af"/><use transform="matrix(0.03765432098765432,0,0,0.03765432098765432,12.72716049382716,0)" xlink:href="#ai"/><use transform="matrix(0.03765432098765432,0,0,0.03765432098765432,16.492592592592594,0)" xlink:href="#aj"/></g><path d="M85-194c31 0 48 13 60 33l-1-100h32l1 261h-30c-2-10 0-23-3-31C134-8 116 4 85 4 32 4 16-35 15-94c0-66 23-100 70-100zm9 24c-40 0-46 34-46 75 0 40 6 74 45 74 42 0 51-32 51-76 0-42-9-74-50-73" id="an"/><g id="j"><use transform="matrix(0.03765432098765432,0,0,0.03765432098765432,0,0)" xlink:href="#an"/><use transform="matrix(0.03765432098765432,0,0,0.03765432098765432,7.530864197530864,0)" xlink:href="#aj"/><use transform="matrix(0.03765432098765432,0,0,0.03765432098765432,15.061728395061728,0)" xlink:href="#af"/></g><path d="M115-194c55 1 70 41 70 98S169 2 115 4C84 4 66-9 55-30l1 105H24l-1-265h31l2 30c10-21 28-34 59-34zm-8 174c40 0 45-34 45-75s-6-73-45-74c-42 0-51 32-51 76 0 43 10 73 51 73" id="ao"/><g id="k"><use transform="matrix(0.03765432098765432,0,0,0.03765432098765432,0,0)" xlink:href="#ao"/><use transform="matrix(0.03765432098765432,0,0,0.03765432098765432,7.530864197530864,0)" xlink:href="#ah"/><use transform="matrix(0.03765432098765432,0,0,0.03765432098765432,10.505555555555555,0)" xlink:href="#al"/><use transform="matrix(0.03765432098765432,0,0,0.03765432098765432,18.03641975308642,0)" xlink:href="#ai"/><use transform="matrix(0.03765432098765432,0,0,0.03765432098765432,21.80185185185185,0)" xlink:href="#af"/></g><path fill="#333" d="M160-131c35 5 61 23 61 61C221 17 115-2 30 0v-248c76 3 177-17 177 60 0 33-19 50-47 57zm-97-11c50-1 110 9 110-42 0-47-63-36-110-37v79zm0 115c55-2 124 14 124-45 0-56-70-42-124-44v89" id="ap"/><path fill="#333" d="M141-36C126-15 110 5 73 4 37 3 15-17 15-53c-1-64 63-63 125-63 3-35-9-54-41-54-24 1-41 7-42 31l-33-3c5-37 33-52 76-52 45 0 72 20 72 64v82c-1 20 7 32 28 27v20c-31 9-61-2-59-35zM48-53c0 20 12 33 32 33 41-3 63-29 60-74-43 2-92-5-92 41" id="aq"/><path fill="#333" d="M145-31C134-9 116 4 85 4 32 4 16-35 15-94c0-59 17-99 70-100 32-1 48 14 60 33 0-11-1-24 2-32h30l-1 268h-32zM93-21c41 0 51-33 51-76s-8-73-50-73c-40 0-46 35-46 75s5 74 45 74" id="ar"/><g id="l"><use transform="matrix(0.06172839506172839,0,0,0.06172839506172839,0,0)" xlink:href="#ap"/><use transform="matrix(0.06172839506172839,0,0,0.06172839506172839,14.814814814814813,0)" xlink:href="#aq"/><use transform="matrix(0.06172839506172839,0,0,0.06172839506172839,27.160493827160494,0)" xlink:href="#W"/><use transform="matrix(0.06172839506172839,0,0,0.06172839506172839,39.50617283950617,0)" xlink:href="#ar"/><use transform="matrix(0.06172839506172839,0,0,0.06172839506172839,51.85185185185185,0)" xlink:href="#ab"/><use transform="matrix(0.06172839506172839,0,0,0.06172839506172839,64.19753086419753,0)" xlink:href="#O"/></g><path d="M185-189c-5-48-123-54-124 2 14 75 158 14 163 119 3 78-121 87-175 55-17-10-28-26-33-46l33-7c5 56 141 63 141-1 0-78-155-14-162-118-5-82 145-84 179-34 5 7 8 16 11 25" id="as"/><g id="m"><use transform="matrix(0.03765432098765432,0,0,0.03765432098765432,0,0)" xlink:href="#as"/><use transform="matrix(0.03765432098765432,0,0,0.03765432098765432,9.037037037037036,0)" xlink:href="#aj"/></g><path d="M96-169c-40 0-48 33-48 73s9 75 48 75c24 0 41-14 43-38l32 2c-6 37-31 61-74 61-59 0-76-41-82-99-10-93 101-131 147-64 4 7 5 14 7 22l-32 3c-4-21-16-35-41-35" id="at"/><g id="n"><use transform="matrix(0.03765432098765432,0,0,0.03765432098765432,0,0)" xlink:href="#at"/><use transform="matrix(0.03765432098765432,0,0,0.03765432098765432,6.777777777777777,0)" xlink:href="#ad"/><use transform="matrix(0.03765432098765432,0,0,0.03765432098765432,14.30864197530864,0)" xlink:href="#ae"/><use transform="matrix(0.03765432098765432,0,0,0.03765432098765432,21.83950617283951,0)" xlink:href="#ae"/><use transform="matrix(0.03765432098765432,0,0,0.03765432098765432,29.37037037037037,0)" xlink:href="#aj"/><use transform="matrix(0.03765432098765432,0,0,0.03765432098765432,36.901234567901234,0)" xlink:href="#at"/><use transform="matrix(0.03765432098765432,0,0,0.03765432098765432,43.67901234567902,0)" xlink:href="#ai"/><use transform="matrix(0.03765432098765432,0,0,0.03765432098765432,47.44444444444444,0)" xlink:href="#aj"/><use transform="matrix(0.03765432098765432,0,0,0.03765432098765432,54.9753086419753,0)" xlink:href="#ak"/></g><g id="o"><use transform="matrix(0.03765432098765432,0,0,0.03765432098765432,0,0)" xlink:href="#ac"/><use transform="matrix(0.03765432098765432,0,0,0.03765432098765432,9.752469135802468,0)" xlink:href="#ad"/><use transform="matrix(0.03765432098765432,0,0,0.03765432098765432,17.28333333333333,0)" xlink:href="#ae"/><use transform="matrix(0.03765432098765432,0,0,0.03765432098765432,24.814197530864195,0)" xlink:href="#af"/><use transform="matrix(0.03765432098765432,0,0,0.03765432098765432,31.591975308641974,0)" xlink:href="#ai"/><use transform="matrix(0.03765432098765432,0,0,0.03765432098765432,35.3574074074074,0)" xlink:href="#am"/><use transform="matrix(0.03765432098765432,0,0,0.03765432098765432,38.33209876543209,0)" xlink:href="#ai"/><use transform="matrix(0.03765432098765432,0,0,0.03765432098765432,42.09753086419753,0)" xlink:href="#ag"/><use transform="matrix(0.03765432098765432,0,0,0.03765432098765432,49.62839506172838,0)" xlink:href="#aj"/><use transform="matrix(0.03765432098765432,0,0,0.03765432098765432,57.159259259259244,0)" xlink:href="#ak"/></g><g id="p"><use transform="matrix(0.03765432098765432,0,0,0.03765432098765432,0,0)" xlink:href="#ag"/><use transform="matrix(0.03765432098765432,0,0,0.03765432098765432,7.530864197530864,0)" xlink:href="#ae"/></g><g id="q"><use transform="matrix(0.03765432098765432,0,0,0.03765432098765432,0,0)" xlink:href="#ao"/><use transform="matrix(0.03765432098765432,0,0,0.03765432098765432,7.530864197530864,0)" xlink:href="#al"/><use transform="matrix(0.03765432098765432,0,0,0.03765432098765432,15.061728395061728,0)" xlink:href="#ae"/><use transform="matrix(0.03765432098765432,0,0,0.03765432098765432,22.59259259259259,0)" xlink:href="#am"/><use transform="matrix(0.03765432098765432,0,0,0.03765432098765432,25.567283950617284,0)" xlink:href="#aj"/><use transform="matrix(0.03765432098765432,0,0,0.03765432098765432,33.09814814814815,0)" xlink:href="#ak"/></g><path d="M30-248c87 1 191-15 191 75 0 78-77 80-158 76V0H30v-248zm33 125c57 0 124 11 124-50 0-59-68-47-124-48v98" id="au"/><path d="M210-169c-67 3-38 105-44 169h-31v-121c0-29-5-50-35-48C34-165 62-65 56 0H25l-1-190h30c1 10-1 24 2 32 10-44 99-50 107 0 11-21 27-35 58-36 85-2 47 119 55 194h-31v-121c0-29-5-49-35-48" id="av"/><g id="r"><use transform="matrix(0.03765432098765432,0,0,0.03765432098765432,0,0)" xlink:href="#au"/><use transform="matrix(0.03765432098765432,0,0,0.03765432098765432,9.037037037037036,0)" xlink:href="#al"/><use transform="matrix(0.03765432098765432,0,0,0.03765432098765432,16.5679012345679,0)" xlink:href="#am"/><use transform="matrix(0.03765432098765432,0,0,0.03765432098765432,19.54259259259259,0)" xlink:href="#aj"/><use transform="matrix(0.03765432098765432,0,0,0.03765432098765432,27.073456790123455,0)" xlink:href="#av"/><use transform="matrix(0.03765432098765432,0,0,0.03765432098765432,38.33209876543209,0)" xlink:href="#aj"/><use transform="matrix(0.03765432098765432,0,0,0.03765432098765432,45.86296296296295,0)" xlink:href="#ae"/><use transform="matrix(0.03765432098765432,0,0,0.03765432098765432,53.393827160493814,0)" xlink:href="#ai"/></g><path d="M160-131c35 5 61 23 61 61C221 17 115-2 30 0v-248c76 3 177-17 177 60 0 33-19 50-47 57zm-97-11c50-1 110 9 110-42 0-47-63-36-110-37v79zm0 115c55-2 124 14 124-45 0-56-70-42-124-44v89" id="aw"/><g id="s"><use transform="matrix(0.03765432098765432,0,0,0.03765432098765432,0,0)" xlink:href="#ac"/><use transform="matrix(0.03765432098765432,0,0,0.03765432098765432,9.752469135802468,0)" xlink:href="#aw"/></g><path fill="#333" d="M190 0L58-211 59 0H30v-248h39L202-35l-2-213h31V0h-41" id="ax"/><g id="t"><use transform="matrix(0.06172839506172839,0,0,0.06172839506172839,0,0)" xlink:href="#ax"/><use transform="matrix(0.06172839506172839,0,0,0.06172839506172839,15.987654320987653,0)" xlink:href="#R"/><use transform="matrix(0.06172839506172839,0,0,0.06172839506172839,28.333333333333332,0)" xlink:href="#ab"/><use transform="matrix(0.06172839506172839,0,0,0.06172839506172839,40.67901234567901,0)" xlink:href="#aa"/><use transform="matrix(0.06172839506172839,0,0,0.06172839506172839,51.79012345679013,0)" xlink:href="#O"/><use transform="matrix(0.06172839506172839,0,0,0.06172839506172839,64.13580246913581,0)" xlink:href="#U"/></g><g id="u"><use transform="matrix(0.06172839506172839,0,0,0.06172839506172839,0,0)" xlink:href="#ab"/><use transform="matrix(0.06172839506172839,0,0,0.06172839506172839,12.345679012345679,0)" xlink:href="#X"/><use transform="matrix(0.06172839506172839,0,0,0.06172839506172839,18.51851851851852,0)" xlink:href="#V"/><use transform="matrix(0.06172839506172839,0,0,0.06172839506172839,23.395061728395063,0)" xlink:href="#U"/><use transform="matrix(0.06172839506172839,0,0,0.06172839506172839,28.271604938271608,0)" xlink:href="#V"/><use transform="matrix(0.06172839506172839,0,0,0.06172839506172839,33.14814814814815,0)" xlink:href="#P"/><use transform="matrix(0.06172839506172839,0,0,0.06172839506172839,44.25925925925927,0)" xlink:href="#aq"/><use transform="matrix(0.06172839506172839,0,0,0.06172839506172839,56.604938271604944,0)" xlink:href="#X"/><use transform="matrix(0.06172839506172839,0,0,0.06172839506172839,62.777777777777786,0)" xlink:href="#O"/><use transform="matrix(0.06172839506172839,0,0,0.06172839506172839,75.12345679012347,0)" xlink:href="#ab"/><use transform="matrix(0.06172839506172839,0,0,0.06172839506172839,87.46913580246915,0)" xlink:href="#N"/></g><path d="M100-194c63 0 86 42 84 106H49c0 40 14 67 53 68 26 1 43-12 49-29l28 8c-11 28-37 45-77 45C44 4 14-33 15-96c1-61 26-98 85-98zm52 81c6-60-76-77-97-28-3 7-6 17-6 28h103zm-74-98c8-23 27-35 38-54h36v5l-58 49H78" id="ay"/><g id="v"><use transform="matrix(0.03765432098765432,0,0,0.03765432098765432,0,0)" xlink:href="#ac"/><use transform="matrix(0.03765432098765432,0,0,0.03765432098765432,9.752469135802468,0)" xlink:href="#ak"/><use transform="matrix(0.03765432098765432,0,0,0.03765432098765432,14.23333333333333,0)" xlink:href="#ay"/><use transform="matrix(0.03765432098765432,0,0,0.03765432098765432,21.764197530864195,0)" xlink:href="#ay"/><use transform="matrix(0.03765432098765432,0,0,0.03765432098765432,29.29506172839506,0)" xlink:href="#aj"/><use transform="matrix(0.03765432098765432,0,0,0.03765432098765432,36.82592592592592,0)" xlink:href="#ak"/></g><g id="w"><use transform="matrix(0.03765432098765432,0,0,0.03765432098765432,0,0)" xlink:href="#at"/><use transform="matrix(0.03765432098765432,0,0,0.03765432098765432,6.777777777777777,0)" xlink:href="#ad"/><use transform="matrix(0.03765432098765432,0,0,0.03765432098765432,14.30864197530864,0)" xlink:href="#av"/><use transform="matrix(0.03765432098765432,0,0,0.03765432098765432,25.56728395061728,0)" xlink:href="#ao"/><use transform="matrix(0.03765432098765432,0,0,0.03765432098765432,33.09814814814814,0)" xlink:href="#ai"/><use transform="matrix(0.03765432098765432,0,0,0.03765432098765432,36.86358024691357,0)" xlink:href="#aj"/></g><g id="x"><use transform="matrix(0.03765432098765432,0,0,0.03765432098765432,0,0)" xlink:href="#as"/><use transform="matrix(0.03765432098765432,0,0,0.03765432098765432,9.037037037037036,0)" xlink:href="#aj"/><use transform="matrix(0.03765432098765432,0,0,0.03765432098765432,16.5679012345679,0)" xlink:href="#ah"/><use transform="matrix(0.03765432098765432,0,0,0.03765432098765432,19.54259259259259,0)" xlink:href="#aj"/><use transform="matrix(0.03765432098765432,0,0,0.03765432098765432,27.073456790123455,0)" xlink:href="#at"/><use transform="matrix(0.03765432098765432,0,0,0.03765432098765432,33.85123456790123,0)" xlink:href="#ai"/><use transform="matrix(0.03765432098765432,0,0,0.03765432098765432,37.61666666666666,0)" xlink:href="#am"/><use transform="matrix(0.03765432098765432,0,0,0.03765432098765432,40.59135802469135,0)" xlink:href="#ad"/><use transform="matrix(0.03765432098765432,0,0,0.03765432098765432,48.12222222222222,0)" xlink:href="#ae"/><use transform="matrix(0.03765432098765432,0,0,0.03765432098765432,55.65308641975308,0)" xlink:href="#ae"/><use transform="matrix(0.03765432098765432,0,0,0.03765432098765432,63.18395061728395,0)" xlink:href="#aj"/><use transform="matrix(0.03765432098765432,0,0,0.03765432098765432,70.7148148148148,0)" xlink:href="#ak"/></g><g id="y"><use transform="matrix(0.03765432098765432,0,0,0.03765432098765432,0,0)" xlink:href="#ao"/><use transform="matrix(0.03765432098765432,0,0,0.03765432098765432,7.530864197530864,0)" xlink:href="#ah"/><use transform="matrix(0.03765432098765432,0,0,0.03765432098765432,10.505555555555555,0)" xlink:href="#al"/><use transform="matrix(0.03765432098765432,0,0,0.03765432098765432,18.03641975308642,0)" xlink:href="#ai"/></g><g id="z"><use transform="matrix(0.03765432098765432,0,0,0.03765432098765432,0,0)" xlink:href="#as"/><use transform="matrix(0.03765432098765432,0,0,0.03765432098765432,9.037037037037036,0)" xlink:href="#aj"/><use transform="matrix(0.03765432098765432,0,0,0.03765432098765432,16.5679012345679,0)" xlink:href="#ah"/><use transform="matrix(0.03765432098765432,0,0,0.03765432098765432,19.54259259259259,0)" xlink:href="#aj"/><use transform="matrix(0.03765432098765432,0,0,0.03765432098765432,27.073456790123455,0)" xlink:href="#at"/><use transform="matrix(0.03765432098765432,0,0,0.03765432098765432,33.85123456790123,0)" xlink:href="#ai"/><use transform="matrix(0.03765432098765432,0,0,0.03765432098765432,37.61666666666666,0)" xlink:href="#am"/><use transform="matrix(0.03765432098765432,0,0,0.03765432098765432,40.59135802469135,0)" xlink:href="#ad"/><use transform="matrix(0.03765432098765432,0,0,0.03765432098765432,48.12222222222222,0)" xlink:href="#ae"/><use transform="matrix(0.03765432098765432,0,0,0.03765432098765432,55.65308641975308,0)" xlink:href="#ae"/><use transform="matrix(0.03765432098765432,0,0,0.03765432098765432,63.18395061728395,0)" xlink:href="#aj"/><use transform="matrix(0.03765432098765432,0,0,0.03765432098765432,70.7148148148148,0)" xlink:href="#ak"/></g><g id="A"><use transform="matrix(0.03765432098765432,0,0,0.03765432098765432,0,0)" xlink:href="#an"/><use transform="matrix(0.03765432098765432,0,0,0.03765432098765432,7.530864197530864,0)" xlink:href="#aj"/><use transform="matrix(0.03765432098765432,0,0,0.03765432098765432,15.061728395061728,0)" xlink:href="#af"/><use transform="matrix(0.03765432098765432,0,0,0.03765432098765432,21.83950617283951,0)" xlink:href="#af"/><use transform="matrix(0.03765432098765432,0,0,0.03765432098765432,28.617283950617285,0)" xlink:href="#aj"/><use transform="matrix(0.03765432098765432,0,0,0.03765432098765432,36.14814814814815,0)" xlink:href="#ak"/><use transform="matrix(0.03765432098765432,0,0,0.03765432098765432,40.629012345679016,0)" xlink:href="#ai"/></g><path fill="#333" d="M15-91v-56l181-69v40L49-119l147 57v40" id="az"/><g id="B"><use transform="matrix(0.03703703703703704,0,0,0.03703703703703704,0,0)" xlink:href="#az"/><use transform="matrix(0.03703703703703704,0,0,0.03703703703703704,7.777777777777779,0)" xlink:href="#az"/></g><path fill="#333" d="M25-224v-37h50v37H25zM25 0v-190h50V0H25" id="aA"/><path fill="#333" d="M135-194c87-1 58 113 63 194h-50c-7-57 23-157-34-157-59 0-34 97-39 157H25l-1-190h47c2 12-1 28 3 38 12-26 28-41 61-42" id="aB"/><path fill="#333" d="M190-63c-7 42-38 67-86 67-59 0-84-38-90-98-12-110 154-137 174-36l-49 2c-2-19-15-32-35-32-30 0-35 28-38 64-6 74 65 87 74 30" id="aC"/><path fill="#333" d="M25 0v-261h50V0H25" id="aD"/><path fill="#333" d="M85 4C-2 5 27-109 22-190h50c7 57-23 150 33 157 60-5 35-97 40-157h50l1 190h-47c-2-12 1-28-3-38-12 25-28 42-61 42" id="aE"/><path fill="#333" d="M88-194c31-1 46 15 58 34l-1-101h50l1 261h-48c-2-10 0-23-3-31C134-8 116 4 84 4 32 4 16-41 15-95c0-56 19-97 73-99zm17 164c33 0 40-30 41-66 1-37-9-64-41-64s-38 30-39 65c0 43 13 65 39 65" id="aF"/><path fill="#333" d="M185-48c-13 30-37 53-82 52C43 2 14-33 14-96s30-98 90-98c62 0 83 45 84 108H66c0 31 8 55 39 56 18 0 30-7 34-22zm-45-69c5-46-57-63-70-21-2 6-4 13-4 21h74" id="aG"/><g id="C"><use transform="matrix(0.03703703703703704,0,0,0.03703703703703704,0,0)" xlink:href="#aA"/><use transform="matrix(0.03703703703703704,0,0,0.03703703703703704,3.703703703703704,0)" xlink:href="#aB"/><use transform="matrix(0.03703703703703704,0,0,0.03703703703703704,11.814814814814817,0)" xlink:href="#aC"/><use transform="matrix(0.03703703703703704,0,0,0.03703703703703704,19.222222222222225,0)" xlink:href="#aD"/><use transform="matrix(0.03703703703703704,0,0,0.03703703703703704,22.925925925925927,0)" xlink:href="#aE"/><use transform="matrix(0.03703703703703704,0,0,0.03703703703703704,31.037037037037045,0)" xlink:href="#aF"/><use transform="matrix(0.03703703703703704,0,0,0.03703703703703704,39.14814814814816,0)" xlink:href="#aG"/></g><path fill="#333" d="M15-22v-40l146-57-146-57v-40l181 69v56" id="aH"/><g id="D"><use transform="matrix(0.03703703703703704,0,0,0.03703703703703704,0,0)" xlink:href="#aH"/><use transform="matrix(0.03703703703703704,0,0,0.03703703703703704,7.777777777777779,0)" xlink:href="#aH"/></g><path d="M137 0h-34L2-248h35l83 218 83-218h36" id="aI"/><g id="E"><use transform="matrix(0.03765432098765432,0,0,0.03765432098765432,0,0)" xlink:href="#aI"/><use transform="matrix(0.03765432098765432,0,0,0.03765432098765432,8.020370370370369,0)" xlink:href="#al"/><use transform="matrix(0.03765432098765432,0,0,0.03765432098765432,15.551234567901233,0)" xlink:href="#ah"/><use transform="matrix(0.03765432098765432,0,0,0.03765432098765432,18.525925925925925,0)" xlink:href="#am"/><use transform="matrix(0.03765432098765432,0,0,0.03765432098765432,21.50061728395062,0)" xlink:href="#an"/><use transform="matrix(0.03765432098765432,0,0,0.03765432098765432,29.03148148148148,0)" xlink:href="#aj"/><use transform="matrix(0.03765432098765432,0,0,0.03765432098765432,36.562345679012346,0)" xlink:href="#ak"/></g><path fill="#333" d="M144 0l-44-69L55 0H2l70-98-66-92h53l41 62 40-62h54l-67 91 71 99h-54" id="aJ"/><path fill="#333" d="M115-3C79 11 28 4 28-45v-112H4v-33h27l15-45h31v45h36v33H77v99c-1 23 16 31 38 25v30" id="aK"/><path fill="#333" d="M137-138c1-29-70-34-71-4 15 46 118 7 119 86 1 83-164 76-172 9l43-7c4 19 20 25 44 25 33 8 57-30 24-41C81-84 22-81 20-136c-2-80 154-74 161-7" id="aL"/><g id="F"><use transform="matrix(0.03703703703703704,0,0,0.03703703703703704,0,0)" xlink:href="#aG"/><use transform="matrix(0.03703703703703704,0,0,0.03703703703703704,7.407407407407408,0)" xlink:href="#aJ"/><use transform="matrix(0.03703703703703704,0,0,0.03703703703703704,14.814814814814817,0)" xlink:href="#aK"/><use transform="matrix(0.03703703703703704,0,0,0.03703703703703704,19.222222222222225,0)" xlink:href="#aG"/><use transform="matrix(0.03703703703703704,0,0,0.03703703703703704,26.629629629629633,0)" xlink:href="#aB"/><use transform="matrix(0.03703703703703704,0,0,0.03703703703703704,34.74074074074075,0)" xlink:href="#aF"/><use transform="matrix(0.03703703703703704,0,0,0.03703703703703704,42.85185185185187,0)" xlink:href="#aL"/></g><path d="M101-234c-31-9-42 10-38 44h38v23H63V0H32v-167H5v-23h27c-7-52 17-82 69-68v24" id="aM"/><g id="G"><use transform="matrix(0.03765432098765432,0,0,0.03765432098765432,0,0)" xlink:href="#ak"/><use transform="matrix(0.03765432098765432,0,0,0.03765432098765432,4.480864197530864,0)" xlink:href="#aj"/><use transform="matrix(0.03765432098765432,0,0,0.03765432098765432,12.011728395061727,0)" xlink:href="#aM"/><use transform="matrix(0.03765432098765432,0,0,0.03765432098765432,15.777160493827159,0)" xlink:href="#ag"/><use transform="matrix(0.03765432098765432,0,0,0.03765432098765432,23.30802469135802,0)" xlink:href="#af"/><use transform="matrix(0.03765432098765432,0,0,0.03765432098765432,30.0858024691358,0)" xlink:href="#ay"/></g><g id="H"><use transform="matrix(0.03703703703703704,0,0,0.03703703703703704,0,0)" xlink:href="#aG"/><use transform="matrix(0.03703703703703704,0,0,0.03703703703703704,7.407407407407408,0)" xlink:href="#aJ"/><use transform="matrix(0.03703703703703704,0,0,0.03703703703703704,14.814814814814817,0)" xlink:href="#aK"/><use transform="matrix(0.03703703703703704,0,0,0.03703703703703704,19.222222222222225,0)" xlink:href="#aG"/><use transform="matrix(0.03703703703703704,0,0,0.03703703703703704,26.629629629629633,0)" xlink:href="#aB"/><use transform="matrix(0.03703703703703704,0,0,0.03703703703703704,34.74074074074075,0)" xlink:href="#aF"/><use transform="matrix(0.03703703703703704,0,0,0.03703703703703704,42.85185185185187,0)" xlink:href="#aL"/><use transform="matrix(0.03703703703703704,0,0,0.03703703703703704,50.25925925925927,0)" xlink:href="#aH"/></g><path d="M30-248c118-7 216 8 213 122C240-48 200 0 122 0H30v-248zM63-27c89 8 146-16 146-99s-60-101-146-95v194" id="aN"/><path d="M106-169C34-169 62-67 57 0H25v-261h32l-1 103c12-21 28-36 61-36 89 0 53 116 60 194h-32v-121c2-32-8-49-39-48" id="aO"/><g id="I"><use transform="matrix(0.03765432098765432,0,0,0.03765432098765432,0,0)" xlink:href="#aN"/><use transform="matrix(0.03765432098765432,0,0,0.03765432098765432,9.752469135802468,0)" xlink:href="#ay"/><use transform="matrix(0.03765432098765432,0,0,0.03765432098765432,17.28333333333333,0)" xlink:href="#at"/><use transform="matrix(0.03765432098765432,0,0,0.03765432098765432,24.06111111111111,0)" xlink:href="#ah"/><use transform="matrix(0.03765432098765432,0,0,0.03765432098765432,27.035802469135803,0)" xlink:href="#aj"/><use transform="matrix(0.03765432098765432,0,0,0.03765432098765432,34.56666666666666,0)" xlink:href="#ae"/><use transform="matrix(0.03765432098765432,0,0,0.03765432098765432,42.09753086419753,0)" xlink:href="#at"/><use transform="matrix(0.03765432098765432,0,0,0.03765432098765432,48.8753086419753,0)" xlink:href="#aO"/><use transform="matrix(0.03765432098765432,0,0,0.03765432098765432,56.40617283950617,0)" xlink:href="#aj"/><use transform="matrix(0.03765432098765432,0,0,0.03765432098765432,63.93703703703703,0)" xlink:href="#av"/><use transform="matrix(0.03765432098765432,0,0,0.03765432098765432,75.19567901234566,0)" xlink:href="#aj"/><use transform="matrix(0.03765432098765432,0,0,0.03765432098765432,82.72654320987652,0)" xlink:href="#ae"/><use transform="matrix(0.03765432098765432,0,0,0.03765432098765432,90.25740740740738,0)" xlink:href="#ai"/></g><path d="M30 0v-248h33v221h125V0H30" id="aP"/><path d="M108 0H70L1-190h34L89-25l56-165h34" id="aQ"/><g id="J"><use transform="matrix(0.03765432098765432,0,0,0.03765432098765432,0,0)" xlink:href="#aP"/><use transform="matrix(0.03765432098765432,0,0,0.03765432098765432,7.530864197530864,0)" xlink:href="#am"/><use transform="matrix(0.03765432098765432,0,0,0.03765432098765432,10.505555555555555,0)" xlink:href="#am"/><use transform="matrix(0.03765432098765432,0,0,0.03765432098765432,13.480246913580245,0)" xlink:href="#aQ"/><use transform="matrix(0.03765432098765432,0,0,0.03765432098765432,20.258024691358024,0)" xlink:href="#ak"/><use transform="matrix(0.03765432098765432,0,0,0.03765432098765432,24.738888888888887,0)" xlink:href="#al"/><use transform="matrix(0.03765432098765432,0,0,0.03765432098765432,32.269753086419755,0)" xlink:href="#am"/><use transform="matrix(0.03765432098765432,0,0,0.03765432098765432,35.24444444444445,0)" xlink:href="#af"/><use transform="matrix(0.03765432098765432,0,0,0.03765432098765432,42.022222222222226,0)" xlink:href="#ad"/><use transform="matrix(0.03765432098765432,0,0,0.03765432098765432,49.55308641975308,0)" xlink:href="#ae"/></g></defs></g></svg>