<svg xmlns="http://www.w3.org/2000/svg" xmlns:xlink="http://www.w3.org/1999/xlink" xmlns:lucid="lucid" width="1599.35" height="1140"><g transform="translate(-20.6543209876543 -80)" lucid:page-tab-id="0_0"><path d="M0 0h1870.87v1322.84H0z" fill="#fff"/><path d="M300 106a6 6 0 0 1 6-6h1288a6 6 0 0 1 6 6v1088a6 6 0 0 1-6 6H306a6 6 0 0 1-6-6z" stroke="#5e5e5e" stroke-width="3" fill="#fff"/><use xlink:href="#a" transform="matrix(1,0,0,1,305,105) translate(485.8641975308642 17.77777777777778)"/><use xlink:href="#b" transform="matrix(1,0,0,1,305,105) translate(622.7777777777778 17.77777777777778)"/><path d="M139.75 939.75c0 10.9-8.84 19.75-19.75 19.75-10.9 0-19.75-8.84-19.75-19.75 0-10.9 8.84-19.75 19.75-19.75 10.9 0 19.75 8.84 19.75 19.75z" stroke="#5e5e5e" stroke-width="3" fill="#fff"/><path d="M120 959.5v49.3a20.7 20.7 0 0 0 3.2 11.07L160 1078m-40-63.2L80 1078m0-98.75h80" stroke="#5e5e5e" stroke-width="3" fill="none"/><path d="M80 926a6 6 0 0 1 6-6h68a6 6 0 0 1 6 6v168a6 6 0 0 1-6 6H86a6 6 0 0 1-6-6z" fill="none"/><use xlink:href="#c" transform="matrix(1,0,0,1,0,1078) translate(42.6543209876543 17.77777777777778)"/><use xlink:href="#d" transform="matrix(1,0,0,1,0,1078) translate(94.07407407407405 17.77777777777778)"/><path d="M139.75 239.75c0 10.9-8.84 19.75-19.75 19.75-10.9 0-19.75-8.84-19.75-19.75 0-10.9 8.84-19.75 19.75-19.75 10.9 0 19.75 8.84 19.75 19.75z" stroke="#5e5e5e" stroke-width="3" fill="#fff"/><path d="M120 259.5v49.3a20.7 20.7 0 0 0 3.2 11.07L160 378m-40-63.2L80 378m0-98.75h80" stroke="#5e5e5e" stroke-width="3" fill="none"/><path d="M80 226a6 6 0 0 1 6-6h68a6 6 0 0 1 6 6v168a6 6 0 0 1-6 6H86a6 6 0 0 1-6-6z" fill="none"/><use xlink:href="#c" transform="matrix(1,0,0,1,0,378) translate(63.51851851851852 17.77777777777778)"/><use xlink:href="#e" transform="matrix(1,0,0,1,0,378) translate(114.93827160493828 17.77777777777778)"/><path d="M1040 280c0 33.14-35.82 60-80 60s-80-26.86-80-60 35.82-60 80-60 80 26.86 80 60z" stroke="#5e5e5e" stroke-width="3" fill="#fff"/><use xlink:href="#f" transform="matrix(1,0,0,1,880,220) translate(12.104999999999999 63.15)"/><use xlink:href="#g" transform="matrix(1,0,0,1,880,220) translate(80.90500000000002 63.15)"/><use xlink:href="#h" transform="matrix(1,0,0,1,880,220) translate(105.90500000000002 63.15)"/><path d="M1040 980c0 33.14-35.82 60-80 60s-80-26.86-80-60 35.82-60 80-60 80 26.86 80 60z" stroke="#5e5e5e" stroke-width="3" fill="#fff"/><use xlink:href="#i" transform="matrix(1,0,0,1,880,920) translate(26.229999999999997 51.9)"/><use xlink:href="#j" transform="matrix(1,0,0,1,880,920) translate(91.78 51.9)"/><use xlink:href="#k" transform="matrix(1,0,0,1,880,920) translate(39.57999999999999 73.5)"/><path d="M700 980c0 33.14-35.82 60-80 60s-80-26.86-80-60 35.82-60 80-60 80 26.86 80 60z" stroke="#5e5e5e" stroke-width="3" fill="#fff"/><use xlink:href="#i" transform="matrix(1,0,0,1,540,920) translate(26.804999999999993 63.15)"/><use xlink:href="#l" transform="matrix(1,0,0,1,540,920) translate(92.35499999999999 63.15)"/><path d="M700 280c0 33.14-35.82 60-80 60s-80-26.86-80-60 35.82-60 80-60 80 26.86 80 60z" stroke="#5e5e5e" stroke-width="3" fill="#fff"/><use xlink:href="#i" transform="matrix(1,0,0,1,540,220) translate(26.804999999999993 63.15)"/><use xlink:href="#l" transform="matrix(1,0,0,1,540,220) translate(92.35499999999999 63.15)"/><path d="M1040 745c0 33.14-35.82 60-80 60s-80-26.86-80-60 35.82-60 80-60 80 26.86 80 60z" stroke="#5e5e5e" stroke-width="3" fill="#fff"/><use xlink:href="#i" transform="matrix(1,0,0,1,880,685) translate(9.779999999999996 63.15)"/><use xlink:href="#m" transform="matrix(1,0,0,1,880,685) translate(75.33 63.15)"/><use xlink:href="#n" transform="matrix(1,0,0,1,880,685) translate(107.28 63.15)"/><path d="M700 660c0 33.14-35.82 60-80 60s-80-26.86-80-60 35.82-60 80-60 80 26.86 80 60z" stroke="#5e5e5e" stroke-width="3" fill="#fff"/><use xlink:href="#o" transform="matrix(1,0,0,1,540,600) translate(27.029999999999994 63.15)"/><use xlink:href="#p" transform="matrix(1,0,0,1,540,600) translate(54.029999999999994 63.15)"/><path d="M160.7 278.7l377.1 380.6" stroke="#5e5e5e" stroke-width="2" fill="none"/><path d="M161.43 278.02l-1.42 1.4v-1.67h-1.66l-1.16-1.18 1.42-1.4zM538.54 658.62l-.04 1.36v.43l.04 1.06-1.47-1.5 1.42-1.4z" stroke="#5e5e5e" stroke-width=".05" fill="#5e5e5e"/><path d="M160.76 979.35l376.98-318.7" stroke="#5e5e5e" stroke-width="2" fill="none"/><path d="M161.43 980.1l-3.08 2.6-1.3-1.53.5-.42H160v-2.06l.14-.13zM538.5 659.98v.43l.04.88-.18.15-1.3-1.53 1.48-1.24z" stroke="#5e5e5e" stroke-width=".05" fill="#5e5e5e"/><path d="M161 980h376.5" stroke="#5e5e5e" stroke-width="2" fill="none"/><path d="M161.03 981H157v-.25h3V979h1.03zM538.5 979.98v.43l.02.6h-1.05v-2h1.06z" stroke="#5e5e5e" stroke-width=".05" fill="#5e5e5e"/><path d="M161 278h376.56" stroke="#5e5e5e" stroke-width="2" fill="none"/><path d="M161.03 279H160v-1.25h-3V277h4.03zM538.6 277.05l-.07 1.95h-1v-2h1.07z" stroke="#5e5e5e" stroke-width=".05" fill="#5e5e5e"/><path d="M703.32 280h3.96m7.9 0h7.93m7.93 0h7.92m7.9 0h7.93m7.92 0h7.92m7.9 0h7.93m7.92 0h7.9m7.93 0h7.92m7.92 0h7.92m7.9 0h7.93m7.9 0h7.92m7.92 0h3.96M720.68 269.82L703.46 280l17.22 10.18" stroke="#5e5e5e" stroke-width="2" fill="none"/><path d="M878.5 279.98v.43l.02.6h-1.05v-2h1.06z" stroke="#5e5e5e" stroke-width=".05" fill="#5e5e5e"/><use xlink:href="#q" transform="matrix(1,0,0,1,721.283950617284,244.48583835165925) translate(0.005000000000002558 14.222222222222223)"/><use xlink:href="#r" transform="matrix(1,0,0,1,721.283950617284,244.48583835165925) translate(25.68401234567902 14.222222222222223)"/><use xlink:href="#s" transform="matrix(1,0,0,1,721.283950617284,244.48583835165925) translate(92.69635802469136 14.222222222222223)"/><path d="M621 597.5h-2v-3.97h2zm0-11.9h-2v-7.96h2zm0-15.9h-2v-7.94h2zm0-15.9h-2v-7.93h2zm0-15.87h-2v-7.95h2zm0-15.9h-2v-7.93h2zm0-15.88h-2v-7.94h2zm0-15.88h-2v-7.95h2zm0-31.78h-2v-7.95h2zm0-15.9h-2v-7.94h2zm0-15.88h-2v-7.94h2zm0-15.9h-2v-7.93h2zm0-15.87h-2V387h2zm0-15.9h-2v-7.93h2zm0-15.87h-2v-7.95h2zm0-15.9h-2v-3.96h2z" stroke="#5e5e5e" stroke-width=".05" fill="#5e5e5e"/><path d="M621 598.53l-.98-.03h-.95l-.07-1.03h2z" fill="#5e5e5e"/><path d="M621.02 598.56l-1-.03h-.98l-.07-1.08h2.05zm-2-1.06l.07.98h.92l.96.02v-1zM631.04 360.17l-1.72 1.02-9.32-15.77-9.32 15.76-1.72-1.03L620 341.5z" stroke="#5e5e5e" stroke-width=".05" fill="#5e5e5e"/><use xlink:href="#q" transform="matrix(1,0,0,1,563.283950617284,459.3333333333333) translate(0.005000000000002558 14.222222222222223)"/><use xlink:href="#r" transform="matrix(1,0,0,1,563.283950617284,459.3333333333333) translate(25.68401234567902 14.222222222222223)"/><use xlink:href="#s" transform="matrix(1,0,0,1,563.283950617284,459.3333333333333) translate(92.69635802469136 14.222222222222223)"/><path d="M621 916.68h-2v-4.04h2zm0-12.13h-2v-8.1h2zm0-16.2h-2v-8.08h2zm0-16.17h-2v-8.1h2zm0-16.18h-2v-8.1h2zm0-16.18h-2v-8.1h2zm0-32.37h-2v-8.1h2zm0-16.18h-2v-8.1h2zm0-16.18h-2V767h2zm0-16.2h-2v-8.08h2zm0-16.17h-2v-8.1h2zm0-16.2h-2v-4.03h2z" stroke="#5e5e5e" stroke-width=".05" fill="#5e5e5e"/><path d="M619.98 721.5h.95l.07 1.03h-2v-1.06z" fill="#5e5e5e"/><path d="M619.98 721.48h.98l.07 1.07h-2.05v-1.1zm-.96 1.02h1.95l-.06-.98H620l-.96-.02zM631.04 899.83L620 918.5l-11.04-18.67 1.72-1.02 9.32 15.77 9.32-15.76z" stroke="#5e5e5e" stroke-width=".05" fill="#5e5e5e"/><use xlink:href="#q" transform="matrix(1,0,0,1,563.283950617284,809.3333333333334) translate(0.005000000000002558 14.222222222222223)"/><use xlink:href="#r" transform="matrix(1,0,0,1,563.283950617284,809.3333333333334) translate(25.68401234567902 14.222222222222223)"/><use xlink:href="#s" transform="matrix(1,0,0,1,563.283950617284,809.3333333333334) translate(92.69635802469136 14.222222222222223)"/><path d="M877.5 980h-3.96m-7.92 0h-7.9m-7.93 0h-7.93m-7.9 0h-7.93m-7.92 0h-7.92m-7.92 0h-7.9m-7.93 0h-7.92m-7.9 0h-7.93m-7.92 0h-7.92m-7.9 0h-7.93m-7.92 0h-7.9m-7.92 0h-3.96" stroke="#5e5e5e" stroke-width="2" fill="none"/><path d="M878.5 979.98v.43l.02.6h-1.05v-2h1.06z" stroke="#5e5e5e" stroke-width=".05" fill="#5e5e5e"/><path d="M720.68 969.82L703.46 980l17.22 10.18" stroke="#5e5e5e" stroke-width="2" fill="none"/><use xlink:href="#q" transform="matrix(1,0,0,1,733.283950617284,954.6666666666667) translate(0.005000000000002558 14.222222222222223)"/><use xlink:href="#r" transform="matrix(1,0,0,1,733.283950617284,954.6666666666667) translate(25.68401234567902 14.222222222222223)"/><use xlink:href="#s" transform="matrix(1,0,0,1,733.283950617284,954.6666666666667) translate(92.69635802469136 14.222222222222223)"/><path d="M685.37 936.03l-3.2 2.2-1.13-1.63 3.2-2.2zm12.8-8.84l-6.4 4.4-1.14-1.63 6.4-4.43zm12.8-8.85l-6.4 4.42-1.15-1.65 6.4-4.42zm12.78-8.84l-6.4 4.43-1.13-1.65 6.4-4.42zm12.8-8.83l-6.4 4.42-1.14-1.66 6.4-4.42zm12.78-8.85l-6.4 4.42-1.13-1.64 6.4-4.42zm12.8-8.84l-6.4 4.42-1.14-1.64 6.4-4.42zm12.78-8.84l-6.38 4.42-1.14-1.64 5.43-3.75h1.44zm38.4-26.52l-6.1 4.2h-.45l-1-1.43 6.4-4.43zm12.78-8.84l-6.4 4.42-1.13-1.65 6.4-4.42zm12.8-8.85l-6.4 4.43-1.14-1.65 6.4-4.4zm12.8-8.84l-6.4 4.4-1.15-1.63 6.4-4.42zm12.78-8.85l-6.4 4.42-1.13-1.64 6.4-4.42zm12.8-8.84l-6.4 4.43-1.14-1.64 6.4-4.43zm12.78-8.83l-6.4 4.42-1.13-1.65 6.4-4.43zm9.6-6.63l-3.2 2.2-1.14-1.64 3.2-2.2z" stroke="#5e5e5e" stroke-width=".05" fill="#5e5e5e"/><path d="M899.96 786.6l.76.6-1.1.75-1.14-1.64.63-.43z" fill="#5e5e5e"/><path d="M899.98 786.6l.78.6-1.15.8-1.16-1.7.67-.46zm-1.47-.3l1.12 1.62 1.05-.73-.72-.57-.84-.73zM691 919.6l-7.66 16.62 18.27-1.3.15 2-21.64 1.53 9.1-19.7z" stroke="#5e5e5e" stroke-width=".05" fill="#5e5e5e"/><g><use xlink:href="#q" transform="matrix(1,0,0,1,733.283950617284,851.8333333333334) translate(0.005000000000002558 14.222222222222223)"/><use xlink:href="#r" transform="matrix(1,0,0,1,733.283950617284,851.8333333333334) translate(25.68401234567902 14.222222222222223)"/><use xlink:href="#s" transform="matrix(1,0,0,1,733.283950617284,851.8333333333334) translate(92.69635802469136 14.222222222222223)"/></g><path d="M1040 512.5c0 33.14-35.82 60-80 60s-80-26.86-80-60 35.82-60 80-60 80 26.86 80 60z" stroke="#5e5e5e" stroke-width="3" fill="#fff"/><g><use xlink:href="#t" transform="matrix(1,0,0,1,880,452.5) translate(30.554999999999993 51.9)"/><use xlink:href="#u" transform="matrix(1,0,0,1,880,452.5) translate(102.505 51.9)"/><use xlink:href="#v" transform="matrix(1,0,0,1,880,452.5) translate(60.505 73.5)"/></g><path d="M960 449.18v-3.8m0-7.63v-7.62m0-7.62v-7.6m0-7.63v-7.62m0-7.62v-7.62m0-7.6v-7.63m0-7.62v-7.62m0-7.62v-3.8M949.82 431.82L960 449.04l10.18-17.22" stroke="#5e5e5e" stroke-width="2" fill="none"/><path d="M959.98 341.5H961v1.03h-2v-1.06zM961 681.68h-2v-9.8h2zm0-19.6h-2v-1.96h2zm0-11.76h-2v-1.97h2zm0-41.17h-2v-1.97h2zm0-11.77h-2v-1.96h2zm0-11.76h-2v-9.8h2z" stroke="#5e5e5e" stroke-width=".05" fill="#5e5e5e"/><path d="M971.04 592.67l-1.72 1.02-9.32-15.77-9.32 15.76-1.72-1.03L960 574zM971.04 664.83L960 683.5l-11.04-18.67 1.72-1.02 9.32 15.77 9.32-15.76z" stroke="#5e5e5e" stroke-width=".05" fill="#5e5e5e"/><g><use xlink:href="#q" transform="matrix(1,0,0,1,900.8148148148148,618.0833333333334) translate(0.005000000000002558 14.222222222222223)"/><use xlink:href="#w" transform="matrix(1,0,0,1,900.8148148148148,618.0833333333334) translate(25.68401234567902 14.222222222222223)"/><use xlink:href="#s" transform="matrix(1,0,0,1,900.8148148148148,618.0833333333334) translate(97.63462962962964 14.222222222222223)"/></g><path d="M1420 660c0 33.14-35.82 60-80 60s-80-26.86-80-60 35.82-60 80-60 80 26.86 80 60z" stroke="#5e5e5e" stroke-width="3" fill="#fff"/><g><use xlink:href="#x" transform="matrix(1,0,0,1,1260,600) translate(16.104999999999997 63.15)"/><use xlink:href="#y" transform="matrix(1,0,0,1,1260,600) translate(66.10499999999999 63.15)"/><use xlink:href="#z" transform="matrix(1,0,0,1,1260,600) translate(99.005 63.15)"/><use xlink:href="#A" transform="matrix(1,0,0,1,1260,600) translate(114.005 63.15)"/></g><path d="M1257.56 658.15l-1.13 1.65-3.35-2.27 1.12-1.66zm-10.06-6.84l-1.13 1.67-6.7-4.57 1.12-1.65zm-13.42-9.1l-1.13 1.64-6.7-4.55 1.12-1.67zm-13.42-9.13l-1.12 1.66-6.7-4.56 1.1-1.66zm-13.42-9.12l-1.12 1.66-6.7-4.55 1.12-1.66zm-13.4-9.12l-1.14 1.66-6.7-4.57 1.12-1.66zm-13.43-9.12l-1.1 1.67-6.72-4.56 1.12-1.65zm-14.53-7.45l-1.96-1.33h2.88zm-29.78-22.67h-3.57l-.2-.13 1.12-1.66zm-9.36-6.35l-1.12 1.66-6.7-4.57 1.12-1.66zm-13.4-9.12l-1.14 1.67-6.7-4.56 1.12-1.65zm-13.43-9.1l-1.1 1.65-6.72-4.56 1.12-1.67zm-13.4-9.13l-1.13 1.66-6.7-4.56 1.12-1.66zm-13.42-9.12l-1.13 1.66-6.7-4.55 1.12-1.65zm-13.42-9.12l-1.12 1.66-6.7-4.57 1.1-1.65zm-13.42-9.12l-1.12 1.67-3.35-2.28 1.12-1.66z" stroke="#5e5e5e" stroke-width=".05" fill="#5e5e5e"/><path d="M1258.5 660l-21.65-1.36.13-2 18.27 1.15-7.8-16.58 1.82-.85z" stroke="#5e5e5e" stroke-width=".05" fill="#5e5e5e"/><path d="M1042.9 512.25l-1.1 1.65-.34-.22.04-1.16v-.43l-.03-.83z" fill="#5e5e5e"/><path d="M1042.94 512.24l-1.15 1.7-.36-.24.03-1.18v-.43l-.03-.88zm-1.42-.15v.42l-.03 1.15.28.2 1.1-1.6-1.4-.95z" stroke="#5e5e5e" stroke-width=".05" fill="#5e5e5e"/><g><use xlink:href="#q" transform="matrix(1,0,0,1,1093.283950617284,575.5833333333334) translate(0.005000000000002558 14.222222222222223)"/><use xlink:href="#r" transform="matrix(1,0,0,1,1093.283950617284,575.5833333333334) translate(25.68401234567902 14.222222222222223)"/><use xlink:href="#s" transform="matrix(1,0,0,1,1093.283950617284,575.5833333333334) translate(92.69635802469136 14.222222222222223)"/></g><defs><path fill="#333" d="M30 0v-248h187v28H63v79h144v27H63v87h162V0H30" id="B"/><path fill="#333" d="M141 0L90-78 38 0H4l68-98-65-92h35l48 74 47-74h35l-64 92 68 98h-35" id="C"/><path fill="#333" d="M115-194c55 1 70 41 70 98S169 2 115 4C84 4 66-9 55-30l1 105H24l-1-265h31l2 30c10-21 28-34 59-34zm-8 174c40 0 45-34 45-75s-6-73-45-74c-42 0-51 32-51 76 0 43 10 73 51 73" id="D"/><path fill="#333" d="M114-163C36-179 61-72 57 0H25l-1-190h30c1 12-1 29 2 39 6-27 23-49 58-41v29" id="E"/><path fill="#333" d="M100-194c63 0 86 42 84 106H49c0 40 14 67 53 68 26 1 43-12 49-29l28 8c-11 28-37 45-77 45C44 4 14-33 15-96c1-61 26-98 85-98zm52 81c6-60-76-77-97-28-3 7-6 17-6 28h103" id="F"/><path fill="#333" d="M135-143c-3-34-86-38-87 0 15 53 115 12 119 90S17 21 10-45l28-5c4 36 97 45 98 0-10-56-113-15-118-90-4-57 82-63 122-42 12 7 21 19 24 35" id="G"/><path fill="#333" d="M63-220v92h138v28H63V0H30v-248h175v28H63" id="H"/><path fill="#333" d="M100-194c62-1 85 37 85 99 1 63-27 99-86 99S16-35 15-95c0-66 28-99 85-99zM99-20c44 1 53-31 53-75 0-43-8-75-51-75s-53 32-53 75 10 74 51 75" id="I"/><path fill="#333" d="M85-194c31 0 48 13 60 33l-1-100h32l1 261h-30c-2-10 0-23-3-31C134-8 116 4 85 4 32 4 16-35 15-94c0-66 23-100 70-100zm9 24c-40 0-46 34-46 75 0 40 6 74 45 74 42 0 51-32 51-76 0-42-9-74-50-73" id="J"/><g id="a"><use transform="matrix(0.06172839506172839,0,0,0.06172839506172839,0,0)" xlink:href="#B"/><use transform="matrix(0.06172839506172839,0,0,0.06172839506172839,14.814814814814813,0)" xlink:href="#C"/><use transform="matrix(0.06172839506172839,0,0,0.06172839506172839,25.925925925925924,0)" xlink:href="#D"/><use transform="matrix(0.06172839506172839,0,0,0.06172839506172839,38.2716049382716,0)" xlink:href="#E"/><use transform="matrix(0.06172839506172839,0,0,0.06172839506172839,45.61728395061728,0)" xlink:href="#F"/><use transform="matrix(0.06172839506172839,0,0,0.06172839506172839,57.962962962962955,0)" xlink:href="#G"/><use transform="matrix(0.06172839506172839,0,0,0.06172839506172839,69.07407407407406,0)" xlink:href="#G"/><use transform="matrix(0.06172839506172839,0,0,0.06172839506172839,80.18518518518518,0)" xlink:href="#H"/><use transform="matrix(0.06172839506172839,0,0,0.06172839506172839,93.7037037037037,0)" xlink:href="#I"/><use transform="matrix(0.06172839506172839,0,0,0.06172839506172839,106.04938271604938,0)" xlink:href="#I"/><use transform="matrix(0.06172839506172839,0,0,0.06172839506172839,118.39506172839506,0)" xlink:href="#J"/></g><path fill="#333" d="M59-47c-2 24 18 29 38 22v24C64 9 27 4 27-40v-127H5v-23h24l9-43h21v43h35v23H59v120" id="K"/><path fill="#333" d="M96-169c-40 0-48 33-48 73s9 75 48 75c24 0 41-14 43-38l32 2c-6 37-31 61-74 61-59 0-76-41-82-99-10-93 101-131 147-64 4 7 5 14 7 22l-32 3c-4-21-16-35-41-35" id="L"/><path fill="#333" d="M143 0L79-87 56-68V0H24v-261h32v163l83-92h37l-77 82L181 0h-38" id="M"/><path fill="#333" d="M240 0l2-218c-23 76-54 145-80 218h-23L58-218 59 0H30v-248h44l77 211c21-75 51-140 76-211h43V0h-30" id="N"/><path fill="#333" d="M141-36C126-15 110 5 73 4 37 3 15-17 15-53c-1-64 63-63 125-63 3-35-9-54-41-54-24 1-41 7-42 31l-33-3c5-37 33-52 76-52 45 0 72 20 72 64v82c-1 20 7 32 28 27v20c-31 9-61-2-59-35zM48-53c0 20 12 33 32 33 41-3 63-29 60-74-43 2-92-5-92 41" id="O"/><path fill="#333" d="M117-194c89-4 53 116 60 194h-32v-121c0-31-8-49-39-48C34-167 62-67 57 0H25l-1-190h30c1 10-1 24 2 32 11-22 29-35 61-36" id="P"/><path fill="#333" d="M177-190C167-65 218 103 67 71c-23-6-38-20-44-43l32-5c15 47 100 32 89-28v-30C133-14 115 1 83 1 29 1 15-40 15-95c0-56 16-97 71-98 29-1 48 16 59 35 1-10 0-23 2-32h30zM94-22c36 0 50-32 50-73 0-42-14-75-50-75-39 0-46 34-46 75s6 73 46 73" id="Q"/><path fill="#333" d="M210-169c-67 3-38 105-44 169h-31v-121c0-29-5-50-35-48C34-165 62-65 56 0H25l-1-190h30c1 10-1 24 2 32 10-44 99-50 107 0 11-21 27-35 58-36 85-2 47 119 55 194h-31v-121c0-29-5-49-35-48" id="R"/><g id="b"><use transform="matrix(0.06172839506172839,0,0,0.06172839506172839,0,0)" xlink:href="#G"/><use transform="matrix(0.06172839506172839,0,0,0.06172839506172839,11.11111111111111,0)" xlink:href="#K"/><use transform="matrix(0.06172839506172839,0,0,0.06172839506172839,17.28395061728395,0)" xlink:href="#I"/><use transform="matrix(0.06172839506172839,0,0,0.06172839506172839,29.629629629629626,0)" xlink:href="#L"/><use transform="matrix(0.06172839506172839,0,0,0.06172839506172839,40.74074074074073,0)" xlink:href="#M"/><use transform="matrix(0.06172839506172839,0,0,0.06172839506172839,51.85185185185185,0)" xlink:href="#N"/><use transform="matrix(0.06172839506172839,0,0,0.06172839506172839,70.30864197530863,0)" xlink:href="#O"/><use transform="matrix(0.06172839506172839,0,0,0.06172839506172839,82.65432098765432,0)" xlink:href="#P"/><use transform="matrix(0.06172839506172839,0,0,0.06172839506172839,95,0)" xlink:href="#O"/><use transform="matrix(0.06172839506172839,0,0,0.06172839506172839,107.34567901234568,0)" xlink:href="#Q"/><use transform="matrix(0.06172839506172839,0,0,0.06172839506172839,119.69135802469137,0)" xlink:href="#F"/><use transform="matrix(0.06172839506172839,0,0,0.06172839506172839,132.03703703703704,0)" xlink:href="#R"/><use transform="matrix(0.06172839506172839,0,0,0.06172839506172839,150.49382716049382,0)" xlink:href="#F"/><use transform="matrix(0.06172839506172839,0,0,0.06172839506172839,162.8395061728395,0)" xlink:href="#P"/><use transform="matrix(0.06172839506172839,0,0,0.06172839506172839,175.18518518518516,0)" xlink:href="#K"/></g><path fill="#333" d="M185-189c-5-48-123-54-124 2 14 75 158 14 163 119 3 78-121 87-175 55-17-10-28-26-33-46l33-7c5 56 141 63 141-1 0-78-155-14-162-118-5-82 145-84 179-34 5 7 8 16 11 25" id="S"/><path fill="#333" d="M101-234c-31-9-42 10-38 44h38v23H63V0H32v-167H5v-23h27c-7-52 17-82 69-68v24" id="T"/><g id="c"><use transform="matrix(0.06172839506172839,0,0,0.06172839506172839,0,0)" xlink:href="#S"/><use transform="matrix(0.06172839506172839,0,0,0.06172839506172839,14.814814814814813,0)" xlink:href="#K"/><use transform="matrix(0.06172839506172839,0,0,0.06172839506172839,20.98765432098765,0)" xlink:href="#O"/><use transform="matrix(0.06172839506172839,0,0,0.06172839506172839,33.33333333333333,0)" xlink:href="#T"/><use transform="matrix(0.06172839506172839,0,0,0.06172839506172839,39.07407407407407,0)" xlink:href="#T"/></g><path fill="#333" d="M87 75C49 33 22-17 22-94c0-76 28-126 65-167h31c-38 41-64 92-64 168S80 34 118 75H87" id="U"/><path fill="#333" d="M30-248c118-7 216 8 213 122C240-48 200 0 122 0H30v-248zM63-27c89 8 146-16 146-99s-60-101-146-95v194" id="V"/><path fill="#333" d="M24 0v-261h32V0H24" id="W"/><path fill="#333" d="M24-231v-30h32v30H24zM24 0v-190h32V0H24" id="X"/><path fill="#333" d="M108 0H70L1-190h34L89-25l56-165h34" id="Y"/><path fill="#333" d="M33-261c38 41 65 92 65 168S71 34 33 75H2C39 34 66-17 66-93S39-220 2-261h31" id="Z"/><g id="d"><use transform="matrix(0.06172839506172839,0,0,0.06172839506172839,0,0)" xlink:href="#U"/><use transform="matrix(0.06172839506172839,0,0,0.06172839506172839,7.345679012345679,0)" xlink:href="#V"/><use transform="matrix(0.06172839506172839,0,0,0.06172839506172839,23.333333333333332,0)" xlink:href="#F"/><use transform="matrix(0.06172839506172839,0,0,0.06172839506172839,35.67901234567901,0)" xlink:href="#W"/><use transform="matrix(0.06172839506172839,0,0,0.06172839506172839,40.55555555555556,0)" xlink:href="#X"/><use transform="matrix(0.06172839506172839,0,0,0.06172839506172839,45.4320987654321,0)" xlink:href="#Y"/><use transform="matrix(0.06172839506172839,0,0,0.06172839506172839,56.543209876543216,0)" xlink:href="#F"/><use transform="matrix(0.06172839506172839,0,0,0.06172839506172839,68.8888888888889,0)" xlink:href="#E"/><use transform="matrix(0.06172839506172839,0,0,0.06172839506172839,76.23456790123458,0)" xlink:href="#F"/><use transform="matrix(0.06172839506172839,0,0,0.06172839506172839,88.58024691358027,0)" xlink:href="#E"/><use transform="matrix(0.06172839506172839,0,0,0.06172839506172839,95.92592592592595,0)" xlink:href="#Z"/></g><path fill="#333" d="M212-179c-10-28-35-45-73-45-59 0-87 40-87 99 0 60 29 101 89 101 43 0 62-24 78-52l27 14C228-24 195 4 139 4 59 4 22-46 18-125c-6-104 99-153 187-111 19 9 31 26 39 46" id="aa"/><path fill="#333" d="M106-169C34-169 62-67 57 0H25v-261h32l-1 103c12-21 28-36 61-36 89 0 53 116 60 194h-32v-121c2-32-8-49-39-48" id="ab"/><g id="e"><use transform="matrix(0.06172839506172839,0,0,0.06172839506172839,0,0)" xlink:href="#U"/><use transform="matrix(0.06172839506172839,0,0,0.06172839506172839,7.345679012345679,0)" xlink:href="#aa"/><use transform="matrix(0.06172839506172839,0,0,0.06172839506172839,23.333333333333332,0)" xlink:href="#ab"/><use transform="matrix(0.06172839506172839,0,0,0.06172839506172839,35.67901234567901,0)" xlink:href="#F"/><use transform="matrix(0.06172839506172839,0,0,0.06172839506172839,48.02469135802469,0)" xlink:href="#T"/><use transform="matrix(0.06172839506172839,0,0,0.06172839506172839,54.19753086419753,0)" xlink:href="#Z"/></g><path d="M240 0l2-218c-23 76-54 145-80 218h-23L58-218 59 0H30v-248h44l77 211c21-75 51-140 76-211h43V0h-30" id="ac"/><path d="M100-194c62-1 85 37 85 99 1 63-27 99-86 99S16-35 15-95c0-66 28-99 85-99zM99-20c44 1 53-31 53-75 0-43-8-75-51-75s-53 32-53 75 10 74 51 75" id="ad"/><path d="M85-194c31 0 48 13 60 33l-1-100h32l1 261h-30c-2-10 0-23-3-31C134-8 116 4 85 4 32 4 16-35 15-94c0-66 23-100 70-100zm9 24c-40 0-46 34-46 75 0 40 6 74 45 74 42 0 51-32 51-76 0-42-9-74-50-73" id="ae"/><path d="M24-231v-30h32v30H24zM24 0v-190h32V0H24" id="af"/><path d="M101-234c-31-9-42 10-38 44h38v23H63V0H32v-167H5v-23h27c-7-52 17-82 69-68v24" id="ag"/><path d="M100-194c63 0 86 42 84 106H49c0 40 14 67 53 68 26 1 43-12 49-29l28 8c-11 28-37 45-77 45C44 4 14-33 15-96c1-61 26-98 85-98zm52 81c6-60-76-77-97-28-3 7-6 17-6 28h103" id="ah"/><path d="M114-163C36-179 61-72 57 0H25l-1-190h30c1 12-1 29 2 39 6-27 23-49 58-41v29" id="ai"/><g id="f"><use transform="matrix(0.05,0,0,0.05,0,0)" xlink:href="#ac"/><use transform="matrix(0.05,0,0,0.05,14.950000000000001,0)" xlink:href="#ad"/><use transform="matrix(0.05,0,0,0.05,24.950000000000003,0)" xlink:href="#ae"/><use transform="matrix(0.05,0,0,0.05,34.95,0)" xlink:href="#af"/><use transform="matrix(0.05,0,0,0.05,38.900000000000006,0)" xlink:href="#ag"/><use transform="matrix(0.05,0,0,0.05,43.900000000000006,0)" xlink:href="#af"/><use transform="matrix(0.05,0,0,0.05,47.85000000000001,0)" xlink:href="#ah"/><use transform="matrix(0.05,0,0,0.05,57.85,0)" xlink:href="#ai"/></g><path d="M84 4C-5 8 30-112 23-190h32v120c0 31 7 50 39 49 72-2 45-101 50-169h31l1 190h-30c-1-10 1-25-2-33-11 22-28 36-60 37" id="aj"/><path d="M117-194c89-4 53 116 60 194h-32v-121c0-31-8-49-39-48C34-167 62-67 57 0H25l-1-190h30c1 10-1 24 2 32 11-22 29-35 61-36" id="ak"/><g id="g"><use transform="matrix(0.05,0,0,0.05,0,0)" xlink:href="#aj"/><use transform="matrix(0.05,0,0,0.05,10,0)" xlink:href="#ak"/></g><path d="M135-143c-3-34-86-38-87 0 15 53 115 12 119 90S17 21 10-45l28-5c4 36 97 45 98 0-10-56-113-15-118-90-4-57 82-63 122-42 12 7 21 19 24 35" id="al"/><path d="M59-47c-2 24 18 29 38 22v24C64 9 27 4 27-40v-127H5v-23h24l9-43h21v43h35v23H59v120" id="am"/><path d="M96-169c-40 0-48 33-48 73s9 75 48 75c24 0 41-14 43-38l32 2c-6 37-31 61-74 61-59 0-76-41-82-99-10-93 101-131 147-64 4 7 5 14 7 22l-32 3c-4-21-16-35-41-35" id="an"/><path d="M143 0L79-87 56-68V0H24v-261h32v163l83-92h37l-77 82L181 0h-38" id="ao"/><g id="h"><use transform="matrix(0.05,0,0,0.05,0,0)" xlink:href="#al"/><use transform="matrix(0.05,0,0,0.05,9,0)" xlink:href="#am"/><use transform="matrix(0.05,0,0,0.05,14,0)" xlink:href="#ad"/><use transform="matrix(0.05,0,0,0.05,24,0)" xlink:href="#an"/><use transform="matrix(0.05,0,0,0.05,33,0)" xlink:href="#ao"/></g><path d="M205 0l-28-72H64L36 0H1l101-248h38L239 0h-34zm-38-99l-47-123c-12 45-31 82-46 123h93" id="ap"/><path d="M106-169C34-169 62-67 57 0H25v-261h32l-1 103c12-21 28-36 61-36 89 0 53 116 60 194h-32v-121c2-32-8-49-39-48" id="aq"/><g id="i"><use transform="matrix(0.05,0,0,0.05,0,0)" xlink:href="#ap"/><use transform="matrix(0.05,0,0,0.05,12,0)" xlink:href="#ag"/><use transform="matrix(0.05,0,0,0.05,16.65,0)" xlink:href="#ag"/><use transform="matrix(0.05,0,0,0.05,21.65,0)" xlink:href="#af"/><use transform="matrix(0.05,0,0,0.05,25.599999999999998,0)" xlink:href="#an"/><use transform="matrix(0.05,0,0,0.05,34.599999999999994,0)" xlink:href="#aq"/><use transform="matrix(0.05,0,0,0.05,44.599999999999994,0)" xlink:href="#ah"/><use transform="matrix(0.05,0,0,0.05,54.599999999999994,0)" xlink:href="#ai"/></g><g id="j"><use transform="matrix(0.05,0,0,0.05,0,0)" xlink:href="#al"/><use transform="matrix(0.05,0,0,0.05,9,0)" xlink:href="#am"/><use transform="matrix(0.05,0,0,0.05,14,0)" xlink:href="#ad"/><use transform="matrix(0.05,0,0,0.05,24,0)" xlink:href="#an"/><use transform="matrix(0.05,0,0,0.05,33,0)" xlink:href="#ao"/></g><path d="M115-194c55 1 70 41 70 98S169 2 115 4C84 4 66-9 55-30l1 105H24l-1-265h31l2 30c10-21 28-34 59-34zm-8 174c40 0 45-34 45-75s-6-73-45-74c-42 0-51 32-51 76 0 43 10 73 51 73" id="ar"/><path d="M115-194c53 0 69 39 70 98 0 66-23 100-70 100C84 3 66-7 56-30L54 0H23l1-261h32v101c10-23 28-34 59-34zm-8 174c40 0 45-34 45-75 0-40-5-75-45-74-42 0-51 32-51 76 0 43 10 73 51 73" id="as"/><path d="M24 0v-261h32V0H24" id="at"/><g id="k"><use transform="matrix(0.05,0,0,0.05,0,0)" xlink:href="#ae"/><use transform="matrix(0.05,0,0,0.05,10,0)" xlink:href="#af"/><use transform="matrix(0.05,0,0,0.05,13.949999999999998,0)" xlink:href="#al"/><use transform="matrix(0.05,0,0,0.05,22.95,0)" xlink:href="#ar"/><use transform="matrix(0.05,0,0,0.05,32.95,0)" xlink:href="#ad"/><use transform="matrix(0.05,0,0,0.05,42.95,0)" xlink:href="#ak"/><use transform="matrix(0.05,0,0,0.05,52.95,0)" xlink:href="#af"/><use transform="matrix(0.05,0,0,0.05,56.900000000000006,0)" xlink:href="#as"/><use transform="matrix(0.05,0,0,0.05,66.9,0)" xlink:href="#at"/><use transform="matrix(0.05,0,0,0.05,70.85000000000001,0)" xlink:href="#ah"/></g><path d="M30-248c87 1 191-15 191 75 0 78-77 80-158 76V0H30v-248zm33 125c57 0 124 11 124-50 0-59-68-47-124-48v98" id="au"/><g id="l"><use transform="matrix(0.05,0,0,0.05,0,0)" xlink:href="#au"/><use transform="matrix(0.05,0,0,0.05,12,0)" xlink:href="#ai"/><use transform="matrix(0.05,0,0,0.05,17.95,0)" xlink:href="#ad"/><use transform="matrix(0.05,0,0,0.05,27.950000000000003,0)" xlink:href="#ag"/><use transform="matrix(0.05,0,0,0.05,32.95,0)" xlink:href="#af"/><use transform="matrix(0.05,0,0,0.05,36.900000000000006,0)" xlink:href="#at"/></g><path d="M140-251c81 0 123 46 123 126C263-53 228-8 163 1c7 30 30 48 69 40v23c-55 16-95-15-103-61C56-3 17-48 17-125c0-80 42-126 123-126zm0 227c63 0 89-41 89-101s-29-99-89-99c-61 0-89 39-89 99S79-25 140-24" id="av"/><path d="M233-177c-1 41-23 64-60 70L243 0h-38l-65-103H63V0H30v-248c88 3 205-21 203 71zM63-129c60-2 137 13 137-47 0-61-80-42-137-45v92" id="aw"/><g id="m"><use transform="matrix(0.05,0,0,0.05,0,0)" xlink:href="#av"/><use transform="matrix(0.05,0,0,0.05,14,0)" xlink:href="#aw"/></g><path d="M212-179c-10-28-35-45-73-45-59 0-87 40-87 99 0 60 29 101 89 101 43 0 62-24 78-52l27 14C228-24 195 4 139 4 59 4 22-46 18-125c-6-104 99-153 187-111 19 9 31 26 39 46" id="ax"/><g id="n"><use transform="matrix(0.05,0,0,0.05,0,0)" xlink:href="#ax"/><use transform="matrix(0.05,0,0,0.05,12.950000000000001,0)" xlink:href="#ad"/><use transform="matrix(0.05,0,0,0.05,22.950000000000003,0)" xlink:href="#ae"/><use transform="matrix(0.05,0,0,0.05,32.95,0)" xlink:href="#ah"/></g><path d="M185-189c-5-48-123-54-124 2 14 75 158 14 163 119 3 78-121 87-175 55-17-10-28-26-33-46l33-7c5 56 141 63 141-1 0-78-155-14-162-118-5-82 145-84 179-34 5 7 8 16 11 25" id="ay"/><g id="o"><use transform="matrix(0.05,0,0,0.05,0,0)" xlink:href="#ay"/><use transform="matrix(0.05,0,0,0.05,12,0)" xlink:href="#ah"/></g><g id="p"><use transform="matrix(0.05,0,0,0.05,0,0)" xlink:href="#an"/><use transform="matrix(0.05,0,0,0.05,9,0)" xlink:href="#ad"/><use transform="matrix(0.05,0,0,0.05,19,0)" xlink:href="#ak"/><use transform="matrix(0.05,0,0,0.05,29,0)" xlink:href="#ak"/><use transform="matrix(0.05,0,0,0.05,39,0)" xlink:href="#ah"/><use transform="matrix(0.05,0,0,0.05,49,0)" xlink:href="#an"/><use transform="matrix(0.05,0,0,0.05,58,0)" xlink:href="#am"/><use transform="matrix(0.05,0,0,0.05,63,0)" xlink:href="#ah"/><use transform="matrix(0.05,0,0,0.05,73,0)" xlink:href="#ai"/></g><path fill="#333" d="M15-91v-56l181-69v40L49-119l147 57v40" id="az"/><g id="q"><use transform="matrix(0.04938271604938272,0,0,0.04938271604938272,0,0)" xlink:href="#az"/><use transform="matrix(0.04938271604938272,0,0,0.04938271604938272,10.370370370370372,0)" xlink:href="#az"/></g><path fill="#333" d="M25-224v-37h50v37H25zM25 0v-190h50V0H25" id="aA"/><path fill="#333" d="M135-194c87-1 58 113 63 194h-50c-7-57 23-157-34-157-59 0-34 97-39 157H25l-1-190h47c2 12-1 28 3 38 12-26 28-41 61-42" id="aB"/><path fill="#333" d="M190-63c-7 42-38 67-86 67-59 0-84-38-90-98-12-110 154-137 174-36l-49 2c-2-19-15-32-35-32-30 0-35 28-38 64-6 74 65 87 74 30" id="aC"/><path fill="#333" d="M25 0v-261h50V0H25" id="aD"/><path fill="#333" d="M85 4C-2 5 27-109 22-190h50c7 57-23 150 33 157 60-5 35-97 40-157h50l1 190h-47c-2-12 1-28-3-38-12 25-28 42-61 42" id="aE"/><path fill="#333" d="M88-194c31-1 46 15 58 34l-1-101h50l1 261h-48c-2-10 0-23-3-31C134-8 116 4 84 4 32 4 16-41 15-95c0-56 19-97 73-99zm17 164c33 0 40-30 41-66 1-37-9-64-41-64s-38 30-39 65c0 43 13 65 39 65" id="aF"/><path fill="#333" d="M185-48c-13 30-37 53-82 52C43 2 14-33 14-96s30-98 90-98c62 0 83 45 84 108H66c0 31 8 55 39 56 18 0 30-7 34-22zm-45-69c5-46-57-63-70-21-2 6-4 13-4 21h74" id="aG"/><g id="r"><use transform="matrix(0.04938271604938272,0,0,0.04938271604938272,0,0)" xlink:href="#aA"/><use transform="matrix(0.04938271604938272,0,0,0.04938271604938272,4.938271604938272,0)" xlink:href="#aB"/><use transform="matrix(0.04938271604938272,0,0,0.04938271604938272,15.753086419753087,0)" xlink:href="#aC"/><use transform="matrix(0.04938271604938272,0,0,0.04938271604938272,25.629629629629633,0)" xlink:href="#aD"/><use transform="matrix(0.04938271604938272,0,0,0.04938271604938272,30.567901234567906,0)" xlink:href="#aE"/><use transform="matrix(0.04938271604938272,0,0,0.04938271604938272,41.38271604938272,0)" xlink:href="#aF"/><use transform="matrix(0.04938271604938272,0,0,0.04938271604938272,52.19753086419754,0)" xlink:href="#aG"/></g><path fill="#333" d="M15-22v-40l146-57-146-57v-40l181 69v56" id="aH"/><g id="s"><use transform="matrix(0.04938271604938272,0,0,0.04938271604938272,0,0)" xlink:href="#aH"/><use transform="matrix(0.04938271604938272,0,0,0.04938271604938272,10.370370370370372,0)" xlink:href="#aH"/></g><path d="M141-36C126-15 110 5 73 4 37 3 15-17 15-53c-1-64 63-63 125-63 3-35-9-54-41-54-24 1-41 7-42 31l-33-3c5-37 33-52 76-52 45 0 72 20 72 64v82c-1 20 7 32 28 27v20c-31 9-61-2-59-35zM48-53c0 20 12 33 32 33 41-3 63-29 60-74-43 2-92-5-92 41" id="aI"/><g id="t"><use transform="matrix(0.05,0,0,0.05,0,0)" xlink:href="#ay"/><use transform="matrix(0.05,0,0,0.05,12,0)" xlink:href="#an"/><use transform="matrix(0.05,0,0,0.05,21,0)" xlink:href="#aI"/><use transform="matrix(0.05,0,0,0.05,31,0)" xlink:href="#ak"/><use transform="matrix(0.05,0,0,0.05,41,0)" xlink:href="#ak"/><use transform="matrix(0.05,0,0,0.05,51,0)" xlink:href="#ah"/><use transform="matrix(0.05,0,0,0.05,61,0)" xlink:href="#ai"/></g><g id="u"><use transform="matrix(0.05,0,0,0.05,0,0)" xlink:href="#av"/><use transform="matrix(0.05,0,0,0.05,14,0)" xlink:href="#aw"/></g><g id="v"><use transform="matrix(0.05,0,0,0.05,0,0)" xlink:href="#an"/><use transform="matrix(0.05,0,0,0.05,9,0)" xlink:href="#ad"/><use transform="matrix(0.05,0,0,0.05,19,0)" xlink:href="#ae"/><use transform="matrix(0.05,0,0,0.05,29,0)" xlink:href="#ah"/></g><path fill="#333" d="M144 0l-44-69L55 0H2l70-98-66-92h53l41 62 40-62h54l-67 91 71 99h-54" id="aJ"/><path fill="#333" d="M115-3C79 11 28 4 28-45v-112H4v-33h27l15-45h31v45h36v33H77v99c-1 23 16 31 38 25v30" id="aK"/><path fill="#333" d="M137-138c1-29-70-34-71-4 15 46 118 7 119 86 1 83-164 76-172 9l43-7c4 19 20 25 44 25 33 8 57-30 24-41C81-84 22-81 20-136c-2-80 154-74 161-7" id="aL"/><g id="w"><use transform="matrix(0.04938271604938272,0,0,0.04938271604938272,0,0)" xlink:href="#aG"/><use transform="matrix(0.04938271604938272,0,0,0.04938271604938272,9.876543209876544,0)" xlink:href="#aJ"/><use transform="matrix(0.04938271604938272,0,0,0.04938271604938272,19.75308641975309,0)" xlink:href="#aK"/><use transform="matrix(0.04938271604938272,0,0,0.04938271604938272,25.629629629629633,0)" xlink:href="#aG"/><use transform="matrix(0.04938271604938272,0,0,0.04938271604938272,35.50617283950618,0)" xlink:href="#aB"/><use transform="matrix(0.04938271604938272,0,0,0.04938271604938272,46.320987654320994,0)" xlink:href="#aF"/><use transform="matrix(0.04938271604938272,0,0,0.04938271604938272,57.135802469135804,0)" xlink:href="#aL"/></g><g id="x"><use transform="matrix(0.05,0,0,0.05,0,0)" xlink:href="#ay"/><use transform="matrix(0.05,0,0,0.05,12,0)" xlink:href="#am"/><use transform="matrix(0.05,0,0,0.05,17,0)" xlink:href="#ad"/><use transform="matrix(0.05,0,0,0.05,27,0)" xlink:href="#an"/><use transform="matrix(0.05,0,0,0.05,36,0)" xlink:href="#ao"/></g><g id="y"><use transform="matrix(0.05,0,0,0.05,0,0)" xlink:href="#ac"/><use transform="matrix(0.05,0,0,0.05,14.950000000000001,0)" xlink:href="#af"/><use transform="matrix(0.05,0,0,0.05,18.900000000000002,0)" xlink:href="#al"/></g><path d="M141-36C126-15 110 5 73 4 37 3 15-17 15-53c-1-64 63-63 125-63 3-35-9-54-41-54-24 1-41 7-42 31l-33-3c5-37 33-52 76-52 45 0 72 20 72 64v82c-1 20 7 32 28 27v20c-31 9-61-2-59-35zM48-53c0 20 12 33 32 33 41-3 63-29 60-74-43 2-92-5-92 41zm62-158l-58-49v-5h36c12 19 30 32 38 54h-16" id="aM"/><use transform="matrix(0.05,0,0,0.05,0,0)" xlink:href="#aM" id="z"/><path d="M24-231v-30h32v30H24zM-9 49c24 4 33-6 33-30v-209h32V24c2 40-23 58-65 49V49" id="aN"/><g id="A"><use transform="matrix(0.05,0,0,0.05,0,0)" xlink:href="#aN"/><use transform="matrix(0.05,0,0,0.05,3.95,0)" xlink:href="#ad"/><use transform="matrix(0.05,0,0,0.05,13.949999999999998,0)" xlink:href="#aj"/><use transform="matrix(0.05,0,0,0.05,23.95,0)" xlink:href="#ai"/></g></defs></g></svg>