<svg xmlns="http://www.w3.org/2000/svg" xmlns:xlink="http://www.w3.org/1999/xlink" xmlns:lucid="lucid" width="1142" height="749"><g transform="translate(-64 -87)" lucid:page-tab-id="0_0"><path d="M0 0h1870.87v1322.84H0z" fill="#fff"/><path d="M240 106a6 6 0 0 1 6-6h948a6 6 0 0 1 6 6v708a6 6 0 0 1-6 6H246a6 6 0 0 1-6-6z" stroke="#5e5e5e" stroke-width="3" fill-opacity="0"/><use xlink:href="#a" transform="matrix(1,0,0,1,244.9999999999999,105) translate(284.8148148148148 17.77777777777778)"/><use xlink:href="#b" transform="matrix(1,0,0,1,244.9999999999999,105) translate(421.72839506172835 17.77777777777778)"/><use xlink:href="#c" transform="matrix(1,0,0,1,244.9999999999999,105) translate(435.2469135802469 17.77777777777778)"/><use xlink:href="#d" transform="matrix(1,0,0,1,244.9999999999999,105) translate(489.5061728395061 17.77777777777778)"/><use xlink:href="#e" transform="matrix(1,0,0,1,244.9999999999999,105) translate(536.9135802469136 17.77777777777778)"/><use xlink:href="#f" transform="matrix(1,0,0,1,244.9999999999999,105) translate(578.8271604938271 17.77777777777778)"/><use xlink:href="#g" transform="matrix(1,0,0,1,244.9999999999999,105) translate(609.6913580246913 17.77777777777778)"/><path d="M139.75 419.75c0 10.9-8.84 19.75-19.75 19.75-10.9 0-19.75-8.84-19.75-19.75 0-10.9 8.84-19.75 19.75-19.75 10.9 0 19.75 8.84 19.75 19.75z" stroke="#5e5e5e" stroke-width="3" fill="#fff"/><path d="M120 439.5v49.3a20.7 20.7 0 0 0 3.2 11.07L160 558m-40-63.2L80 558m0-98.75h80" stroke="#5e5e5e" stroke-width="3" fill="none"/><path d="M80 406a6 6 0 0 1 6-6h68a6 6 0 0 1 6 6v168a6 6 0 0 1-6 6H86a6 6 0 0 1-6-6z" fill="none"/><use xlink:href="#h" transform="matrix(1,0,0,1,0,558) translate(84.22839506172839 17.77777777777778)"/><path d="M480 240c0 33.14-35.82 60-80 60s-80-26.86-80-60 35.82-60 80-60 80 26.86 80 60z" stroke="#5e5e5e" stroke-width="3" fill="#fff"/><use xlink:href="#i" transform="matrix(1,0,0,1,320,180) translate(20.255000000000003 51.9)"/><use xlink:href="#j" transform="matrix(1,0,0,1,320,180) translate(85.805 51.9)"/><use xlink:href="#k" transform="matrix(1,0,0,1,320,180) translate(50.529999999999994 73.5)"/><path d="M480 460c0 33.14-35.82 60-80 60s-80-26.86-80-60 35.82-60 80-60 80 26.86 80 60z" stroke="#5e5e5e" stroke-width="3" fill="#fff"/><use xlink:href="#l" transform="matrix(1,0,0,1,320,399.99999999999994) translate(20.104999999999997 51.9)"/><use xlink:href="#m" transform="matrix(1,0,0,1,320,399.99999999999994) translate(69.95500000000001 51.9)"/><use xlink:href="#n" transform="matrix(1,0,0,1,320,399.99999999999994) translate(119.905 51.9)"/><use xlink:href="#o" transform="matrix(1,0,0,1,320,399.99999999999994) translate(65.055 73.5)"/><path d="M160.6 456.94L318 238.56" stroke="#5e5e5e" stroke-width="2" fill="none"/><path d="M159.06 460.77l-.03-.02h.04zm2.35-3.27l-1.4 1.96v-1.7h-1.23l1.02-1.43zM318.6 237.04l-.07 1.95-1.37-1 1.54-2.15z" stroke="#5e5e5e" stroke-width=".05" fill="#5e5e5e"/><path d="M161 457.75h156.57" stroke="#5e5e5e" stroke-width="2" fill="none"/><path d="M161.03 458.75H160v-1h-3v-1h4.03zM318.6 457.05l-.06 1.7h-1v-2h1.08z" stroke="#5e5e5e" stroke-width=".05" fill="#5e5e5e"/><path d="M400.7 388.13l.3.7-.3.7-.7.3-.7-.3-.3-.7.3-.7.7-.3zm0-7.85l.3.7-.3.7-.7.3-.7-.3-.3-.7.3-.7.7-.3zm0-7.85l.3.7-.3.7-.7.3-.7-.3-.3-.7.3-.7.7-.3zm0-7.85l.3.7-.3.72-.7.3-.7-.3-.3-.7.3-.72.7-.3zm0-31.4l.3.7-.3.72-.7.3-.7-.3-.3-.7.3-.7.7-.3zm0-7.84l.3.7-.3.7-.7.3-.7-.3-.3-.7.3-.7.7-.3zm0-7.85l.3.7-.3.7-.7.3-.7-.3-.3-.7.3-.7.7-.3zm0-7.86l.3.7-.3.72-.7.3-.7-.3-.3-.7.3-.72.7-.3zm0-7.85l.3.7-.3.7-.7.3-.7-.3-.3-.7.3-.7.7-.3z" fill="#5e5e5e"/><path d="M399.98 301.5h.95l.07 1.03h-2v-1.06z" fill="#5e5e5e"/><path d="M399.98 301.48h.98l.07 1.07h-2.05v-1.1zm-.96 1.02h1.95l-.06-.98H400l-.96-.02zM411.04 379.83L400 398.5l-11.04-18.67 1.72-1.02 9.32 15.77 9.32-15.76z" stroke="#5e5e5e" stroke-width=".05" fill="#5e5e5e"/><use xlink:href="#p" transform="matrix(1,0,0,1,340.8148148148148,339.3333333333333) translate(0.005000000000002558 14.222222222222223)"/><use xlink:href="#q" transform="matrix(1,0,0,1,340.8148148148148,339.3333333333333) translate(25.68401234567902 14.222222222222223)"/><use xlink:href="#r" transform="matrix(1,0,0,1,340.8148148148148,339.3333333333333) translate(97.63462962962964 14.222222222222223)"/><path d="M940 600c0 33.14-35.82 60-80 60s-80-26.86-80-60 35.82-60 80-60 80 26.86 80 60z" stroke="#5e5e5e" stroke-width="3" fill="#fff"/><use xlink:href="#s" transform="matrix(1,0,0,1,780,540) translate(41.254999999999995 63.15)"/><path d="M401 522.5c0 .55-.45 1-1 1s-1-.45-1-1 .45-1 1-1 1 .45 1 1zm0 8.24c0 .55-.45 1-1 1s-1-.45-1-1 .45-1 1-1 1 .45 1 1zm0 8.25c0 .54-.45 1-1 1s-1-.46-1-1c0-.57.45-1 1-1s1 .43 1 1zm0 8.23c0 .55-.45 1-1 1s-1-.45-1-1c0-.56.45-1 1-1s1 .44 1 1zm0 8.24c0 .55-.45 1-1 1s-1-.45-1-1 .45-1 1-1 1 .45 1 1zm0 8.24c0 .56-.45 1-1 1s-1-.44-1-1c0-.54.45-1 1-1s1 .46 1 1zm0 8.25c0 .56-.45 1-1 1s-1-.44-1-1c0-.55.45-1 1-1s1 .45 1 1zm0 8.25c0 .55-.45 1-1 1s-1-.45-1-1c0-.56.45-1 1-1s1 .44 1 1zm0 8.24c0 .55-.45 1-1 1s-1-.45-1-1 .45-1 1-1 1 .45 1 1z" fill="#5e5e5e"/><path d="M399.98 521.5H401v1.03h-2v-1.06z" stroke="#5e5e5e" stroke-width=".05" fill="#5e5e5e"/><path d="M389.82 579.32l10.18 17.2 10.18-17.2" stroke="#5e5e5e" stroke-width="2" fill="none"/><use xlink:href="#p" transform="matrix(1,0,0,1,408,543.5119824254273) translate(0.005000000000002558 14.222222222222223)"/><use xlink:href="#t" transform="matrix(1,0,0,1,408,543.5119824254273) translate(25.68401234567902 14.222222222222223)"/><use xlink:href="#r" transform="matrix(1,0,0,1,408,543.5119824254273) translate(92.69635802469136 14.222222222222223)"/><path d="M1140 360c0 33.14-35.82 60-80 60s-80-26.86-80-60 35.82-60 80-60 80 26.86 80 60z" stroke="#5e5e5e" stroke-width="3" fill="#fff"/><use xlink:href="#u" transform="matrix(1,0,0,1,980,300) translate(25.055 51.9)"/><use xlink:href="#v" transform="matrix(1,0,0,1,980,300) translate(61.005 51.9)"/><use xlink:href="#w" transform="matrix(1,0,0,1,980,300) translate(114.955 51.9)"/><use xlink:href="#x" transform="matrix(1,0,0,1,980,300) translate(57.529999999999994 73.5)"/><path d="M861.26 536.96l.3.7-.3.7-.7.3-.7-.3-.3-.7.3-.7.7-.3zm4.5-6.78l.3.7-.3.72-.7.3-.72-.3-.3-.7.3-.72.7-.3zm4.5-6.77l.3.72-.3.7-.7.3-.72-.3-.3-.7.3-.7.7-.3zm4.5-6.76l.3.7-.3.7-.7.3-.72-.3-.3-.7.3-.7.7-.3zm4.5-6.78l.28.7-.3.7-.7.3-.7-.3-.3-.7.3-.7.7-.3zm4.5-6.78l.28.7-.3.72-.7.3-.7-.3-.3-.7.3-.72.7-.3zm4.5-6.77l.28.72-.3.7-.7.3-.7-.3-.3-.7.3-.7.7-.3zm4.48-6.77l.3.7-.3.72-.7.3-.7-.3-.3-.7.3-.72.7-.3zm4.5-6.77l.3.7-.3.7-.7.3-.7-.3-.3-.7.3-.7.7-.3zm4.5-6.78l.3.7-.3.72-.7.3-.7-.3-.3-.7.3-.72.7-.3zm4.5-6.77l.3.72-.3.7-.7.3-.72-.3-.3-.7.3-.7.7-.3zm4.5-6.77l.3.7-.3.72-.7.3-.72-.3-.3-.7.3-.72.7-.3zm18-27.1l.28.7-.3.72-.7.3-.7-.3-.3-.7.3-.72.7-.3zm4.48-6.77l.3.7-.3.7-.7.3-.7-.3-.3-.7.3-.7.7-.3zm4.5-6.78l.3.7-.3.72-.7.3-.7-.3-.3-.7.3-.72.7-.3zm4.5-6.77l.3.7-.3.72-.7.3-.72-.3-.3-.7.3-.7.7-.3zm4.5-6.77l.3.7-.3.72-.7.3-.72-.3-.3-.7.3-.72.7-.3zm4.5-6.77l.3.7-.3.7-.7.3-.72-.3-.3-.7.3-.7.7-.3zm4.5-6.78l.3.7-.3.72-.7.3-.72-.3-.3-.7.3-.72.7-.3zm4.5-6.77l.28.72-.3.7-.7.3-.7-.3-.3-.7.3-.7.7-.3zm4.5-6.77l.28.7-.3.72-.7.3-.7-.3-.3-.7.3-.72.7-.3zm4.5-6.77l.28.7-.3.7-.7.3-.7-.3-.3-.7.3-.7.7-.3zm4.48-6.78l.3.7-.3.72-.7.3-.7-.3-.3-.7.3-.72.7-.3z" fill="#5e5e5e"/><path d="M861.4 538.2l-.22.34-1.16-.04h-1.23l.93-1.4z" fill="#5e5e5e"/><path d="M861.43 538.2l-.24.36-1.18-.03h-1.28l1-1.47zm-2.6.3l.24-.02h.95l1.14.03.2-.3-1.62-1.07zM977.37 381.66l-2-.1.96-18.3-16.48 8-.88-1.8L978.5 360z" stroke="#5e5e5e" stroke-width=".05" fill="#5e5e5e"/><g><use xlink:href="#p" transform="matrix(1,0,0,1,862.5339441823322,438.58332691787774) translate(0.005000000000002558 14.222222222222223)"/><use xlink:href="#t" transform="matrix(1,0,0,1,862.5339441823322,438.58332691787774) translate(25.68401234567902 14.222222222222223)"/><use xlink:href="#r" transform="matrix(1,0,0,1,862.5339441823322,438.58332691787774) translate(92.69635802469136 14.222222222222223)"/></g><path d="M510 690c0 49.7-49.25 90-110 90s-110-40.3-110-90 49.25-90 110-90 110 40.3 110 90zm-220 0h220" stroke="#5e5e5e" stroke-width="3" fill="#fff"/><g><use xlink:href="#y" transform="matrix(1,0,0,1,323,618) translate(23.074999999999996 39.6)"/><use xlink:href="#z" transform="matrix(1,0,0,1,323,618) translate(101.975 39.6)"/></g><g><use xlink:href="#A" transform="matrix(1,0,0,1,323,714) translate(0.5999999999999943 14.4)"/><use xlink:href="#B" transform="matrix(1,0,0,1,323,714) translate(50.45 14.4)"/><use xlink:href="#C" transform="matrix(1,0,0,1,323,714) translate(124.45 14.4)"/><use xlink:href="#y" transform="matrix(1,0,0,1,323,714) translate(23.074999999999996 36)"/><use xlink:href="#D" transform="matrix(1,0,0,1,323,714) translate(101.975 36)"/><use xlink:href="#E" transform="matrix(1,0,0,1,323,714) translate(46.025 57.6)"/><use xlink:href="#F" transform="matrix(1,0,0,1,323,714) translate(77 79.20000000000002)"/></g><g><use xlink:href="#G" transform="matrix(1,0,0,1,290,690) translate(30.57499999999999 15.6)"/><use xlink:href="#H" transform="matrix(1,0,0,1,290,690) translate(90.425 15.6)"/></g><path d="M513.15 688.97l.3.7-.3.72-.7.28-.7-.3-.3-.7.3-.7.7-.3zm7.56-2.54l.3.7-.3.7-.7.3-.7-.3-.3-.7.3-.7.7-.3zm7.56-2.55l.3.7-.3.72-.7.3-.7-.3-.3-.7.3-.72.7-.3zm7.55-2.54l.3.7-.3.7-.7.3-.7-.3-.3-.7.3-.7.7-.3zm7.56-2.55l.3.7-.3.7-.7.3-.7-.3-.3-.7.3-.7.7-.3zm7.56-2.55l.3.7-.3.7-.7.3-.72-.3-.3-.7.3-.7.7-.3zm7.55-2.55l.3.7-.3.7-.7.3-.72-.3-.3-.7.3-.7.7-.3zm7.55-2.55l.3.7-.3.72-.7.3-.7-.3-.3-.7.3-.72.7-.3zm7.55-2.54l.3.72-.3.7-.7.3-.7-.3-.3-.7.3-.7.7-.3zm7.55-2.54l.3.7-.3.72-.7.3-.7-.3-.3-.7.3-.72.7-.3zm7.56-2.54l.3.7-.3.7-.7.3-.72-.3-.3-.7.3-.7.7-.3zm7.55-2.55l.3.7-.3.72-.7.28-.7-.3-.3-.7.3-.7.7-.3zm7.55-2.55l.3.7-.3.72-.7.3-.7-.3-.3-.7.3-.72.7-.3zm7.55-2.54l.3.7-.3.7-.7.3-.7-.3-.3-.7.3-.7.5-.2h.4zm67.97-22.9l.3.7-.27.65h-1.46l-.27-.66.3-.7.7-.3zm7.56-2.56l.3.7-.3.72-.7.3-.72-.3-.3-.7.3-.72.7-.3zm7.55-2.54l.3.7-.3.7-.7.3-.7-.3-.3-.7.3-.7.7-.3zm7.56-2.55l.3.7-.3.72-.7.3-.7-.3-.3-.7.3-.72.7-.3zm7.55-2.55l.3.7-.3.72-.7.3-.7-.3-.3-.7.3-.72.7-.3zm7.57-2.54l.3.7-.3.7-.7.3-.72-.3-.3-.7.3-.7.7-.3zm7.55-2.55l.3.7-.3.7-.7.3-.72-.3-.3-.7.3-.7.7-.3zm7.55-2.55l.3.7-.3.7-.7.3-.7-.3-.3-.7.3-.7.7-.3zm7.55-2.55l.3.7-.3.72-.7.3-.7-.3-.3-.7.3-.72.7-.3zm7.55-2.54l.3.7-.3.7-.7.3-.7-.3-.3-.7.3-.7.7-.3zm7.56-2.55l.3.72-.3.7-.7.3-.72-.3-.28-.7.3-.7.7-.3zm7.55-2.53l.3.7-.3.7-.7.3-.7-.3-.3-.7.3-.7.7-.3zm7.55-2.55l.3.7-.3.7-.7.3-.7-.3-.3-.7.3-.7.7-.3zm7.55-2.55l.3.7-.3.72-.7.28-.7-.3-.3-.7.3-.7.7-.3z" fill="#5e5e5e"/><path d="M512.8 690.62l-1.32.44.02-1.05v-1.05l.65-.23z" fill="#5e5e5e"/><path d="M512.82 690.64l-1.37.46.03-1.1-.02-1.07.7-.24zm-1.3-1.67V690l-.02 1.03 1.26-.43-.62-1.84zM778.5 600l-14.16 16.43-1.52-1.3 11.96-13.88-17.9-3.8.4-1.95z" stroke="#5e5e5e" stroke-width=".05" fill="#5e5e5e"/><g><use xlink:href="#p" transform="matrix(1,0,0,1,588.2840042456625,634.3333333333334) translate(0.005000000000002558 14.222222222222223)"/><use xlink:href="#t" transform="matrix(1,0,0,1,588.2840042456625,634.3333333333334) translate(25.68401234567902 14.222222222222223)"/><use xlink:href="#r" transform="matrix(1,0,0,1,588.2840042456625,634.3333333333334) translate(92.69635802469136 14.222222222222223)"/></g><defs><path fill="#333" d="M30 0v-248h187v28H63v79h144v27H63v87h162V0H30" id="I"/><path fill="#333" d="M141 0L90-78 38 0H4l68-98-65-92h35l48 74 47-74h35l-64 92 68 98h-35" id="J"/><path fill="#333" d="M115-194c55 1 70 41 70 98S169 2 115 4C84 4 66-9 55-30l1 105H24l-1-265h31l2 30c10-21 28-34 59-34zm-8 174c40 0 45-34 45-75s-6-73-45-74c-42 0-51 32-51 76 0 43 10 73 51 73" id="K"/><path fill="#333" d="M114-163C36-179 61-72 57 0H25l-1-190h30c1 12-1 29 2 39 6-27 23-49 58-41v29" id="L"/><path fill="#333" d="M100-194c63 0 86 42 84 106H49c0 40 14 67 53 68 26 1 43-12 49-29l28 8c-11 28-37 45-77 45C44 4 14-33 15-96c1-61 26-98 85-98zm52 81c6-60-76-77-97-28-3 7-6 17-6 28h103" id="M"/><path fill="#333" d="M135-143c-3-34-86-38-87 0 15 53 115 12 119 90S17 21 10-45l28-5c4 36 97 45 98 0-10-56-113-15-118-90-4-57 82-63 122-42 12 7 21 19 24 35" id="N"/><path fill="#333" d="M63-220v92h138v28H63V0H30v-248h175v28H63" id="O"/><path fill="#333" d="M100-194c62-1 85 37 85 99 1 63-27 99-86 99S16-35 15-95c0-66 28-99 85-99zM99-20c44 1 53-31 53-75 0-43-8-75-51-75s-53 32-53 75 10 74 51 75" id="P"/><path fill="#333" d="M85-194c31 0 48 13 60 33l-1-100h32l1 261h-30c-2-10 0-23-3-31C134-8 116 4 85 4 32 4 16-35 15-94c0-66 23-100 70-100zm9 24c-40 0-46 34-46 75 0 40 6 74 45 74 42 0 51-32 51-76 0-42-9-74-50-73" id="Q"/><g id="a"><use transform="matrix(0.06172839506172839,0,0,0.06172839506172839,0,0)" xlink:href="#I"/><use transform="matrix(0.06172839506172839,0,0,0.06172839506172839,14.814814814814813,0)" xlink:href="#J"/><use transform="matrix(0.06172839506172839,0,0,0.06172839506172839,25.925925925925924,0)" xlink:href="#K"/><use transform="matrix(0.06172839506172839,0,0,0.06172839506172839,38.2716049382716,0)" xlink:href="#L"/><use transform="matrix(0.06172839506172839,0,0,0.06172839506172839,45.61728395061728,0)" xlink:href="#M"/><use transform="matrix(0.06172839506172839,0,0,0.06172839506172839,57.962962962962955,0)" xlink:href="#N"/><use transform="matrix(0.06172839506172839,0,0,0.06172839506172839,69.07407407407406,0)" xlink:href="#N"/><use transform="matrix(0.06172839506172839,0,0,0.06172839506172839,80.18518518518518,0)" xlink:href="#O"/><use transform="matrix(0.06172839506172839,0,0,0.06172839506172839,93.7037037037037,0)" xlink:href="#P"/><use transform="matrix(0.06172839506172839,0,0,0.06172839506172839,106.04938271604938,0)" xlink:href="#P"/><use transform="matrix(0.06172839506172839,0,0,0.06172839506172839,118.39506172839506,0)" xlink:href="#Q"/></g><path fill="#333" d="M16-82v-28h88v28H16" id="R"/><use transform="matrix(0.06172839506172839,0,0,0.06172839506172839,0,0)" xlink:href="#R" id="b"/><path fill="#333" d="M141-36C126-15 110 5 73 4 37 3 15-17 15-53c-1-64 63-63 125-63 3-35-9-54-41-54-24 1-41 7-42 31l-33-3c5-37 33-52 76-52 45 0 72 20 72 64v82c-1 20 7 32 28 27v20c-31 9-61-2-59-35zM48-53c0 20 12 33 32 33 41-3 63-29 60-74-43 2-92-5-92 41" id="S"/><path fill="#333" d="M24-231v-30h32v30H24zM-9 49c24 4 33-6 33-30v-209h32V24c2 40-23 58-65 49V49" id="T"/><path fill="#333" d="M84 4C-5 8 30-112 23-190h32v120c0 31 7 50 39 49 72-2 45-101 50-169h31l1 190h-30c-1-10 1-25-2-33-11 22-28 36-60 37" id="U"/><path fill="#333" d="M59-47c-2 24 18 29 38 22v24C64 9 27 4 27-40v-127H5v-23h24l9-43h21v43h35v23H59v120" id="V"/><g id="c"><use transform="matrix(0.06172839506172839,0,0,0.06172839506172839,0,0)" xlink:href="#S"/><use transform="matrix(0.06172839506172839,0,0,0.06172839506172839,12.345679012345679,0)" xlink:href="#T"/><use transform="matrix(0.06172839506172839,0,0,0.06172839506172839,17.22222222222222,0)" xlink:href="#P"/><use transform="matrix(0.06172839506172839,0,0,0.06172839506172839,29.5679012345679,0)" xlink:href="#U"/><use transform="matrix(0.06172839506172839,0,0,0.06172839506172839,41.913580246913575,0)" xlink:href="#V"/></g><path fill="#333" d="M47-170H22l-4-78h33" id="W"/><path fill="#333" d="M117-194c89-4 53 116 60 194h-32v-121c0-31-8-49-39-48C34-167 62-67 57 0H25l-1-190h30c1 10-1 24 2 32 11-22 29-35 61-36" id="X"/><g id="d"><use transform="matrix(0.06172839506172839,0,0,0.06172839506172839,0,0)" xlink:href="#Q"/><use transform="matrix(0.06172839506172839,0,0,0.06172839506172839,12.345679012345679,0)" xlink:href="#W"/><use transform="matrix(0.06172839506172839,0,0,0.06172839506172839,16.54320987654321,0)" xlink:href="#U"/><use transform="matrix(0.06172839506172839,0,0,0.06172839506172839,28.888888888888886,0)" xlink:href="#X"/></g><path fill="#333" d="M24 0v-261h32V0H24" id="Y"/><g id="e"><use transform="matrix(0.06172839506172839,0,0,0.06172839506172839,0,0)" xlink:href="#K"/><use transform="matrix(0.06172839506172839,0,0,0.06172839506172839,12.345679012345679,0)" xlink:href="#Y"/><use transform="matrix(0.06172839506172839,0,0,0.06172839506172839,17.22222222222222,0)" xlink:href="#S"/><use transform="matrix(0.06172839506172839,0,0,0.06172839506172839,29.5679012345679,0)" xlink:href="#V"/></g><g id="f"><use transform="matrix(0.06172839506172839,0,0,0.06172839506172839,0,0)" xlink:href="#S"/><use transform="matrix(0.06172839506172839,0,0,0.06172839506172839,12.345679012345679,0)" xlink:href="#U"/></g><path fill="#333" d="M210-169c-67 3-38 105-44 169h-31v-121c0-29-5-50-35-48C34-165 62-65 56 0H25l-1-190h30c1 10-1 24 2 32 10-44 99-50 107 0 11-21 27-35 58-36 85-2 47 119 55 194h-31v-121c0-29-5-49-35-48" id="Z"/><g id="g"><use transform="matrix(0.06172839506172839,0,0,0.06172839506172839,0,0)" xlink:href="#Z"/><use transform="matrix(0.06172839506172839,0,0,0.06172839506172839,18.456790123456788,0)" xlink:href="#M"/><use transform="matrix(0.06172839506172839,0,0,0.06172839506172839,30.80246913580247,0)" xlink:href="#X"/><use transform="matrix(0.06172839506172839,0,0,0.06172839506172839,43.148148148148145,0)" xlink:href="#U"/></g><path fill="#3a414a" d="M212-179c-10-28-35-45-73-45-59 0-87 40-87 99 0 60 29 101 89 101 43 0 62-24 78-52l27 14C228-24 195 4 139 4 59 4 22-46 18-125c-6-104 99-153 187-111 19 9 31 26 39 46" id="aa"/><path fill="#3a414a" d="M106-169C34-169 62-67 57 0H25v-261h32l-1 103c12-21 28-36 61-36 89 0 53 116 60 194h-32v-121c2-32-8-49-39-48" id="ab"/><path fill="#3a414a" d="M100-194c63 0 86 42 84 106H49c0 40 14 67 53 68 26 1 43-12 49-29l28 8c-11 28-37 45-77 45C44 4 14-33 15-96c1-61 26-98 85-98zm52 81c6-60-76-77-97-28-3 7-6 17-6 28h103" id="ac"/><path fill="#3a414a" d="M101-234c-31-9-42 10-38 44h38v23H63V0H32v-167H5v-23h27c-7-52 17-82 69-68v24" id="ad"/><path fill="#3a414a" d="M33-78v-39h34v39H33" id="ae"/><g id="h"><use transform="matrix(0.06172839506172839,0,0,0.06172839506172839,0,0)" xlink:href="#aa"/><use transform="matrix(0.06172839506172839,0,0,0.06172839506172839,15.987654320987653,0)" xlink:href="#ab"/><use transform="matrix(0.06172839506172839,0,0,0.06172839506172839,28.333333333333332,0)" xlink:href="#ac"/><use transform="matrix(0.06172839506172839,0,0,0.06172839506172839,40.67901234567901,0)" xlink:href="#ad"/><use transform="matrix(0.06172839506172839,0,0,0.06172839506172839,46.851851851851855,0)" xlink:href="#ae"/><use transform="matrix(0.06172839506172839,0,0,0.06172839506172839,53.0246913580247,0)" xlink:href="#ad"/><use transform="matrix(0.06172839506172839,0,0,0.06172839506172839,59.19753086419754,0)" xlink:href="#ac"/></g><path d="M205 0l-28-72H64L36 0H1l101-248h38L239 0h-34zm-38-99l-47-123c-12 45-31 82-46 123h93" id="af"/><path d="M101-234c-31-9-42 10-38 44h38v23H63V0H32v-167H5v-23h27c-7-52 17-82 69-68v24" id="ag"/><path d="M24-231v-30h32v30H24zM24 0v-190h32V0H24" id="ah"/><path d="M96-169c-40 0-48 33-48 73s9 75 48 75c24 0 41-14 43-38l32 2c-6 37-31 61-74 61-59 0-76-41-82-99-10-93 101-131 147-64 4 7 5 14 7 22l-32 3c-4-21-16-35-41-35" id="ai"/><path d="M106-169C34-169 62-67 57 0H25v-261h32l-1 103c12-21 28-36 61-36 89 0 53 116 60 194h-32v-121c2-32-8-49-39-48" id="aj"/><path d="M100-194c63 0 86 42 84 106H49c0 40 14 67 53 68 26 1 43-12 49-29l28 8c-11 28-37 45-77 45C44 4 14-33 15-96c1-61 26-98 85-98zm52 81c6-60-76-77-97-28-3 7-6 17-6 28h103" id="ak"/><path d="M114-163C36-179 61-72 57 0H25l-1-190h30c1 12-1 29 2 39 6-27 23-49 58-41v29" id="al"/><g id="i"><use transform="matrix(0.05,0,0,0.05,0,0)" xlink:href="#af"/><use transform="matrix(0.05,0,0,0.05,12,0)" xlink:href="#ag"/><use transform="matrix(0.05,0,0,0.05,16.65,0)" xlink:href="#ag"/><use transform="matrix(0.05,0,0,0.05,21.65,0)" xlink:href="#ah"/><use transform="matrix(0.05,0,0,0.05,25.599999999999998,0)" xlink:href="#ai"/><use transform="matrix(0.05,0,0,0.05,34.599999999999994,0)" xlink:href="#aj"/><use transform="matrix(0.05,0,0,0.05,44.599999999999994,0)" xlink:href="#ak"/><use transform="matrix(0.05,0,0,0.05,54.599999999999994,0)" xlink:href="#al"/></g><path d="M210-169c-67 3-38 105-44 169h-31v-121c0-29-5-50-35-48C34-165 62-65 56 0H25l-1-190h30c1 10-1 24 2 32 10-44 99-50 107 0 11-21 27-35 58-36 85-2 47 119 55 194h-31v-121c0-29-5-49-35-48" id="am"/><path d="M117-194c89-4 53 116 60 194h-32v-121c0-31-8-49-39-48C34-167 62-67 57 0H25l-1-190h30c1 10-1 24 2 32 11-22 29-35 61-36" id="an"/><path d="M84 4C-5 8 30-112 23-190h32v120c0 31 7 50 39 49 72-2 45-101 50-169h31l1 190h-30c-1-10 1-25-2-33-11 22-28 36-60 37" id="ao"/><path d="M135-143c-3-34-86-38-87 0 15 53 115 12 119 90S17 21 10-45l28-5c4 36 97 45 98 0-10-56-113-15-118-90-4-57 82-63 122-42 12 7 21 19 24 35" id="ap"/><g id="j"><use transform="matrix(0.05,0,0,0.05,0,0)" xlink:href="#am"/><use transform="matrix(0.05,0,0,0.05,14.950000000000001,0)" xlink:href="#ak"/><use transform="matrix(0.05,0,0,0.05,24.950000000000003,0)" xlink:href="#an"/><use transform="matrix(0.05,0,0,0.05,34.95,0)" xlink:href="#ao"/><use transform="matrix(0.05,0,0,0.05,44.95,0)" xlink:href="#ap"/></g><path d="M100-194c63 0 86 42 84 106H49c0 40 14 67 53 68 26 1 43-12 49-29l28 8c-11 28-37 45-77 45C44 4 14-33 15-96c1-61 26-98 85-98zm52 81c6-60-76-77-97-28-3 7-6 17-6 28h103zm-74-98c8-23 27-35 38-54h36v5l-58 49H78" id="aq"/><path d="M59-47c-2 24 18 29 38 22v24C64 9 27 4 27-40v-127H5v-23h24l9-43h21v43h35v23H59v120" id="ar"/><g id="k"><use transform="matrix(0.05,0,0,0.05,0,0)" xlink:href="#al"/><use transform="matrix(0.05,0,0,0.05,5.95,0)" xlink:href="#aq"/><use transform="matrix(0.05,0,0,0.05,15.949999999999998,0)" xlink:href="#ai"/><use transform="matrix(0.05,0,0,0.05,24.95,0)" xlink:href="#ak"/><use transform="matrix(0.05,0,0,0.05,34.95,0)" xlink:href="#an"/><use transform="matrix(0.05,0,0,0.05,44.95,0)" xlink:href="#ar"/><use transform="matrix(0.05,0,0,0.05,49.95,0)" xlink:href="#ap"/></g><path d="M212-179c-10-28-35-45-73-45-59 0-87 40-87 99 0 60 29 101 89 101 43 0 62-24 78-52l27 14C228-24 195 4 139 4 59 4 22-46 18-125c-6-104 99-153 187-111 19 9 31 26 39 46" id="as"/><g id="l"><use transform="matrix(0.05,0,0,0.05,0,0)" xlink:href="#as"/><use transform="matrix(0.05,0,0,0.05,12.950000000000001,0)" xlink:href="#al"/><use transform="matrix(0.05,0,0,0.05,18.900000000000002,0)" xlink:href="#ak"/><use transform="matrix(0.05,0,0,0.05,28.900000000000002,0)" xlink:href="#ak"/><use transform="matrix(0.05,0,0,0.05,38.900000000000006,0)" xlink:href="#al"/></g><g id="m"><use transform="matrix(0.05,0,0,0.05,0,0)" xlink:href="#am"/><use transform="matrix(0.05,0,0,0.05,14.950000000000001,0)" xlink:href="#ak"/><use transform="matrix(0.05,0,0,0.05,24.950000000000003,0)" xlink:href="#an"/><use transform="matrix(0.05,0,0,0.05,34.95,0)" xlink:href="#ao"/></g><path d="M85-194c31 0 48 13 60 33l-1-100h32l1 261h-30c-2-10 0-23-3-31C134-8 116 4 85 4 32 4 16-35 15-94c0-66 23-100 70-100zm9 24c-40 0-46 34-46 75 0 40 6 74 45 74 42 0 51-32 51-76 0-42-9-74-50-73" id="at"/><g id="n"><use transform="matrix(0.05,0,0,0.05,0,0)" xlink:href="#at"/><use transform="matrix(0.05,0,0,0.05,10,0)" xlink:href="#ao"/></g><path d="M24-231v-30h32v30H24zM-9 49c24 4 33-6 33-30v-209h32V24c2 40-23 58-65 49V49" id="au"/><path d="M100-194c62-1 85 37 85 99 1 63-27 99-86 99S16-35 15-95c0-66 28-99 85-99zM99-20c44 1 53-31 53-75 0-43-8-75-51-75s-53 32-53 75 10 74 51 75" id="av"/><g id="o"><use transform="matrix(0.05,0,0,0.05,0,0)" xlink:href="#au"/><use transform="matrix(0.05,0,0,0.05,3.95,0)" xlink:href="#av"/><use transform="matrix(0.05,0,0,0.05,13.949999999999998,0)" xlink:href="#ao"/><use transform="matrix(0.05,0,0,0.05,23.95,0)" xlink:href="#al"/></g><path fill="#333" d="M15-91v-56l181-69v40L49-119l147 57v40" id="aw"/><g id="p"><use transform="matrix(0.04938271604938272,0,0,0.04938271604938272,0,0)" xlink:href="#aw"/><use transform="matrix(0.04938271604938272,0,0,0.04938271604938272,10.370370370370372,0)" xlink:href="#aw"/></g><path fill="#333" d="M185-48c-13 30-37 53-82 52C43 2 14-33 14-96s30-98 90-98c62 0 83 45 84 108H66c0 31 8 55 39 56 18 0 30-7 34-22zm-45-69c5-46-57-63-70-21-2 6-4 13-4 21h74" id="ax"/><path fill="#333" d="M144 0l-44-69L55 0H2l70-98-66-92h53l41 62 40-62h54l-67 91 71 99h-54" id="ay"/><path fill="#333" d="M115-3C79 11 28 4 28-45v-112H4v-33h27l15-45h31v45h36v33H77v99c-1 23 16 31 38 25v30" id="az"/><path fill="#333" d="M135-194c87-1 58 113 63 194h-50c-7-57 23-157-34-157-59 0-34 97-39 157H25l-1-190h47c2 12-1 28 3 38 12-26 28-41 61-42" id="aA"/><path fill="#333" d="M88-194c31-1 46 15 58 34l-1-101h50l1 261h-48c-2-10 0-23-3-31C134-8 116 4 84 4 32 4 16-41 15-95c0-56 19-97 73-99zm17 164c33 0 40-30 41-66 1-37-9-64-41-64s-38 30-39 65c0 43 13 65 39 65" id="aB"/><path fill="#333" d="M137-138c1-29-70-34-71-4 15 46 118 7 119 86 1 83-164 76-172 9l43-7c4 19 20 25 44 25 33 8 57-30 24-41C81-84 22-81 20-136c-2-80 154-74 161-7" id="aC"/><g id="q"><use transform="matrix(0.04938271604938272,0,0,0.04938271604938272,0,0)" xlink:href="#ax"/><use transform="matrix(0.04938271604938272,0,0,0.04938271604938272,9.876543209876544,0)" xlink:href="#ay"/><use transform="matrix(0.04938271604938272,0,0,0.04938271604938272,19.75308641975309,0)" xlink:href="#az"/><use transform="matrix(0.04938271604938272,0,0,0.04938271604938272,25.629629629629633,0)" xlink:href="#ax"/><use transform="matrix(0.04938271604938272,0,0,0.04938271604938272,35.50617283950618,0)" xlink:href="#aA"/><use transform="matrix(0.04938271604938272,0,0,0.04938271604938272,46.320987654320994,0)" xlink:href="#aB"/><use transform="matrix(0.04938271604938272,0,0,0.04938271604938272,57.135802469135804,0)" xlink:href="#aC"/></g><path fill="#333" d="M15-22v-40l146-57-146-57v-40l181 69v56" id="aD"/><g id="r"><use transform="matrix(0.04938271604938272,0,0,0.04938271604938272,0,0)" xlink:href="#aD"/><use transform="matrix(0.04938271604938272,0,0,0.04938271604938272,10.370370370370372,0)" xlink:href="#aD"/></g><path d="M137 0h-34L2-248h35l83 218 83-218h36" id="aE"/><path d="M141-36C126-15 110 5 73 4 37 3 15-17 15-53c-1-64 63-63 125-63 3-35-9-54-41-54-24 1-41 7-42 31l-33-3c5-37 33-52 76-52 45 0 72 20 72 64v82c-1 20 7 32 28 27v20c-31 9-61-2-59-35zM48-53c0 20 12 33 32 33 41-3 63-29 60-74-43 2-92-5-92 41" id="aF"/><path d="M24 0v-261h32V0H24" id="aG"/><g id="s"><use transform="matrix(0.05,0,0,0.05,0,0)" xlink:href="#aE"/><use transform="matrix(0.05,0,0,0.05,10.65,0)" xlink:href="#aF"/><use transform="matrix(0.05,0,0,0.05,20.65,0)" xlink:href="#aG"/><use transform="matrix(0.05,0,0,0.05,24.599999999999998,0)" xlink:href="#ah"/><use transform="matrix(0.05,0,0,0.05,28.549999999999997,0)" xlink:href="#at"/><use transform="matrix(0.05,0,0,0.05,38.55,0)" xlink:href="#aF"/><use transform="matrix(0.05,0,0,0.05,48.55,0)" xlink:href="#ar"/><use transform="matrix(0.05,0,0,0.05,53.54999999999999,0)" xlink:href="#ah"/><use transform="matrix(0.05,0,0,0.05,57.5,0)" xlink:href="#av"/><use transform="matrix(0.05,0,0,0.05,67.5,0)" xlink:href="#an"/></g><path fill="#333" d="M25-224v-37h50v37H25zM25 0v-190h50V0H25" id="aH"/><path fill="#333" d="M190-63c-7 42-38 67-86 67-59 0-84-38-90-98-12-110 154-137 174-36l-49 2c-2-19-15-32-35-32-30 0-35 28-38 64-6 74 65 87 74 30" id="aI"/><path fill="#333" d="M25 0v-261h50V0H25" id="aJ"/><path fill="#333" d="M85 4C-2 5 27-109 22-190h50c7 57-23 150 33 157 60-5 35-97 40-157h50l1 190h-47c-2-12 1-28-3-38-12 25-28 42-61 42" id="aK"/><g id="t"><use transform="matrix(0.04938271604938272,0,0,0.04938271604938272,0,0)" xlink:href="#aH"/><use transform="matrix(0.04938271604938272,0,0,0.04938271604938272,4.938271604938272,0)" xlink:href="#aA"/><use transform="matrix(0.04938271604938272,0,0,0.04938271604938272,15.753086419753087,0)" xlink:href="#aI"/><use transform="matrix(0.04938271604938272,0,0,0.04938271604938272,25.629629629629633,0)" xlink:href="#aJ"/><use transform="matrix(0.04938271604938272,0,0,0.04938271604938272,30.567901234567906,0)" xlink:href="#aK"/><use transform="matrix(0.04938271604938272,0,0,0.04938271604938272,41.38271604938272,0)" xlink:href="#aB"/><use transform="matrix(0.04938271604938272,0,0,0.04938271604938272,52.19753086419754,0)" xlink:href="#ax"/></g><path d="M30-248c87 1 191-15 191 75 0 78-77 80-158 76V0H30v-248zm33 125c57 0 124 11 124-50 0-59-68-47-124-48v98" id="aL"/><g id="u"><use transform="matrix(0.05,0,0,0.05,0,0)" xlink:href="#aL"/><use transform="matrix(0.05,0,0,0.05,12,0)" xlink:href="#aG"/><use transform="matrix(0.05,0,0,0.05,15.949999999999998,0)" xlink:href="#aF"/><use transform="matrix(0.05,0,0,0.05,25.950000000000003,0)" xlink:href="#ar"/></g><g id="v"><use transform="matrix(0.05,0,0,0.05,0,0)" xlink:href="#aF"/><use transform="matrix(0.05,0,0,0.05,10,0)" xlink:href="#au"/><use transform="matrix(0.05,0,0,0.05,13.949999999999998,0)" xlink:href="#av"/><use transform="matrix(0.05,0,0,0.05,23.95,0)" xlink:href="#ao"/><use transform="matrix(0.05,0,0,0.05,33.95,0)" xlink:href="#ar"/><use transform="matrix(0.05,0,0,0.05,38.95,0)" xlink:href="#aq"/></g><g id="w"><use transform="matrix(0.05,0,0,0.05,0,0)" xlink:href="#aF"/><use transform="matrix(0.05,0,0,0.05,10,0)" xlink:href="#ao"/></g><g id="x"><use transform="matrix(0.05,0,0,0.05,0,0)" xlink:href="#am"/><use transform="matrix(0.05,0,0,0.05,14.950000000000001,0)" xlink:href="#ak"/><use transform="matrix(0.05,0,0,0.05,24.950000000000003,0)" xlink:href="#an"/><use transform="matrix(0.05,0,0,0.05,34.95,0)" xlink:href="#ao"/></g><path d="M185-189c-5-48-123-54-124 2 14 75 158 14 163 119 3 78-121 87-175 55-17-10-28-26-33-46l33-7c5 56 141 63 141-1 0-78-155-14-162-118-5-82 145-84 179-34 5 7 8 16 11 25" id="aM"/><g id="y"><use transform="matrix(0.05,0,0,0.05,0,0)" xlink:href="#aM"/><use transform="matrix(0.05,0,0,0.05,12,0)" xlink:href="#ak"/><use transform="matrix(0.05,0,0,0.05,22,0)" xlink:href="#aG"/><use transform="matrix(0.05,0,0,0.05,25.950000000000003,0)" xlink:href="#ak"/><use transform="matrix(0.05,0,0,0.05,35.95,0)" xlink:href="#ai"/><use transform="matrix(0.05,0,0,0.05,44.95,0)" xlink:href="#ar"/><use transform="matrix(0.05,0,0,0.05,49.95,0)" xlink:href="#ah"/><use transform="matrix(0.05,0,0,0.05,53.900000000000006,0)" xlink:href="#av"/><use transform="matrix(0.05,0,0,0.05,63.900000000000006,0)" xlink:href="#an"/></g><path d="M115-194c55 1 70 41 70 98S169 2 115 4C84 4 66-9 55-30l1 105H24l-1-265h31l2 30c10-21 28-34 59-34zm-8 174c40 0 45-34 45-75s-6-73-45-74c-42 0-51 32-51 76 0 43 10 73 51 73" id="aN"/><g id="z"><use transform="matrix(0.05,0,0,0.05,0,0)" xlink:href="#aN"/><use transform="matrix(0.05,0,0,0.05,10,0)" xlink:href="#aG"/><use transform="matrix(0.05,0,0,0.05,13.949999999999998,0)" xlink:href="#aF"/><use transform="matrix(0.05,0,0,0.05,23.95,0)" xlink:href="#ar"/></g><g id="A"><use transform="matrix(0.05,0,0,0.05,0,0)" xlink:href="#as"/><use transform="matrix(0.05,0,0,0.05,12.950000000000001,0)" xlink:href="#al"/><use transform="matrix(0.05,0,0,0.05,18.900000000000002,0)" xlink:href="#ak"/><use transform="matrix(0.05,0,0,0.05,28.900000000000002,0)" xlink:href="#ak"/><use transform="matrix(0.05,0,0,0.05,38.900000000000006,0)" xlink:href="#al"/></g><path d="M108 0H70L1-190h34L89-25l56-165h34" id="aO"/><g id="B"><use transform="matrix(0.05,0,0,0.05,0,0)" xlink:href="#an"/><use transform="matrix(0.05,0,0,0.05,10,0)" xlink:href="#av"/><use transform="matrix(0.05,0,0,0.05,20,0)" xlink:href="#ao"/><use transform="matrix(0.05,0,0,0.05,30,0)" xlink:href="#aO"/><use transform="matrix(0.05,0,0,0.05,39,0)" xlink:href="#ak"/><use transform="matrix(0.05,0,0,0.05,49,0)" xlink:href="#aF"/><use transform="matrix(0.05,0,0,0.05,59,0)" xlink:href="#ao"/></g><g id="C"><use transform="matrix(0.05,0,0,0.05,0,0)" xlink:href="#aN"/><use transform="matrix(0.05,0,0,0.05,10,0)" xlink:href="#aG"/><use transform="matrix(0.05,0,0,0.05,13.949999999999998,0)" xlink:href="#aF"/><use transform="matrix(0.05,0,0,0.05,23.95,0)" xlink:href="#ar"/></g><g id="D"><use transform="matrix(0.05,0,0,0.05,0,0)" xlink:href="#aN"/><use transform="matrix(0.05,0,0,0.05,10,0)" xlink:href="#aG"/><use transform="matrix(0.05,0,0,0.05,13.949999999999998,0)" xlink:href="#aF"/><use transform="matrix(0.05,0,0,0.05,23.95,0)" xlink:href="#ar"/></g><path d="M141 0L90-78 38 0H4l68-98-65-92h35l48 74 47-74h35l-64 92 68 98h-35" id="aP"/><g id="E"><use transform="matrix(0.05,0,0,0.05,0,0)" xlink:href="#ak"/><use transform="matrix(0.05,0,0,0.05,10,0)" xlink:href="#aP"/><use transform="matrix(0.05,0,0,0.05,19,0)" xlink:href="#ah"/><use transform="matrix(0.05,0,0,0.05,22.95,0)" xlink:href="#ap"/><use transform="matrix(0.05,0,0,0.05,31.950000000000003,0)" xlink:href="#ar"/><use transform="matrix(0.05,0,0,0.05,36.95,0)" xlink:href="#aF"/><use transform="matrix(0.05,0,0,0.05,46.95,0)" xlink:href="#an"/><use transform="matrix(0.05,0,0,0.05,56.95,0)" xlink:href="#ar"/></g><path d="M24-248c93 1 206-16 204 79-1 75-69 88-152 82V0H24v-248zm52 121c47 0 100 7 100-41 0-47-54-39-100-39v80" id="aQ"/><path d="M110-194c64 0 96 36 96 99 0 64-35 99-97 99-61 0-95-36-95-99 0-62 34-99 96-99zm-1 164c35 0 45-28 45-65 0-40-10-65-43-65-34 0-45 26-45 65 0 36 10 65 43 65" id="aR"/><path d="M25-224v-37h50v37H25zM25 0v-190h50V0H25" id="aS"/><path d="M135-194c87-1 58 113 63 194h-50c-7-57 23-157-34-157-59 0-34 97-39 157H25l-1-190h47c2 12-1 28 3 38 12-26 28-41 61-42" id="aT"/><path d="M115-3C79 11 28 4 28-45v-112H4v-33h27l15-45h31v45h36v33H77v99c-1 23 16 31 38 25v30" id="aU"/><path d="M137-138c1-29-70-34-71-4 15 46 118 7 119 86 1 83-164 76-172 9l43-7c4 19 20 25 44 25 33 8 57-30 24-41C81-84 22-81 20-136c-2-80 154-74 161-7" id="aV"/><g id="G"><use transform="matrix(0.05,0,0,0.05,0,0)" xlink:href="#aQ"/><use transform="matrix(0.05,0,0,0.05,12,0)" xlink:href="#aR"/><use transform="matrix(0.05,0,0,0.05,22.950000000000003,0)" xlink:href="#aS"/><use transform="matrix(0.05,0,0,0.05,27.950000000000003,0)" xlink:href="#aT"/><use transform="matrix(0.05,0,0,0.05,38.900000000000006,0)" xlink:href="#aU"/><use transform="matrix(0.05,0,0,0.05,44.85000000000001,0)" xlink:href="#aV"/></g><path d="M88-194c31-1 46 15 58 34l-1-101h50l1 261h-48c-2-10 0-23-3-31C134-8 116 4 84 4 32 4 16-41 15-95c0-56 19-97 73-99zm17 164c33 0 40-30 41-66 1-37-9-64-41-64s-38 30-39 65c0 43 13 65 39 65" id="aW"/><path d="M62-158H24l-5-90h48" id="aX"/><path d="M185-48c-13 30-37 53-82 52C43 2 14-33 14-96s30-98 90-98c62 0 83 45 84 108H66c0 31 8 55 39 56 18 0 30-7 34-22zm-45-69c5-46-57-63-70-21-2 6-4 13-4 21h74" id="aY"/><path d="M144 0l-44-69L55 0H2l70-98-66-92h53l41 62 40-62h54l-67 91 71 99h-54" id="aZ"/><g id="H"><use transform="matrix(0.05,0,0,0.05,0,0)" xlink:href="#aW"/><use transform="matrix(0.05,0,0,0.05,10.950000000000001,0)" xlink:href="#aX"/><use transform="matrix(0.05,0,0,0.05,15.200000000000001,0)" xlink:href="#aY"/><use transform="matrix(0.05,0,0,0.05,25.200000000000003,0)" xlink:href="#aZ"/><use transform="matrix(0.05,0,0,0.05,35.2,0)" xlink:href="#aU"/><use transform="matrix(0.05,0,0,0.05,41.150000000000006,0)" xlink:href="#aY"/><use transform="matrix(0.05,0,0,0.05,51.150000000000006,0)" xlink:href="#aT"/><use transform="matrix(0.05,0,0,0.05,62.1,0)" xlink:href="#aV"/><use transform="matrix(0.05,0,0,0.05,72.10000000000001,0)" xlink:href="#aS"/><use transform="matrix(0.05,0,0,0.05,77.10000000000001,0)" xlink:href="#aR"/><use transform="matrix(0.05,0,0,0.05,88.05000000000001,0)" xlink:href="#aT"/></g></defs></g></svg>