<svg xmlns="http://www.w3.org/2000/svg" xmlns:xlink="http://www.w3.org/1999/xlink" xmlns:lucid="lucid" width="1800.85" height="1240"><g transform="translate(-32.87962962962962 -80)" lucid:page-tab-id="0_0"><path d="M0 0h1870.87v1322.84H0z" fill="#fff"/><path d="M300 106a6 6 0 0 1 6-6h1208a6 6 0 0 1 6 6v1188a6 6 0 0 1-6 6H306a6 6 0 0 1-6-6z" stroke="#5e5e5e" stroke-width="3" fill-opacity="0"/><use xlink:href="#a" transform="matrix(1,0,0,1,305,105) translate(470.679012345679 17.77777777777778)"/><use xlink:href="#b" transform="matrix(1,0,0,1,305,105) translate(607.5925925925926 17.77777777777778)"/><path d="M139.75 219.75c0 10.9-8.84 19.75-19.75 19.75-10.9 0-19.75-8.84-19.75-19.75 0-10.9 8.84-19.75 19.75-19.75 10.9 0 19.75 8.84 19.75 19.75z" stroke="#5e5e5e" stroke-width="3" fill="#fff"/><path d="M120 239.5v49.3a20.7 20.7 0 0 0 3.2 11.07L160 358m-40-63.2L80 358m0-98.75h80" stroke="#5e5e5e" stroke-width="3" fill="none"/><path d="M80 206a6 6 0 0 1 6-6h68a6 6 0 0 1 6 6v168a6 6 0 0 1-6 6H86a6 6 0 0 1-6-6z" fill="none"/><use xlink:href="#c" transform="matrix(1,0,0,1,0,358) translate(52.87962962962962 19.555555555555557)"/><path d="M530 689.75c0 33.14-35.82 60-80 60s-80-26.86-80-60 35.82-60 80-60 80 26.86 80 60z" stroke="#5e5e5e" stroke-width="3" fill="#fff"/><use xlink:href="#d" transform="matrix(1,0,0,1,370,629.7503201024327) translate(47.659938271604936 63.34444444444445)"/><path d="M160.44 258.65l207.63 430.2" stroke="#5e5e5e" stroke-width="2" fill="none"/><path d="M161.35 258.24l-1.35.65v-1.15h-1.1l-1.1-2.27 1.8-.87zM368.5 689.73v.43l.08 2.06-1.43-2.96 1.4-.67z" stroke="#5e5e5e" stroke-width=".05" fill="#5e5e5e"/><path d="M134.77 1079.25c0 10.9-8.84 19.75-19.75 19.75-10.9 0-19.75-8.84-19.75-19.75 0-10.9 8.84-19.75 19.75-19.75 10.9 0 19.75 8.84 19.75 19.75z" stroke="#5e5e5e" stroke-width="3" fill="#fff"/><path d="M115.02 1099v49.3a20.7 20.7 0 0 0 3.2 11.07l36.8 58.13m-40-63.2l-40 63.2m0-98.75h80" stroke="#5e5e5e" stroke-width="3" fill="none"/><path d="M75.02 1065.5a6 6 0 0 1 6-6h68a6 6 0 0 1 6 6v168a6 6 0 0 1-6 6h-68a6 6 0 0 1-6-6z" fill="none"/><use xlink:href="#e" transform="matrix(1,0,0,1,-4.976940769194286,1217.5006402048655) translate(78.6820987654321 19.555555555555557)"/><path d="M155.47 1116.36l212.58-425.7" stroke="#5e5e5e" stroke-width="2" fill="none"/><path d="M154.58 1120.38l-.26-.13h.32zm1.8-3.6l-1.36 2.7v-2.23h-1.12l.7-1.36zM368.5 689.73v.43l.03.75-1.38-.68 1.42-2.86z" stroke="#5e5e5e" stroke-width=".05" fill="#5e5e5e"/><path d="M530 1119.5c0 33.14-35.82 60-80 60s-80-26.86-80-60 35.82-60 80-60 80 26.86 80 60z" stroke="#5e5e5e" stroke-width="3" fill="#fff"/><use xlink:href="#f" transform="matrix(1,0,0,1,370,1059.5006402048655) translate(34.17969135802469 63.34444444444445)"/><use xlink:href="#g" transform="matrix(1,0,0,1,370,1059.5006402048655) translate(76.2772222222222 63.34444444444445)"/><path d="M530 260c0 33.14-35.82 60-80 60s-80-26.86-80-60 35.82-60 80-60 80 26.86 80 60z" stroke="#5e5e5e" stroke-width="3" fill="#fff"/><use xlink:href="#h" transform="matrix(1,0,0,1,370,200) translate(15.672592592592602 63.34444444444445)"/><use xlink:href="#i" transform="matrix(1,0,0,1,370,200) translate(89.3620987654321 63.34444444444445)"/><path d="M161 257.76L367.5 260" stroke="#5e5e5e" stroke-width="2" fill="none"/><path d="M161.04 256.76l-.03 2h-1v-1h-3v-1.04zM368.53 259l-.03.98v.43l.02.6h-1.06l.03-2z" stroke="#5e5e5e" stroke-width=".05" fill="#5e5e5e"/><path d="M533.5 260c0 .55-.45 1-1 1s-1-.45-1-1 .45-1 1-1 1 .45 1 1zm7.76 0c0 .55-.45 1-1 1s-1-.45-1-1 .45-1 1-1 1 .45 1 1zm7.76 0c0 .55-.44 1-1 1-.55 0-1-.45-1-1s.45-1 1-1c.56 0 1 .45 1 1zm7.76 0c0 .55-.44 1-1 1-.55 0-1-.45-1-1s.45-1 1-1c.56 0 1 .45 1 1zm7.76 0c0 .55-.44 1-1 1-.55 0-1-.45-1-1s.45-1 1-1c.56 0 1 .45 1 1zm7.77 0c0 .55-.44 1-1 1-.54 0-1-.45-1-1s.46-1 1-1c.56 0 1 .45 1 1zm7.77 0c0 .55-.45 1-1 1s-1-.45-1-1 .45-1 1-1 1 .45 1 1zm7.76 0c0 .55-.45 1-1 1s-1-.45-1-1 .45-1 1-1 1 .45 1 1zm7.76 0c0 .55-.46 1-1 1-.56 0-1-.45-1-1s.44-1 1-1c.54 0 1 .45 1 1zm7.75 0c0 .55-.45 1-1 1s-1-.45-1-1 .45-1 1-1 1 .45 1 1zm7.76 0c0 .55-.43 1-1 1-.54 0-1-.45-1-1s.46-1 1-1c.57 0 1 .45 1 1zm7.77 0c0 .55-.44 1-1 1-.55 0-1-.45-1-1s.45-1 1-1c.56 0 1 .45 1 1zm7.77 0c0 .55-.45 1-1 1-.56 0-1-.45-1-1s.44-1 1-1c.55 0 1 .45 1 1zm7.76 0c0 .55-.45 1-1 1s-1-.45-1-1 .45-1 1-1 1 .45 1 1zm7.76 0c0 .55-.45 1-1 1s-1-.45-1-1 .45-1 1-1 1 .45 1 1zm7.76 0c0 .55-.45 1-1 1s-1-.45-1-1 .45-1 1-1 1 .45 1 1z" fill="#5e5e5e"/><path d="M532.53 261h-1.06l.03-.98v-.43l-.02-.6h1.05z" stroke="#5e5e5e" stroke-width=".05" fill="#5e5e5e"/><path d="M639.32 270.18L656.54 260l-17.22-10.18" stroke="#5e5e5e" stroke-width="2" fill="none"/><use xlink:href="#j" transform="matrix(1,0,0,1,542.7962962962963,240) translate(0.005000000000002558 10.666666666666668)"/><use xlink:href="#k" transform="matrix(1,0,0,1,542.7962962962963,240) translate(19.264259259259262 10.666666666666668)"/><use xlink:href="#l" transform="matrix(1,0,0,1,542.7962962962963,240) translate(69.52351851851853 10.666666666666668)"/><path d="M820 260c0 33.14-35.82 60-80 60s-80-26.86-80-60 35.82-60 80-60 80 26.86 80 60z" stroke="#5e5e5e" stroke-width="3" fill="#fff"/><use xlink:href="#m" transform="matrix(1,0,0,1,660,200) translate(26.479382716049386 55.84444444444445)"/><use xlink:href="#n" transform="matrix(1,0,0,1,660,200) translate(65.63987654320988 55.84444444444445)"/><use xlink:href="#o" transform="matrix(1,0,0,1,660,200) translate(106.15592592592591 55.84444444444445)"/><use xlink:href="#p" transform="matrix(1,0,0,1,660,200) translate(47.170432098765424 72.11111111111111)"/><path d="M156.02 1117.26l211.48 2.23" stroke="#5e5e5e" stroke-width="2" fill="none"/><path d="M156.06 1116.26l-.02 2h-1.02v-1h-3v-1.04zM368.53 1118.5l-.03.98v.43l.02.6h-1.06l.03-2z" stroke="#5e5e5e" stroke-width=".05" fill="#5e5e5e"/><path d="M533.04 1118.24l.3.7-.3.72-.7.3-.7-.3-.3-.7.3-.72.7-.3zm6.65-4.4l.28.7-.3.7-.7.3-.7-.3-.3-.7.3-.7.7-.3zm6.64-4.4l.3.7-.3.7-.7.3-.7-.3-.3-.7.3-.7.7-.3zm6.65-4.4l.28.7-.3.7-.7.3-.7-.3-.3-.7.3-.7.7-.3zm6.64-4.4l.3.7-.3.7-.7.3-.7-.3-.3-.7.3-.7.7-.3zm6.65-4.4l.28.7-.3.7-.7.3-.7-.3-.3-.7.3-.7.7-.3zm6.64-4.4l.3.7-.3.7-.7.3-.7-.3-.3-.7.3-.7.7-.3zm6.65-4.4l.28.7-.3.7-.7.3-.7-.3-.3-.7.3-.7.7-.3zm6.64-4.4l.3.7-.3.7-.7.3-.7-.3-.3-.7.3-.7.7-.3zm5.94-2.7l-.3-.13h.6zm27.3-19.32l.3.7-.3.72-.7.3-.7-.3-.3-.7.3-.72.7-.3zm6.66-4.4l.3.7-.3.72-.7.3-.7-.3-.3-.7.3-.72.7-.3zm6.65-4.4l.28.7-.3.7-.7.3-.7-.3-.3-.7.3-.7.7-.3zm6.64-4.4l.3.7-.3.7-.7.3-.7-.3-.3-.7.3-.7.7-.3zm6.65-4.4l.28.7-.3.7-.7.3-.7-.3-.3-.7.3-.7.7-.3zm6.64-4.4l.3.7-.3.7-.7.3-.7-.3-.3-.7.3-.7.7-.3zm6.65-4.4l.28.7-.3.7-.7.3-.7-.3-.3-.7.3-.7.7-.3zm6.64-4.4l.3.7-.3.7-.7.3-.7-.3-.3-.7.3-.7.7-.3zm6.65-4.4l.28.7-.3.7-.7.3-.7-.3-.3-.7.3-.7.7-.3zm6.64-4.4l.3.7-.3.7-.7.3-.7-.3-.3-.7.3-.7.7-.3zm6.65-4.4l.28.7-.3.7-.7.3-.7-.3-.3-.7.3-.7.7-.3zm6.64-4.4l.3.7-.3.7-.7.3-.7-.3-.3-.7.3-.7.7-.3zm6.65-4.4l.28.7-.3.7-.7.3-.7-.3-.3-.7.3-.7.7-.3zm6.64-4.42l.3.7-.3.72-.7.3-.7-.3-.3-.7.3-.72.7-.3zm6.65-4.4l.28.7-.3.72-.7.3-.7-.3-.3-.7.3-.72.7-.3zm6.64-4.4l.3.7-.3.7-.7.3-.7-.3-.3-.7.3-.7.7-.3zm6.65-4.4l.28.7-.3.7-.7.3-.7-.3-.3-.7.3-.7.7-.3zm6.64-4.4l.3.7-.3.7-.7.3-.7-.3-.3-.7.3-.7.7-.3zm6.65-4.4l.28.7-.3.7-.7.3-.7-.3-.3-.7.3-.7.7-.3z" fill="#5e5e5e"/><path d="M532.9 1119.77l-1.44.95.04-1.2v-.43l-.03-.78.33-.22z" fill="#5e5e5e"/><path d="M532.94 1119.78l-1.5 1 .03-1.26v-.43l-.03-.8.37-.23zm-1.45-1.44l.02.75v.42l-.03 1.16 1.37-.92-1.07-1.63zM730.52 1001l-1.8-.86 8-16.47-18.28.93-.1-2 21.66-1.1z" stroke="#5e5e5e" stroke-width=".05" fill="#5e5e5e"/><use xlink:href="#j" transform="matrix(1,0,0,1,560.4091691096501,1064.2122943810123) translate(0.005000000000002558 10.666666666666668)"/><use xlink:href="#k" transform="matrix(1,0,0,1,560.4091691096501,1064.2122943810123) translate(19.264259259259262 10.666666666666668)"/><use xlink:href="#l" transform="matrix(1,0,0,1,560.4091691096501,1064.2122943810123) translate(69.52351851851853 10.666666666666668)"/><path d="M820 920c0 33.14-35.82 60-80 60s-80-26.86-80-60 35.82-60 80-60 80 26.86 80 60z" stroke="#5e5e5e" stroke-width="3" fill="#fff"/><use xlink:href="#q" transform="matrix(1,0,0,1,660,860) translate(21.772592592592588 63.34444444444445)"/><use xlink:href="#g" transform="matrix(1,0,0,1,660,860) translate(88.68432098765433 63.34444444444445)"/><path d="M1759.75 649.75c0 10.9-8.84 19.75-19.75 19.75-10.9 0-19.75-8.84-19.75-19.75 0-10.9 8.84-19.75 19.75-19.75 10.9 0 19.75 8.84 19.75 19.75z" stroke="#5e5e5e" stroke-width="3" fill="#fff"/><path d="M1740 669.5v49.3a20.7 20.7 0 0 0 3.2 11.07L1780 788m-40-63.2l-40 63.2m0-98.75h80" stroke="#5e5e5e" stroke-width="3" fill="none"/><path d="M1700 636a6 6 0 0 1 6-6h68a6 6 0 0 1 6 6v168a6 6 0 0 1-6 6h-68a6 6 0 0 1-6-6z" fill="none"/><use xlink:href="#r" transform="matrix(1,0,0,1,1620,788) translate(54.012345679012356 17.77777777777778)"/><use xlink:href="#s" transform="matrix(1,0,0,1,1620,788) translate(131.7283950617284 17.77777777777778)"/><use xlink:href="#t" transform="matrix(1,0,0,1,1620,788) translate(102.09876543209876 44.44444444444444)"/><path d="M1699.03 688L822.47 919.75" stroke="#5e5e5e" stroke-width="2" fill="none"/><path d="M1703.1 687.75h-3.1v1.03l-.74.2-.5-1.94 3.88-1.02zM822.75 920.7l-1.28.34.03-1.02v-.43l-.03-.63.77-.2z" stroke="#5e5e5e" stroke-width=".05" fill="#5e5e5e"/><path d="M740.7 395.98l.3.7-.3.7-.7.3-.7-.3-.3-.7.3-.7.7-.3zm0-8.25l.3.7-.3.72-.7.3-.7-.3-.3-.7.3-.72.7-.3zm0-8.24l.3.7-.3.7-.7.3-.7-.3-.3-.7.3-.7.7-.3zm0-8.25l.3.7-.3.7-.7.3-.7-.3-.3-.7.3-.7.7-.3zm0-24.73l.3.7-.3.7-.7.3-.7-.3-.3-.7.3-.7.7-.3zm0-8.24l.3.7-.3.7-.7.3-.7-.3-.3-.7.3-.7.7-.3zm0-8.24l.3.7-.3.7-.7.3-.7-.3-.3-.7.3-.7.7-.3zm0-8.25l.3.7-.3.7-.7.3-.7-.3-.3-.7.3-.7.7-.3z" fill="#5e5e5e"/><path d="M739.98 321.5h.95l.07 1.03h-2v-1.06z" fill="#5e5e5e"/><path d="M739.98 321.48h.98l.07 1.07h-2.05v-1.1zm-.96 1.02h1.95l-.06-.98H740l-.96-.02zM751.04 379.83L740 398.5l-11.04-18.67 1.72-1.02 9.32 15.77 9.32-15.76z" stroke="#5e5e5e" stroke-width=".05" fill="#5e5e5e"/><use xlink:href="#j" transform="matrix(1,0,0,1,697.4629629629629,352) translate(0.005000000000002558 10.666666666666668)"/><use xlink:href="#k" transform="matrix(1,0,0,1,697.4629629629629,352) translate(19.264259259259262 10.666666666666668)"/><use xlink:href="#l" transform="matrix(1,0,0,1,697.4629629629629,352) translate(69.52351851851853 10.666666666666668)"/><path d="M820 460c0 33.14-35.82 60-80 60s-80-26.86-80-60 35.82-60 80-60 80 26.86 80 60z" stroke="#5e5e5e" stroke-width="3" fill="#fff"/><use xlink:href="#u" transform="matrix(1,0,0,1,660,400) translate(17.592962962962964 63.34444444444445)"/><use xlink:href="#v" transform="matrix(1,0,0,1,660,400) translate(75.46765432098765 63.34444444444445)"/><path d="M1699.03 687.5L822.47 460.25" stroke="#5e5e5e" stroke-width="2" fill="none"/><path d="M1703.15 687.53l-.05.22h-3.1v1.03l-1.24-.32.5-1.94zM822.74 459.3l-.5 1.93-.77-.2.03-1v-.44l-.03-.64z" stroke="#5e5e5e" stroke-width=".05" fill="#5e5e5e"/><path d="M740.7 625.98l.3.7-.3.7-.7.3-.7-.3-.3-.7.3-.7.7-.3zm0-8.02l.3.7-.3.72-.7.3-.7-.3-.3-.7.3-.72.7-.3zm0-8l.3.7-.3.7-.7.3-.7-.3-.3-.7.3-.7.7-.3zm0-8.03l.3.7-.3.72-.7.3-.7-.3-.3-.7.3-.72.7-.3zm0-8l.3.7-.3.7-.7.3-.7-.3-.3-.7.3-.7.7-.3zm0-8.02l.3.7-.3.72-.7.3-.7-.3-.3-.7.3-.72.7-.3zm0-24.04l.3.7-.3.72-.7.3-.7-.3-.3-.7.3-.72.7-.3zm0-8l.3.7-.3.7-.7.3-.7-.3-.3-.7.3-.7.7-.3zm0-8.02l.3.7-.3.7-.7.3-.7-.3-.3-.7.3-.7.7-.3zm0-8.02l.3.7-.3.72-.7.3-.7-.3-.3-.7.3-.72.7-.3zm0-8l.3.7-.3.7-.7.3-.7-.3-.3-.7.3-.7.7-.3zm0-8.03l.3.7-.3.7-.7.3-.7-.3-.3-.7.3-.7.7-.3z" fill="#5e5e5e"/><path d="M739.98 521.5h.95l.07 1.03h-2v-1.06z" fill="#5e5e5e"/><path d="M739.98 521.48h.98l.07 1.07h-2.05v-1.1zm-.96 1.02h1.95l-.06-.98H740l-.96-.02zM751.04 609.83L740 628.5l-11.04-18.67 1.72-1.02 9.32 15.77 9.32-15.76z" stroke="#5e5e5e" stroke-width=".05" fill="#5e5e5e"/><use xlink:href="#j" transform="matrix(1,0,0,1,697.4629629629629,567) translate(0.005000000000002558 10.666666666666668)"/><use xlink:href="#k" transform="matrix(1,0,0,1,697.4629629629629,567) translate(19.264259259259262 10.666666666666668)"/><use xlink:href="#l" transform="matrix(1,0,0,1,697.4629629629629,567) translate(69.52351851851853 10.666666666666668)"/><path d="M820 690c0 33.14-35.82 60-80 60s-80-26.86-80-60 35.82-60 80-60 80 26.86 80 60z" stroke="#5e5e5e" stroke-width="3" fill="#fff"/><use xlink:href="#h" transform="matrix(1,0,0,1,660,630) translate(15.427839506172853 63.34444444444445)"/><use xlink:href="#w" transform="matrix(1,0,0,1,660,630) translate(89.11734567901235 63.34444444444445)"/><path d="M740.7 848.78l.3.7-.3.7-.7.3-.7-.3-.3-.7.3-.7.7-.3zm0-8l.3.7-.3.7-.7.3-.7-.3-.3-.7.3-.72.7-.3zm0-8.03l.3.7-.3.7-.7.3-.7-.3-.3-.7.3-.7.7-.3zm0-8l.3.7-.3.7-.7.3-.7-.3-.3-.7.3-.7.7-.3zm0-24.05l.3.7-.3.7-.7.3-.7-.3-.3-.7.3-.7.7-.3zm0-8.02l.3.7-.3.72-.7.3-.7-.3-.3-.7.3-.72.7-.3zm0-8l.3.7-.3.7-.7.3-.7-.3-.3-.7.3-.7.7-.3zm0-8.03l.3.7-.3.72-.7.3-.7-.3-.3-.7.3-.72.7-.3zm0-8l.3.7-.3.7-.7.3-.7-.3-.3-.7.3-.7.7-.3zm0-8.02l.3.7-.3.7-.7.3-.7-.3-.3-.7.3-.7.7-.3zm0-8.02l.3.72-.3.7-.7.3-.7-.3-.3-.7.3-.7.7-.3z" fill="#5e5e5e"/><path d="M751.04 770.17l-1.72 1.02-9.32-15.77-9.32 15.76-1.72-1.03L740 751.5z" stroke="#5e5e5e" stroke-width=".05" fill="#5e5e5e"/><path d="M741 858.53l-.98-.03h-.95l-.07-1.03h2z" fill="#5e5e5e"/><path d="M741.02 858.56l-1-.03h-.98l-.07-1.08h2.05zm-2-1.06l.07.98h.92l.96.02v-1z" stroke="#5e5e5e" stroke-width=".05" fill="#5e5e5e"/><g><use xlink:href="#j" transform="matrix(1,0,0,1,697.4629629629629,806.6666666666667) translate(0.005000000000002558 10.666666666666668)"/><use xlink:href="#k" transform="matrix(1,0,0,1,697.4629629629629,806.6666666666667) translate(19.264259259259262 10.666666666666668)"/><use xlink:href="#l" transform="matrix(1,0,0,1,697.4629629629629,806.6666666666667) translate(69.52351851851853 10.666666666666668)"/></g><path d="M823.5 690c0 .55-.45 1-1 1s-1-.45-1-1 .45-1 1-1 1 .45 1 1zm7.76 0c0 .55-.45 1-1 1s-1-.45-1-1 .45-1 1-1 1 .45 1 1zm7.76 0c0 .55-.44 1-1 1-.55 0-1-.45-1-1s.45-1 1-1c.56 0 1 .45 1 1zm7.76 0c0 .55-.44 1-1 1-.55 0-1-.45-1-1s.45-1 1-1c.56 0 1 .45 1 1zm7.76 0c0 .55-.44 1-1 1-.55 0-1-.45-1-1s.45-1 1-1c.56 0 1 .45 1 1zm7.77 0c0 .55-.44 1-1 1-.54 0-1-.45-1-1s.46-1 1-1c.56 0 1 .45 1 1zm7.77 0c0 .55-.45 1-1 1s-1-.45-1-1 .45-1 1-1 1 .45 1 1zm7.76 0c0 .55-.45 1-1 1s-1-.45-1-1 .45-1 1-1 1 .45 1 1zm7.76 0c0 .55-.46 1-1 1-.56 0-1-.45-1-1s.44-1 1-1c.54 0 1 .45 1 1zm7.75 0c0 .55-.45 1-1 1s-1-.45-1-1 .45-1 1-1 1 .45 1 1zm7.76 0c0 .55-.43 1-1 1-.54 0-1-.45-1-1s.46-1 1-1c.57 0 1 .45 1 1zm7.77 0c0 .55-.44 1-1 1-.55 0-1-.45-1-1s.45-1 1-1c.56 0 1 .45 1 1zm7.77 0c0 .55-.45 1-1 1-.56 0-1-.45-1-1s.44-1 1-1c.55 0 1 .45 1 1zm7.76 0c0 .55-.45 1-1 1s-1-.45-1-1 .45-1 1-1 1 .45 1 1zm7.76 0c0 .55-.45 1-1 1s-1-.45-1-1 .45-1 1-1 1 .45 1 1zm7.76 0c0 .55-.45 1-1 1s-1-.45-1-1 .45-1 1-1 1 .45 1 1z" fill="#5e5e5e"/><path d="M822.53 691h-1.06l.03-.98v-.43l-.02-.6h1.05z" stroke="#5e5e5e" stroke-width=".05" fill="#5e5e5e"/><path d="M929.32 700.18L946.54 690l-17.22-10.18" stroke="#5e5e5e" stroke-width="2" fill="none"/><g><use xlink:href="#j" transform="matrix(1,0,0,1,833.462962962963,670) translate(0.005000000000002558 10.666666666666668)"/><use xlink:href="#k" transform="matrix(1,0,0,1,833.462962962963,670) translate(19.264259259259262 10.666666666666668)"/><use xlink:href="#l" transform="matrix(1,0,0,1,833.462962962963,670) translate(69.52351851851853 10.666666666666668)"/></g><path d="M1110 690c0 33.14-35.82 60-80 60s-80-26.86-80-60 35.82-60 80-60 80 26.86 80 60z" stroke="#5e5e5e" stroke-width="3" fill="#fff"/><g><use xlink:href="#x" transform="matrix(1,0,0,1,950,630) translate(19.833395061728403 63.34444444444445)"/><use xlink:href="#y" transform="matrix(1,0,0,1,950,630) translate(52.14080246913581 63.34444444444445)"/><use xlink:href="#z" transform="matrix(1,0,0,1,950,630) translate(63.437098765432104 63.34444444444445)"/><use xlink:href="#A" transform="matrix(1,0,0,1,950,630) translate(89.71981481481481 63.34444444444445)"/><use xlink:href="#B" transform="matrix(1,0,0,1,950,630) translate(108.54697530864198 63.34444444444445)"/></g><path d="M1113.5 690c0 .55-.45 1-1 1s-1-.45-1-1 .45-1 1-1 1 .45 1 1zm7.76-.02c0 .55-.45 1-1 1s-1-.45-1-1 .45-1 1-1 1 .45 1 1zm7.76 0c0 .54-.44 1-1 1-.55 0-1-.46-1-1 0-.57.45-1 1-1 .56 0 1 .43 1 1zm7.76-.03c0 .55-.44 1-1 1-.55 0-1-.45-1-1s.45-1 1-1c.56 0 1 .45 1 1zm7.77 0c0 .54-.45 1-1 1-.56 0-1-.46-1-1 0-.57.44-1 1-1 .55 0 1 .43 1 1zm7.76-.03c0 .55-.44 1-1 1-.54 0-1-.45-1-1s.46-1 1-1c.56 0 1 .45 1 1zm7.77 0c0 .54-.45 1-1 1s-1-.46-1-1c0-.57.45-1 1-1s1 .43 1 1zm7.76-.03c0 .54-.45 1-1 1s-1-.46-1-1c0-.56.45-1 1-1s1 .44 1 1zm7.76-.02c0 .55-.46 1-1 1-.56 0-1-.45-1-1 0-.56.44-1 1-1 .54 0 1 .44 1 1zm7.75-.02c0 .55-.44 1-1 1-.55 0-1-.45-1-1s.45-1 1-1c.56 0 1 .45 1 1zm7.76 0c0 .54-.43 1-1 1-.54 0-1-.46-1-1 0-.57.46-1 1-1 .57 0 1 .43 1 1zm7.78-.03c0 .55-.45 1-1 1-.56 0-1-.45-1-1s.44-1 1-1c.55 0 1 .45 1 1zm7.76 0c0 .54-.45 1-1 1-.56 0-1-.46-1-1 0-.57.44-1 1-1 .55 0 1 .43 1 1zm7.76-.03c0 .55-.45 1-1 1-.56 0-1-.45-1-1s.44-1 1-1c.55 0 1 .45 1 1zm7.76-.02c0 .56-.45 1-1 1s-1-.44-1-1c0-.55.45-1 1-1s1 .45 1 1zm7.76 0c0 .54-.45 1-1 1s-1-.46-1-1c0-.56.45-1 1-1s1 .44 1 1z" fill="#5e5e5e"/><path d="M1112.53 691h-1.06l.03-.98v-.43l-.03-.6h1.05z" stroke="#5e5e5e" stroke-width=".05" fill="#5e5e5e"/><path d="M1219.34 699.97l17.2-10.22-17.24-10.14" stroke="#5e5e5e" stroke-width="2" fill="none"/><g><use xlink:href="#j" transform="matrix(1,0,0,1,1119.6200818814464,669.8963262404118) translate(0.005000000000002558 10.666666666666668)"/><use xlink:href="#C" transform="matrix(1,0,0,1,1119.6200818814464,669.8963262404118) translate(19.264259259259262 10.666666666666668)"/><use xlink:href="#l" transform="matrix(1,0,0,1,1119.6200818814464,669.8963262404118) translate(73.22722222222222 10.666666666666668)"/></g><path d="M1400 689.75c0 33.14-35.82 60-80 60s-80-26.86-80-60 35.82-60 80-60 80 26.86 80 60z" stroke="#5e5e5e" stroke-width="3" fill="#fff"/><g><use xlink:href="#m" transform="matrix(1,0,0,1,1240,629.7503201024327) translate(42.04944444444444 55.84444444444445)"/><use xlink:href="#D" transform="matrix(1,0,0,1,1240,629.7503201024327) translate(81.20993827160493 55.84444444444445)"/><use xlink:href="#E" transform="matrix(1,0,0,1,1240,629.7503201024327) translate(47.170432098765424 72.11111111111111)"/></g><defs><path fill="#333" d="M30 0v-248h187v28H63v79h144v27H63v87h162V0H30" id="F"/><path fill="#333" d="M141 0L90-78 38 0H4l68-98-65-92h35l48 74 47-74h35l-64 92 68 98h-35" id="G"/><path fill="#333" d="M115-194c55 1 70 41 70 98S169 2 115 4C84 4 66-9 55-30l1 105H24l-1-265h31l2 30c10-21 28-34 59-34zm-8 174c40 0 45-34 45-75s-6-73-45-74c-42 0-51 32-51 76 0 43 10 73 51 73" id="H"/><path fill="#333" d="M114-163C36-179 61-72 57 0H25l-1-190h30c1 12-1 29 2 39 6-27 23-49 58-41v29" id="I"/><path fill="#333" d="M100-194c63 0 86 42 84 106H49c0 40 14 67 53 68 26 1 43-12 49-29l28 8c-11 28-37 45-77 45C44 4 14-33 15-96c1-61 26-98 85-98zm52 81c6-60-76-77-97-28-3 7-6 17-6 28h103" id="J"/><path fill="#333" d="M135-143c-3-34-86-38-87 0 15 53 115 12 119 90S17 21 10-45l28-5c4 36 97 45 98 0-10-56-113-15-118-90-4-57 82-63 122-42 12 7 21 19 24 35" id="K"/><path fill="#333" d="M63-220v92h138v28H63V0H30v-248h175v28H63" id="L"/><path fill="#333" d="M100-194c62-1 85 37 85 99 1 63-27 99-86 99S16-35 15-95c0-66 28-99 85-99zM99-20c44 1 53-31 53-75 0-43-8-75-51-75s-53 32-53 75 10 74 51 75" id="M"/><path fill="#333" d="M85-194c31 0 48 13 60 33l-1-100h32l1 261h-30c-2-10 0-23-3-31C134-8 116 4 85 4 32 4 16-35 15-94c0-66 23-100 70-100zm9 24c-40 0-46 34-46 75 0 40 6 74 45 74 42 0 51-32 51-76 0-42-9-74-50-73" id="N"/><g id="a"><use transform="matrix(0.06172839506172839,0,0,0.06172839506172839,0,0)" xlink:href="#F"/><use transform="matrix(0.06172839506172839,0,0,0.06172839506172839,14.814814814814813,0)" xlink:href="#G"/><use transform="matrix(0.06172839506172839,0,0,0.06172839506172839,25.925925925925924,0)" xlink:href="#H"/><use transform="matrix(0.06172839506172839,0,0,0.06172839506172839,38.2716049382716,0)" xlink:href="#I"/><use transform="matrix(0.06172839506172839,0,0,0.06172839506172839,45.61728395061728,0)" xlink:href="#J"/><use transform="matrix(0.06172839506172839,0,0,0.06172839506172839,57.962962962962955,0)" xlink:href="#K"/><use transform="matrix(0.06172839506172839,0,0,0.06172839506172839,69.07407407407406,0)" xlink:href="#K"/><use transform="matrix(0.06172839506172839,0,0,0.06172839506172839,80.18518518518518,0)" xlink:href="#L"/><use transform="matrix(0.06172839506172839,0,0,0.06172839506172839,93.7037037037037,0)" xlink:href="#M"/><use transform="matrix(0.06172839506172839,0,0,0.06172839506172839,106.04938271604938,0)" xlink:href="#M"/><use transform="matrix(0.06172839506172839,0,0,0.06172839506172839,118.39506172839506,0)" xlink:href="#N"/></g><path fill="#333" d="M30-248c118-7 216 8 213 122C240-48 200 0 122 0H30v-248zM63-27c89 8 146-16 146-99s-60-101-146-95v194" id="O"/><path fill="#333" d="M24 0v-261h32V0H24" id="P"/><path fill="#333" d="M24-231v-30h32v30H24zM24 0v-190h32V0H24" id="Q"/><path fill="#333" d="M108 0H70L1-190h34L89-25l56-165h34" id="R"/><path fill="#333" d="M179-190L93 31C79 59 56 82 12 73V49c39 6 53-20 64-50L1-190h34L92-34l54-156h33" id="S"/><g id="b"><use transform="matrix(0.06172839506172839,0,0,0.06172839506172839,0,0)" xlink:href="#M"/><use transform="matrix(0.06172839506172839,0,0,0.06172839506172839,12.345679012345679,0)" xlink:href="#I"/><use transform="matrix(0.06172839506172839,0,0,0.06172839506172839,19.691358024691358,0)" xlink:href="#N"/><use transform="matrix(0.06172839506172839,0,0,0.06172839506172839,32.03703703703704,0)" xlink:href="#J"/><use transform="matrix(0.06172839506172839,0,0,0.06172839506172839,44.382716049382715,0)" xlink:href="#I"/><use transform="matrix(0.06172839506172839,0,0,0.06172839506172839,51.72839506172839,0)" xlink:href="#O"/><use transform="matrix(0.06172839506172839,0,0,0.06172839506172839,67.71604938271605,0)" xlink:href="#J"/><use transform="matrix(0.06172839506172839,0,0,0.06172839506172839,80.06172839506173,0)" xlink:href="#P"/><use transform="matrix(0.06172839506172839,0,0,0.06172839506172839,84.93827160493828,0)" xlink:href="#Q"/><use transform="matrix(0.06172839506172839,0,0,0.06172839506172839,89.81481481481482,0)" xlink:href="#R"/><use transform="matrix(0.06172839506172839,0,0,0.06172839506172839,100.92592592592594,0)" xlink:href="#J"/><use transform="matrix(0.06172839506172839,0,0,0.06172839506172839,113.27160493827162,0)" xlink:href="#I"/><use transform="matrix(0.06172839506172839,0,0,0.06172839506172839,120.6172839506173,0)" xlink:href="#S"/></g><path fill="#3a414a" d="M30 0v-248h33v221h125V0H30" id="T"/><path fill="#3a414a" d="M24-231v-30h32v30H24zM24 0v-190h32V0H24" id="U"/><path fill="#3a414a" d="M108 0H70L1-190h34L89-25l56-165h34" id="V"/><path fill="#3a414a" d="M114-163C36-179 61-72 57 0H25l-1-190h30c1 12-1 29 2 39 6-27 23-49 58-41v29" id="W"/><path fill="#3a414a" d="M100-194c63 0 86 42 84 106H49c0 40 14 67 53 68 26 1 43-12 49-29l28 8c-11 28-37 45-77 45C44 4 14-33 15-96c1-61 26-98 85-98zm52 81c6-60-76-77-97-28-3 7-6 17-6 28h103" id="X"/><path fill="#3a414a" d="M84 4C-5 8 30-112 23-190h32v120c0 31 7 50 39 49 72-2 45-101 50-169h31l1 190h-30c-1-10 1-25-2-33-11 22-28 36-60 37" id="Y"/><path fill="#3a414a" d="M33-78v-39h34v39H33" id="Z"/><path fill="#3a414a" d="M135-143c-3-34-86-38-87 0 15 53 115 12 119 90S17 21 10-45l28-5c4 36 97 45 98 0-10-56-113-15-118-90-4-57 82-63 122-42 12 7 21 19 24 35" id="aa"/><g id="c"><use transform="matrix(0.06790123456790123,0,0,0.06790123456790123,0,0)" xlink:href="#T"/><use transform="matrix(0.06790123456790123,0,0,0.06790123456790123,13.580246913580247,0)" xlink:href="#U"/><use transform="matrix(0.06790123456790123,0,0,0.06790123456790123,18.944444444444443,0)" xlink:href="#V"/><use transform="matrix(0.06790123456790123,0,0,0.06790123456790123,31.166666666666664,0)" xlink:href="#W"/><use transform="matrix(0.06790123456790123,0,0,0.06790123456790123,39.24691358024691,0)" xlink:href="#X"/><use transform="matrix(0.06790123456790123,0,0,0.06790123456790123,52.82716049382716,0)" xlink:href="#Y"/><use transform="matrix(0.06790123456790123,0,0,0.06790123456790123,66.4074074074074,0)" xlink:href="#W"/><use transform="matrix(0.06790123456790123,0,0,0.06790123456790123,74.48765432098764,0)" xlink:href="#Z"/><use transform="matrix(0.06790123456790123,0,0,0.06790123456790123,81.27777777777777,0)" xlink:href="#X"/><use transform="matrix(0.06790123456790123,0,0,0.06790123456790123,94.85802469135803,0)" xlink:href="#Y"/><use transform="matrix(0.06790123456790123,0,0,0.06790123456790123,108.43827160493828,0)" xlink:href="#aa"/><use transform="matrix(0.06790123456790123,0,0,0.06790123456790123,120.66049382716051,0)" xlink:href="#X"/></g><path d="M212-179c-10-28-35-45-73-45-59 0-87 40-87 99 0 60 29 101 89 101 43 0 62-24 78-52l27 14C228-24 195 4 139 4 59 4 22-46 18-125c-6-104 99-153 187-111 19 9 31 26 39 46" id="ab"/><path d="M100-194c62-1 85 37 85 99 1 63-27 99-86 99S16-35 15-95c0-66 28-99 85-99zM99-20c44 1 53-31 53-75 0-43-8-75-51-75s-53 32-53 75 10 74 51 75" id="ac"/><path d="M117-194c89-4 53 116 60 194h-32v-121c0-31-8-49-39-48C34-167 62-67 57 0H25l-1-190h30c1 10-1 24 2 32 11-22 29-35 61-36" id="ad"/><path d="M100-194c63 0 86 42 84 106H49c0 40 14 67 53 68 26 1 43-12 49-29l28 8c-11 28-37 45-77 45C44 4 14-33 15-96c1-61 26-98 85-98zm52 81c6-60-76-77-97-28-3 7-6 17-6 28h103" id="ae"/><path d="M141 0L90-78 38 0H4l68-98-65-92h35l48 74 47-74h35l-64 92 68 98h-35" id="af"/><path d="M24-231v-30h32v30H24zM24 0v-190h32V0H24" id="ag"/><g id="d"><use transform="matrix(0.03765432098765432,0,0,0.03765432098765432,0,0)" xlink:href="#ab"/><use transform="matrix(0.03765432098765432,0,0,0.03765432098765432,9.752469135802468,0)" xlink:href="#ac"/><use transform="matrix(0.03765432098765432,0,0,0.03765432098765432,17.28333333333333,0)" xlink:href="#ad"/><use transform="matrix(0.03765432098765432,0,0,0.03765432098765432,24.814197530864195,0)" xlink:href="#ad"/><use transform="matrix(0.03765432098765432,0,0,0.03765432098765432,32.34506172839506,0)" xlink:href="#ae"/><use transform="matrix(0.03765432098765432,0,0,0.03765432098765432,39.875925925925934,0)" xlink:href="#af"/><use transform="matrix(0.03765432098765432,0,0,0.03765432098765432,46.653703703703705,0)" xlink:href="#ag"/><use transform="matrix(0.03765432098765432,0,0,0.03765432098765432,49.6283950617284,0)" xlink:href="#ac"/><use transform="matrix(0.03765432098765432,0,0,0.03765432098765432,57.15925925925925,0)" xlink:href="#ad"/></g><path fill="#3a414a" d="M212-179c-10-28-35-45-73-45-59 0-87 40-87 99 0 60 29 101 89 101 43 0 62-24 78-52l27 14C228-24 195 4 139 4 59 4 22-46 18-125c-6-104 99-153 187-111 19 9 31 26 39 46" id="ah"/><path fill="#3a414a" d="M24 0v-261h32V0H24" id="ai"/><path fill="#3a414a" d="M117-194c89-4 53 116 60 194h-32v-121c0-31-8-49-39-48C34-167 62-67 57 0H25l-1-190h30c1 10-1 24 2 32 11-22 29-35 61-36" id="aj"/><path fill="#3a414a" d="M59-47c-2 24 18 29 38 22v24C64 9 27 4 27-40v-127H5v-23h24l9-43h21v43h35v23H59v120" id="ak"/><g id="e"><use transform="matrix(0.06790123456790123,0,0,0.06790123456790123,0,0)" xlink:href="#ah"/><use transform="matrix(0.06790123456790123,0,0,0.06790123456790123,17.586419753086417,0)" xlink:href="#ai"/><use transform="matrix(0.06790123456790123,0,0,0.06790123456790123,22.950617283950614,0)" xlink:href="#U"/><use transform="matrix(0.06790123456790123,0,0,0.06790123456790123,28.31481481481481,0)" xlink:href="#X"/><use transform="matrix(0.06790123456790123,0,0,0.06790123456790123,41.895061728395056,0)" xlink:href="#aj"/><use transform="matrix(0.06790123456790123,0,0,0.06790123456790123,55.4753086419753,0)" xlink:href="#ak"/><use transform="matrix(0.06790123456790123,0,0,0.06790123456790123,62.26543209876543,0)" xlink:href="#Z"/><use transform="matrix(0.06790123456790123,0,0,0.06790123456790123,69.05555555555556,0)" xlink:href="#X"/></g><path d="M185-189c-5-48-123-54-124 2 14 75 158 14 163 119 3 78-121 87-175 55-17-10-28-26-33-46l33-7c5 56 141 63 141-1 0-78-155-14-162-118-5-82 145-84 179-34 5 7 8 16 11 25" id="al"/><path d="M84 4C-5 8 30-112 23-190h32v120c0 31 7 50 39 49 72-2 45-101 50-169h31l1 190h-30c-1-10 1-25-2-33-11 22-28 36-60 37" id="am"/><path d="M108 0H70L1-190h34L89-25l56-165h34" id="an"/><path d="M114-163C36-179 61-72 57 0H25l-1-190h30c1 12-1 29 2 39 6-27 23-49 58-41v29" id="ao"/><g id="f"><use transform="matrix(0.03765432098765432,0,0,0.03765432098765432,0,0)" xlink:href="#al"/><use transform="matrix(0.03765432098765432,0,0,0.03765432098765432,9.037037037037036,0)" xlink:href="#am"/><use transform="matrix(0.03765432098765432,0,0,0.03765432098765432,16.5679012345679,0)" xlink:href="#ag"/><use transform="matrix(0.03765432098765432,0,0,0.03765432098765432,19.54259259259259,0)" xlink:href="#an"/><use transform="matrix(0.03765432098765432,0,0,0.03765432098765432,26.32037037037037,0)" xlink:href="#ao"/><use transform="matrix(0.03765432098765432,0,0,0.03765432098765432,30.801234567901233,0)" xlink:href="#ae"/></g><path d="M24 0v-261h32V0H24" id="ap"/><path d="M141-36C126-15 110 5 73 4 37 3 15-17 15-53c-1-64 63-63 125-63 3-35-9-54-41-54-24 1-41 7-42 31l-33-3c5-37 33-52 76-52 45 0 72 20 72 64v82c-1 20 7 32 28 27v20c-31 9-61-2-59-35zM48-53c0 20 12 33 32 33 41-3 63-29 60-74-43 2-92-5-92 41" id="aq"/><path d="M135-143c-3-34-86-38-87 0 15 53 115 12 119 90S17 21 10-45l28-5c4 36 97 45 98 0-10-56-113-15-118-90-4-57 82-63 122-42 12 7 21 19 24 35" id="ar"/><g id="g"><use transform="matrix(0.03765432098765432,0,0,0.03765432098765432,0,0)" xlink:href="#ap"/><use transform="matrix(0.03765432098765432,0,0,0.03765432098765432,2.974691358024691,0)" xlink:href="#ag"/><use transform="matrix(0.03765432098765432,0,0,0.03765432098765432,5.949382716049382,0)" xlink:href="#an"/><use transform="matrix(0.03765432098765432,0,0,0.03765432098765432,12.72716049382716,0)" xlink:href="#ao"/><use transform="matrix(0.03765432098765432,0,0,0.03765432098765432,17.208024691358023,0)" xlink:href="#aq"/><use transform="matrix(0.03765432098765432,0,0,0.03765432098765432,24.738888888888887,0)" xlink:href="#ag"/><use transform="matrix(0.03765432098765432,0,0,0.03765432098765432,27.713580246913576,0)" xlink:href="#ar"/><use transform="matrix(0.03765432098765432,0,0,0.03765432098765432,34.49135802469136,0)" xlink:href="#ac"/><use transform="matrix(0.03765432098765432,0,0,0.03765432098765432,42.022222222222226,0)" xlink:href="#ad"/></g><path d="M210-169c-67 3-38 105-44 169h-31v-121c0-29-5-50-35-48C34-165 62-65 56 0H25l-1-190h30c1 10-1 24 2 32 10-44 99-50 107 0 11-21 27-35 58-36 85-2 47 119 55 194h-31v-121c0-29-5-49-35-48" id="as"/><path d="M85-194c31 0 48 13 60 33l-1-100h32l1 261h-30c-2-10 0-23-3-31C134-8 116 4 85 4 32 4 16-35 15-94c0-66 23-100 70-100zm9 24c-40 0-46 34-46 75 0 40 6 74 45 74 42 0 51-32 51-76 0-42-9-74-50-73" id="at"/><g id="h"><use transform="matrix(0.03765432098765432,0,0,0.03765432098765432,0,0)" xlink:href="#ab"/><use transform="matrix(0.03765432098765432,0,0,0.03765432098765432,9.752469135802468,0)" xlink:href="#ac"/><use transform="matrix(0.03765432098765432,0,0,0.03765432098765432,17.28333333333333,0)" xlink:href="#as"/><use transform="matrix(0.03765432098765432,0,0,0.03765432098765432,28.541975308641973,0)" xlink:href="#as"/><use transform="matrix(0.03765432098765432,0,0,0.03765432098765432,39.800617283950615,0)" xlink:href="#aq"/><use transform="matrix(0.03765432098765432,0,0,0.03765432098765432,47.331481481481475,0)" xlink:href="#ad"/><use transform="matrix(0.03765432098765432,0,0,0.03765432098765432,54.86234567901233,0)" xlink:href="#at"/><use transform="matrix(0.03765432098765432,0,0,0.03765432098765432,62.393209876543196,0)" xlink:href="#ae"/></g><path d="M96-169c-40 0-48 33-48 73s9 75 48 75c24 0 41-14 43-38l32 2c-6 37-31 61-74 61-59 0-76-41-82-99-10-93 101-131 147-64 4 7 5 14 7 22l-32 3c-4-21-16-35-41-35" id="au"/><path d="M115-194c55 1 70 41 70 98S169 2 115 4C84 4 66-9 55-30l1 105H24l-1-265h31l2 30c10-21 28-34 59-34zm-8 174c40 0 45-34 45-75s-6-73-45-74c-42 0-51 32-51 76 0 43 10 73 51 73" id="av"/><path d="M59-47c-2 24 18 29 38 22v24C64 9 27 4 27-40v-127H5v-23h24l9-43h21v43h35v23H59v120" id="aw"/><path d="M100-194c63 0 86 42 84 106H49c0 40 14 67 53 68 26 1 43-12 49-29l28 8c-11 28-37 45-77 45C44 4 14-33 15-96c1-61 26-98 85-98zm52 81c6-60-76-77-97-28-3 7-6 17-6 28h103zm-74-98c8-23 27-35 38-54h36v5l-58 49H78" id="ax"/><g id="i"><use transform="matrix(0.03765432098765432,0,0,0.03765432098765432,0,0)" xlink:href="#aq"/><use transform="matrix(0.03765432098765432,0,0,0.03765432098765432,7.530864197530864,0)" xlink:href="#au"/><use transform="matrix(0.03765432098765432,0,0,0.03765432098765432,14.30864197530864,0)" xlink:href="#au"/><use transform="matrix(0.03765432098765432,0,0,0.03765432098765432,21.086419753086417,0)" xlink:href="#ae"/><use transform="matrix(0.03765432098765432,0,0,0.03765432098765432,28.61728395061728,0)" xlink:href="#av"/><use transform="matrix(0.03765432098765432,0,0,0.03765432098765432,36.148148148148145,0)" xlink:href="#aw"/><use transform="matrix(0.03765432098765432,0,0,0.03765432098765432,39.913580246913575,0)" xlink:href="#ax"/><use transform="matrix(0.03765432098765432,0,0,0.03765432098765432,47.44444444444444,0)" xlink:href="#ae"/></g><path fill="#333" d="M15-91v-56l181-69v40L49-119l147 57v40" id="ay"/><g id="j"><use transform="matrix(0.03703703703703704,0,0,0.03703703703703704,0,0)" xlink:href="#ay"/><use transform="matrix(0.03703703703703704,0,0,0.03703703703703704,7.777777777777779,0)" xlink:href="#ay"/></g><path fill="#333" d="M25-224v-37h50v37H25zM25 0v-190h50V0H25" id="az"/><path fill="#333" d="M135-194c87-1 58 113 63 194h-50c-7-57 23-157-34-157-59 0-34 97-39 157H25l-1-190h47c2 12-1 28 3 38 12-26 28-41 61-42" id="aA"/><path fill="#333" d="M190-63c-7 42-38 67-86 67-59 0-84-38-90-98-12-110 154-137 174-36l-49 2c-2-19-15-32-35-32-30 0-35 28-38 64-6 74 65 87 74 30" id="aB"/><path fill="#333" d="M25 0v-261h50V0H25" id="aC"/><path fill="#333" d="M85 4C-2 5 27-109 22-190h50c7 57-23 150 33 157 60-5 35-97 40-157h50l1 190h-47c-2-12 1-28-3-38-12 25-28 42-61 42" id="aD"/><path fill="#333" d="M88-194c31-1 46 15 58 34l-1-101h50l1 261h-48c-2-10 0-23-3-31C134-8 116 4 84 4 32 4 16-41 15-95c0-56 19-97 73-99zm17 164c33 0 40-30 41-66 1-37-9-64-41-64s-38 30-39 65c0 43 13 65 39 65" id="aE"/><path fill="#333" d="M185-48c-13 30-37 53-82 52C43 2 14-33 14-96s30-98 90-98c62 0 83 45 84 108H66c0 31 8 55 39 56 18 0 30-7 34-22zm-45-69c5-46-57-63-70-21-2 6-4 13-4 21h74" id="aF"/><g id="k"><use transform="matrix(0.03703703703703704,0,0,0.03703703703703704,0,0)" xlink:href="#az"/><use transform="matrix(0.03703703703703704,0,0,0.03703703703703704,3.703703703703704,0)" xlink:href="#aA"/><use transform="matrix(0.03703703703703704,0,0,0.03703703703703704,11.814814814814817,0)" xlink:href="#aB"/><use transform="matrix(0.03703703703703704,0,0,0.03703703703703704,19.222222222222225,0)" xlink:href="#aC"/><use transform="matrix(0.03703703703703704,0,0,0.03703703703703704,22.925925925925927,0)" xlink:href="#aD"/><use transform="matrix(0.03703703703703704,0,0,0.03703703703703704,31.037037037037045,0)" xlink:href="#aE"/><use transform="matrix(0.03703703703703704,0,0,0.03703703703703704,39.14814814814816,0)" xlink:href="#aF"/></g><path fill="#333" d="M15-22v-40l146-57-146-57v-40l181 69v56" id="aG"/><g id="l"><use transform="matrix(0.03703703703703704,0,0,0.03703703703703704,0,0)" xlink:href="#aG"/><use transform="matrix(0.03703703703703704,0,0,0.03703703703703704,7.777777777777779,0)" xlink:href="#aG"/></g><g id="m"><use transform="matrix(0.03765432098765432,0,0,0.03765432098765432,0,0)" xlink:href="#al"/><use transform="matrix(0.03765432098765432,0,0,0.03765432098765432,9.037037037037036,0)" xlink:href="#aw"/><use transform="matrix(0.03765432098765432,0,0,0.03765432098765432,12.802469135802468,0)" xlink:href="#aq"/><use transform="matrix(0.03765432098765432,0,0,0.03765432098765432,20.333333333333332,0)" xlink:href="#aw"/><use transform="matrix(0.03765432098765432,0,0,0.03765432098765432,24.098765432098766,0)" xlink:href="#am"/><use transform="matrix(0.03765432098765432,0,0,0.03765432098765432,31.62962962962963,0)" xlink:href="#aw"/></g><g id="n"><use transform="matrix(0.03765432098765432,0,0,0.03765432098765432,0,0)" xlink:href="#ap"/><use transform="matrix(0.03765432098765432,0,0,0.03765432098765432,2.974691358024691,0)" xlink:href="#ag"/><use transform="matrix(0.03765432098765432,0,0,0.03765432098765432,5.949382716049382,0)" xlink:href="#an"/><use transform="matrix(0.03765432098765432,0,0,0.03765432098765432,12.72716049382716,0)" xlink:href="#ao"/><use transform="matrix(0.03765432098765432,0,0,0.03765432098765432,17.208024691358023,0)" xlink:href="#ae"/><use transform="matrix(0.03765432098765432,0,0,0.03765432098765432,24.738888888888887,0)" xlink:href="#am"/><use transform="matrix(0.03765432098765432,0,0,0.03765432098765432,32.269753086419755,0)" xlink:href="#ao"/></g><path d="M109-170H84l-4-78h32zm-65 0H19l-4-78h33" id="aH"/><g id="o"><use transform="matrix(0.03765432098765432,0,0,0.03765432098765432,0,0)" xlink:href="#aH"/><use transform="matrix(0.03765432098765432,0,0,0.03765432098765432,4.7820987654320986,0)" xlink:href="#ad"/><use transform="matrix(0.03765432098765432,0,0,0.03765432098765432,12.312962962962963,0)" xlink:href="#ac"/><use transform="matrix(0.03765432098765432,0,0,0.03765432098765432,19.843827160493824,0)" xlink:href="#ad"/></g><path d="M115-194c53 0 69 39 70 98 0 66-23 100-70 100C84 3 66-7 56-30L54 0H23l1-261h32v101c10-23 28-34 59-34zm-8 174c40 0 45-34 45-75 0-40-5-75-45-74-42 0-51 32-51 76 0 43 10 73 51 73" id="aI"/><g id="p"><use transform="matrix(0.03765432098765432,0,0,0.03765432098765432,0,0)" xlink:href="#at"/><use transform="matrix(0.03765432098765432,0,0,0.03765432098765432,7.530864197530864,0)" xlink:href="#ag"/><use transform="matrix(0.03765432098765432,0,0,0.03765432098765432,10.505555555555555,0)" xlink:href="#ar"/><use transform="matrix(0.03765432098765432,0,0,0.03765432098765432,17.28333333333333,0)" xlink:href="#av"/><use transform="matrix(0.03765432098765432,0,0,0.03765432098765432,24.814197530864195,0)" xlink:href="#ac"/><use transform="matrix(0.03765432098765432,0,0,0.03765432098765432,32.34506172839506,0)" xlink:href="#ad"/><use transform="matrix(0.03765432098765432,0,0,0.03765432098765432,39.875925925925934,0)" xlink:href="#ag"/><use transform="matrix(0.03765432098765432,0,0,0.03765432098765432,42.85061728395062,0)" xlink:href="#aI"/><use transform="matrix(0.03765432098765432,0,0,0.03765432098765432,50.38148148148149,0)" xlink:href="#ap"/><use transform="matrix(0.03765432098765432,0,0,0.03765432098765432,53.35617283950618,0)" xlink:href="#ae"/><use transform="matrix(0.03765432098765432,0,0,0.03765432098765432,60.88703703703705,0)" xlink:href="#aH"/></g><path d="M30 0v-248h187v28H63v79h144v27H63v87h162V0H30" id="aJ"/><g id="q"><use transform="matrix(0.03765432098765432,0,0,0.03765432098765432,0,0)" xlink:href="#aJ"/><use transform="matrix(0.03765432098765432,0,0,0.03765432098765432,9.037037037037036,0)" xlink:href="#ar"/><use transform="matrix(0.03765432098765432,0,0,0.03765432098765432,15.814814814814813,0)" xlink:href="#aw"/><use transform="matrix(0.03765432098765432,0,0,0.03765432098765432,19.580246913580247,0)" xlink:href="#ag"/><use transform="matrix(0.03765432098765432,0,0,0.03765432098765432,22.55493827160494,0)" xlink:href="#as"/><use transform="matrix(0.03765432098765432,0,0,0.03765432098765432,33.81358024691358,0)" xlink:href="#aq"/><use transform="matrix(0.03765432098765432,0,0,0.03765432098765432,41.34444444444445,0)" xlink:href="#aw"/><use transform="matrix(0.03765432098765432,0,0,0.03765432098765432,45.10987654320988,0)" xlink:href="#ag"/><use transform="matrix(0.03765432098765432,0,0,0.03765432098765432,48.08456790123457,0)" xlink:href="#ac"/><use transform="matrix(0.03765432098765432,0,0,0.03765432098765432,55.61543209876544,0)" xlink:href="#ad"/></g><path fill="#333" d="M143 4C61 4 22-44 18-125c-5-107 100-154 193-111 17 8 29 25 37 43l-32 9c-13-25-37-40-76-40-61 0-88 39-88 99 0 61 29 100 91 101 35 0 62-11 79-27v-45h-74v-28h105v86C228-13 192 4 143 4" id="aK"/><path fill="#333" d="M177-190C167-65 218 103 67 71c-23-6-38-20-44-43l32-5c15 47 100 32 89-28v-30C133-14 115 1 83 1 29 1 15-40 15-95c0-56 16-97 71-98 29-1 48 16 59 35 1-10 0-23 2-32h30zM94-22c36 0 50-32 50-73 0-42-14-75-50-75-39 0-46 34-46 75s6 73 46 73" id="aL"/><g id="r"><use transform="matrix(0.06172839506172839,0,0,0.06172839506172839,0,0)" xlink:href="#aK"/><use transform="matrix(0.06172839506172839,0,0,0.06172839506172839,17.28395061728395,0)" xlink:href="#M"/><use transform="matrix(0.06172839506172839,0,0,0.06172839506172839,29.629629629629626,0)" xlink:href="#M"/><use transform="matrix(0.06172839506172839,0,0,0.06172839506172839,41.9753086419753,0)" xlink:href="#aL"/><use transform="matrix(0.06172839506172839,0,0,0.06172839506172839,54.32098765432098,0)" xlink:href="#P"/><use transform="matrix(0.06172839506172839,0,0,0.06172839506172839,59.197530864197525,0)" xlink:href="#J"/></g><path fill="#333" d="M240 0l2-218c-23 76-54 145-80 218h-23L58-218 59 0H30v-248h44l77 211c21-75 51-140 76-211h43V0h-30" id="aM"/><path fill="#333" d="M141-36C126-15 110 5 73 4 37 3 15-17 15-53c-1-64 63-63 125-63 3-35-9-54-41-54-24 1-41 7-42 31l-33-3c5-37 33-52 76-52 45 0 72 20 72 64v82c-1 20 7 32 28 27v20c-31 9-61-2-59-35zM48-53c0 20 12 33 32 33 41-3 63-29 60-74-43 2-92-5-92 41" id="aN"/><g id="s"><use transform="matrix(0.06172839506172839,0,0,0.06172839506172839,0,0)" xlink:href="#aM"/><use transform="matrix(0.06172839506172839,0,0,0.06172839506172839,18.456790123456788,0)" xlink:href="#aN"/><use transform="matrix(0.06172839506172839,0,0,0.06172839506172839,30.80246913580247,0)" xlink:href="#H"/><use transform="matrix(0.06172839506172839,0,0,0.06172839506172839,43.148148148148145,0)" xlink:href="#K"/></g><path fill="#333" d="M205 0l-28-72H64L36 0H1l101-248h38L239 0h-34zm-38-99l-47-123c-12 45-31 82-46 123h93" id="aO"/><path fill="#333" d="M30-248c87 1 191-15 191 75 0 78-77 80-158 76V0H30v-248zm33 125c57 0 124 11 124-50 0-59-68-47-124-48v98" id="aP"/><path fill="#333" d="M33 0v-248h34V0H33" id="aQ"/><g id="t"><use transform="matrix(0.06172839506172839,0,0,0.06172839506172839,0,0)" xlink:href="#aO"/><use transform="matrix(0.06172839506172839,0,0,0.06172839506172839,14.814814814814813,0)" xlink:href="#aP"/><use transform="matrix(0.06172839506172839,0,0,0.06172839506172839,29.629629629629626,0)" xlink:href="#aQ"/></g><path d="M30 0v-248h33v221h125V0H30" id="aR"/><g id="u"><use transform="matrix(0.03765432098765432,0,0,0.03765432098765432,0,0)" xlink:href="#aR"/><use transform="matrix(0.03765432098765432,0,0,0.03765432098765432,7.530864197530864,0)" xlink:href="#ag"/><use transform="matrix(0.03765432098765432,0,0,0.03765432098765432,10.505555555555555,0)" xlink:href="#an"/><use transform="matrix(0.03765432098765432,0,0,0.03765432098765432,17.28333333333333,0)" xlink:href="#ao"/><use transform="matrix(0.03765432098765432,0,0,0.03765432098765432,21.764197530864195,0)" xlink:href="#aq"/><use transform="matrix(0.03765432098765432,0,0,0.03765432098765432,29.29506172839506,0)" xlink:href="#ag"/><use transform="matrix(0.03765432098765432,0,0,0.03765432098765432,32.26975308641975,0)" xlink:href="#ar"/><use transform="matrix(0.03765432098765432,0,0,0.03765432098765432,39.047530864197526,0)" xlink:href="#ac"/><use transform="matrix(0.03765432098765432,0,0,0.03765432098765432,46.57839506172838,0)" xlink:href="#ad"/></g><g id="v"><use transform="matrix(0.03765432098765432,0,0,0.03765432098765432,0,0)" xlink:href="#au"/><use transform="matrix(0.03765432098765432,0,0,0.03765432098765432,6.777777777777777,0)" xlink:href="#ac"/><use transform="matrix(0.03765432098765432,0,0,0.03765432098765432,14.30864197530864,0)" xlink:href="#as"/><use transform="matrix(0.03765432098765432,0,0,0.03765432098765432,25.56728395061728,0)" xlink:href="#as"/><use transform="matrix(0.03765432098765432,0,0,0.03765432098765432,36.82592592592592,0)" xlink:href="#aq"/><use transform="matrix(0.03765432098765432,0,0,0.03765432098765432,44.35679012345678,0)" xlink:href="#ad"/><use transform="matrix(0.03765432098765432,0,0,0.03765432098765432,51.88765432098765,0)" xlink:href="#at"/><use transform="matrix(0.03765432098765432,0,0,0.03765432098765432,59.41851851851851,0)" xlink:href="#ae"/></g><path d="M101-234c-31-9-42 10-38 44h38v23H63V0H32v-167H5v-23h27c-7-52 17-82 69-68v24" id="aS"/><g id="w"><use transform="matrix(0.03765432098765432,0,0,0.03765432098765432,0,0)" xlink:href="#ae"/><use transform="matrix(0.03765432098765432,0,0,0.03765432098765432,7.530864197530864,0)" xlink:href="#aS"/><use transform="matrix(0.03765432098765432,0,0,0.03765432098765432,11.032716049382715,0)" xlink:href="#aS"/><use transform="matrix(0.03765432098765432,0,0,0.03765432098765432,14.798148148148147,0)" xlink:href="#ae"/><use transform="matrix(0.03765432098765432,0,0,0.03765432098765432,22.32901234567901,0)" xlink:href="#au"/><use transform="matrix(0.03765432098765432,0,0,0.03765432098765432,29.106790123456793,0)" xlink:href="#aw"/><use transform="matrix(0.03765432098765432,0,0,0.03765432098765432,32.87222222222222,0)" xlink:href="#am"/><use transform="matrix(0.03765432098765432,0,0,0.03765432098765432,40.40308641975308,0)" xlink:href="#ax"/><use transform="matrix(0.03765432098765432,0,0,0.03765432098765432,47.93395061728394,0)" xlink:href="#ae"/></g><path d="M240 0l2-218c-23 76-54 145-80 218h-23L58-218 59 0H30v-248h44l77 211c21-75 51-140 76-211h43V0h-30" id="aT"/><g id="x"><use transform="matrix(0.03765432098765432,0,0,0.03765432098765432,0,0)" xlink:href="#aT"/><use transform="matrix(0.03765432098765432,0,0,0.03765432098765432,11.258641975308642,0)" xlink:href="#ag"/><use transform="matrix(0.03765432098765432,0,0,0.03765432098765432,14.233333333333333,0)" xlink:href="#ar"/><use transform="matrix(0.03765432098765432,0,0,0.03765432098765432,21.01111111111111,0)" xlink:href="#ae"/></g><path d="M141-36C126-15 110 5 73 4 37 3 15-17 15-53c-1-64 63-63 125-63 3-35-9-54-41-54-24 1-41 7-42 31l-33-3c5-37 33-52 76-52 45 0 72 20 72 64v82c-1 20 7 32 28 27v20c-31 9-61-2-59-35zM48-53c0 20 12 33 32 33 41-3 63-29 60-74-43 2-92-5-92 41zm62-158l-58-49v-5h36c12 19 30 32 38 54h-16" id="aU"/><use transform="matrix(0.03765432098765432,0,0,0.03765432098765432,0,0)" xlink:href="#aU" id="y"/><path d="M24-231v-30h32v30H24zM-9 49c24 4 33-6 33-30v-209h32V24c2 40-23 58-65 49V49" id="aV"/><g id="z"><use transform="matrix(0.03765432098765432,0,0,0.03765432098765432,0,0)" xlink:href="#aV"/><use transform="matrix(0.03765432098765432,0,0,0.03765432098765432,2.974691358024691,0)" xlink:href="#ac"/><use transform="matrix(0.03765432098765432,0,0,0.03765432098765432,10.505555555555555,0)" xlink:href="#am"/><use transform="matrix(0.03765432098765432,0,0,0.03765432098765432,18.03641975308642,0)" xlink:href="#ao"/></g><g id="A"><use transform="matrix(0.03765432098765432,0,0,0.03765432098765432,0,0)" xlink:href="#at"/><use transform="matrix(0.03765432098765432,0,0,0.03765432098765432,7.530864197530864,0)" xlink:href="#am"/></g><path d="M143 0L79-87 56-68V0H24v-261h32v163l83-92h37l-77 82L181 0h-38" id="aW"/><g id="B"><use transform="matrix(0.03765432098765432,0,0,0.03765432098765432,0,0)" xlink:href="#ar"/><use transform="matrix(0.03765432098765432,0,0,0.03765432098765432,6.777777777777777,0)" xlink:href="#aw"/><use transform="matrix(0.03765432098765432,0,0,0.03765432098765432,10.543209876543209,0)" xlink:href="#ac"/><use transform="matrix(0.03765432098765432,0,0,0.03765432098765432,18.074074074074073,0)" xlink:href="#au"/><use transform="matrix(0.03765432098765432,0,0,0.03765432098765432,24.85185185185185,0)" xlink:href="#aW"/></g><path fill="#333" d="M144 0l-44-69L55 0H2l70-98-66-92h53l41 62 40-62h54l-67 91 71 99h-54" id="aX"/><path fill="#333" d="M115-3C79 11 28 4 28-45v-112H4v-33h27l15-45h31v45h36v33H77v99c-1 23 16 31 38 25v30" id="aY"/><path fill="#333" d="M137-138c1-29-70-34-71-4 15 46 118 7 119 86 1 83-164 76-172 9l43-7c4 19 20 25 44 25 33 8 57-30 24-41C81-84 22-81 20-136c-2-80 154-74 161-7" id="aZ"/><g id="C"><use transform="matrix(0.03703703703703704,0,0,0.03703703703703704,0,0)" xlink:href="#aF"/><use transform="matrix(0.03703703703703704,0,0,0.03703703703703704,7.407407407407408,0)" xlink:href="#aX"/><use transform="matrix(0.03703703703703704,0,0,0.03703703703703704,14.814814814814817,0)" xlink:href="#aY"/><use transform="matrix(0.03703703703703704,0,0,0.03703703703703704,19.222222222222225,0)" xlink:href="#aF"/><use transform="matrix(0.03703703703703704,0,0,0.03703703703703704,26.629629629629633,0)" xlink:href="#aA"/><use transform="matrix(0.03703703703703704,0,0,0.03703703703703704,34.74074074074075,0)" xlink:href="#aE"/><use transform="matrix(0.03703703703703704,0,0,0.03703703703703704,42.85185185185187,0)" xlink:href="#aZ"/></g><g id="D"><use transform="matrix(0.03765432098765432,0,0,0.03765432098765432,0,0)" xlink:href="#ap"/><use transform="matrix(0.03765432098765432,0,0,0.03765432098765432,2.974691358024691,0)" xlink:href="#ag"/><use transform="matrix(0.03765432098765432,0,0,0.03765432098765432,5.949382716049382,0)" xlink:href="#an"/><use transform="matrix(0.03765432098765432,0,0,0.03765432098765432,12.72716049382716,0)" xlink:href="#ao"/><use transform="matrix(0.03765432098765432,0,0,0.03765432098765432,17.208024691358023,0)" xlink:href="#ae"/><use transform="matrix(0.03765432098765432,0,0,0.03765432098765432,24.738888888888887,0)" xlink:href="#am"/><use transform="matrix(0.03765432098765432,0,0,0.03765432098765432,32.269753086419755,0)" xlink:href="#ao"/></g><g id="E"><use transform="matrix(0.03765432098765432,0,0,0.03765432098765432,0,0)" xlink:href="#aH"/><use transform="matrix(0.03765432098765432,0,0,0.03765432098765432,4.7820987654320986,0)" xlink:href="#at"/><use transform="matrix(0.03765432098765432,0,0,0.03765432098765432,12.312962962962963,0)" xlink:href="#ag"/><use transform="matrix(0.03765432098765432,0,0,0.03765432098765432,15.287654320987656,0)" xlink:href="#ar"/><use transform="matrix(0.03765432098765432,0,0,0.03765432098765432,22.06543209876543,0)" xlink:href="#av"/><use transform="matrix(0.03765432098765432,0,0,0.03765432098765432,29.596296296296295,0)" xlink:href="#ac"/><use transform="matrix(0.03765432098765432,0,0,0.03765432098765432,37.12716049382716,0)" xlink:href="#ad"/><use transform="matrix(0.03765432098765432,0,0,0.03765432098765432,44.65802469135802,0)" xlink:href="#ag"/><use transform="matrix(0.03765432098765432,0,0,0.03765432098765432,47.632716049382715,0)" xlink:href="#aI"/><use transform="matrix(0.03765432098765432,0,0,0.03765432098765432,55.16358024691358,0)" xlink:href="#ap"/><use transform="matrix(0.03765432098765432,0,0,0.03765432098765432,58.138271604938275,0)" xlink:href="#ae"/></g></defs></g></svg>